<?xml version="1.0" encoding="UTF-8" standalone="no"?>
<!DOCTYPE svg PUBLIC "-//W3C//DTD SVG 1.1//EN"
 "http://www.w3.org/Graphics/SVG/1.1/DTD/svg11.dtd">
<!-- Generated by graphviz version 2.40.1 (20161225.0304)
 -->
<!-- Title: contributor_role Pages: 1 -->
<svg width="370pt" height="742pt"
 viewBox="0.00 0.00 369.70 742.00" xmlns="http://www.w3.org/2000/svg" xmlns:xlink="http://www.w3.org/1999/xlink">
<g id="graph0" class="graph" transform="scale(1 1) rotate(0) translate(4 738)">
<title>contributor_role</title>
<polygon fill="#ffffff" stroke="transparent" points="-4,4 -4,-738 365.7011,-738 365.7011,4 -4,4"/>
<!-- contributor_role -->
<g id="node1" class="node">
<title>contributor_role</title>
<polygon fill="#efefef" stroke="transparent" points="46,-255.5 46,-290.5 312,-290.5 312,-255.5 46,-255.5"/>
<polygon fill="none" stroke="#000000" points="46,-255.5 46,-290.5 312,-290.5 312,-255.5 46,-255.5"/>
<text text-anchor="start" x="52.7065" y="-268.3" font-family="Arial Bold" font-size="18.00" fill="#000000">contributor_role</text>
<text text-anchor="start" x="177.7255" y="-268.3" font-family="Arial" font-size="14.00" fill="#000000">    </text>
<text text-anchor="start" x="211.9303" y="-268.3" font-family="Arial" font-size="14.00" fill="#666666">[BASE TABLE]</text>
<polygon fill="none" stroke="#000000" points="46,-225.5 46,-255.5 312,-255.5 312,-225.5 46,-225.5"/>
<text text-anchor="start" x="53" y="-236.9" font-family="Arial" font-size="14.00" fill="#000000">id </text>
<text text-anchor="start" x="67.7798" y="-236.9" font-family="Arial" font-size="14.00" fill="#666666">[int(11)]</text>
<polygon fill="none" stroke="#000000" points="46,-195.5 46,-225.5 312,-225.5 312,-195.5 46,-195.5"/>
<text text-anchor="start" x="53" y="-206.9" font-family="Arial" font-size="14.00" fill="#000000">name </text>
<text text-anchor="start" x="91.899" y="-206.9" font-family="Arial" font-size="14.00" fill="#666666">[varchar(191)]</text>
<polygon fill="none" stroke="#000000" points="46,-165.5 46,-195.5 312,-195.5 312,-165.5 46,-165.5"/>
<text text-anchor="start" x="53" y="-176.9" font-family="Arial" font-size="14.00" fill="#000000">label </text>
<text text-anchor="start" x="86.4516" y="-176.9" font-family="Arial" font-size="14.00" fill="#666666">[varchar(200)]</text>
<polygon fill="none" stroke="#000000" points="46,-135.5 46,-165.5 312,-165.5 312,-135.5 46,-135.5"/>
<text text-anchor="start" x="53" y="-146.9" font-family="Arial" font-size="14.00" fill="#000000">description </text>
<text text-anchor="start" x="124.568" y="-146.9" font-family="Arial" font-size="14.00" fill="#666666">[longtext]</text>
<polygon fill="none" stroke="#000000" points="46,-105.5 46,-135.5 312,-135.5 312,-105.5 46,-105.5"/>
<text text-anchor="start" x="53" y="-116.9" font-family="Arial" font-size="14.00" fill="#000000">created </text>
<text text-anchor="start" x="103.5722" y="-116.9" font-family="Arial" font-size="14.00" fill="#666666">[datetime]</text>
<polygon fill="none" stroke="#000000" points="46,-75.5 46,-105.5 312,-105.5 312,-75.5 46,-75.5"/>
<text text-anchor="start" x="53" y="-86.9" font-family="Arial" font-size="14.00" fill="#000000">updated </text>
<text text-anchor="start" x="107.4768" y="-86.9" font-family="Arial" font-size="14.00" fill="#666666">[datetime]</text>
<polygon fill="none" stroke="#000000" points="46,-45.5 46,-75.5 312,-75.5 312,-45.5 46,-45.5"/>
<text text-anchor="start" x="53" y="-56.9" font-family="Arial" font-size="14.00" fill="#000000">relator_term </text>
<text text-anchor="start" x="132.3338" y="-56.9" font-family="Arial" font-size="14.00" fill="#666666">[varchar(10)]</text>
<polygon fill="none" stroke="#000000" stroke-width="3" points="44.5,-44.5 44.5,-292.5 313.5,-292.5 313.5,-44.5 44.5,-44.5"/>
</g>
<!-- contribution -->
<g id="node2" class="node">
<title>contribution</title>
<polygon fill="#efefef" stroke="transparent" points="62,-655.5 62,-690.5 296,-690.5 296,-655.5 62,-655.5"/>
<polygon fill="none" stroke="#000000" points="62,-655.5 62,-690.5 296,-690.5 296,-655.5 62,-655.5"/>
<text text-anchor="start" x="68.7049" y="-668.3" font-family="Arial Bold" font-size="18.00" fill="#000000">contribution</text>
<text text-anchor="start" x="161.7271" y="-668.3" font-family="Arial" font-size="14.00" fill="#000000">    </text>
<text text-anchor="start" x="195.9319" y="-668.3" font-family="Arial" font-size="14.00" fill="#666666">[BASE TABLE]</text>
<polygon fill="none" stroke="#000000" points="62,-625.5 62,-655.5 296,-655.5 296,-625.5 62,-625.5"/>
<text text-anchor="start" x="69" y="-636.9" font-family="Arial" font-size="14.00" fill="#000000">id    </text>
<text text-anchor="start" x="114.094" y="-636.9" font-family="Arial" font-size="14.00" fill="#666666">[int(11)]</text>
<polygon fill="none" stroke="#000000" points="62,-595.5 62,-625.5 296,-625.5 296,-595.5 62,-595.5"/>
<text text-anchor="start" x="69" y="-606.9" font-family="Arial" font-size="14.00" fill="#000000">person_id    </text>
<text text-anchor="start" x="164.6676" y="-606.9" font-family="Arial" font-size="14.00" fill="#666666">[int(11)]</text>
<polygon fill="none" stroke="#000000" points="62,-565.5 62,-595.5 296,-595.5 296,-565.5 62,-565.5"/>
<text text-anchor="start" x="69" y="-576.9" font-family="Arial" font-size="14.00" fill="#000000">contributor_role_id    </text>
<text text-anchor="start" x="219.1136" y="-576.9" font-family="Arial" font-size="14.00" fill="#666666">[int(11)]</text>
<polygon fill="none" stroke="#000000" points="62,-535.5 62,-565.5 296,-565.5 296,-535.5 62,-535.5"/>
<text text-anchor="start" x="69" y="-546.9" font-family="Arial" font-size="14.00" fill="#000000">podcast_id    </text>
<text text-anchor="start" x="170.8976" y="-546.9" font-family="Arial" font-size="14.00" fill="#666666">[int(11)]</text>
<polygon fill="none" stroke="#000000" points="62,-505.5 62,-535.5 296,-535.5 296,-505.5 62,-505.5"/>
<text text-anchor="start" x="69" y="-516.9" font-family="Arial" font-size="14.00" fill="#000000">season_id    </text>
<text text-anchor="start" x="167.007" y="-516.9" font-family="Arial" font-size="14.00" fill="#666666">[int(11)]</text>
<polygon fill="none" stroke="#000000" points="62,-475.5 62,-505.5 296,-505.5 296,-475.5 62,-475.5"/>
<text text-anchor="start" x="69" y="-486.9" font-family="Arial" font-size="14.00" fill="#000000">episode_id    </text>
<text text-anchor="start" x="170.8962" y="-486.9" font-family="Arial" font-size="14.00" fill="#666666">[int(11)]</text>
<polygon fill="none" stroke="#000000" points="62,-445.5 62,-475.5 296,-475.5 296,-445.5 62,-445.5"/>
<text text-anchor="start" x="69" y="-456.9" font-family="Arial" font-size="14.00" fill="#000000">created    </text>
<text text-anchor="start" x="149.8864" y="-456.9" font-family="Arial" font-size="14.00" fill="#666666">[datetime]</text>
<polygon fill="none" stroke="#000000" points="62,-415.5 62,-445.5 296,-445.5 296,-415.5 62,-415.5"/>
<text text-anchor="start" x="69" y="-426.9" font-family="Arial" font-size="14.00" fill="#000000">updated    </text>
<text text-anchor="start" x="153.791" y="-426.9" font-family="Arial" font-size="14.00" fill="#666666">[datetime]</text>
</g>
<!-- contribution&#45;&gt;contributor_role -->
<g id="edge1" class="edge">
<title>contribution:contributor_role_id&#45;&gt;contributor_role:id</title>
<path fill="none" stroke="#000000" d="M305.8296,-578.5033C372.8917,-550.6392 384.2413,-240.5 312,-240.5"/>
<polygon fill="#000000" stroke="#000000" points="305.7999,-578.5093 295.1042,-576.0901 300.8999,-579.5046 296,-580.5 296,-580.5 296,-580.5 300.8999,-579.5046 296.8958,-584.9099 305.7999,-578.5093 305.7999,-578.5093"/>
</g>
</g>
</svg>
