<?xml version="1.0" encoding="UTF-8" standalone="no"?>
<!DOCTYPE svg PUBLIC "-//W3C//DTD SVG 1.1//EN"
 "http://www.w3.org/Graphics/SVG/1.1/DTD/svg11.dtd">
<!-- Generated by graphviz version 12.1.2 (20240928.0832)
 -->
<!-- Title: episode Pages: 1 -->
<svg width="586pt" height="1807pt"
 viewBox="0.00 0.00 586.03 1807.20" xmlns="http://www.w3.org/2000/svg" xmlns:xlink="http://www.w3.org/1999/xlink">
<g id="graph0" class="graph" transform="scale(1 1) rotate(0) translate(4 1803.2)">
<title>episode</title>
<polygon fill="white" stroke="none" points="-4,4 -4,-1803.2 582.03,-1803.2 582.03,4 -4,4"/>
<!-- episode -->
<g id="node1" class="node">
<title>episode</title>
<polygon fill="#efefef" stroke="none" points="188.7,-1313 188.7,-1348.6 382.18,-1348.6 382.18,-1313 188.7,-1313"/>
<polygon fill="none" stroke="black" points="188.7,-1313 188.7,-1348.6 382.18,-1348.6 382.18,-1313 188.7,-1313"/>
<text text-anchor="start" x="195.7" y="-1326.4" font-family="Arial Bold" font-size="18.00">episode</text>
<text text-anchor="start" x="250.69" y="-1326.4" font-family="Arial" font-size="14.00">    </text>
<text text-anchor="start" x="281.8" y="-1326.4" font-family="Arial" font-size="14.00" fill="#666666">[BASE TABLE]</text>
<polygon fill="none" stroke="black" points="188.7,-1282.2 188.7,-1313 382.18,-1313 382.18,-1282.2 188.7,-1282.2"/>
<text text-anchor="start" x="195.7" y="-1294.4" font-family="Arial" font-size="14.00">id </text>
<text text-anchor="start" x="210.49" y="-1294.4" font-family="Arial" font-size="14.00" fill="#666666">[int(11)]</text>
<polygon fill="none" stroke="black" points="188.7,-1251.4 188.7,-1282.2 382.18,-1282.2 382.18,-1251.4 188.7,-1251.4"/>
<text text-anchor="start" x="195.7" y="-1263.6" font-family="Arial" font-size="14.00">season_id </text>
<text text-anchor="start" x="263.42" y="-1263.6" font-family="Arial" font-size="14.00" fill="#666666">[int(11)]</text>
<polygon fill="none" stroke="black" points="188.7,-1220.6 188.7,-1251.4 382.18,-1251.4 382.18,-1220.6 188.7,-1220.6"/>
<text text-anchor="start" x="195.7" y="-1232.8" font-family="Arial" font-size="14.00">podcast_id </text>
<text text-anchor="start" x="267.31" y="-1232.8" font-family="Arial" font-size="14.00" fill="#666666">[int(11)]</text>
<polygon fill="none" stroke="black" points="188.7,-1189.8 188.7,-1220.6 382.18,-1220.6 382.18,-1189.8 188.7,-1189.8"/>
<text text-anchor="start" x="195.7" y="-1202" font-family="Arial" font-size="14.00">number </text>
<text text-anchor="start" x="247.06" y="-1202" font-family="Arial" font-size="14.00" fill="#666666">[double]</text>
<polygon fill="none" stroke="black" points="188.7,-1159 188.7,-1189.8 382.18,-1189.8 382.18,-1159 188.7,-1159"/>
<text text-anchor="start" x="195.7" y="-1171.2" font-family="Arial" font-size="14.00">date </text>
<text text-anchor="start" x="226.84" y="-1171.2" font-family="Arial" font-size="14.00" fill="#666666">[date]</text>
<polygon fill="none" stroke="black" points="188.7,-1128.2 188.7,-1159 382.18,-1159 382.18,-1128.2 188.7,-1128.2"/>
<text text-anchor="start" x="195.7" y="-1140.4" font-family="Arial" font-size="14.00">run_time </text>
<text text-anchor="start" x="254.06" y="-1140.4" font-family="Arial" font-size="14.00" fill="#666666">[varchar(9)]</text>
<polygon fill="none" stroke="black" points="188.7,-1097.4 188.7,-1128.2 382.18,-1128.2 382.18,-1097.4 188.7,-1097.4"/>
<text text-anchor="start" x="195.7" y="-1109.6" font-family="Arial" font-size="14.00">title </text>
<text text-anchor="start" x="221.38" y="-1109.6" font-family="Arial" font-size="14.00" fill="#666666">[varchar(255)]</text>
<polygon fill="none" stroke="black" points="188.7,-1066.6 188.7,-1097.4 382.18,-1097.4 382.18,-1066.6 188.7,-1066.6"/>
<text text-anchor="start" x="195.7" y="-1078.8" font-family="Arial" font-size="14.00">sub_title </text>
<text text-anchor="start" x="251.74" y="-1078.8" font-family="Arial" font-size="14.00" fill="#666666">[varchar(255)]</text>
<polygon fill="none" stroke="black" points="188.7,-1035.8 188.7,-1066.6 382.18,-1066.6 382.18,-1035.8 188.7,-1035.8"/>
<text text-anchor="start" x="195.7" y="-1048" font-family="Arial" font-size="14.00">bibliography </text>
<text text-anchor="start" x="275.09" y="-1048" font-family="Arial" font-size="14.00" fill="#666666">[longtext]</text>
<polygon fill="none" stroke="black" points="188.7,-1005 188.7,-1035.8 382.18,-1035.8 382.18,-1005 188.7,-1005"/>
<text text-anchor="start" x="195.7" y="-1017.2" font-family="Arial" font-size="14.00">transcript </text>
<text text-anchor="start" x="257.16" y="-1017.2" font-family="Arial" font-size="14.00" fill="#666666">[longtext]</text>
<polygon fill="none" stroke="black" points="188.7,-974.2 188.7,-1005 382.18,-1005 382.18,-974.2 188.7,-974.2"/>
<text text-anchor="start" x="195.7" y="-986.4" font-family="Arial" font-size="14.00">description </text>
<text text-anchor="start" x="267.29" y="-986.4" font-family="Arial" font-size="14.00" fill="#666666">[longtext]</text>
<polygon fill="none" stroke="black" points="188.7,-943.4 188.7,-974.2 382.18,-974.2 382.18,-943.4 188.7,-943.4"/>
<text text-anchor="start" x="195.7" y="-955.6" font-family="Arial" font-size="14.00">created </text>
<text text-anchor="start" x="246.29" y="-955.6" font-family="Arial" font-size="14.00" fill="#666666">[datetime]</text>
<polygon fill="none" stroke="black" points="188.7,-912.6 188.7,-943.4 382.18,-943.4 382.18,-912.6 188.7,-912.6"/>
<text text-anchor="start" x="195.7" y="-924.8" font-family="Arial" font-size="14.00">updated </text>
<text text-anchor="start" x="250.2" y="-924.8" font-family="Arial" font-size="14.00" fill="#666666">[datetime]</text>
<polygon fill="none" stroke="black" points="188.7,-881.8 188.7,-912.6 382.18,-912.6 382.18,-881.8 188.7,-881.8"/>
<text text-anchor="start" x="195.7" y="-894" font-family="Arial" font-size="14.00">keywords </text>
<text text-anchor="start" x="258.72" y="-894" font-family="Arial" font-size="14.00" fill="#666666">[longtext]</text>
<polygon fill="none" stroke="black" points="188.7,-851 188.7,-881.8 382.18,-881.8 382.18,-851 188.7,-851"/>
<text text-anchor="start" x="195.7" y="-863.2" font-family="Arial" font-size="14.00">permissions </text>
<text text-anchor="start" x="274.28" y="-863.2" font-family="Arial" font-size="14.00" fill="#666666">[longtext]</text>
<polygon fill="none" stroke="black" points="188.7,-820.2 188.7,-851 382.18,-851 382.18,-820.2 188.7,-820.2"/>
<text text-anchor="start" x="195.7" y="-832.4" font-family="Arial" font-size="14.00">guid </text>
<text text-anchor="start" x="226.06" y="-832.4" font-family="Arial" font-size="14.00" fill="#666666">[varchar(255)]</text>
<polygon fill="none" stroke="black" points="188.7,-789.4 188.7,-820.2 382.18,-820.2 382.18,-789.4 188.7,-789.4"/>
<text text-anchor="start" x="195.7" y="-801.6" font-family="Arial" font-size="14.00">episode_type </text>
<text text-anchor="start" x="282.88" y="-801.6" font-family="Arial" font-size="14.00" fill="#666666">[varchar(255)]</text>
<polygon fill="none" stroke="black" points="188.7,-758.6 188.7,-789.4 382.18,-789.4 382.18,-758.6 188.7,-758.6"/>
<text text-anchor="start" x="195.7" y="-770.8" font-family="Arial" font-size="14.00">explicit </text>
<text text-anchor="start" x="242.38" y="-770.8" font-family="Arial" font-size="14.00" fill="#666666">[tinyint(1)]</text>
<polygon fill="none" stroke="black" points="188.7,-727.8 188.7,-758.6 382.18,-758.6 382.18,-727.8 188.7,-727.8"/>
<text text-anchor="start" x="195.7" y="-740" font-family="Arial" font-size="14.00">status </text>
<text text-anchor="start" x="236.94" y="-740" font-family="Arial" font-size="14.00" fill="#666666">[longtext]</text>
<polygon fill="none" stroke="black" stroke-width="3" points="187.2,-726.3 187.2,-1350.1 383.68,-1350.1 383.68,-726.3 187.2,-726.3"/>
</g>
<!-- season -->
<g id="node3" class="node">
<title>season</title>
<polygon fill="#efefef" stroke="none" points="43.2,-459 43.2,-494.6 229.68,-494.6 229.68,-459 43.2,-459"/>
<polygon fill="none" stroke="black" points="43.2,-459 43.2,-494.6 229.68,-494.6 229.68,-459 43.2,-459"/>
<text text-anchor="start" x="50.2" y="-472.4" font-family="Arial Bold" font-size="18.00">season</text>
<text text-anchor="start" x="98.19" y="-472.4" font-family="Arial" font-size="14.00">    </text>
<text text-anchor="start" x="129.31" y="-472.4" font-family="Arial" font-size="14.00" fill="#666666">[BASE TABLE]</text>
<polygon fill="none" stroke="black" points="43.2,-428.2 43.2,-459 229.68,-459 229.68,-428.2 43.2,-428.2"/>
<text text-anchor="start" x="50.2" y="-440.4" font-family="Arial" font-size="14.00">id </text>
<text text-anchor="start" x="64.99" y="-440.4" font-family="Arial" font-size="14.00" fill="#666666">[int(11)]</text>
<polygon fill="none" stroke="black" points="43.2,-397.4 43.2,-428.2 229.68,-428.2 229.68,-397.4 43.2,-397.4"/>
<text text-anchor="start" x="50.2" y="-409.6" font-family="Arial" font-size="14.00">podcast_id </text>
<text text-anchor="start" x="121.81" y="-409.6" font-family="Arial" font-size="14.00" fill="#666666">[int(11)]</text>
<polygon fill="none" stroke="black" points="43.2,-366.6 43.2,-397.4 229.68,-397.4 229.68,-366.6 43.2,-366.6"/>
<text text-anchor="start" x="50.2" y="-378.8" font-family="Arial" font-size="14.00">publisher_id </text>
<text text-anchor="start" x="129.59" y="-378.8" font-family="Arial" font-size="14.00" fill="#666666">[int(11)]</text>
<polygon fill="none" stroke="black" points="43.2,-335.8 43.2,-366.6 229.68,-366.6 229.68,-335.8 43.2,-335.8"/>
<text text-anchor="start" x="50.2" y="-348" font-family="Arial" font-size="14.00">number </text>
<text text-anchor="start" x="101.56" y="-348" font-family="Arial" font-size="14.00" fill="#666666">[int(11)]</text>
<polygon fill="none" stroke="black" points="43.2,-305 43.2,-335.8 229.68,-335.8 229.68,-305 43.2,-305"/>
<text text-anchor="start" x="50.2" y="-317.2" font-family="Arial" font-size="14.00">title </text>
<text text-anchor="start" x="75.88" y="-317.2" font-family="Arial" font-size="14.00" fill="#666666">[varchar(255)]</text>
<polygon fill="none" stroke="black" points="43.2,-274.2 43.2,-305 229.68,-305 229.68,-274.2 43.2,-274.2"/>
<text text-anchor="start" x="50.2" y="-286.4" font-family="Arial" font-size="14.00">sub_title </text>
<text text-anchor="start" x="106.23" y="-286.4" font-family="Arial" font-size="14.00" fill="#666666">[varchar(255)]</text>
<polygon fill="none" stroke="black" points="43.2,-243.4 43.2,-274.2 229.68,-274.2 229.68,-243.4 43.2,-243.4"/>
<text text-anchor="start" x="50.2" y="-255.6" font-family="Arial" font-size="14.00">description </text>
<text text-anchor="start" x="121.79" y="-255.6" font-family="Arial" font-size="14.00" fill="#666666">[longtext]</text>
<polygon fill="none" stroke="black" points="43.2,-212.6 43.2,-243.4 229.68,-243.4 229.68,-212.6 43.2,-212.6"/>
<text text-anchor="start" x="50.2" y="-224.8" font-family="Arial" font-size="14.00">created </text>
<text text-anchor="start" x="100.79" y="-224.8" font-family="Arial" font-size="14.00" fill="#666666">[datetime]</text>
<polygon fill="none" stroke="black" points="43.2,-181.8 43.2,-212.6 229.68,-212.6 229.68,-181.8 43.2,-181.8"/>
<text text-anchor="start" x="50.2" y="-194" font-family="Arial" font-size="14.00">updated </text>
<text text-anchor="start" x="104.7" y="-194" font-family="Arial" font-size="14.00" fill="#666666">[datetime]</text>
<polygon fill="none" stroke="black" points="43.2,-151 43.2,-181.8 229.68,-181.8 229.68,-151 43.2,-151"/>
<text text-anchor="start" x="50.2" y="-163.2" font-family="Arial" font-size="14.00">status </text>
<text text-anchor="start" x="91.44" y="-163.2" font-family="Arial" font-size="14.00" fill="#666666">[longtext]</text>
</g>
<!-- episode&#45;&gt;season -->
<g id="edge2" class="edge">
<title>episode:season_id&#45;&gt;season:id</title>
<path fill="none" stroke="black" d="M177.3,-1266.62C-66.27,-1257.85 152.99,-935.64 188.7,-681.6 203.65,-575.24 338.09,-443.6 230.68,-443.6"/>
<polygon fill="black" stroke="black" points="177.37,-1266.62 187.29,-1271.29 182.7,-1266.71 187.03,-1266.79 187.03,-1266.79 187.03,-1266.79 182.7,-1266.71 187.45,-1262.29 177.37,-1266.62"/>
</g>
<!-- podcast -->
<g id="node4" class="node">
<title>podcast</title>
<polygon fill="#efefef" stroke="none" points="334.04,-566.8 334.04,-602.4 534.83,-602.4 534.83,-566.8 334.04,-566.8"/>
<polygon fill="none" stroke="black" points="334.04,-566.8 334.04,-602.4 534.83,-602.4 534.83,-566.8 334.04,-566.8"/>
<text text-anchor="start" x="344.7" y="-580.2" font-family="Arial Bold" font-size="18.00">podcast</text>
<text text-anchor="start" x="399.69" y="-580.2" font-family="Arial" font-size="14.00">    </text>
<text text-anchor="start" x="430.8" y="-580.2" font-family="Arial" font-size="14.00" fill="#666666">[BASE TABLE]</text>
<polygon fill="none" stroke="black" points="334.04,-536 334.04,-566.8 534.83,-566.8 534.83,-536 334.04,-536"/>
<text text-anchor="start" x="341.04" y="-548.2" font-family="Arial" font-size="14.00">id </text>
<text text-anchor="start" x="355.83" y="-548.2" font-family="Arial" font-size="14.00" fill="#666666">[int(11)]</text>
<polygon fill="none" stroke="black" points="334.04,-505.2 334.04,-536 534.83,-536 534.83,-505.2 334.04,-505.2"/>
<text text-anchor="start" x="341.04" y="-517.4" font-family="Arial" font-size="14.00">publisher_id </text>
<text text-anchor="start" x="420.43" y="-517.4" font-family="Arial" font-size="14.00" fill="#666666">[int(11)]</text>
<polygon fill="none" stroke="black" points="334.04,-474.4 334.04,-505.2 534.83,-505.2 534.83,-474.4 334.04,-474.4"/>
<text text-anchor="start" x="341.04" y="-486.6" font-family="Arial" font-size="14.00">title </text>
<text text-anchor="start" x="366.72" y="-486.6" font-family="Arial" font-size="14.00" fill="#666666">[varchar(255)]</text>
<polygon fill="none" stroke="black" points="334.04,-443.6 334.04,-474.4 534.83,-474.4 534.83,-443.6 334.04,-443.6"/>
<text text-anchor="start" x="341.04" y="-455.8" font-family="Arial" font-size="14.00">sub_title </text>
<text text-anchor="start" x="397.08" y="-455.8" font-family="Arial" font-size="14.00" fill="#666666">[varchar(255)]</text>
<polygon fill="none" stroke="black" points="334.04,-412.8 334.04,-443.6 534.83,-443.6 534.83,-412.8 334.04,-412.8"/>
<text text-anchor="start" x="341.04" y="-425" font-family="Arial" font-size="14.00">explicit </text>
<text text-anchor="start" x="387.73" y="-425" font-family="Arial" font-size="14.00" fill="#666666">[tinyint(1)]</text>
<polygon fill="none" stroke="black" points="334.04,-382 334.04,-412.8 534.83,-412.8 534.83,-382 334.04,-382"/>
<text text-anchor="start" x="341.04" y="-394.2" font-family="Arial" font-size="14.00">description </text>
<text text-anchor="start" x="412.64" y="-394.2" font-family="Arial" font-size="14.00" fill="#666666">[longtext]</text>
<polygon fill="none" stroke="black" points="334.04,-351.2 334.04,-382 534.83,-382 534.83,-351.2 334.04,-351.2"/>
<text text-anchor="start" x="341.04" y="-363.4" font-family="Arial" font-size="14.00">copyright </text>
<text text-anchor="start" x="401.74" y="-363.4" font-family="Arial" font-size="14.00" fill="#666666">[longtext]</text>
<polygon fill="none" stroke="black" points="334.04,-320.4 334.04,-351.2 534.83,-351.2 534.83,-320.4 334.04,-320.4"/>
<text text-anchor="start" x="341.04" y="-332.6" font-family="Arial" font-size="14.00">website </text>
<text text-anchor="start" x="392.4" y="-332.6" font-family="Arial" font-size="14.00" fill="#666666">[longtext]</text>
<polygon fill="none" stroke="black" points="334.04,-289.6 334.04,-320.4 534.83,-320.4 534.83,-289.6 334.04,-289.6"/>
<text text-anchor="start" x="341.04" y="-301.8" font-family="Arial" font-size="14.00">rss </text>
<text text-anchor="start" x="363.59" y="-301.8" font-family="Arial" font-size="14.00" fill="#666666">[varchar(255)]</text>
<polygon fill="none" stroke="black" points="334.04,-258.8 334.04,-289.6 534.83,-289.6 534.83,-258.8 334.04,-258.8"/>
<text text-anchor="start" x="341.04" y="-271" font-family="Arial" font-size="14.00">created </text>
<text text-anchor="start" x="391.63" y="-271" font-family="Arial" font-size="14.00" fill="#666666">[datetime]</text>
<polygon fill="none" stroke="black" points="334.04,-228 334.04,-258.8 534.83,-258.8 534.83,-228 334.04,-228"/>
<text text-anchor="start" x="341.04" y="-240.2" font-family="Arial" font-size="14.00">updated </text>
<text text-anchor="start" x="395.54" y="-240.2" font-family="Arial" font-size="14.00" fill="#666666">[datetime]</text>
<polygon fill="none" stroke="black" points="334.04,-197.2 334.04,-228 534.83,-228 534.83,-197.2 334.04,-197.2"/>
<text text-anchor="start" x="341.04" y="-209.4" font-family="Arial" font-size="14.00">license </text>
<text text-anchor="start" x="388.51" y="-209.4" font-family="Arial" font-size="14.00" fill="#666666">[longtext]</text>
<polygon fill="none" stroke="black" points="334.04,-166.4 334.04,-197.2 534.83,-197.2 534.83,-166.4 334.04,-166.4"/>
<text text-anchor="start" x="341.04" y="-178.6" font-family="Arial" font-size="14.00">guid </text>
<text text-anchor="start" x="371.4" y="-178.6" font-family="Arial" font-size="14.00" fill="#666666">[varchar(255)]</text>
<polygon fill="none" stroke="black" points="334.04,-135.6 334.04,-166.4 534.83,-166.4 534.83,-135.6 334.04,-135.6"/>
<text text-anchor="start" x="341.04" y="-147.8" font-family="Arial" font-size="14.00">language_code </text>
<text text-anchor="start" x="440.69" y="-147.8" font-family="Arial" font-size="14.00" fill="#666666">[varchar(255)]</text>
<polygon fill="none" stroke="black" points="334.04,-104.8 334.04,-135.6 534.83,-135.6 534.83,-104.8 334.04,-104.8"/>
<text text-anchor="start" x="341.04" y="-117" font-family="Arial" font-size="14.00">categories </text>
<text text-anchor="start" x="409.53" y="-117" font-family="Arial" font-size="14.00" fill="#666666">[longtext]</text>
<polygon fill="none" stroke="black" points="334.04,-74 334.04,-104.8 534.83,-104.8 534.83,-74 334.04,-74"/>
<text text-anchor="start" x="341.04" y="-86.2" font-family="Arial" font-size="14.00">keywords </text>
<text text-anchor="start" x="404.06" y="-86.2" font-family="Arial" font-size="14.00" fill="#666666">[longtext]</text>
<polygon fill="none" stroke="black" points="334.04,-43.2 334.04,-74 534.83,-74 534.83,-43.2 334.04,-43.2"/>
<text text-anchor="start" x="341.04" y="-55.4" font-family="Arial" font-size="14.00">status </text>
<text text-anchor="start" x="382.28" y="-55.4" font-family="Arial" font-size="14.00" fill="#666666">[longtext]</text>
</g>
<!-- episode&#45;&gt;podcast -->
<g id="edge3" class="edge">
<title>episode:podcast_id&#45;&gt;podcast:id</title>
<path fill="none" stroke="black" d="M393.41,-1235.8C625.71,-1226.56 491.15,-898.7 382.18,-681.6 370.19,-657.73 346.13,-669.42 334.04,-645.6 315.1,-608.26 291.17,-551.4 333.04,-551.4"/>
<polygon fill="black" stroke="black" points="393.51,-1235.8 383.42,-1231.49 388.17,-1235.9 383.84,-1235.99 383.84,-1235.99 383.84,-1235.99 388.17,-1235.9 383.6,-1240.49 393.51,-1235.8"/>
</g>
<!-- contribution -->
<g id="node2" class="node">
<title>contribution</title>
<polygon fill="#efefef" stroke="none" points="172.2,-1720.4 172.2,-1756 398.68,-1756 398.68,-1720.4 172.2,-1720.4"/>
<polygon fill="none" stroke="black" points="172.2,-1720.4 172.2,-1756 398.68,-1756 398.68,-1720.4 172.2,-1720.4"/>
<text text-anchor="start" x="179.2" y="-1733.8" font-family="Arial Bold" font-size="18.00">contribution</text>
<text text-anchor="start" x="267.19" y="-1733.8" font-family="Arial" font-size="14.00">    </text>
<text text-anchor="start" x="298.3" y="-1733.8" font-family="Arial" font-size="14.00" fill="#666666">[BASE TABLE]</text>
<polygon fill="none" stroke="black" points="172.2,-1689.6 172.2,-1720.4 398.68,-1720.4 398.68,-1689.6 172.2,-1689.6"/>
<text text-anchor="start" x="179.2" y="-1701.8" font-family="Arial" font-size="14.00">id </text>
<text text-anchor="start" x="193.99" y="-1701.8" font-family="Arial" font-size="14.00" fill="#666666">[int(11)]</text>
<polygon fill="none" stroke="black" points="172.2,-1658.8 172.2,-1689.6 398.68,-1689.6 398.68,-1658.8 172.2,-1658.8"/>
<text text-anchor="start" x="179.2" y="-1671" font-family="Arial" font-size="14.00">person_id </text>
<text text-anchor="start" x="244.58" y="-1671" font-family="Arial" font-size="14.00" fill="#666666">[int(11)]</text>
<polygon fill="none" stroke="black" points="172.2,-1628 172.2,-1658.8 398.68,-1658.8 398.68,-1628 172.2,-1628"/>
<text text-anchor="start" x="179.2" y="-1640.2" font-family="Arial" font-size="14.00">podcast_id </text>
<text text-anchor="start" x="250.81" y="-1640.2" font-family="Arial" font-size="14.00" fill="#666666">[int(11)]</text>
<polygon fill="none" stroke="black" points="172.2,-1597.2 172.2,-1628 398.68,-1628 398.68,-1597.2 172.2,-1597.2"/>
<text text-anchor="start" x="179.2" y="-1609.4" font-family="Arial" font-size="14.00">season_id </text>
<text text-anchor="start" x="246.92" y="-1609.4" font-family="Arial" font-size="14.00" fill="#666666">[int(11)]</text>
<polygon fill="none" stroke="black" points="172.2,-1566.4 172.2,-1597.2 398.68,-1597.2 398.68,-1566.4 172.2,-1566.4"/>
<text text-anchor="start" x="179.2" y="-1578.6" font-family="Arial" font-size="14.00">episode_id </text>
<text text-anchor="start" x="250.81" y="-1578.6" font-family="Arial" font-size="14.00" fill="#666666">[int(11)]</text>
<polygon fill="none" stroke="black" points="172.2,-1535.6 172.2,-1566.4 398.68,-1566.4 398.68,-1535.6 172.2,-1535.6"/>
<text text-anchor="start" x="179.2" y="-1547.8" font-family="Arial" font-size="14.00">created </text>
<text text-anchor="start" x="229.79" y="-1547.8" font-family="Arial" font-size="14.00" fill="#666666">[datetime]</text>
<polygon fill="none" stroke="black" points="172.2,-1504.8 172.2,-1535.6 398.68,-1535.6 398.68,-1504.8 172.2,-1504.8"/>
<text text-anchor="start" x="179.2" y="-1517" font-family="Arial" font-size="14.00">updated </text>
<text text-anchor="start" x="233.7" y="-1517" font-family="Arial" font-size="14.00" fill="#666666">[datetime]</text>
<polygon fill="none" stroke="black" points="172.2,-1474 172.2,-1504.8 398.68,-1504.8 398.68,-1474 172.2,-1474"/>
<text text-anchor="start" x="179.2" y="-1486.2" font-family="Arial" font-size="14.00">roles </text>
<text text-anchor="start" x="213.43" y="-1486.2" font-family="Arial" font-size="14.00" fill="#666666">[longtext]</text>
</g>
<!-- contribution&#45;&gt;episode -->
<g id="edge1" class="edge">
<title>contribution:episode_id&#45;&gt;episode:id</title>
<path fill="none" stroke="black" d="M410.08,-1581.13C525.18,-1565.93 506.12,-1297.6 383.18,-1297.6"/>
<polygon fill="black" stroke="black" points="409.99,-1581.14 399.72,-1577.29 404.67,-1581.48 400.34,-1581.76 400.34,-1581.76 400.34,-1581.76 404.67,-1581.48 400.3,-1586.27 409.99,-1581.14"/>
</g>
</g>
</svg>
