<?xml version="1.0" encoding="UTF-8" standalone="no"?>
<!DOCTYPE svg PUBLIC "-//W3C//DTD SVG 1.1//EN"
 "http://www.w3.org/Graphics/SVG/1.1/DTD/svg11.dtd">
<!-- Generated by graphviz version 2.40.1 (20161225.0304)
 -->
<!-- Title: episode Pages: 1 -->
<svg width="628pt" height="1769pt"
 viewBox="0.00 0.00 628.00 1769.00" xmlns="http://www.w3.org/2000/svg" xmlns:xlink="http://www.w3.org/1999/xlink">
<g id="graph0" class="graph" transform="scale(1 1) rotate(0) translate(4 1765)">
<title>episode</title>
<polygon fill="#ffffff" stroke="transparent" points="-4,4 -4,-1765 624,-1765 624,4 -4,4"/>
<!-- episode -->
<g id="node1" class="node">
<title>episode</title>
<polygon fill="#efefef" stroke="transparent" points="200.5,-1282.5 200.5,-1317.5 404.5,-1317.5 404.5,-1282.5 200.5,-1282.5"/>
<polygon fill="none" stroke="#000000" points="200.5,-1282.5 200.5,-1317.5 404.5,-1317.5 404.5,-1282.5 200.5,-1282.5"/>
<text text-anchor="start" x="207.2034" y="-1295.3" font-family="Arial Bold" font-size="18.00" fill="#000000">episode</text>
<text text-anchor="start" x="270.2286" y="-1295.3" font-family="Arial" font-size="14.00" fill="#000000">    </text>
<text text-anchor="start" x="304.4334" y="-1295.3" font-family="Arial" font-size="14.00" fill="#666666">[BASE TABLE]</text>
<polygon fill="none" stroke="#000000" points="200.5,-1252.5 200.5,-1282.5 404.5,-1282.5 404.5,-1252.5 200.5,-1252.5"/>
<text text-anchor="start" x="207.5" y="-1263.9" font-family="Arial" font-size="14.00" fill="#000000">id </text>
<text text-anchor="start" x="222.2798" y="-1263.9" font-family="Arial" font-size="14.00" fill="#666666">[int(11)]</text>
<polygon fill="none" stroke="#000000" points="200.5,-1222.5 200.5,-1252.5 404.5,-1252.5 404.5,-1222.5 200.5,-1222.5"/>
<text text-anchor="start" x="207.5" y="-1233.9" font-family="Arial" font-size="14.00" fill="#000000">season_id </text>
<text text-anchor="start" x="275.1928" y="-1233.9" font-family="Arial" font-size="14.00" fill="#666666">[int(11)]</text>
<polygon fill="none" stroke="#000000" points="200.5,-1192.5 200.5,-1222.5 404.5,-1222.5 404.5,-1192.5 200.5,-1192.5"/>
<text text-anchor="start" x="207.5" y="-1203.9" font-family="Arial" font-size="14.00" fill="#000000">podcast_id </text>
<text text-anchor="start" x="279.0834" y="-1203.9" font-family="Arial" font-size="14.00" fill="#666666">[int(11)]</text>
<polygon fill="none" stroke="#000000" points="200.5,-1162.5 200.5,-1192.5 404.5,-1192.5 404.5,-1162.5 200.5,-1162.5"/>
<text text-anchor="start" x="207.5" y="-1173.9" font-family="Arial" font-size="14.00" fill="#000000">number </text>
<text text-anchor="start" x="258.8422" y="-1173.9" font-family="Arial" font-size="14.00" fill="#666666">[int(11)]</text>
<polygon fill="none" stroke="#000000" points="200.5,-1132.5 200.5,-1162.5 404.5,-1162.5 404.5,-1132.5 200.5,-1132.5"/>
<text text-anchor="start" x="207.5" y="-1143.9" font-family="Arial" font-size="14.00" fill="#000000">date </text>
<text text-anchor="start" x="238.629" y="-1143.9" font-family="Arial" font-size="14.00" fill="#666666">[date]</text>
<polygon fill="none" stroke="#000000" points="200.5,-1102.5 200.5,-1132.5 404.5,-1132.5 404.5,-1102.5 200.5,-1102.5"/>
<text text-anchor="start" x="207.5" y="-1113.9" font-family="Arial" font-size="14.00" fill="#000000">run_time </text>
<text text-anchor="start" x="265.8394" y="-1113.9" font-family="Arial" font-size="14.00" fill="#666666">[varchar(9)]</text>
<polygon fill="none" stroke="#000000" points="200.5,-1072.5 200.5,-1102.5 404.5,-1102.5 404.5,-1072.5 200.5,-1072.5"/>
<text text-anchor="start" x="207.5" y="-1083.9" font-family="Arial" font-size="14.00" fill="#000000">title </text>
<text text-anchor="start" x="233.1676" y="-1083.9" font-family="Arial" font-size="14.00" fill="#666666">[varchar(255)]</text>
<polygon fill="none" stroke="#000000" points="200.5,-1042.5 200.5,-1072.5 404.5,-1072.5 404.5,-1042.5 200.5,-1042.5"/>
<text text-anchor="start" x="207.5" y="-1053.9" font-family="Arial" font-size="14.00" fill="#000000">sub_title </text>
<text text-anchor="start" x="263.5154" y="-1053.9" font-family="Arial" font-size="14.00" fill="#666666">[varchar(255)]</text>
<polygon fill="none" stroke="#000000" points="200.5,-1012.5 200.5,-1042.5 404.5,-1042.5 404.5,-1012.5 200.5,-1012.5"/>
<text text-anchor="start" x="207.5" y="-1023.9" font-family="Arial" font-size="14.00" fill="#000000">bibliography </text>
<text text-anchor="start" x="286.8492" y="-1023.9" font-family="Arial" font-size="14.00" fill="#666666">[longtext]</text>
<polygon fill="none" stroke="#000000" points="200.5,-982.5 200.5,-1012.5 404.5,-1012.5 404.5,-982.5 200.5,-982.5"/>
<text text-anchor="start" x="207.5" y="-993.9" font-family="Arial" font-size="14.00" fill="#000000">transcript </text>
<text text-anchor="start" x="268.9474" y="-993.9" font-family="Arial" font-size="14.00" fill="#666666">[longtext]</text>
<polygon fill="none" stroke="#000000" points="200.5,-952.5 200.5,-982.5 404.5,-982.5 404.5,-952.5 200.5,-952.5"/>
<text text-anchor="start" x="207.5" y="-963.9" font-family="Arial" font-size="14.00" fill="#000000">description </text>
<text text-anchor="start" x="279.068" y="-963.9" font-family="Arial" font-size="14.00" fill="#666666">[longtext]</text>
<polygon fill="none" stroke="#000000" points="200.5,-922.5 200.5,-952.5 404.5,-952.5 404.5,-922.5 200.5,-922.5"/>
<text text-anchor="start" x="207.5" y="-933.9" font-family="Arial" font-size="14.00" fill="#000000">created </text>
<text text-anchor="start" x="258.0722" y="-933.9" font-family="Arial" font-size="14.00" fill="#666666">[datetime]</text>
<polygon fill="none" stroke="#000000" points="200.5,-892.5 200.5,-922.5 404.5,-922.5 404.5,-892.5 200.5,-892.5"/>
<text text-anchor="start" x="207.5" y="-903.9" font-family="Arial" font-size="14.00" fill="#000000">updated </text>
<text text-anchor="start" x="261.9768" y="-903.9" font-family="Arial" font-size="14.00" fill="#666666">[datetime]</text>
<polygon fill="none" stroke="#000000" points="200.5,-862.5 200.5,-892.5 404.5,-892.5 404.5,-862.5 200.5,-862.5"/>
<text text-anchor="start" x="207.5" y="-873.9" font-family="Arial" font-size="14.00" fill="#000000">keywords </text>
<text text-anchor="start" x="270.5056" y="-873.9" font-family="Arial" font-size="14.00" fill="#666666">[longtext]</text>
<polygon fill="none" stroke="#000000" points="200.5,-832.5 200.5,-862.5 404.5,-862.5 404.5,-832.5 200.5,-832.5"/>
<text text-anchor="start" x="207.5" y="-843.9" font-family="Arial" font-size="14.00" fill="#000000">permissions </text>
<text text-anchor="start" x="286.0554" y="-843.9" font-family="Arial" font-size="14.00" fill="#666666">[longtext]</text>
<polygon fill="none" stroke="#000000" points="200.5,-802.5 200.5,-832.5 404.5,-832.5 404.5,-802.5 200.5,-802.5"/>
<text text-anchor="start" x="207.5" y="-813.9" font-family="Arial" font-size="14.00" fill="#000000">guid </text>
<text text-anchor="start" x="237.845" y="-813.9" font-family="Arial" font-size="14.00" fill="#666666">[varchar(255)]</text>
<polygon fill="none" stroke="#000000" points="200.5,-772.5 200.5,-802.5 404.5,-802.5 404.5,-772.5 200.5,-772.5"/>
<text text-anchor="start" x="207.5" y="-783.9" font-family="Arial" font-size="14.00" fill="#000000">episode_type </text>
<text text-anchor="start" x="294.6486" y="-783.9" font-family="Arial" font-size="14.00" fill="#666666">[varchar(255)]</text>
<polygon fill="none" stroke="#000000" points="200.5,-742.5 200.5,-772.5 404.5,-772.5 404.5,-742.5 200.5,-742.5"/>
<text text-anchor="start" x="207.5" y="-753.9" font-family="Arial" font-size="14.00" fill="#000000">explicit </text>
<text text-anchor="start" x="254.1662" y="-753.9" font-family="Arial" font-size="14.00" fill="#666666">[tinyint(1)]</text>
<polygon fill="none" stroke="#000000" points="200.5,-712.5 200.5,-742.5 404.5,-742.5 404.5,-712.5 200.5,-712.5"/>
<text text-anchor="start" x="207.5" y="-723.9" font-family="Arial" font-size="14.00" fill="#000000">status </text>
<text text-anchor="start" x="248.737" y="-723.9" font-family="Arial" font-size="14.00" fill="#666666">[longtext]</text>
<polygon fill="none" stroke="#000000" stroke-width="3" points="199,-711.5 199,-1319.5 406,-1319.5 406,-711.5 199,-711.5"/>
</g>
<!-- season -->
<g id="node3" class="node">
<title>season</title>
<polygon fill="#efefef" stroke="transparent" points="43.5,-447.5 43.5,-482.5 242.5,-482.5 242.5,-447.5 43.5,-447.5"/>
<polygon fill="none" stroke="#000000" points="43.5,-447.5 43.5,-482.5 242.5,-482.5 242.5,-447.5 43.5,-447.5"/>
<text text-anchor="start" x="50.2036" y="-460.3" font-family="Arial Bold" font-size="18.00" fill="#000000">season</text>
<text text-anchor="start" x="108.2284" y="-460.3" font-family="Arial" font-size="14.00" fill="#000000">    </text>
<text text-anchor="start" x="142.4332" y="-460.3" font-family="Arial" font-size="14.00" fill="#666666">[BASE TABLE]</text>
<polygon fill="none" stroke="#000000" points="43.5,-417.5 43.5,-447.5 242.5,-447.5 242.5,-417.5 43.5,-417.5"/>
<text text-anchor="start" x="50.5" y="-428.9" font-family="Arial" font-size="14.00" fill="#000000">id    </text>
<text text-anchor="start" x="95.594" y="-428.9" font-family="Arial" font-size="14.00" fill="#666666">[int(11)]</text>
<polygon fill="none" stroke="#000000" points="43.5,-387.5 43.5,-417.5 242.5,-417.5 242.5,-387.5 43.5,-387.5"/>
<text text-anchor="start" x="50.5" y="-398.9" font-family="Arial" font-size="14.00" fill="#000000">podcast_id    </text>
<text text-anchor="start" x="152.3976" y="-398.9" font-family="Arial" font-size="14.00" fill="#666666">[int(11)]</text>
<polygon fill="none" stroke="#000000" points="43.5,-357.5 43.5,-387.5 242.5,-387.5 242.5,-357.5 43.5,-357.5"/>
<text text-anchor="start" x="50.5" y="-368.9" font-family="Arial" font-size="14.00" fill="#000000">publisher_id    </text>
<text text-anchor="start" x="160.1634" y="-368.9" font-family="Arial" font-size="14.00" fill="#666666">[int(11)]</text>
<polygon fill="none" stroke="#000000" points="43.5,-327.5 43.5,-357.5 242.5,-357.5 242.5,-327.5 43.5,-327.5"/>
<text text-anchor="start" x="50.5" y="-338.9" font-family="Arial" font-size="14.00" fill="#000000">number    </text>
<text text-anchor="start" x="132.1564" y="-338.9" font-family="Arial" font-size="14.00" fill="#666666">[int(11)]</text>
<polygon fill="none" stroke="#000000" points="43.5,-297.5 43.5,-327.5 242.5,-327.5 242.5,-297.5 43.5,-297.5"/>
<text text-anchor="start" x="50.5" y="-308.9" font-family="Arial" font-size="14.00" fill="#000000">title    </text>
<text text-anchor="start" x="106.4818" y="-308.9" font-family="Arial" font-size="14.00" fill="#666666">[varchar(255)]</text>
<polygon fill="none" stroke="#000000" points="43.5,-267.5 43.5,-297.5 242.5,-297.5 242.5,-267.5 43.5,-267.5"/>
<text text-anchor="start" x="50.5" y="-278.9" font-family="Arial" font-size="14.00" fill="#000000">sub_title    </text>
<text text-anchor="start" x="136.8296" y="-278.9" font-family="Arial" font-size="14.00" fill="#666666">[varchar(255)]</text>
<polygon fill="none" stroke="#000000" points="43.5,-237.5 43.5,-267.5 242.5,-267.5 242.5,-237.5 43.5,-237.5"/>
<text text-anchor="start" x="50.5" y="-248.9" font-family="Arial" font-size="14.00" fill="#000000">description    </text>
<text text-anchor="start" x="152.3822" y="-248.9" font-family="Arial" font-size="14.00" fill="#666666">[longtext]</text>
<polygon fill="none" stroke="#000000" points="43.5,-207.5 43.5,-237.5 242.5,-237.5 242.5,-207.5 43.5,-207.5"/>
<text text-anchor="start" x="50.5" y="-218.9" font-family="Arial" font-size="14.00" fill="#000000">created    </text>
<text text-anchor="start" x="131.3864" y="-218.9" font-family="Arial" font-size="14.00" fill="#666666">[datetime]</text>
<polygon fill="none" stroke="#000000" points="43.5,-177.5 43.5,-207.5 242.5,-207.5 242.5,-177.5 43.5,-177.5"/>
<text text-anchor="start" x="50.5" y="-188.9" font-family="Arial" font-size="14.00" fill="#000000">updated    </text>
<text text-anchor="start" x="135.291" y="-188.9" font-family="Arial" font-size="14.00" fill="#666666">[datetime]</text>
<polygon fill="none" stroke="#000000" points="43.5,-147.5 43.5,-177.5 242.5,-177.5 242.5,-147.5 43.5,-147.5"/>
<text text-anchor="start" x="50.5" y="-158.9" font-family="Arial" font-size="14.00" fill="#000000">status    </text>
<text text-anchor="start" x="122.0512" y="-158.9" font-family="Arial" font-size="14.00" fill="#666666">[longtext]</text>
</g>
<!-- episode&#45;&gt;season -->
<g id="edge2" class="edge">
<title>episode:season_id&#45;&gt;season:id</title>
<path fill="none" stroke="#000000" d="M190.3625,-1237.3218C-47.1562,-1228.7739 164.4254,-914.4735 200.5,-667 215.773,-562.2267 348.3807,-432.5 242.5,-432.5"/>
<polygon fill="#000000" stroke="#000000" points="190.5015,-1237.3241 200.4209,-1241.9993 195.5008,-1237.4121 200.5,-1237.5 200.5,-1237.5 200.5,-1237.5 195.5008,-1237.4121 200.5791,-1233.0007 190.5015,-1237.3241 190.5015,-1237.3241"/>
</g>
<!-- podcast -->
<g id="node4" class="node">
<title>podcast</title>
<polygon fill="#efefef" stroke="transparent" points="346.5,-552.5 346.5,-587.5 577.5,-587.5 577.5,-552.5 346.5,-552.5"/>
<polygon fill="none" stroke="#000000" points="346.5,-552.5 346.5,-587.5 577.5,-587.5 577.5,-552.5 346.5,-552.5"/>
<text text-anchor="start" x="366.7025" y="-565.3" font-family="Arial Bold" font-size="18.00" fill="#000000">podcast</text>
<text text-anchor="start" x="429.7295" y="-565.3" font-family="Arial" font-size="14.00" fill="#000000">    </text>
<text text-anchor="start" x="463.9343" y="-565.3" font-family="Arial" font-size="14.00" fill="#666666">[BASE TABLE]</text>
<polygon fill="none" stroke="#000000" points="346.5,-522.5 346.5,-552.5 577.5,-552.5 577.5,-522.5 346.5,-522.5"/>
<text text-anchor="start" x="353.5" y="-533.9" font-family="Arial" font-size="14.00" fill="#000000">id    </text>
<text text-anchor="start" x="398.594" y="-533.9" font-family="Arial" font-size="14.00" fill="#666666">[int(11)]</text>
<polygon fill="none" stroke="#000000" points="346.5,-492.5 346.5,-522.5 577.5,-522.5 577.5,-492.5 346.5,-492.5"/>
<text text-anchor="start" x="353.5" y="-503.9" font-family="Arial" font-size="14.00" fill="#000000">publisher_id    </text>
<text text-anchor="start" x="463.1634" y="-503.9" font-family="Arial" font-size="14.00" fill="#666666">[int(11)]</text>
<polygon fill="none" stroke="#000000" points="346.5,-462.5 346.5,-492.5 577.5,-492.5 577.5,-462.5 346.5,-462.5"/>
<text text-anchor="start" x="353.5" y="-473.9" font-family="Arial" font-size="14.00" fill="#000000">title    </text>
<text text-anchor="start" x="409.4818" y="-473.9" font-family="Arial" font-size="14.00" fill="#666666">[varchar(255)]</text>
<polygon fill="none" stroke="#000000" points="346.5,-432.5 346.5,-462.5 577.5,-462.5 577.5,-432.5 346.5,-432.5"/>
<text text-anchor="start" x="353.5" y="-443.9" font-family="Arial" font-size="14.00" fill="#000000">sub_title    </text>
<text text-anchor="start" x="439.8296" y="-443.9" font-family="Arial" font-size="14.00" fill="#666666">[varchar(255)]</text>
<polygon fill="none" stroke="#000000" points="346.5,-402.5 346.5,-432.5 577.5,-432.5 577.5,-402.5 346.5,-402.5"/>
<text text-anchor="start" x="353.5" y="-413.9" font-family="Arial" font-size="14.00" fill="#000000">explicit    </text>
<text text-anchor="start" x="430.4804" y="-413.9" font-family="Arial" font-size="14.00" fill="#666666">[tinyint(1)]</text>
<polygon fill="none" stroke="#000000" points="346.5,-372.5 346.5,-402.5 577.5,-402.5 577.5,-372.5 346.5,-372.5"/>
<text text-anchor="start" x="353.5" y="-383.9" font-family="Arial" font-size="14.00" fill="#000000">description    </text>
<text text-anchor="start" x="455.3822" y="-383.9" font-family="Arial" font-size="14.00" fill="#666666">[longtext]</text>
<polygon fill="none" stroke="#000000" points="346.5,-342.5 346.5,-372.5 577.5,-372.5 577.5,-342.5 346.5,-342.5"/>
<text text-anchor="start" x="353.5" y="-353.9" font-family="Arial" font-size="14.00" fill="#000000">copyright    </text>
<text text-anchor="start" x="444.493" y="-353.9" font-family="Arial" font-size="14.00" fill="#666666">[longtext]</text>
<polygon fill="none" stroke="#000000" points="346.5,-312.5 346.5,-342.5 577.5,-342.5 577.5,-312.5 346.5,-312.5"/>
<text text-anchor="start" x="353.5" y="-323.9" font-family="Arial" font-size="14.00" fill="#000000">website    </text>
<text text-anchor="start" x="435.1564" y="-323.9" font-family="Arial" font-size="14.00" fill="#666666">[longtext]</text>
<polygon fill="none" stroke="#000000" points="346.5,-282.5 346.5,-312.5 577.5,-312.5 577.5,-282.5 346.5,-282.5"/>
<text text-anchor="start" x="353.5" y="-293.9" font-family="Arial" font-size="14.00" fill="#000000">rss    </text>
<text text-anchor="start" x="406.3654" y="-293.9" font-family="Arial" font-size="14.00" fill="#666666">[varchar(255)]</text>
<polygon fill="none" stroke="#000000" points="346.5,-252.5 346.5,-282.5 577.5,-282.5 577.5,-252.5 346.5,-252.5"/>
<text text-anchor="start" x="353.5" y="-263.9" font-family="Arial" font-size="14.00" fill="#000000">created    </text>
<text text-anchor="start" x="434.3864" y="-263.9" font-family="Arial" font-size="14.00" fill="#666666">[datetime]</text>
<polygon fill="none" stroke="#000000" points="346.5,-222.5 346.5,-252.5 577.5,-252.5 577.5,-222.5 346.5,-222.5"/>
<text text-anchor="start" x="353.5" y="-233.9" font-family="Arial" font-size="14.00" fill="#000000">updated    </text>
<text text-anchor="start" x="438.291" y="-233.9" font-family="Arial" font-size="14.00" fill="#666666">[datetime]</text>
<polygon fill="none" stroke="#000000" points="346.5,-192.5 346.5,-222.5 577.5,-222.5 577.5,-192.5 346.5,-192.5"/>
<text text-anchor="start" x="353.5" y="-203.9" font-family="Arial" font-size="14.00" fill="#000000">license    </text>
<text text-anchor="start" x="431.2658" y="-203.9" font-family="Arial" font-size="14.00" fill="#666666">[longtext]</text>
<polygon fill="none" stroke="#000000" points="346.5,-162.5 346.5,-192.5 577.5,-192.5 577.5,-162.5 346.5,-162.5"/>
<text text-anchor="start" x="353.5" y="-173.9" font-family="Arial" font-size="14.00" fill="#000000">guid    </text>
<text text-anchor="start" x="414.1592" y="-173.9" font-family="Arial" font-size="14.00" fill="#666666">[varchar(255)]</text>
<polygon fill="none" stroke="#000000" points="346.5,-132.5 346.5,-162.5 577.5,-162.5 577.5,-132.5 346.5,-132.5"/>
<text text-anchor="start" x="353.4804" y="-143.9" font-family="Arial" font-size="14.00" fill="#000000">language_code    </text>
<text text-anchor="start" x="483.4004" y="-143.9" font-family="Arial" font-size="14.00" fill="#666666">[varchar(255)]</text>
<polygon fill="none" stroke="#000000" points="346.5,-102.5 346.5,-132.5 577.5,-132.5 577.5,-102.5 346.5,-102.5"/>
<text text-anchor="start" x="353.5" y="-113.9" font-family="Arial" font-size="14.00" fill="#000000">categories    </text>
<text text-anchor="start" x="452.2756" y="-113.9" font-family="Arial" font-size="14.00" fill="#666666">[longtext]</text>
<polygon fill="none" stroke="#000000" points="346.5,-72.5 346.5,-102.5 577.5,-102.5 577.5,-72.5 346.5,-72.5"/>
<text text-anchor="start" x="353.5" y="-83.9" font-family="Arial" font-size="14.00" fill="#000000">keywords    </text>
<text text-anchor="start" x="446.8198" y="-83.9" font-family="Arial" font-size="14.00" fill="#666666">[longtext]</text>
<polygon fill="none" stroke="#000000" points="346.5,-42.5 346.5,-72.5 577.5,-72.5 577.5,-42.5 346.5,-42.5"/>
<text text-anchor="start" x="353.5" y="-53.9" font-family="Arial" font-size="14.00" fill="#000000">status    </text>
<text text-anchor="start" x="425.0512" y="-53.9" font-family="Arial" font-size="14.00" fill="#666666">[longtext]</text>
</g>
<!-- episode&#45;&gt;podcast -->
<g id="edge3" class="edge">
<title>episode:podcast_id&#45;&gt;podcast:id</title>
<path fill="none" stroke="#000000" d="M414.8237,-1207.2886C641.1071,-1197.8411 519.5677,-873.8524 404.5,-667 389.7511,-640.4865 361.2489,-657.5135 346.5,-631 326.2988,-594.6851 304.9444,-537.5 346.5,-537.5"/>
<polygon fill="#000000" stroke="#000000" points="414.4979,-1207.2952 404.4078,-1203.0009 409.499,-1207.3976 404.5,-1207.5 404.5,-1207.5 404.5,-1207.5 409.499,-1207.3976 404.5922,-1211.9991 414.4979,-1207.2952 414.4979,-1207.2952"/>
</g>
<!-- contribution -->
<g id="node2" class="node">
<title>contribution</title>
<polygon fill="#efefef" stroke="transparent" points="185.5,-1682.5 185.5,-1717.5 419.5,-1717.5 419.5,-1682.5 185.5,-1682.5"/>
<polygon fill="none" stroke="#000000" points="185.5,-1682.5 185.5,-1717.5 419.5,-1717.5 419.5,-1682.5 185.5,-1682.5"/>
<text text-anchor="start" x="192.2049" y="-1695.3" font-family="Arial Bold" font-size="18.00" fill="#000000">contribution</text>
<text text-anchor="start" x="285.2271" y="-1695.3" font-family="Arial" font-size="14.00" fill="#000000">    </text>
<text text-anchor="start" x="319.4319" y="-1695.3" font-family="Arial" font-size="14.00" fill="#666666">[BASE TABLE]</text>
<polygon fill="none" stroke="#000000" points="185.5,-1652.5 185.5,-1682.5 419.5,-1682.5 419.5,-1652.5 185.5,-1652.5"/>
<text text-anchor="start" x="192.5" y="-1663.9" font-family="Arial" font-size="14.00" fill="#000000">id    </text>
<text text-anchor="start" x="237.594" y="-1663.9" font-family="Arial" font-size="14.00" fill="#666666">[int(11)]</text>
<polygon fill="none" stroke="#000000" points="185.5,-1622.5 185.5,-1652.5 419.5,-1652.5 419.5,-1622.5 185.5,-1622.5"/>
<text text-anchor="start" x="192.5" y="-1633.9" font-family="Arial" font-size="14.00" fill="#000000">person_id    </text>
<text text-anchor="start" x="288.1676" y="-1633.9" font-family="Arial" font-size="14.00" fill="#666666">[int(11)]</text>
<polygon fill="none" stroke="#000000" points="185.5,-1592.5 185.5,-1622.5 419.5,-1622.5 419.5,-1592.5 185.5,-1592.5"/>
<text text-anchor="start" x="192.5" y="-1603.9" font-family="Arial" font-size="14.00" fill="#000000">contributor_role_id    </text>
<text text-anchor="start" x="342.6136" y="-1603.9" font-family="Arial" font-size="14.00" fill="#666666">[int(11)]</text>
<polygon fill="none" stroke="#000000" points="185.5,-1562.5 185.5,-1592.5 419.5,-1592.5 419.5,-1562.5 185.5,-1562.5"/>
<text text-anchor="start" x="192.5" y="-1573.9" font-family="Arial" font-size="14.00" fill="#000000">podcast_id    </text>
<text text-anchor="start" x="294.3976" y="-1573.9" font-family="Arial" font-size="14.00" fill="#666666">[int(11)]</text>
<polygon fill="none" stroke="#000000" points="185.5,-1532.5 185.5,-1562.5 419.5,-1562.5 419.5,-1532.5 185.5,-1532.5"/>
<text text-anchor="start" x="192.5" y="-1543.9" font-family="Arial" font-size="14.00" fill="#000000">season_id    </text>
<text text-anchor="start" x="290.507" y="-1543.9" font-family="Arial" font-size="14.00" fill="#666666">[int(11)]</text>
<polygon fill="none" stroke="#000000" points="185.5,-1502.5 185.5,-1532.5 419.5,-1532.5 419.5,-1502.5 185.5,-1502.5"/>
<text text-anchor="start" x="192.5" y="-1513.9" font-family="Arial" font-size="14.00" fill="#000000">episode_id    </text>
<text text-anchor="start" x="294.3962" y="-1513.9" font-family="Arial" font-size="14.00" fill="#666666">[int(11)]</text>
<polygon fill="none" stroke="#000000" points="185.5,-1472.5 185.5,-1502.5 419.5,-1502.5 419.5,-1472.5 185.5,-1472.5"/>
<text text-anchor="start" x="192.5" y="-1483.9" font-family="Arial" font-size="14.00" fill="#000000">created    </text>
<text text-anchor="start" x="273.3864" y="-1483.9" font-family="Arial" font-size="14.00" fill="#666666">[datetime]</text>
<polygon fill="none" stroke="#000000" points="185.5,-1442.5 185.5,-1472.5 419.5,-1472.5 419.5,-1442.5 185.5,-1442.5"/>
<text text-anchor="start" x="192.5" y="-1453.9" font-family="Arial" font-size="14.00" fill="#000000">updated    </text>
<text text-anchor="start" x="277.291" y="-1453.9" font-family="Arial" font-size="14.00" fill="#666666">[datetime]</text>
</g>
<!-- contribution&#45;&gt;episode -->
<g id="edge1" class="edge">
<title>contribution:episode_id&#45;&gt;episode:id</title>
<path fill="none" stroke="#000000" d="M429.5663,-1516.7828C529.7794,-1502.1191 512.3325,-1267.5 404.5,-1267.5"/>
<polygon fill="#000000" stroke="#000000" points="429.4747,-1516.7893 419.1802,-1513.0114 424.4874,-1517.1446 419.5,-1517.5 419.5,-1517.5 419.5,-1517.5 424.4874,-1517.1446 419.8198,-1521.9886 429.4747,-1516.7893 429.4747,-1516.7893"/>
</g>
</g>
</svg>
