<?xml version="1.0" encoding="UTF-8" standalone="no"?>
<!DOCTYPE svg PUBLIC "-//W3C//DTD SVG 1.1//EN"
 "http://www.w3.org/Graphics/SVG/1.1/DTD/svg11.dtd">
<!-- Generated by graphviz version 2.40.1 (20161225.0304)
 -->
<!-- Title: institution Pages: 1 -->
<svg width="321pt" height="682pt"
 viewBox="0.00 0.00 321.00 682.00" xmlns="http://www.w3.org/2000/svg" xmlns:xlink="http://www.w3.org/1999/xlink">
<g id="graph0" class="graph" transform="scale(1 1) rotate(0) translate(4 678)">
<title>institution</title>
<polygon fill="#ffffff" stroke="transparent" points="-4,4 -4,-678 317,-678 317,4 -4,4"/>
<!-- institution -->
<g id="node1" class="node">
<title>institution</title>
<polygon fill="#efefef" stroke="transparent" points="48.5,-195.5 48.5,-230.5 265.5,-230.5 265.5,-195.5 48.5,-195.5"/>
<polygon fill="none" stroke="#000000" points="48.5,-195.5 48.5,-230.5 265.5,-230.5 265.5,-195.5 48.5,-195.5"/>
<text text-anchor="start" x="55.209" y="-208.3" font-family="Arial Bold" font-size="18.00" fill="#000000">institution</text>
<text text-anchor="start" x="131.223" y="-208.3" font-family="Arial" font-size="14.00" fill="#000000">    </text>
<text text-anchor="start" x="165.4278" y="-208.3" font-family="Arial" font-size="14.00" fill="#666666">[BASE TABLE]</text>
<polygon fill="none" stroke="#000000" points="48.5,-165.5 48.5,-195.5 265.5,-195.5 265.5,-165.5 48.5,-165.5"/>
<text text-anchor="start" x="55.5" y="-176.9" font-family="Arial" font-size="14.00" fill="#000000">id </text>
<text text-anchor="start" x="70.2798" y="-176.9" font-family="Arial" font-size="14.00" fill="#666666">[int(11)]</text>
<polygon fill="none" stroke="#000000" points="48.5,-135.5 48.5,-165.5 265.5,-165.5 265.5,-135.5 48.5,-135.5"/>
<text text-anchor="start" x="55.5" y="-146.9" font-family="Arial" font-size="14.00" fill="#000000">country </text>
<text text-anchor="start" x="105.2896" y="-146.9" font-family="Arial" font-size="14.00" fill="#666666">[varchar(40)]</text>
<polygon fill="none" stroke="#000000" points="48.5,-105.5 48.5,-135.5 265.5,-135.5 265.5,-105.5 48.5,-105.5"/>
<text text-anchor="start" x="55.5" y="-116.9" font-family="Arial" font-size="14.00" fill="#000000">name </text>
<text text-anchor="start" x="94.399" y="-116.9" font-family="Arial" font-size="14.00" fill="#666666">[varchar(100)]</text>
<polygon fill="none" stroke="#000000" points="48.5,-75.5 48.5,-105.5 265.5,-105.5 265.5,-75.5 48.5,-75.5"/>
<text text-anchor="start" x="55.5" y="-86.9" font-family="Arial" font-size="14.00" fill="#000000">created </text>
<text text-anchor="start" x="106.0722" y="-86.9" font-family="Arial" font-size="14.00" fill="#666666">[datetime]</text>
<polygon fill="none" stroke="#000000" points="48.5,-45.5 48.5,-75.5 265.5,-75.5 265.5,-45.5 48.5,-45.5"/>
<text text-anchor="start" x="55.5" y="-56.9" font-family="Arial" font-size="14.00" fill="#000000">updated </text>
<text text-anchor="start" x="109.9768" y="-56.9" font-family="Arial" font-size="14.00" fill="#666666">[datetime]</text>
<polygon fill="none" stroke="#000000" stroke-width="3" points="46.5,-44.5 46.5,-232.5 266.5,-232.5 266.5,-44.5 46.5,-44.5"/>
</g>
<!-- person -->
<g id="node2" class="node">
<title>person</title>
<polygon fill="#efefef" stroke="transparent" points="43.5,-595.5 43.5,-630.5 270.5,-630.5 270.5,-595.5 43.5,-595.5"/>
<polygon fill="none" stroke="#000000" points="43.5,-595.5 43.5,-630.5 270.5,-630.5 270.5,-595.5 43.5,-595.5"/>
<text text-anchor="start" x="65.7075" y="-608.3" font-family="Arial Bold" font-size="18.00" fill="#000000">person</text>
<text text-anchor="start" x="120.7245" y="-608.3" font-family="Arial" font-size="14.00" fill="#000000">    </text>
<text text-anchor="start" x="154.9293" y="-608.3" font-family="Arial" font-size="14.00" fill="#666666">[BASE TABLE]</text>
<polygon fill="none" stroke="#000000" points="43.5,-565.5 43.5,-595.5 270.5,-595.5 270.5,-565.5 43.5,-565.5"/>
<text text-anchor="start" x="50.5" y="-576.9" font-family="Arial" font-size="14.00" fill="#000000">id    </text>
<text text-anchor="start" x="95.594" y="-576.9" font-family="Arial" font-size="14.00" fill="#666666">[int(11)]</text>
<polygon fill="none" stroke="#000000" points="43.5,-535.5 43.5,-565.5 270.5,-565.5 270.5,-535.5 43.5,-535.5"/>
<text text-anchor="start" x="50.5" y="-546.9" font-family="Arial" font-size="14.00" fill="#000000">fullname    </text>
<text text-anchor="start" x="137.5996" y="-546.9" font-family="Arial" font-size="14.00" fill="#666666">[varchar(255)]</text>
<polygon fill="none" stroke="#000000" points="43.5,-505.5 43.5,-535.5 270.5,-535.5 270.5,-505.5 43.5,-505.5"/>
<text text-anchor="start" x="50.0484" y="-516.9" font-family="Arial" font-size="14.00" fill="#000000">sortable_name    </text>
<text text-anchor="start" x="176.8324" y="-516.9" font-family="Arial" font-size="14.00" fill="#666666">[varchar(255)]</text>
<polygon fill="none" stroke="#000000" points="43.5,-475.5 43.5,-505.5 270.5,-505.5 270.5,-475.5 43.5,-475.5"/>
<text text-anchor="start" x="50.5" y="-486.9" font-family="Arial" font-size="14.00" fill="#000000">location    </text>
<text text-anchor="start" x="132.939" y="-486.9" font-family="Arial" font-size="14.00" fill="#666666">[varchar(255)]</text>
<polygon fill="none" stroke="#000000" points="43.5,-445.5 43.5,-475.5 270.5,-475.5 270.5,-445.5 43.5,-445.5"/>
<text text-anchor="start" x="50.5" y="-456.9" font-family="Arial" font-size="14.00" fill="#000000">bio    </text>
<text text-anchor="start" x="103.3766" y="-456.9" font-family="Arial" font-size="14.00" fill="#666666">[longtext]</text>
<polygon fill="none" stroke="#000000" points="43.5,-415.5 43.5,-445.5 270.5,-445.5 270.5,-415.5 43.5,-415.5"/>
<text text-anchor="start" x="50.5" y="-426.9" font-family="Arial" font-size="14.00" fill="#000000">created    </text>
<text text-anchor="start" x="131.3864" y="-426.9" font-family="Arial" font-size="14.00" fill="#666666">[datetime]</text>
<polygon fill="none" stroke="#000000" points="43.5,-385.5 43.5,-415.5 270.5,-415.5 270.5,-385.5 43.5,-385.5"/>
<text text-anchor="start" x="50.5" y="-396.9" font-family="Arial" font-size="14.00" fill="#000000">updated    </text>
<text text-anchor="start" x="135.291" y="-396.9" font-family="Arial" font-size="14.00" fill="#666666">[datetime]</text>
<polygon fill="none" stroke="#000000" points="43.5,-355.5 43.5,-385.5 270.5,-385.5 270.5,-355.5 43.5,-355.5"/>
<text text-anchor="start" x="50.5" y="-366.9" font-family="Arial" font-size="14.00" fill="#000000">institution_id    </text>
<text text-anchor="start" x="162.4986" y="-366.9" font-family="Arial" font-size="14.00" fill="#666666">[int(11)]</text>
</g>
<!-- person&#45;&gt;institution -->
<g id="edge1" class="edge">
<title>person:institution_id&#45;&gt;institution:id</title>
<path fill="none" stroke="#000000" d="M156.5749,-345.3639C147.4899,-299.7503 74.0133,-326.8154 48.5,-277 28.9491,-238.8264 5.6111,-180.5 48.5,-180.5"/>
<polygon fill="#000000" stroke="#000000" points="156.591,-345.5414 153.0186,-355.9091 157.0455,-350.5207 157.5,-355.5 157.5,-355.5 157.5,-355.5 157.0455,-350.5207 161.9814,-355.0909 156.591,-345.5414 156.591,-345.5414"/>
</g>
</g>
</svg>
