<?xml version="1.0" encoding="UTF-8" standalone="no"?>
<!DOCTYPE svg PUBLIC "-//W3C//DTD SVG 1.1//EN"
 "http://www.w3.org/Graphics/SVG/1.1/DTD/svg11.dtd">
<!-- Generated by graphviz version 2.40.1 (20161225.0304)
 -->
<!-- Title: person Pages: 1 -->
<svg width="351pt" height="1079pt"
 viewBox="0.00 0.00 351.33 1079.00" xmlns="http://www.w3.org/2000/svg" xmlns:xlink="http://www.w3.org/1999/xlink">
<g id="graph0" class="graph" transform="scale(1 1) rotate(0) translate(4 1075)">
<title>person</title>
<polygon fill="#ffffff" stroke="transparent" points="-4,4 -4,-1075 347.3266,-1075 347.3266,4 -4,4"/>
<!-- person -->
<g id="node1" class="node">
<title>person</title>
<polygon fill="#efefef" stroke="transparent" points="84.3266,-592.5 84.3266,-627.5 281.3266,-627.5 281.3266,-592.5 84.3266,-592.5"/>
<polygon fill="none" stroke="#000000" points="84.3266,-592.5 84.3266,-627.5 281.3266,-627.5 281.3266,-592.5 84.3266,-592.5"/>
<text text-anchor="start" x="91.5341" y="-605.3" font-family="Arial Bold" font-size="18.00" fill="#000000">person</text>
<text text-anchor="start" x="146.5511" y="-605.3" font-family="Arial" font-size="14.00" fill="#000000">    </text>
<text text-anchor="start" x="180.7559" y="-605.3" font-family="Arial" font-size="14.00" fill="#666666">[BASE TABLE]</text>
<polygon fill="none" stroke="#000000" points="84.3266,-562.5 84.3266,-592.5 281.3266,-592.5 281.3266,-562.5 84.3266,-562.5"/>
<text text-anchor="start" x="91.3266" y="-573.9" font-family="Arial" font-size="14.00" fill="#000000">id </text>
<text text-anchor="start" x="106.1064" y="-573.9" font-family="Arial" font-size="14.00" fill="#666666">[int(11)]</text>
<polygon fill="none" stroke="#000000" points="84.3266,-532.5 84.3266,-562.5 281.3266,-562.5 281.3266,-532.5 84.3266,-532.5"/>
<text text-anchor="start" x="91.3266" y="-543.9" font-family="Arial" font-size="14.00" fill="#000000">fullname </text>
<text text-anchor="start" x="148.112" y="-543.9" font-family="Arial" font-size="14.00" fill="#666666">[varchar(255)]</text>
<polygon fill="none" stroke="#000000" points="84.3266,-502.5 84.3266,-532.5 281.3266,-532.5 281.3266,-502.5 84.3266,-502.5"/>
<text text-anchor="start" x="91.0321" y="-513.9" font-family="Arial" font-size="14.00" fill="#000000">sortable_name </text>
<text text-anchor="start" x="187.5019" y="-513.9" font-family="Arial" font-size="14.00" fill="#666666">[varchar(255)]</text>
<polygon fill="none" stroke="#000000" points="84.3266,-472.5 84.3266,-502.5 281.3266,-502.5 281.3266,-472.5 84.3266,-472.5"/>
<text text-anchor="start" x="91.3266" y="-483.9" font-family="Arial" font-size="14.00" fill="#000000">location </text>
<text text-anchor="start" x="143.4514" y="-483.9" font-family="Arial" font-size="14.00" fill="#666666">[varchar(255)]</text>
<polygon fill="none" stroke="#000000" points="84.3266,-442.5 84.3266,-472.5 281.3266,-472.5 281.3266,-442.5 84.3266,-442.5"/>
<text text-anchor="start" x="91.3266" y="-453.9" font-family="Arial" font-size="14.00" fill="#000000">bio </text>
<text text-anchor="start" x="113.889" y="-453.9" font-family="Arial" font-size="14.00" fill="#666666">[longtext]</text>
<polygon fill="none" stroke="#000000" points="84.3266,-412.5 84.3266,-442.5 281.3266,-442.5 281.3266,-412.5 84.3266,-412.5"/>
<text text-anchor="start" x="91.3266" y="-423.9" font-family="Arial" font-size="14.00" fill="#000000">created </text>
<text text-anchor="start" x="141.8988" y="-423.9" font-family="Arial" font-size="14.00" fill="#666666">[datetime]</text>
<polygon fill="none" stroke="#000000" points="84.3266,-382.5 84.3266,-412.5 281.3266,-412.5 281.3266,-382.5 84.3266,-382.5"/>
<text text-anchor="start" x="91.3266" y="-393.9" font-family="Arial" font-size="14.00" fill="#000000">updated </text>
<text text-anchor="start" x="145.8034" y="-393.9" font-family="Arial" font-size="14.00" fill="#666666">[datetime]</text>
<polygon fill="none" stroke="#000000" points="84.3266,-352.5 84.3266,-382.5 281.3266,-382.5 281.3266,-352.5 84.3266,-352.5"/>
<text text-anchor="start" x="91.3266" y="-363.9" font-family="Arial" font-size="14.00" fill="#000000">institution_id </text>
<text text-anchor="start" x="173.011" y="-363.9" font-family="Arial" font-size="14.00" fill="#666666">[int(11)]</text>
<polygon fill="none" stroke="#000000" stroke-width="3" points="82.3266,-351.5 82.3266,-629.5 282.3266,-629.5 282.3266,-351.5 82.3266,-351.5"/>
</g>
<!-- institution -->
<g id="node3" class="node">
<title>institution</title>
<polygon fill="#efefef" stroke="transparent" points="74.3266,-192.5 74.3266,-227.5 291.3266,-227.5 291.3266,-192.5 74.3266,-192.5"/>
<polygon fill="none" stroke="#000000" points="74.3266,-192.5 74.3266,-227.5 291.3266,-227.5 291.3266,-192.5 74.3266,-192.5"/>
<text text-anchor="start" x="81.0356" y="-205.3" font-family="Arial Bold" font-size="18.00" fill="#000000">institution</text>
<text text-anchor="start" x="157.0496" y="-205.3" font-family="Arial" font-size="14.00" fill="#000000">    </text>
<text text-anchor="start" x="191.2544" y="-205.3" font-family="Arial" font-size="14.00" fill="#666666">[BASE TABLE]</text>
<polygon fill="none" stroke="#000000" points="74.3266,-162.5 74.3266,-192.5 291.3266,-192.5 291.3266,-162.5 74.3266,-162.5"/>
<text text-anchor="start" x="81.3266" y="-173.9" font-family="Arial" font-size="14.00" fill="#000000">id    </text>
<text text-anchor="start" x="126.4206" y="-173.9" font-family="Arial" font-size="14.00" fill="#666666">[int(11)]</text>
<polygon fill="none" stroke="#000000" points="74.3266,-132.5 74.3266,-162.5 291.3266,-162.5 291.3266,-132.5 74.3266,-132.5"/>
<text text-anchor="start" x="81.3266" y="-143.9" font-family="Arial" font-size="14.00" fill="#000000">country    </text>
<text text-anchor="start" x="161.4304" y="-143.9" font-family="Arial" font-size="14.00" fill="#666666">[varchar(40)]</text>
<polygon fill="none" stroke="#000000" points="74.3266,-102.5 74.3266,-132.5 291.3266,-132.5 291.3266,-102.5 74.3266,-102.5"/>
<text text-anchor="start" x="81.3266" y="-113.9" font-family="Arial" font-size="14.00" fill="#000000">name    </text>
<text text-anchor="start" x="150.5398" y="-113.9" font-family="Arial" font-size="14.00" fill="#666666">[varchar(100)]</text>
<polygon fill="none" stroke="#000000" points="74.3266,-72.5 74.3266,-102.5 291.3266,-102.5 291.3266,-72.5 74.3266,-72.5"/>
<text text-anchor="start" x="81.3266" y="-83.9" font-family="Arial" font-size="14.00" fill="#000000">created    </text>
<text text-anchor="start" x="162.213" y="-83.9" font-family="Arial" font-size="14.00" fill="#666666">[datetime]</text>
<polygon fill="none" stroke="#000000" points="74.3266,-42.5 74.3266,-72.5 291.3266,-72.5 291.3266,-42.5 74.3266,-42.5"/>
<text text-anchor="start" x="81.3266" y="-53.9" font-family="Arial" font-size="14.00" fill="#000000">updated    </text>
<text text-anchor="start" x="166.1176" y="-53.9" font-family="Arial" font-size="14.00" fill="#666666">[datetime]</text>
</g>
<!-- person&#45;&gt;institution -->
<g id="edge2" class="edge">
<title>person:institution_id&#45;&gt;institution:id</title>
<path fill="none" stroke="#000000" d="M182.4561,-342.5016C173.6089,-295.6964 99.7775,-321.8085 74.3266,-271 55.7151,-233.8452 32.771,-177.5 74.3266,-177.5"/>
<polygon fill="#000000" stroke="#000000" points="182.4592,-342.5377 178.8435,-352.8903 182.8929,-347.5188 183.3266,-352.5 183.3266,-352.5 183.3266,-352.5 182.8929,-347.5188 187.8096,-352.1097 182.4592,-342.5377 182.4592,-342.5377"/>
</g>
<!-- contribution -->
<g id="node2" class="node">
<title>contribution</title>
<polygon fill="#efefef" stroke="transparent" points="66.3266,-992.5 66.3266,-1027.5 300.3266,-1027.5 300.3266,-992.5 66.3266,-992.5"/>
<polygon fill="none" stroke="#000000" points="66.3266,-992.5 66.3266,-1027.5 300.3266,-1027.5 300.3266,-992.5 66.3266,-992.5"/>
<text text-anchor="start" x="73.0315" y="-1005.3" font-family="Arial Bold" font-size="18.00" fill="#000000">contribution</text>
<text text-anchor="start" x="166.0537" y="-1005.3" font-family="Arial" font-size="14.00" fill="#000000">    </text>
<text text-anchor="start" x="200.2585" y="-1005.3" font-family="Arial" font-size="14.00" fill="#666666">[BASE TABLE]</text>
<polygon fill="none" stroke="#000000" points="66.3266,-962.5 66.3266,-992.5 300.3266,-992.5 300.3266,-962.5 66.3266,-962.5"/>
<text text-anchor="start" x="73.3266" y="-973.9" font-family="Arial" font-size="14.00" fill="#000000">id    </text>
<text text-anchor="start" x="118.4206" y="-973.9" font-family="Arial" font-size="14.00" fill="#666666">[int(11)]</text>
<polygon fill="none" stroke="#000000" points="66.3266,-932.5 66.3266,-962.5 300.3266,-962.5 300.3266,-932.5 66.3266,-932.5"/>
<text text-anchor="start" x="73.3266" y="-943.9" font-family="Arial" font-size="14.00" fill="#000000">person_id    </text>
<text text-anchor="start" x="168.9942" y="-943.9" font-family="Arial" font-size="14.00" fill="#666666">[int(11)]</text>
<polygon fill="none" stroke="#000000" points="66.3266,-902.5 66.3266,-932.5 300.3266,-932.5 300.3266,-902.5 66.3266,-902.5"/>
<text text-anchor="start" x="73.3266" y="-913.9" font-family="Arial" font-size="14.00" fill="#000000">contributor_role_id    </text>
<text text-anchor="start" x="223.4402" y="-913.9" font-family="Arial" font-size="14.00" fill="#666666">[int(11)]</text>
<polygon fill="none" stroke="#000000" points="66.3266,-872.5 66.3266,-902.5 300.3266,-902.5 300.3266,-872.5 66.3266,-872.5"/>
<text text-anchor="start" x="73.3266" y="-883.9" font-family="Arial" font-size="14.00" fill="#000000">podcast_id    </text>
<text text-anchor="start" x="175.2242" y="-883.9" font-family="Arial" font-size="14.00" fill="#666666">[int(11)]</text>
<polygon fill="none" stroke="#000000" points="66.3266,-842.5 66.3266,-872.5 300.3266,-872.5 300.3266,-842.5 66.3266,-842.5"/>
<text text-anchor="start" x="73.3266" y="-853.9" font-family="Arial" font-size="14.00" fill="#000000">season_id    </text>
<text text-anchor="start" x="171.3336" y="-853.9" font-family="Arial" font-size="14.00" fill="#666666">[int(11)]</text>
<polygon fill="none" stroke="#000000" points="66.3266,-812.5 66.3266,-842.5 300.3266,-842.5 300.3266,-812.5 66.3266,-812.5"/>
<text text-anchor="start" x="73.3266" y="-823.9" font-family="Arial" font-size="14.00" fill="#000000">episode_id    </text>
<text text-anchor="start" x="175.2228" y="-823.9" font-family="Arial" font-size="14.00" fill="#666666">[int(11)]</text>
<polygon fill="none" stroke="#000000" points="66.3266,-782.5 66.3266,-812.5 300.3266,-812.5 300.3266,-782.5 66.3266,-782.5"/>
<text text-anchor="start" x="73.3266" y="-793.9" font-family="Arial" font-size="14.00" fill="#000000">created    </text>
<text text-anchor="start" x="154.213" y="-793.9" font-family="Arial" font-size="14.00" fill="#666666">[datetime]</text>
<polygon fill="none" stroke="#000000" points="66.3266,-752.5 66.3266,-782.5 300.3266,-782.5 300.3266,-752.5 66.3266,-752.5"/>
<text text-anchor="start" x="73.3266" y="-763.9" font-family="Arial" font-size="14.00" fill="#000000">updated    </text>
<text text-anchor="start" x="158.1176" y="-763.9" font-family="Arial" font-size="14.00" fill="#666666">[datetime]</text>
</g>
<!-- contribution&#45;&gt;person -->
<g id="edge1" class="edge">
<title>contribution:person_id&#45;&gt;person:id</title>
<path fill="none" stroke="#000000" d="M56.2808,-946.9895C-36.7142,-937.1628 .3929,-787.8917 66.3266,-710 128.9233,-636.0506 218.7299,-747.9494 281.3266,-674 309.0365,-641.2645 324.2155,-577.5 281.3266,-577.5"/>
<polygon fill="#000000" stroke="#000000" points="56.3395,-946.9924 66.0982,-951.9942 61.333,-947.2462 66.3266,-947.5 66.3266,-947.5 66.3266,-947.5 61.333,-947.2462 66.555,-943.0058 56.3395,-946.9924 56.3395,-946.9924"/>
</g>
</g>
</svg>
