<?xml version="1.0" encoding="UTF-8" standalone="no"?>
<!DOCTYPE svg PUBLIC "-//W3C//DTD SVG 1.1//EN"
 "http://www.w3.org/Graphics/SVG/1.1/DTD/svg11.dtd">
<!-- Generated by graphviz version 12.1.2 (20240928.0832)
 -->
<!-- Title: person Pages: 1 -->
<svg width="335pt" height="1499pt"
 viewBox="0.00 0.00 335.09 1499.20" xmlns="http://www.w3.org/2000/svg" xmlns:xlink="http://www.w3.org/1999/xlink">
<g id="graph0" class="graph" transform="scale(1 1) rotate(0) translate(4 1495.2)">
<title>person</title>
<polygon fill="white" stroke="none" points="-4,4 -4,-1495.2 331.09,-1495.2 331.09,4 -4,4"/>
<!-- person -->
<g id="node1" class="node">
<title>person</title>
<polygon fill="#efefef" stroke="none" points="57.61,-1005 57.61,-1040.6 255.26,-1040.6 255.26,-1005 57.61,-1005"/>
<polygon fill="none" stroke="black" points="57.61,-1005 57.61,-1040.6 255.26,-1040.6 255.26,-1005 57.61,-1005"/>
<text text-anchor="start" x="70.2" y="-1018.4" font-family="Arial Bold" font-size="18.00">person</text>
<text text-anchor="start" x="118.19" y="-1018.4" font-family="Arial" font-size="14.00">    </text>
<text text-anchor="start" x="149.3" y="-1018.4" font-family="Arial" font-size="14.00" fill="#666666">[BASE TABLE]</text>
<polygon fill="none" stroke="black" points="57.61,-974.2 57.61,-1005 255.26,-1005 255.26,-974.2 57.61,-974.2"/>
<text text-anchor="start" x="64.61" y="-986.4" font-family="Arial" font-size="14.00">id </text>
<text text-anchor="start" x="79.4" y="-986.4" font-family="Arial" font-size="14.00" fill="#666666">[int(11)]</text>
<polygon fill="none" stroke="black" points="57.61,-943.4 57.61,-974.2 255.26,-974.2 255.26,-943.4 57.61,-943.4"/>
<text text-anchor="start" x="64.61" y="-955.6" font-family="Arial" font-size="14.00">fullname </text>
<text text-anchor="start" x="121.42" y="-955.6" font-family="Arial" font-size="14.00" fill="#666666">[varchar(255)]</text>
<polygon fill="none" stroke="black" points="57.61,-912.6 57.61,-943.4 255.26,-943.4 255.26,-912.6 57.61,-912.6"/>
<text text-anchor="start" x="64.61" y="-924.8" font-family="Arial" font-size="14.00">sortable_name </text>
<text text-anchor="start" x="161.12" y="-924.8" font-family="Arial" font-size="14.00" fill="#666666">[varchar(255)]</text>
<polygon fill="none" stroke="black" points="57.61,-881.8 57.61,-912.6 255.26,-912.6 255.26,-881.8 57.61,-881.8"/>
<text text-anchor="start" x="64.61" y="-894" font-family="Arial" font-size="14.00">location </text>
<text text-anchor="start" x="116.76" y="-894" font-family="Arial" font-size="14.00" fill="#666666">[varchar(255)]</text>
<polygon fill="none" stroke="black" points="57.61,-851 57.61,-881.8 255.26,-881.8 255.26,-851 57.61,-851"/>
<text text-anchor="start" x="64.61" y="-863.2" font-family="Arial" font-size="14.00">bio </text>
<text text-anchor="start" x="87.19" y="-863.2" font-family="Arial" font-size="14.00" fill="#666666">[longtext]</text>
<polygon fill="none" stroke="black" points="57.61,-820.2 57.61,-851 255.26,-851 255.26,-820.2 57.61,-820.2"/>
<text text-anchor="start" x="64.61" y="-832.4" font-family="Arial" font-size="14.00">created </text>
<text text-anchor="start" x="115.2" y="-832.4" font-family="Arial" font-size="14.00" fill="#666666">[datetime]</text>
<polygon fill="none" stroke="black" points="57.61,-789.4 57.61,-820.2 255.26,-820.2 255.26,-789.4 57.61,-789.4"/>
<text text-anchor="start" x="64.61" y="-801.6" font-family="Arial" font-size="14.00">updated </text>
<text text-anchor="start" x="119.11" y="-801.6" font-family="Arial" font-size="14.00" fill="#666666">[datetime]</text>
<polygon fill="none" stroke="black" points="57.61,-758.6 57.61,-789.4 255.26,-789.4 255.26,-758.6 57.61,-758.6"/>
<text text-anchor="start" x="64.61" y="-770.8" font-family="Arial" font-size="14.00">institution </text>
<text text-anchor="start" x="127.65" y="-770.8" font-family="Arial" font-size="14.00" fill="#666666">[varchar(255)]</text>
<polygon fill="none" stroke="black" points="57.61,-727.8 57.61,-758.6 255.26,-758.6 255.26,-727.8 57.61,-727.8"/>
<text text-anchor="start" x="64.61" y="-740" font-family="Arial" font-size="14.00">podcast_id </text>
<text text-anchor="start" x="136.22" y="-740" font-family="Arial" font-size="14.00" fill="#666666">[int(11)]</text>
<polygon fill="none" stroke="black" stroke-width="3" points="56.11,-726.3 56.11,-1042.1 256.76,-1042.1 256.76,-726.3 56.11,-726.3"/>
</g>
<!-- podcast -->
<g id="node3" class="node">
<title>podcast</title>
<polygon fill="#efefef" stroke="none" points="56.04,-566.8 56.04,-602.4 256.83,-602.4 256.83,-566.8 56.04,-566.8"/>
<polygon fill="none" stroke="black" points="56.04,-566.8 56.04,-602.4 256.83,-602.4 256.83,-566.8 56.04,-566.8"/>
<text text-anchor="start" x="66.7" y="-580.2" font-family="Arial Bold" font-size="18.00">podcast</text>
<text text-anchor="start" x="121.69" y="-580.2" font-family="Arial" font-size="14.00">    </text>
<text text-anchor="start" x="152.8" y="-580.2" font-family="Arial" font-size="14.00" fill="#666666">[BASE TABLE]</text>
<polygon fill="none" stroke="black" points="56.04,-536 56.04,-566.8 256.83,-566.8 256.83,-536 56.04,-536"/>
<text text-anchor="start" x="63.04" y="-548.2" font-family="Arial" font-size="14.00">id </text>
<text text-anchor="start" x="77.83" y="-548.2" font-family="Arial" font-size="14.00" fill="#666666">[int(11)]</text>
<polygon fill="none" stroke="black" points="56.04,-505.2 56.04,-536 256.83,-536 256.83,-505.2 56.04,-505.2"/>
<text text-anchor="start" x="63.04" y="-517.4" font-family="Arial" font-size="14.00">publisher_id </text>
<text text-anchor="start" x="142.43" y="-517.4" font-family="Arial" font-size="14.00" fill="#666666">[int(11)]</text>
<polygon fill="none" stroke="black" points="56.04,-474.4 56.04,-505.2 256.83,-505.2 256.83,-474.4 56.04,-474.4"/>
<text text-anchor="start" x="63.04" y="-486.6" font-family="Arial" font-size="14.00">title </text>
<text text-anchor="start" x="88.72" y="-486.6" font-family="Arial" font-size="14.00" fill="#666666">[varchar(255)]</text>
<polygon fill="none" stroke="black" points="56.04,-443.6 56.04,-474.4 256.83,-474.4 256.83,-443.6 56.04,-443.6"/>
<text text-anchor="start" x="63.04" y="-455.8" font-family="Arial" font-size="14.00">sub_title </text>
<text text-anchor="start" x="119.08" y="-455.8" font-family="Arial" font-size="14.00" fill="#666666">[varchar(255)]</text>
<polygon fill="none" stroke="black" points="56.04,-412.8 56.04,-443.6 256.83,-443.6 256.83,-412.8 56.04,-412.8"/>
<text text-anchor="start" x="63.04" y="-425" font-family="Arial" font-size="14.00">explicit </text>
<text text-anchor="start" x="109.72" y="-425" font-family="Arial" font-size="14.00" fill="#666666">[tinyint(1)]</text>
<polygon fill="none" stroke="black" points="56.04,-382 56.04,-412.8 256.83,-412.8 256.83,-382 56.04,-382"/>
<text text-anchor="start" x="63.04" y="-394.2" font-family="Arial" font-size="14.00">description </text>
<text text-anchor="start" x="134.64" y="-394.2" font-family="Arial" font-size="14.00" fill="#666666">[longtext]</text>
<polygon fill="none" stroke="black" points="56.04,-351.2 56.04,-382 256.83,-382 256.83,-351.2 56.04,-351.2"/>
<text text-anchor="start" x="63.04" y="-363.4" font-family="Arial" font-size="14.00">copyright </text>
<text text-anchor="start" x="123.74" y="-363.4" font-family="Arial" font-size="14.00" fill="#666666">[longtext]</text>
<polygon fill="none" stroke="black" points="56.04,-320.4 56.04,-351.2 256.83,-351.2 256.83,-320.4 56.04,-320.4"/>
<text text-anchor="start" x="63.04" y="-332.6" font-family="Arial" font-size="14.00">website </text>
<text text-anchor="start" x="114.4" y="-332.6" font-family="Arial" font-size="14.00" fill="#666666">[longtext]</text>
<polygon fill="none" stroke="black" points="56.04,-289.6 56.04,-320.4 256.83,-320.4 256.83,-289.6 56.04,-289.6"/>
<text text-anchor="start" x="63.04" y="-301.8" font-family="Arial" font-size="14.00">rss </text>
<text text-anchor="start" x="85.59" y="-301.8" font-family="Arial" font-size="14.00" fill="#666666">[varchar(255)]</text>
<polygon fill="none" stroke="black" points="56.04,-258.8 56.04,-289.6 256.83,-289.6 256.83,-258.8 56.04,-258.8"/>
<text text-anchor="start" x="63.04" y="-271" font-family="Arial" font-size="14.00">created </text>
<text text-anchor="start" x="113.63" y="-271" font-family="Arial" font-size="14.00" fill="#666666">[datetime]</text>
<polygon fill="none" stroke="black" points="56.04,-228 56.04,-258.8 256.83,-258.8 256.83,-228 56.04,-228"/>
<text text-anchor="start" x="63.04" y="-240.2" font-family="Arial" font-size="14.00">updated </text>
<text text-anchor="start" x="117.54" y="-240.2" font-family="Arial" font-size="14.00" fill="#666666">[datetime]</text>
<polygon fill="none" stroke="black" points="56.04,-197.2 56.04,-228 256.83,-228 256.83,-197.2 56.04,-197.2"/>
<text text-anchor="start" x="63.04" y="-209.4" font-family="Arial" font-size="14.00">license </text>
<text text-anchor="start" x="110.51" y="-209.4" font-family="Arial" font-size="14.00" fill="#666666">[longtext]</text>
<polygon fill="none" stroke="black" points="56.04,-166.4 56.04,-197.2 256.83,-197.2 256.83,-166.4 56.04,-166.4"/>
<text text-anchor="start" x="63.04" y="-178.6" font-family="Arial" font-size="14.00">guid </text>
<text text-anchor="start" x="93.4" y="-178.6" font-family="Arial" font-size="14.00" fill="#666666">[varchar(255)]</text>
<polygon fill="none" stroke="black" points="56.04,-135.6 56.04,-166.4 256.83,-166.4 256.83,-135.6 56.04,-135.6"/>
<text text-anchor="start" x="63.04" y="-147.8" font-family="Arial" font-size="14.00">language_code </text>
<text text-anchor="start" x="162.69" y="-147.8" font-family="Arial" font-size="14.00" fill="#666666">[varchar(255)]</text>
<polygon fill="none" stroke="black" points="56.04,-104.8 56.04,-135.6 256.83,-135.6 256.83,-104.8 56.04,-104.8"/>
<text text-anchor="start" x="63.04" y="-117" font-family="Arial" font-size="14.00">categories </text>
<text text-anchor="start" x="131.52" y="-117" font-family="Arial" font-size="14.00" fill="#666666">[longtext]</text>
<polygon fill="none" stroke="black" points="56.04,-74 56.04,-104.8 256.83,-104.8 256.83,-74 56.04,-74"/>
<text text-anchor="start" x="63.04" y="-86.2" font-family="Arial" font-size="14.00">keywords </text>
<text text-anchor="start" x="126.06" y="-86.2" font-family="Arial" font-size="14.00" fill="#666666">[longtext]</text>
<polygon fill="none" stroke="black" points="56.04,-43.2 56.04,-74 256.83,-74 256.83,-43.2 56.04,-43.2"/>
<text text-anchor="start" x="63.04" y="-55.4" font-family="Arial" font-size="14.00">status </text>
<text text-anchor="start" x="104.28" y="-55.4" font-family="Arial" font-size="14.00" fill="#666666">[longtext]</text>
</g>
<!-- person&#45;&gt;podcast -->
<g id="edge2" class="edge">
<title>person:podcast_id&#45;&gt;podcast:id</title>
<path fill="none" stroke="black" d="M157.4,-716.45C166.23,-672.76 233.5,-693.83 256.83,-645.6 275.07,-607.91 299.7,-551.4 257.83,-551.4"/>
<polygon fill="black" stroke="black" points="157.39,-716.51 151.99,-726.05 156.9,-721.82 156.5,-726.13 156.5,-726.13 156.5,-726.13 156.9,-721.82 160.95,-726.88 157.39,-716.51"/>
</g>
<!-- contribution -->
<g id="node2" class="node">
<title>contribution</title>
<polygon fill="#efefef" stroke="none" points="43.2,-1412.4 43.2,-1448 269.68,-1448 269.68,-1412.4 43.2,-1412.4"/>
<polygon fill="none" stroke="black" points="43.2,-1412.4 43.2,-1448 269.68,-1448 269.68,-1412.4 43.2,-1412.4"/>
<text text-anchor="start" x="50.2" y="-1425.8" font-family="Arial Bold" font-size="18.00">contribution</text>
<text text-anchor="start" x="138.19" y="-1425.8" font-family="Arial" font-size="14.00">    </text>
<text text-anchor="start" x="169.3" y="-1425.8" font-family="Arial" font-size="14.00" fill="#666666">[BASE TABLE]</text>
<polygon fill="none" stroke="black" points="43.2,-1381.6 43.2,-1412.4 269.68,-1412.4 269.68,-1381.6 43.2,-1381.6"/>
<text text-anchor="start" x="50.2" y="-1393.8" font-family="Arial" font-size="14.00">id </text>
<text text-anchor="start" x="64.99" y="-1393.8" font-family="Arial" font-size="14.00" fill="#666666">[int(11)]</text>
<polygon fill="none" stroke="black" points="43.2,-1350.8 43.2,-1381.6 269.68,-1381.6 269.68,-1350.8 43.2,-1350.8"/>
<text text-anchor="start" x="50.2" y="-1363" font-family="Arial" font-size="14.00">person_id </text>
<text text-anchor="start" x="115.58" y="-1363" font-family="Arial" font-size="14.00" fill="#666666">[int(11)]</text>
<polygon fill="none" stroke="black" points="43.2,-1320 43.2,-1350.8 269.68,-1350.8 269.68,-1320 43.2,-1320"/>
<text text-anchor="start" x="50.2" y="-1332.2" font-family="Arial" font-size="14.00">podcast_id </text>
<text text-anchor="start" x="121.81" y="-1332.2" font-family="Arial" font-size="14.00" fill="#666666">[int(11)]</text>
<polygon fill="none" stroke="black" points="43.2,-1289.2 43.2,-1320 269.68,-1320 269.68,-1289.2 43.2,-1289.2"/>
<text text-anchor="start" x="50.2" y="-1301.4" font-family="Arial" font-size="14.00">season_id </text>
<text text-anchor="start" x="117.92" y="-1301.4" font-family="Arial" font-size="14.00" fill="#666666">[int(11)]</text>
<polygon fill="none" stroke="black" points="43.2,-1258.4 43.2,-1289.2 269.68,-1289.2 269.68,-1258.4 43.2,-1258.4"/>
<text text-anchor="start" x="50.2" y="-1270.6" font-family="Arial" font-size="14.00">episode_id </text>
<text text-anchor="start" x="121.81" y="-1270.6" font-family="Arial" font-size="14.00" fill="#666666">[int(11)]</text>
<polygon fill="none" stroke="black" points="43.2,-1227.6 43.2,-1258.4 269.68,-1258.4 269.68,-1227.6 43.2,-1227.6"/>
<text text-anchor="start" x="50.2" y="-1239.8" font-family="Arial" font-size="14.00">created </text>
<text text-anchor="start" x="100.79" y="-1239.8" font-family="Arial" font-size="14.00" fill="#666666">[datetime]</text>
<polygon fill="none" stroke="black" points="43.2,-1196.8 43.2,-1227.6 269.68,-1227.6 269.68,-1196.8 43.2,-1196.8"/>
<text text-anchor="start" x="50.2" y="-1209" font-family="Arial" font-size="14.00">updated </text>
<text text-anchor="start" x="104.7" y="-1209" font-family="Arial" font-size="14.00" fill="#666666">[datetime]</text>
<polygon fill="none" stroke="black" points="43.2,-1166 43.2,-1196.8 269.68,-1196.8 269.68,-1166 43.2,-1166"/>
<text text-anchor="start" x="50.2" y="-1178.2" font-family="Arial" font-size="14.00">roles </text>
<text text-anchor="start" x="84.43" y="-1178.2" font-family="Arial" font-size="14.00" fill="#666666">[longtext]</text>
</g>
<!-- contribution&#45;&gt;person -->
<g id="edge1" class="edge">
<title>contribution:person_id&#45;&gt;person:id</title>
<path fill="none" stroke="black" d="M280.49,-1364.35C353.13,-1335.94 336.58,-989.6 256.26,-989.6"/>
<polygon fill="black" stroke="black" points="280.83,-1364.29 270.17,-1361.72 275.59,-1365.27 271.33,-1366.08 271.33,-1366.08 271.33,-1366.08 275.59,-1365.27 271.84,-1370.56 280.83,-1364.29"/>
</g>
</g>
</svg>
