<?xml version="1.0" encoding="UTF-8" standalone="no"?>
<!DOCTYPE svg PUBLIC "-//W3C//DTD SVG 1.1//EN"
 "http://www.w3.org/Graphics/SVG/1.1/DTD/svg11.dtd">
<!-- Generated by graphviz version 2.40.1 (20161225.0304)
 -->
<!-- Title: person Pages: 1 -->
<svg width="351pt" height="1469pt"
 viewBox="0.00 0.00 351.33 1469.00" xmlns="http://www.w3.org/2000/svg" xmlns:xlink="http://www.w3.org/1999/xlink">
<g id="graph0" class="graph" transform="scale(1 1) rotate(0) translate(4 1465)">
<title>person</title>
<polygon fill="#ffffff" stroke="transparent" points="-4,4 -4,-1465 347.3266,-1465 347.3266,4 -4,4"/>
<!-- person -->
<g id="node1" class="node">
<title>person</title>
<polygon fill="#efefef" stroke="transparent" points="84.3266,-982.5 84.3266,-1017.5 281.3266,-1017.5 281.3266,-982.5 84.3266,-982.5"/>
<polygon fill="none" stroke="#000000" points="84.3266,-982.5 84.3266,-1017.5 281.3266,-1017.5 281.3266,-982.5 84.3266,-982.5"/>
<text text-anchor="start" x="91.5341" y="-995.3" font-family="Arial Bold" font-size="18.00" fill="#000000">person</text>
<text text-anchor="start" x="146.5511" y="-995.3" font-family="Arial" font-size="14.00" fill="#000000">    </text>
<text text-anchor="start" x="180.7559" y="-995.3" font-family="Arial" font-size="14.00" fill="#666666">[BASE TABLE]</text>
<polygon fill="none" stroke="#000000" points="84.3266,-952.5 84.3266,-982.5 281.3266,-982.5 281.3266,-952.5 84.3266,-952.5"/>
<text text-anchor="start" x="91.3266" y="-963.9" font-family="Arial" font-size="14.00" fill="#000000">id </text>
<text text-anchor="start" x="106.1064" y="-963.9" font-family="Arial" font-size="14.00" fill="#666666">[int(11)]</text>
<polygon fill="none" stroke="#000000" points="84.3266,-922.5 84.3266,-952.5 281.3266,-952.5 281.3266,-922.5 84.3266,-922.5"/>
<text text-anchor="start" x="91.3266" y="-933.9" font-family="Arial" font-size="14.00" fill="#000000">fullname </text>
<text text-anchor="start" x="148.112" y="-933.9" font-family="Arial" font-size="14.00" fill="#666666">[varchar(255)]</text>
<polygon fill="none" stroke="#000000" points="84.3266,-892.5 84.3266,-922.5 281.3266,-922.5 281.3266,-892.5 84.3266,-892.5"/>
<text text-anchor="start" x="91.0321" y="-903.9" font-family="Arial" font-size="14.00" fill="#000000">sortable_name </text>
<text text-anchor="start" x="187.5019" y="-903.9" font-family="Arial" font-size="14.00" fill="#666666">[varchar(255)]</text>
<polygon fill="none" stroke="#000000" points="84.3266,-862.5 84.3266,-892.5 281.3266,-892.5 281.3266,-862.5 84.3266,-862.5"/>
<text text-anchor="start" x="91.3266" y="-873.9" font-family="Arial" font-size="14.00" fill="#000000">location </text>
<text text-anchor="start" x="143.4514" y="-873.9" font-family="Arial" font-size="14.00" fill="#666666">[varchar(255)]</text>
<polygon fill="none" stroke="#000000" points="84.3266,-832.5 84.3266,-862.5 281.3266,-862.5 281.3266,-832.5 84.3266,-832.5"/>
<text text-anchor="start" x="91.3266" y="-843.9" font-family="Arial" font-size="14.00" fill="#000000">bio </text>
<text text-anchor="start" x="113.889" y="-843.9" font-family="Arial" font-size="14.00" fill="#666666">[longtext]</text>
<polygon fill="none" stroke="#000000" points="84.3266,-802.5 84.3266,-832.5 281.3266,-832.5 281.3266,-802.5 84.3266,-802.5"/>
<text text-anchor="start" x="91.3266" y="-813.9" font-family="Arial" font-size="14.00" fill="#000000">created </text>
<text text-anchor="start" x="141.8988" y="-813.9" font-family="Arial" font-size="14.00" fill="#666666">[datetime]</text>
<polygon fill="none" stroke="#000000" points="84.3266,-772.5 84.3266,-802.5 281.3266,-802.5 281.3266,-772.5 84.3266,-772.5"/>
<text text-anchor="start" x="91.3266" y="-783.9" font-family="Arial" font-size="14.00" fill="#000000">updated </text>
<text text-anchor="start" x="145.8034" y="-783.9" font-family="Arial" font-size="14.00" fill="#666666">[datetime]</text>
<polygon fill="none" stroke="#000000" points="84.3266,-742.5 84.3266,-772.5 281.3266,-772.5 281.3266,-742.5 84.3266,-742.5"/>
<text text-anchor="start" x="91.3266" y="-753.9" font-family="Arial" font-size="14.00" fill="#000000">institution </text>
<text text-anchor="start" x="154.3392" y="-753.9" font-family="Arial" font-size="14.00" fill="#666666">[varchar(255)]</text>
<polygon fill="none" stroke="#000000" points="84.3266,-712.5 84.3266,-742.5 281.3266,-742.5 281.3266,-712.5 84.3266,-712.5"/>
<text text-anchor="start" x="91.3266" y="-723.9" font-family="Arial" font-size="14.00" fill="#000000">podcast_id </text>
<text text-anchor="start" x="162.91" y="-723.9" font-family="Arial" font-size="14.00" fill="#666666">[int(11)]</text>
<polygon fill="none" stroke="#000000" stroke-width="3" points="82.3266,-711.5 82.3266,-1019.5 282.3266,-1019.5 282.3266,-711.5 82.3266,-711.5"/>
</g>
<!-- podcast -->
<g id="node3" class="node">
<title>podcast</title>
<polygon fill="#efefef" stroke="transparent" points="67.3266,-552.5 67.3266,-587.5 298.3266,-587.5 298.3266,-552.5 67.3266,-552.5"/>
<polygon fill="none" stroke="#000000" points="67.3266,-552.5 67.3266,-587.5 298.3266,-587.5 298.3266,-552.5 67.3266,-552.5"/>
<text text-anchor="start" x="87.5291" y="-565.3" font-family="Arial Bold" font-size="18.00" fill="#000000">podcast</text>
<text text-anchor="start" x="150.5561" y="-565.3" font-family="Arial" font-size="14.00" fill="#000000">    </text>
<text text-anchor="start" x="184.7609" y="-565.3" font-family="Arial" font-size="14.00" fill="#666666">[BASE TABLE]</text>
<polygon fill="none" stroke="#000000" points="67.3266,-522.5 67.3266,-552.5 298.3266,-552.5 298.3266,-522.5 67.3266,-522.5"/>
<text text-anchor="start" x="74.3266" y="-533.9" font-family="Arial" font-size="14.00" fill="#000000">id    </text>
<text text-anchor="start" x="119.4206" y="-533.9" font-family="Arial" font-size="14.00" fill="#666666">[int(11)]</text>
<polygon fill="none" stroke="#000000" points="67.3266,-492.5 67.3266,-522.5 298.3266,-522.5 298.3266,-492.5 67.3266,-492.5"/>
<text text-anchor="start" x="74.3266" y="-503.9" font-family="Arial" font-size="14.00" fill="#000000">publisher_id    </text>
<text text-anchor="start" x="183.99" y="-503.9" font-family="Arial" font-size="14.00" fill="#666666">[int(11)]</text>
<polygon fill="none" stroke="#000000" points="67.3266,-462.5 67.3266,-492.5 298.3266,-492.5 298.3266,-462.5 67.3266,-462.5"/>
<text text-anchor="start" x="74.3266" y="-473.9" font-family="Arial" font-size="14.00" fill="#000000">title    </text>
<text text-anchor="start" x="130.3084" y="-473.9" font-family="Arial" font-size="14.00" fill="#666666">[varchar(255)]</text>
<polygon fill="none" stroke="#000000" points="67.3266,-432.5 67.3266,-462.5 298.3266,-462.5 298.3266,-432.5 67.3266,-432.5"/>
<text text-anchor="start" x="74.3266" y="-443.9" font-family="Arial" font-size="14.00" fill="#000000">sub_title    </text>
<text text-anchor="start" x="160.6562" y="-443.9" font-family="Arial" font-size="14.00" fill="#666666">[varchar(255)]</text>
<polygon fill="none" stroke="#000000" points="67.3266,-402.5 67.3266,-432.5 298.3266,-432.5 298.3266,-402.5 67.3266,-402.5"/>
<text text-anchor="start" x="74.3266" y="-413.9" font-family="Arial" font-size="14.00" fill="#000000">explicit    </text>
<text text-anchor="start" x="151.307" y="-413.9" font-family="Arial" font-size="14.00" fill="#666666">[tinyint(1)]</text>
<polygon fill="none" stroke="#000000" points="67.3266,-372.5 67.3266,-402.5 298.3266,-402.5 298.3266,-372.5 67.3266,-372.5"/>
<text text-anchor="start" x="74.3266" y="-383.9" font-family="Arial" font-size="14.00" fill="#000000">description    </text>
<text text-anchor="start" x="176.2088" y="-383.9" font-family="Arial" font-size="14.00" fill="#666666">[longtext]</text>
<polygon fill="none" stroke="#000000" points="67.3266,-342.5 67.3266,-372.5 298.3266,-372.5 298.3266,-342.5 67.3266,-342.5"/>
<text text-anchor="start" x="74.3266" y="-353.9" font-family="Arial" font-size="14.00" fill="#000000">copyright    </text>
<text text-anchor="start" x="165.3196" y="-353.9" font-family="Arial" font-size="14.00" fill="#666666">[longtext]</text>
<polygon fill="none" stroke="#000000" points="67.3266,-312.5 67.3266,-342.5 298.3266,-342.5 298.3266,-312.5 67.3266,-312.5"/>
<text text-anchor="start" x="74.3266" y="-323.9" font-family="Arial" font-size="14.00" fill="#000000">website    </text>
<text text-anchor="start" x="155.983" y="-323.9" font-family="Arial" font-size="14.00" fill="#666666">[longtext]</text>
<polygon fill="none" stroke="#000000" points="67.3266,-282.5 67.3266,-312.5 298.3266,-312.5 298.3266,-282.5 67.3266,-282.5"/>
<text text-anchor="start" x="74.3266" y="-293.9" font-family="Arial" font-size="14.00" fill="#000000">rss    </text>
<text text-anchor="start" x="127.192" y="-293.9" font-family="Arial" font-size="14.00" fill="#666666">[varchar(255)]</text>
<polygon fill="none" stroke="#000000" points="67.3266,-252.5 67.3266,-282.5 298.3266,-282.5 298.3266,-252.5 67.3266,-252.5"/>
<text text-anchor="start" x="74.3266" y="-263.9" font-family="Arial" font-size="14.00" fill="#000000">created    </text>
<text text-anchor="start" x="155.213" y="-263.9" font-family="Arial" font-size="14.00" fill="#666666">[datetime]</text>
<polygon fill="none" stroke="#000000" points="67.3266,-222.5 67.3266,-252.5 298.3266,-252.5 298.3266,-222.5 67.3266,-222.5"/>
<text text-anchor="start" x="74.3266" y="-233.9" font-family="Arial" font-size="14.00" fill="#000000">updated    </text>
<text text-anchor="start" x="159.1176" y="-233.9" font-family="Arial" font-size="14.00" fill="#666666">[datetime]</text>
<polygon fill="none" stroke="#000000" points="67.3266,-192.5 67.3266,-222.5 298.3266,-222.5 298.3266,-192.5 67.3266,-192.5"/>
<text text-anchor="start" x="74.3266" y="-203.9" font-family="Arial" font-size="14.00" fill="#000000">license    </text>
<text text-anchor="start" x="152.0924" y="-203.9" font-family="Arial" font-size="14.00" fill="#666666">[longtext]</text>
<polygon fill="none" stroke="#000000" points="67.3266,-162.5 67.3266,-192.5 298.3266,-192.5 298.3266,-162.5 67.3266,-162.5"/>
<text text-anchor="start" x="74.3266" y="-173.9" font-family="Arial" font-size="14.00" fill="#000000">guid    </text>
<text text-anchor="start" x="134.9858" y="-173.9" font-family="Arial" font-size="14.00" fill="#666666">[varchar(255)]</text>
<polygon fill="none" stroke="#000000" points="67.3266,-132.5 67.3266,-162.5 298.3266,-162.5 298.3266,-132.5 67.3266,-132.5"/>
<text text-anchor="start" x="74.307" y="-143.9" font-family="Arial" font-size="14.00" fill="#000000">language_code    </text>
<text text-anchor="start" x="204.227" y="-143.9" font-family="Arial" font-size="14.00" fill="#666666">[varchar(255)]</text>
<polygon fill="none" stroke="#000000" points="67.3266,-102.5 67.3266,-132.5 298.3266,-132.5 298.3266,-102.5 67.3266,-102.5"/>
<text text-anchor="start" x="74.3266" y="-113.9" font-family="Arial" font-size="14.00" fill="#000000">categories    </text>
<text text-anchor="start" x="173.1022" y="-113.9" font-family="Arial" font-size="14.00" fill="#666666">[longtext]</text>
<polygon fill="none" stroke="#000000" points="67.3266,-72.5 67.3266,-102.5 298.3266,-102.5 298.3266,-72.5 67.3266,-72.5"/>
<text text-anchor="start" x="74.3266" y="-83.9" font-family="Arial" font-size="14.00" fill="#000000">keywords    </text>
<text text-anchor="start" x="167.6464" y="-83.9" font-family="Arial" font-size="14.00" fill="#666666">[longtext]</text>
<polygon fill="none" stroke="#000000" points="67.3266,-42.5 67.3266,-72.5 298.3266,-72.5 298.3266,-42.5 67.3266,-42.5"/>
<text text-anchor="start" x="74.3266" y="-53.9" font-family="Arial" font-size="14.00" fill="#000000">status    </text>
<text text-anchor="start" x="145.8778" y="-53.9" font-family="Arial" font-size="14.00" fill="#666666">[longtext]</text>
</g>
<!-- person&#45;&gt;podcast -->
<g id="edge2" class="edge">
<title>person:podcast_id&#45;&gt;podcast:id</title>
<path fill="none" stroke="#000000" d="M182.4601,-702.4198C173.3358,-653.5566 94.6738,-683.636 67.3266,-631 48.1677,-594.1245 25.771,-537.5 67.3266,-537.5"/>
<polygon fill="#000000" stroke="#000000" points="182.4701,-702.5367 178.8431,-712.8854 182.8983,-707.5184 183.3266,-712.5 183.3266,-712.5 183.3266,-712.5 182.8983,-707.5184 187.81,-712.1146 182.4701,-702.5367 182.4701,-702.5367"/>
</g>
<!-- contribution -->
<g id="node2" class="node">
<title>contribution</title>
<polygon fill="#efefef" stroke="transparent" points="66.3266,-1382.5 66.3266,-1417.5 300.3266,-1417.5 300.3266,-1382.5 66.3266,-1382.5"/>
<polygon fill="none" stroke="#000000" points="66.3266,-1382.5 66.3266,-1417.5 300.3266,-1417.5 300.3266,-1382.5 66.3266,-1382.5"/>
<text text-anchor="start" x="73.0315" y="-1395.3" font-family="Arial Bold" font-size="18.00" fill="#000000">contribution</text>
<text text-anchor="start" x="166.0537" y="-1395.3" font-family="Arial" font-size="14.00" fill="#000000">    </text>
<text text-anchor="start" x="200.2585" y="-1395.3" font-family="Arial" font-size="14.00" fill="#666666">[BASE TABLE]</text>
<polygon fill="none" stroke="#000000" points="66.3266,-1352.5 66.3266,-1382.5 300.3266,-1382.5 300.3266,-1352.5 66.3266,-1352.5"/>
<text text-anchor="start" x="73.3266" y="-1363.9" font-family="Arial" font-size="14.00" fill="#000000">id    </text>
<text text-anchor="start" x="118.4206" y="-1363.9" font-family="Arial" font-size="14.00" fill="#666666">[int(11)]</text>
<polygon fill="none" stroke="#000000" points="66.3266,-1322.5 66.3266,-1352.5 300.3266,-1352.5 300.3266,-1322.5 66.3266,-1322.5"/>
<text text-anchor="start" x="73.3266" y="-1333.9" font-family="Arial" font-size="14.00" fill="#000000">person_id    </text>
<text text-anchor="start" x="168.9942" y="-1333.9" font-family="Arial" font-size="14.00" fill="#666666">[int(11)]</text>
<polygon fill="none" stroke="#000000" points="66.3266,-1292.5 66.3266,-1322.5 300.3266,-1322.5 300.3266,-1292.5 66.3266,-1292.5"/>
<text text-anchor="start" x="73.3266" y="-1303.9" font-family="Arial" font-size="14.00" fill="#000000">podcast_id    </text>
<text text-anchor="start" x="175.2242" y="-1303.9" font-family="Arial" font-size="14.00" fill="#666666">[int(11)]</text>
<polygon fill="none" stroke="#000000" points="66.3266,-1262.5 66.3266,-1292.5 300.3266,-1292.5 300.3266,-1262.5 66.3266,-1262.5"/>
<text text-anchor="start" x="73.3266" y="-1273.9" font-family="Arial" font-size="14.00" fill="#000000">season_id    </text>
<text text-anchor="start" x="171.3336" y="-1273.9" font-family="Arial" font-size="14.00" fill="#666666">[int(11)]</text>
<polygon fill="none" stroke="#000000" points="66.3266,-1232.5 66.3266,-1262.5 300.3266,-1262.5 300.3266,-1232.5 66.3266,-1232.5"/>
<text text-anchor="start" x="73.3266" y="-1243.9" font-family="Arial" font-size="14.00" fill="#000000">episode_id    </text>
<text text-anchor="start" x="175.2228" y="-1243.9" font-family="Arial" font-size="14.00" fill="#666666">[int(11)]</text>
<polygon fill="none" stroke="#000000" points="66.3266,-1202.5 66.3266,-1232.5 300.3266,-1232.5 300.3266,-1202.5 66.3266,-1202.5"/>
<text text-anchor="start" x="73.3266" y="-1213.9" font-family="Arial" font-size="14.00" fill="#000000">created    </text>
<text text-anchor="start" x="154.213" y="-1213.9" font-family="Arial" font-size="14.00" fill="#666666">[datetime]</text>
<polygon fill="none" stroke="#000000" points="66.3266,-1172.5 66.3266,-1202.5 300.3266,-1202.5 300.3266,-1172.5 66.3266,-1172.5"/>
<text text-anchor="start" x="73.3266" y="-1183.9" font-family="Arial" font-size="14.00" fill="#000000">updated    </text>
<text text-anchor="start" x="158.1176" y="-1183.9" font-family="Arial" font-size="14.00" fill="#666666">[datetime]</text>
<polygon fill="none" stroke="#000000" points="66.3266,-1142.5 66.3266,-1172.5 300.3266,-1172.5 300.3266,-1142.5 66.3266,-1142.5"/>
<text text-anchor="start" x="73.3266" y="-1153.9" font-family="Arial" font-size="14.00" fill="#000000">roles    </text>
<text text-anchor="start" x="137.8638" y="-1153.9" font-family="Arial" font-size="14.00" fill="#666666">[longtext]</text>
</g>
<!-- contribution&#45;&gt;person -->
<g id="edge1" class="edge">
<title>contribution:person_id&#45;&gt;person:id</title>
<path fill="none" stroke="#000000" d="M56.2808,-1336.9895C-36.7142,-1327.1628 .3929,-1177.8917 66.3266,-1100 128.9233,-1026.0506 218.7299,-1137.9494 281.3266,-1064 309.0365,-1031.2645 324.2155,-967.5 281.3266,-967.5"/>
<polygon fill="#000000" stroke="#000000" points="56.3395,-1336.9924 66.0982,-1341.9942 61.333,-1337.2462 66.3266,-1337.5 66.3266,-1337.5 66.3266,-1337.5 61.333,-1337.2462 66.555,-1333.0058 56.3395,-1336.9924 56.3395,-1336.9924"/>
</g>
</g>
</svg>
