<?xml version="1.0" encoding="UTF-8" standalone="no"?>
<!DOCTYPE svg PUBLIC "-//W3C//DTD SVG 1.1//EN"
 "http://www.w3.org/Graphics/SVG/1.1/DTD/svg11.dtd">
<!-- Generated by graphviz version 2.40.1 (20161225.0304)
 -->
<!-- Title: podcast Pages: 1 -->
<svg width="954pt" height="1709pt"
 viewBox="0.00 0.00 953.50 1709.00" xmlns="http://www.w3.org/2000/svg" xmlns:xlink="http://www.w3.org/1999/xlink">
<g id="graph0" class="graph" transform="scale(1 1) rotate(0) translate(4 1705)">
<title>podcast</title>
<polygon fill="#ffffff" stroke="transparent" points="-4,4 -4,-1705 949.5,-1705 949.5,4 -4,4"/>
<!-- podcast -->
<g id="node1" class="node">
<title>podcast</title>
<polygon fill="#efefef" stroke="transparent" points="388,-922.5 388,-957.5 592,-957.5 592,-922.5 388,-922.5"/>
<polygon fill="none" stroke="#000000" points="388,-922.5 388,-957.5 592,-957.5 592,-922.5 388,-922.5"/>
<text text-anchor="start" x="394.7025" y="-935.3" font-family="Arial Bold" font-size="18.00" fill="#000000">podcast</text>
<text text-anchor="start" x="457.7295" y="-935.3" font-family="Arial" font-size="14.00" fill="#000000">    </text>
<text text-anchor="start" x="491.9343" y="-935.3" font-family="Arial" font-size="14.00" fill="#666666">[BASE TABLE]</text>
<polygon fill="none" stroke="#000000" points="388,-892.5 388,-922.5 592,-922.5 592,-892.5 388,-892.5"/>
<text text-anchor="start" x="395" y="-903.9" font-family="Arial" font-size="14.00" fill="#000000">id </text>
<text text-anchor="start" x="409.7798" y="-903.9" font-family="Arial" font-size="14.00" fill="#666666">[int(11)]</text>
<polygon fill="none" stroke="#000000" points="388,-862.5 388,-892.5 592,-892.5 592,-862.5 388,-862.5"/>
<text text-anchor="start" x="395" y="-873.9" font-family="Arial" font-size="14.00" fill="#000000">publisher_id </text>
<text text-anchor="start" x="474.3492" y="-873.9" font-family="Arial" font-size="14.00" fill="#666666">[int(11)]</text>
<polygon fill="none" stroke="#000000" points="388,-832.5 388,-862.5 592,-862.5 592,-832.5 388,-832.5"/>
<text text-anchor="start" x="395" y="-843.9" font-family="Arial" font-size="14.00" fill="#000000">title </text>
<text text-anchor="start" x="420.6676" y="-843.9" font-family="Arial" font-size="14.00" fill="#666666">[varchar(255)]</text>
<polygon fill="none" stroke="#000000" points="388,-802.5 388,-832.5 592,-832.5 592,-802.5 388,-802.5"/>
<text text-anchor="start" x="395" y="-813.9" font-family="Arial" font-size="14.00" fill="#000000">sub_title </text>
<text text-anchor="start" x="451.0154" y="-813.9" font-family="Arial" font-size="14.00" fill="#666666">[varchar(255)]</text>
<polygon fill="none" stroke="#000000" points="388,-772.5 388,-802.5 592,-802.5 592,-772.5 388,-772.5"/>
<text text-anchor="start" x="395" y="-783.9" font-family="Arial" font-size="14.00" fill="#000000">explicit </text>
<text text-anchor="start" x="441.6662" y="-783.9" font-family="Arial" font-size="14.00" fill="#666666">[tinyint(1)]</text>
<polygon fill="none" stroke="#000000" points="388,-742.5 388,-772.5 592,-772.5 592,-742.5 388,-742.5"/>
<text text-anchor="start" x="395" y="-753.9" font-family="Arial" font-size="14.00" fill="#000000">description </text>
<text text-anchor="start" x="466.568" y="-753.9" font-family="Arial" font-size="14.00" fill="#666666">[longtext]</text>
<polygon fill="none" stroke="#000000" points="388,-712.5 388,-742.5 592,-742.5 592,-712.5 388,-712.5"/>
<text text-anchor="start" x="395" y="-723.9" font-family="Arial" font-size="14.00" fill="#000000">copyright </text>
<text text-anchor="start" x="455.6788" y="-723.9" font-family="Arial" font-size="14.00" fill="#666666">[longtext]</text>
<polygon fill="none" stroke="#000000" points="388,-682.5 388,-712.5 592,-712.5 592,-682.5 388,-682.5"/>
<text text-anchor="start" x="395" y="-693.9" font-family="Arial" font-size="14.00" fill="#000000">website </text>
<text text-anchor="start" x="446.3422" y="-693.9" font-family="Arial" font-size="14.00" fill="#666666">[longtext]</text>
<polygon fill="none" stroke="#000000" points="388,-652.5 388,-682.5 592,-682.5 592,-652.5 388,-652.5"/>
<text text-anchor="start" x="395" y="-663.9" font-family="Arial" font-size="14.00" fill="#000000">rss </text>
<text text-anchor="start" x="417.5512" y="-663.9" font-family="Arial" font-size="14.00" fill="#666666">[varchar(255)]</text>
<polygon fill="none" stroke="#000000" points="388,-622.5 388,-652.5 592,-652.5 592,-622.5 388,-622.5"/>
<text text-anchor="start" x="395" y="-633.9" font-family="Arial" font-size="14.00" fill="#000000">created </text>
<text text-anchor="start" x="445.5722" y="-633.9" font-family="Arial" font-size="14.00" fill="#666666">[datetime]</text>
<polygon fill="none" stroke="#000000" points="388,-592.5 388,-622.5 592,-622.5 592,-592.5 388,-592.5"/>
<text text-anchor="start" x="395" y="-603.9" font-family="Arial" font-size="14.00" fill="#000000">updated </text>
<text text-anchor="start" x="449.4768" y="-603.9" font-family="Arial" font-size="14.00" fill="#666666">[datetime]</text>
<polygon fill="none" stroke="#000000" points="388,-562.5 388,-592.5 592,-592.5 592,-562.5 388,-562.5"/>
<text text-anchor="start" x="395" y="-573.9" font-family="Arial" font-size="14.00" fill="#000000">license </text>
<text text-anchor="start" x="442.4516" y="-573.9" font-family="Arial" font-size="14.00" fill="#666666">[longtext]</text>
<polygon fill="none" stroke="#000000" points="388,-532.5 388,-562.5 592,-562.5 592,-532.5 388,-532.5"/>
<text text-anchor="start" x="395" y="-543.9" font-family="Arial" font-size="14.00" fill="#000000">guid </text>
<text text-anchor="start" x="425.345" y="-543.9" font-family="Arial" font-size="14.00" fill="#666666">[varchar(255)]</text>
<polygon fill="none" stroke="#000000" points="388,-502.5 388,-532.5 592,-532.5 592,-502.5 388,-502.5"/>
<text text-anchor="start" x="395" y="-513.9" font-family="Arial" font-size="14.00" fill="#000000">language_code </text>
<text text-anchor="start" x="494.6058" y="-513.9" font-family="Arial" font-size="14.00" fill="#666666">[varchar(255)]</text>
<polygon fill="none" stroke="#000000" points="388,-472.5 388,-502.5 592,-502.5 592,-472.5 388,-472.5"/>
<text text-anchor="start" x="395" y="-483.9" font-family="Arial" font-size="14.00" fill="#000000">categories </text>
<text text-anchor="start" x="463.4614" y="-483.9" font-family="Arial" font-size="14.00" fill="#666666">[longtext]</text>
<polygon fill="none" stroke="#000000" points="388,-442.5 388,-472.5 592,-472.5 592,-442.5 388,-442.5"/>
<text text-anchor="start" x="395" y="-453.9" font-family="Arial" font-size="14.00" fill="#000000">keywords </text>
<text text-anchor="start" x="458.0056" y="-453.9" font-family="Arial" font-size="14.00" fill="#666666">[longtext]</text>
<polygon fill="none" stroke="#000000" stroke-width="3" points="386.5,-441.5 386.5,-959.5 593.5,-959.5 593.5,-441.5 386.5,-441.5"/>
</g>
<!-- publisher -->
<g id="node5" class="node">
<title>publisher</title>
<polygon fill="#efefef" stroke="transparent" points="383,-282.5 383,-317.5 597,-317.5 597,-282.5 383,-282.5"/>
<polygon fill="none" stroke="#000000" points="383,-282.5 383,-317.5 597,-317.5 597,-282.5 383,-282.5"/>
<text text-anchor="start" x="389.7102" y="-295.3" font-family="Arial Bold" font-size="18.00" fill="#000000">publisher</text>
<text text-anchor="start" x="462.7218" y="-295.3" font-family="Arial" font-size="14.00" fill="#000000">    </text>
<text text-anchor="start" x="496.9266" y="-295.3" font-family="Arial" font-size="14.00" fill="#666666">[BASE TABLE]</text>
<polygon fill="none" stroke="#000000" points="383,-252.5 383,-282.5 597,-282.5 597,-252.5 383,-252.5"/>
<text text-anchor="start" x="390" y="-263.9" font-family="Arial" font-size="14.00" fill="#000000">id    </text>
<text text-anchor="start" x="435.094" y="-263.9" font-family="Arial" font-size="14.00" fill="#666666">[int(11)]</text>
<polygon fill="none" stroke="#000000" points="383,-222.5 383,-252.5 597,-252.5 597,-222.5 383,-222.5"/>
<text text-anchor="start" x="390" y="-233.9" font-family="Arial" font-size="14.00" fill="#000000">name    </text>
<text text-anchor="start" x="459.2132" y="-233.9" font-family="Arial" font-size="14.00" fill="#666666">[varchar(255)]</text>
<polygon fill="none" stroke="#000000" points="383,-192.5 383,-222.5 597,-222.5 597,-192.5 383,-192.5"/>
<text text-anchor="start" x="390" y="-203.9" font-family="Arial" font-size="14.00" fill="#000000">location    </text>
<text text-anchor="start" x="472.439" y="-203.9" font-family="Arial" font-size="14.00" fill="#666666">[varchar(255)]</text>
<polygon fill="none" stroke="#000000" points="383,-162.5 383,-192.5 597,-192.5 597,-162.5 383,-162.5"/>
<text text-anchor="start" x="390" y="-173.9" font-family="Arial" font-size="14.00" fill="#000000">website    </text>
<text text-anchor="start" x="471.6564" y="-173.9" font-family="Arial" font-size="14.00" fill="#666666">[varchar(255)]</text>
<polygon fill="none" stroke="#000000" points="383,-132.5 383,-162.5 597,-162.5 597,-132.5 383,-132.5"/>
<text text-anchor="start" x="390" y="-143.9" font-family="Arial" font-size="14.00" fill="#000000">description    </text>
<text text-anchor="start" x="491.8822" y="-143.9" font-family="Arial" font-size="14.00" fill="#666666">[longtext]</text>
<polygon fill="none" stroke="#000000" points="383,-102.5 383,-132.5 597,-132.5 597,-102.5 383,-102.5"/>
<text text-anchor="start" x="390" y="-113.9" font-family="Arial" font-size="14.00" fill="#000000">contact    </text>
<text text-anchor="start" x="469.3338" y="-113.9" font-family="Arial" font-size="14.00" fill="#666666">[longtext]</text>
<polygon fill="none" stroke="#000000" points="383,-72.5 383,-102.5 597,-102.5 597,-72.5 383,-72.5"/>
<text text-anchor="start" x="390" y="-83.9" font-family="Arial" font-size="14.00" fill="#000000">created    </text>
<text text-anchor="start" x="470.8864" y="-83.9" font-family="Arial" font-size="14.00" fill="#666666">[datetime]</text>
<polygon fill="none" stroke="#000000" points="383,-42.5 383,-72.5 597,-72.5 597,-42.5 383,-42.5"/>
<text text-anchor="start" x="390" y="-53.9" font-family="Arial" font-size="14.00" fill="#000000">updated    </text>
<text text-anchor="start" x="474.791" y="-53.9" font-family="Arial" font-size="14.00" fill="#666666">[datetime]</text>
</g>
<!-- podcast&#45;&gt;publisher -->
<g id="edge4" class="edge">
<title>podcast:publisher_id&#45;&gt;publisher:id</title>
<path fill="none" stroke="#000000" d="M602.1972,-877.2076C863.2027,-862.11 864.6783,-267.5 597,-267.5"/>
<polygon fill="#000000" stroke="#000000" points="601.9959,-877.2132 591.871,-873.0018 596.9979,-877.3566 592,-877.5 592,-877.5 592,-877.5 596.9979,-877.3566 592.129,-881.9982 601.9959,-877.2132 601.9959,-877.2132"/>
</g>
<!-- contribution -->
<g id="node2" class="node">
<title>contribution</title>
<polygon fill="#efefef" stroke="transparent" points="43,-1472.5 43,-1507.5 277,-1507.5 277,-1472.5 43,-1472.5"/>
<polygon fill="none" stroke="#000000" points="43,-1472.5 43,-1507.5 277,-1507.5 277,-1472.5 43,-1472.5"/>
<text text-anchor="start" x="49.7049" y="-1485.3" font-family="Arial Bold" font-size="18.00" fill="#000000">contribution</text>
<text text-anchor="start" x="142.7271" y="-1485.3" font-family="Arial" font-size="14.00" fill="#000000">    </text>
<text text-anchor="start" x="176.9319" y="-1485.3" font-family="Arial" font-size="14.00" fill="#666666">[BASE TABLE]</text>
<polygon fill="none" stroke="#000000" points="43,-1442.5 43,-1472.5 277,-1472.5 277,-1442.5 43,-1442.5"/>
<text text-anchor="start" x="50" y="-1453.9" font-family="Arial" font-size="14.00" fill="#000000">id    </text>
<text text-anchor="start" x="95.094" y="-1453.9" font-family="Arial" font-size="14.00" fill="#666666">[int(11)]</text>
<polygon fill="none" stroke="#000000" points="43,-1412.5 43,-1442.5 277,-1442.5 277,-1412.5 43,-1412.5"/>
<text text-anchor="start" x="50" y="-1423.9" font-family="Arial" font-size="14.00" fill="#000000">person_id    </text>
<text text-anchor="start" x="145.6676" y="-1423.9" font-family="Arial" font-size="14.00" fill="#666666">[int(11)]</text>
<polygon fill="none" stroke="#000000" points="43,-1382.5 43,-1412.5 277,-1412.5 277,-1382.5 43,-1382.5"/>
<text text-anchor="start" x="50" y="-1393.9" font-family="Arial" font-size="14.00" fill="#000000">contributor_role_id    </text>
<text text-anchor="start" x="200.1136" y="-1393.9" font-family="Arial" font-size="14.00" fill="#666666">[int(11)]</text>
<polygon fill="none" stroke="#000000" points="43,-1352.5 43,-1382.5 277,-1382.5 277,-1352.5 43,-1352.5"/>
<text text-anchor="start" x="50" y="-1363.9" font-family="Arial" font-size="14.00" fill="#000000">podcast_id    </text>
<text text-anchor="start" x="151.8976" y="-1363.9" font-family="Arial" font-size="14.00" fill="#666666">[int(11)]</text>
<polygon fill="none" stroke="#000000" points="43,-1322.5 43,-1352.5 277,-1352.5 277,-1322.5 43,-1322.5"/>
<text text-anchor="start" x="50" y="-1333.9" font-family="Arial" font-size="14.00" fill="#000000">season_id    </text>
<text text-anchor="start" x="148.007" y="-1333.9" font-family="Arial" font-size="14.00" fill="#666666">[int(11)]</text>
<polygon fill="none" stroke="#000000" points="43,-1292.5 43,-1322.5 277,-1322.5 277,-1292.5 43,-1292.5"/>
<text text-anchor="start" x="50" y="-1303.9" font-family="Arial" font-size="14.00" fill="#000000">episode_id    </text>
<text text-anchor="start" x="151.8962" y="-1303.9" font-family="Arial" font-size="14.00" fill="#666666">[int(11)]</text>
<polygon fill="none" stroke="#000000" points="43,-1262.5 43,-1292.5 277,-1292.5 277,-1262.5 43,-1262.5"/>
<text text-anchor="start" x="50" y="-1273.9" font-family="Arial" font-size="14.00" fill="#000000">created    </text>
<text text-anchor="start" x="130.8864" y="-1273.9" font-family="Arial" font-size="14.00" fill="#666666">[datetime]</text>
<polygon fill="none" stroke="#000000" points="43,-1232.5 43,-1262.5 277,-1262.5 277,-1232.5 43,-1232.5"/>
<text text-anchor="start" x="50" y="-1243.9" font-family="Arial" font-size="14.00" fill="#000000">updated    </text>
<text text-anchor="start" x="134.791" y="-1243.9" font-family="Arial" font-size="14.00" fill="#666666">[datetime]</text>
</g>
<!-- contribution&#45;&gt;podcast -->
<g id="edge1" class="edge">
<title>contribution:podcast_id&#45;&gt;podcast:id</title>
<path fill="none" stroke="#000000" d="M286.9833,-1365.7144C346.6776,-1342.861 309.0785,-1107.2007 329,-1040 347.3218,-978.1953 323.5368,-907.5 388,-907.5"/>
<polygon fill="#000000" stroke="#000000" points="286.8438,-1365.7393 276.2077,-1363.0703 281.9219,-1366.6197 277,-1367.5 277,-1367.5 277,-1367.5 281.9219,-1366.6197 277.7923,-1371.9297 286.8438,-1365.7393 286.8438,-1365.7393"/>
</g>
<!-- episode -->
<g id="node3" class="node">
<title>episode</title>
<polygon fill="#efefef" stroke="transparent" points="381,-1622.5 381,-1657.5 599,-1657.5 599,-1622.5 381,-1622.5"/>
<polygon fill="none" stroke="#000000" points="381,-1622.5 381,-1657.5 599,-1657.5 599,-1622.5 381,-1622.5"/>
<text text-anchor="start" x="394.7034" y="-1635.3" font-family="Arial Bold" font-size="18.00" fill="#000000">episode</text>
<text text-anchor="start" x="457.7286" y="-1635.3" font-family="Arial" font-size="14.00" fill="#000000">    </text>
<text text-anchor="start" x="491.9334" y="-1635.3" font-family="Arial" font-size="14.00" fill="#666666">[BASE TABLE]</text>
<polygon fill="none" stroke="#000000" points="381,-1592.5 381,-1622.5 599,-1622.5 599,-1592.5 381,-1592.5"/>
<text text-anchor="start" x="388" y="-1603.9" font-family="Arial" font-size="14.00" fill="#000000">id    </text>
<text text-anchor="start" x="433.094" y="-1603.9" font-family="Arial" font-size="14.00" fill="#666666">[int(11)]</text>
<polygon fill="none" stroke="#000000" points="381,-1562.5 381,-1592.5 599,-1592.5 599,-1562.5 381,-1562.5"/>
<text text-anchor="start" x="388" y="-1573.9" font-family="Arial" font-size="14.00" fill="#000000">season_id    </text>
<text text-anchor="start" x="486.007" y="-1573.9" font-family="Arial" font-size="14.00" fill="#666666">[int(11)]</text>
<polygon fill="none" stroke="#000000" points="381,-1532.5 381,-1562.5 599,-1562.5 599,-1532.5 381,-1532.5"/>
<text text-anchor="start" x="388" y="-1543.9" font-family="Arial" font-size="14.00" fill="#000000">podcast_id    </text>
<text text-anchor="start" x="489.8976" y="-1543.9" font-family="Arial" font-size="14.00" fill="#666666">[int(11)]</text>
<polygon fill="none" stroke="#000000" points="381,-1502.5 381,-1532.5 599,-1532.5 599,-1502.5 381,-1502.5"/>
<text text-anchor="start" x="388" y="-1513.9" font-family="Arial" font-size="14.00" fill="#000000">number    </text>
<text text-anchor="start" x="469.6564" y="-1513.9" font-family="Arial" font-size="14.00" fill="#666666">[int(11)]</text>
<polygon fill="none" stroke="#000000" points="381,-1472.5 381,-1502.5 599,-1502.5 599,-1472.5 381,-1472.5"/>
<text text-anchor="start" x="388" y="-1483.9" font-family="Arial" font-size="14.00" fill="#000000">date    </text>
<text text-anchor="start" x="449.4432" y="-1483.9" font-family="Arial" font-size="14.00" fill="#666666">[date]</text>
<polygon fill="none" stroke="#000000" points="381,-1442.5 381,-1472.5 599,-1472.5 599,-1442.5 381,-1442.5"/>
<text text-anchor="start" x="388" y="-1453.9" font-family="Arial" font-size="14.00" fill="#000000">run_time    </text>
<text text-anchor="start" x="476.6536" y="-1453.9" font-family="Arial" font-size="14.00" fill="#666666">[varchar(9)]</text>
<polygon fill="none" stroke="#000000" points="381,-1412.5 381,-1442.5 599,-1442.5 599,-1412.5 381,-1412.5"/>
<text text-anchor="start" x="388" y="-1423.9" font-family="Arial" font-size="14.00" fill="#000000">title    </text>
<text text-anchor="start" x="443.9818" y="-1423.9" font-family="Arial" font-size="14.00" fill="#666666">[varchar(255)]</text>
<polygon fill="none" stroke="#000000" points="381,-1382.5 381,-1412.5 599,-1412.5 599,-1382.5 381,-1382.5"/>
<text text-anchor="start" x="388" y="-1393.9" font-family="Arial" font-size="14.00" fill="#000000">sub_title    </text>
<text text-anchor="start" x="474.3296" y="-1393.9" font-family="Arial" font-size="14.00" fill="#666666">[varchar(255)]</text>
<polygon fill="none" stroke="#000000" points="381,-1352.5 381,-1382.5 599,-1382.5 599,-1352.5 381,-1352.5"/>
<text text-anchor="start" x="388" y="-1363.9" font-family="Arial" font-size="14.00" fill="#000000">bibliography    </text>
<text text-anchor="start" x="497.6634" y="-1363.9" font-family="Arial" font-size="14.00" fill="#666666">[longtext]</text>
<polygon fill="none" stroke="#000000" points="381,-1322.5 381,-1352.5 599,-1352.5 599,-1322.5 381,-1322.5"/>
<text text-anchor="start" x="388" y="-1333.9" font-family="Arial" font-size="14.00" fill="#000000">transcript    </text>
<text text-anchor="start" x="479.7616" y="-1333.9" font-family="Arial" font-size="14.00" fill="#666666">[longtext]</text>
<polygon fill="none" stroke="#000000" points="381,-1292.5 381,-1322.5 599,-1322.5 599,-1292.5 381,-1292.5"/>
<text text-anchor="start" x="388" y="-1303.9" font-family="Arial" font-size="14.00" fill="#000000">description    </text>
<text text-anchor="start" x="489.8822" y="-1303.9" font-family="Arial" font-size="14.00" fill="#666666">[longtext]</text>
<polygon fill="none" stroke="#000000" points="381,-1262.5 381,-1292.5 599,-1292.5 599,-1262.5 381,-1262.5"/>
<text text-anchor="start" x="388" y="-1273.9" font-family="Arial" font-size="14.00" fill="#000000">created    </text>
<text text-anchor="start" x="468.8864" y="-1273.9" font-family="Arial" font-size="14.00" fill="#666666">[datetime]</text>
<polygon fill="none" stroke="#000000" points="381,-1232.5 381,-1262.5 599,-1262.5 599,-1232.5 381,-1232.5"/>
<text text-anchor="start" x="388" y="-1243.9" font-family="Arial" font-size="14.00" fill="#000000">updated    </text>
<text text-anchor="start" x="472.791" y="-1243.9" font-family="Arial" font-size="14.00" fill="#666666">[datetime]</text>
<polygon fill="none" stroke="#000000" points="381,-1202.5 381,-1232.5 599,-1232.5 599,-1202.5 381,-1202.5"/>
<text text-anchor="start" x="388" y="-1213.9" font-family="Arial" font-size="14.00" fill="#000000">keywords    </text>
<text text-anchor="start" x="481.3198" y="-1213.9" font-family="Arial" font-size="14.00" fill="#666666">[longtext]</text>
<polygon fill="none" stroke="#000000" points="381,-1172.5 381,-1202.5 599,-1202.5 599,-1172.5 381,-1172.5"/>
<text text-anchor="start" x="388" y="-1183.9" font-family="Arial" font-size="14.00" fill="#000000">permissions    </text>
<text text-anchor="start" x="496.8696" y="-1183.9" font-family="Arial" font-size="14.00" fill="#666666">[longtext]</text>
<polygon fill="none" stroke="#000000" points="381,-1142.5 381,-1172.5 599,-1172.5 599,-1142.5 381,-1142.5"/>
<text text-anchor="start" x="388" y="-1153.9" font-family="Arial" font-size="14.00" fill="#000000">guid    </text>
<text text-anchor="start" x="448.6592" y="-1153.9" font-family="Arial" font-size="14.00" fill="#666666">[varchar(255)]</text>
<polygon fill="none" stroke="#000000" points="381,-1112.5 381,-1142.5 599,-1142.5 599,-1112.5 381,-1112.5"/>
<text text-anchor="start" x="387.709" y="-1123.9" font-family="Arial" font-size="14.00" fill="#000000">episode_type    </text>
<text text-anchor="start" x="505.1718" y="-1123.9" font-family="Arial" font-size="14.00" fill="#666666">[varchar(255)]</text>
<polygon fill="none" stroke="#000000" points="381,-1082.5 381,-1112.5 599,-1112.5 599,-1082.5 381,-1082.5"/>
<text text-anchor="start" x="388" y="-1093.9" font-family="Arial" font-size="14.00" fill="#000000">explicit    </text>
<text text-anchor="start" x="464.9804" y="-1093.9" font-family="Arial" font-size="14.00" fill="#666666">[tinyint(1)]</text>
</g>
<!-- episode&#45;&gt;podcast -->
<g id="edge2" class="edge">
<title>episode:podcast_id&#45;&gt;podcast:id</title>
<path fill="none" stroke="#000000" d="M608.4871,-1543.4131C669.3182,-1488.9063 659.7818,-907.5 592,-907.5"/>
<polygon fill="#000000" stroke="#000000" points="608.1841,-1543.5436 597.2196,-1543.3672 603.592,-1545.5218 599,-1547.5 599,-1547.5 599,-1547.5 603.592,-1545.5218 600.7804,-1551.6328 608.1841,-1543.5436 608.1841,-1543.5436"/>
</g>
<!-- season -->
<g id="node4" class="node">
<title>season</title>
<polygon fill="#efefef" stroke="transparent" points="704,-1487.5 704,-1522.5 903,-1522.5 903,-1487.5 704,-1487.5"/>
<polygon fill="none" stroke="#000000" points="704,-1487.5 704,-1522.5 903,-1522.5 903,-1487.5 704,-1487.5"/>
<text text-anchor="start" x="710.7036" y="-1500.3" font-family="Arial Bold" font-size="18.00" fill="#000000">season</text>
<text text-anchor="start" x="768.7284" y="-1500.3" font-family="Arial" font-size="14.00" fill="#000000">    </text>
<text text-anchor="start" x="802.9332" y="-1500.3" font-family="Arial" font-size="14.00" fill="#666666">[BASE TABLE]</text>
<polygon fill="none" stroke="#000000" points="704,-1457.5 704,-1487.5 903,-1487.5 903,-1457.5 704,-1457.5"/>
<text text-anchor="start" x="711" y="-1468.9" font-family="Arial" font-size="14.00" fill="#000000">id    </text>
<text text-anchor="start" x="756.094" y="-1468.9" font-family="Arial" font-size="14.00" fill="#666666">[int(11)]</text>
<polygon fill="none" stroke="#000000" points="704,-1427.5 704,-1457.5 903,-1457.5 903,-1427.5 704,-1427.5"/>
<text text-anchor="start" x="711" y="-1438.9" font-family="Arial" font-size="14.00" fill="#000000">podcast_id    </text>
<text text-anchor="start" x="812.8976" y="-1438.9" font-family="Arial" font-size="14.00" fill="#666666">[int(11)]</text>
<polygon fill="none" stroke="#000000" points="704,-1397.5 704,-1427.5 903,-1427.5 903,-1397.5 704,-1397.5"/>
<text text-anchor="start" x="711" y="-1408.9" font-family="Arial" font-size="14.00" fill="#000000">publisher_id    </text>
<text text-anchor="start" x="820.6634" y="-1408.9" font-family="Arial" font-size="14.00" fill="#666666">[int(11)]</text>
<polygon fill="none" stroke="#000000" points="704,-1367.5 704,-1397.5 903,-1397.5 903,-1367.5 704,-1367.5"/>
<text text-anchor="start" x="711" y="-1378.9" font-family="Arial" font-size="14.00" fill="#000000">number    </text>
<text text-anchor="start" x="792.6564" y="-1378.9" font-family="Arial" font-size="14.00" fill="#666666">[int(11)]</text>
<polygon fill="none" stroke="#000000" points="704,-1337.5 704,-1367.5 903,-1367.5 903,-1337.5 704,-1337.5"/>
<text text-anchor="start" x="711" y="-1348.9" font-family="Arial" font-size="14.00" fill="#000000">title    </text>
<text text-anchor="start" x="766.9818" y="-1348.9" font-family="Arial" font-size="14.00" fill="#666666">[varchar(255)]</text>
<polygon fill="none" stroke="#000000" points="704,-1307.5 704,-1337.5 903,-1337.5 903,-1307.5 704,-1307.5"/>
<text text-anchor="start" x="711" y="-1318.9" font-family="Arial" font-size="14.00" fill="#000000">sub_title    </text>
<text text-anchor="start" x="797.3296" y="-1318.9" font-family="Arial" font-size="14.00" fill="#666666">[varchar(255)]</text>
<polygon fill="none" stroke="#000000" points="704,-1277.5 704,-1307.5 903,-1307.5 903,-1277.5 704,-1277.5"/>
<text text-anchor="start" x="711" y="-1288.9" font-family="Arial" font-size="14.00" fill="#000000">description    </text>
<text text-anchor="start" x="812.8822" y="-1288.9" font-family="Arial" font-size="14.00" fill="#666666">[longtext]</text>
<polygon fill="none" stroke="#000000" points="704,-1247.5 704,-1277.5 903,-1277.5 903,-1247.5 704,-1247.5"/>
<text text-anchor="start" x="711" y="-1258.9" font-family="Arial" font-size="14.00" fill="#000000">created    </text>
<text text-anchor="start" x="791.8864" y="-1258.9" font-family="Arial" font-size="14.00" fill="#666666">[datetime]</text>
<polygon fill="none" stroke="#000000" points="704,-1217.5 704,-1247.5 903,-1247.5 903,-1217.5 704,-1217.5"/>
<text text-anchor="start" x="711" y="-1228.9" font-family="Arial" font-size="14.00" fill="#000000">updated    </text>
<text text-anchor="start" x="795.791" y="-1228.9" font-family="Arial" font-size="14.00" fill="#666666">[datetime]</text>
</g>
<!-- season&#45;&gt;podcast -->
<g id="edge3" class="edge">
<title>season:podcast_id&#45;&gt;podcast:id</title>
<path fill="none" stroke="#000000" d="M693.6494,-1440.9444C618.7004,-1416.9901 674.4869,-1123.2672 651,-1040 633.4999,-977.9576 656.4632,-907.5 592,-907.5"/>
<polygon fill="#000000" stroke="#000000" points="694.1111,-1441.0137 703.3312,-1446.95 699.0555,-1441.7569 704,-1442.5 704,-1442.5 704,-1442.5 699.0555,-1441.7569 704.6688,-1438.05 694.1111,-1441.0137 694.1111,-1441.0137"/>
</g>
</g>
</svg>
