<?xml version="1.0" encoding="UTF-8" standalone="no"?>
<!DOCTYPE svg PUBLIC "-//W3C//DTD SVG 1.1//EN"
 "http://www.w3.org/Graphics/SVG/1.1/DTD/svg11.dtd">
<!-- Generated by graphviz version 2.40.1 (20161225.0304)
 -->
<!-- Title: podcast Pages: 1 -->
<svg width="954pt" height="1769pt"
 viewBox="0.00 0.00 953.50 1769.00" xmlns="http://www.w3.org/2000/svg" xmlns:xlink="http://www.w3.org/1999/xlink">
<g id="graph0" class="graph" transform="scale(1 1) rotate(0) translate(4 1765)">
<title>podcast</title>
<polygon fill="#ffffff" stroke="transparent" points="-4,4 -4,-1765 949.5,-1765 949.5,4 -4,4"/>
<!-- podcast -->
<g id="node1" class="node">
<title>podcast</title>
<polygon fill="#efefef" stroke="transparent" points="388,-952.5 388,-987.5 592,-987.5 592,-952.5 388,-952.5"/>
<polygon fill="none" stroke="#000000" points="388,-952.5 388,-987.5 592,-987.5 592,-952.5 388,-952.5"/>
<text text-anchor="start" x="394.7025" y="-965.3" font-family="Arial Bold" font-size="18.00" fill="#000000">podcast</text>
<text text-anchor="start" x="457.7295" y="-965.3" font-family="Arial" font-size="14.00" fill="#000000">    </text>
<text text-anchor="start" x="491.9343" y="-965.3" font-family="Arial" font-size="14.00" fill="#666666">[BASE TABLE]</text>
<polygon fill="none" stroke="#000000" points="388,-922.5 388,-952.5 592,-952.5 592,-922.5 388,-922.5"/>
<text text-anchor="start" x="395" y="-933.9" font-family="Arial" font-size="14.00" fill="#000000">id </text>
<text text-anchor="start" x="409.7798" y="-933.9" font-family="Arial" font-size="14.00" fill="#666666">[int(11)]</text>
<polygon fill="none" stroke="#000000" points="388,-892.5 388,-922.5 592,-922.5 592,-892.5 388,-892.5"/>
<text text-anchor="start" x="395" y="-903.9" font-family="Arial" font-size="14.00" fill="#000000">publisher_id </text>
<text text-anchor="start" x="474.3492" y="-903.9" font-family="Arial" font-size="14.00" fill="#666666">[int(11)]</text>
<polygon fill="none" stroke="#000000" points="388,-862.5 388,-892.5 592,-892.5 592,-862.5 388,-862.5"/>
<text text-anchor="start" x="395" y="-873.9" font-family="Arial" font-size="14.00" fill="#000000">title </text>
<text text-anchor="start" x="420.6676" y="-873.9" font-family="Arial" font-size="14.00" fill="#666666">[varchar(255)]</text>
<polygon fill="none" stroke="#000000" points="388,-832.5 388,-862.5 592,-862.5 592,-832.5 388,-832.5"/>
<text text-anchor="start" x="395" y="-843.9" font-family="Arial" font-size="14.00" fill="#000000">sub_title </text>
<text text-anchor="start" x="451.0154" y="-843.9" font-family="Arial" font-size="14.00" fill="#666666">[varchar(255)]</text>
<polygon fill="none" stroke="#000000" points="388,-802.5 388,-832.5 592,-832.5 592,-802.5 388,-802.5"/>
<text text-anchor="start" x="395" y="-813.9" font-family="Arial" font-size="14.00" fill="#000000">explicit </text>
<text text-anchor="start" x="441.6662" y="-813.9" font-family="Arial" font-size="14.00" fill="#666666">[tinyint(1)]</text>
<polygon fill="none" stroke="#000000" points="388,-772.5 388,-802.5 592,-802.5 592,-772.5 388,-772.5"/>
<text text-anchor="start" x="395" y="-783.9" font-family="Arial" font-size="14.00" fill="#000000">description </text>
<text text-anchor="start" x="466.568" y="-783.9" font-family="Arial" font-size="14.00" fill="#666666">[longtext]</text>
<polygon fill="none" stroke="#000000" points="388,-742.5 388,-772.5 592,-772.5 592,-742.5 388,-742.5"/>
<text text-anchor="start" x="395" y="-753.9" font-family="Arial" font-size="14.00" fill="#000000">copyright </text>
<text text-anchor="start" x="455.6788" y="-753.9" font-family="Arial" font-size="14.00" fill="#666666">[longtext]</text>
<polygon fill="none" stroke="#000000" points="388,-712.5 388,-742.5 592,-742.5 592,-712.5 388,-712.5"/>
<text text-anchor="start" x="395" y="-723.9" font-family="Arial" font-size="14.00" fill="#000000">website </text>
<text text-anchor="start" x="446.3422" y="-723.9" font-family="Arial" font-size="14.00" fill="#666666">[longtext]</text>
<polygon fill="none" stroke="#000000" points="388,-682.5 388,-712.5 592,-712.5 592,-682.5 388,-682.5"/>
<text text-anchor="start" x="395" y="-693.9" font-family="Arial" font-size="14.00" fill="#000000">rss </text>
<text text-anchor="start" x="417.5512" y="-693.9" font-family="Arial" font-size="14.00" fill="#666666">[varchar(255)]</text>
<polygon fill="none" stroke="#000000" points="388,-652.5 388,-682.5 592,-682.5 592,-652.5 388,-652.5"/>
<text text-anchor="start" x="395" y="-663.9" font-family="Arial" font-size="14.00" fill="#000000">created </text>
<text text-anchor="start" x="445.5722" y="-663.9" font-family="Arial" font-size="14.00" fill="#666666">[datetime]</text>
<polygon fill="none" stroke="#000000" points="388,-622.5 388,-652.5 592,-652.5 592,-622.5 388,-622.5"/>
<text text-anchor="start" x="395" y="-633.9" font-family="Arial" font-size="14.00" fill="#000000">updated </text>
<text text-anchor="start" x="449.4768" y="-633.9" font-family="Arial" font-size="14.00" fill="#666666">[datetime]</text>
<polygon fill="none" stroke="#000000" points="388,-592.5 388,-622.5 592,-622.5 592,-592.5 388,-592.5"/>
<text text-anchor="start" x="395" y="-603.9" font-family="Arial" font-size="14.00" fill="#000000">license </text>
<text text-anchor="start" x="442.4516" y="-603.9" font-family="Arial" font-size="14.00" fill="#666666">[longtext]</text>
<polygon fill="none" stroke="#000000" points="388,-562.5 388,-592.5 592,-592.5 592,-562.5 388,-562.5"/>
<text text-anchor="start" x="395" y="-573.9" font-family="Arial" font-size="14.00" fill="#000000">guid </text>
<text text-anchor="start" x="425.345" y="-573.9" font-family="Arial" font-size="14.00" fill="#666666">[varchar(255)]</text>
<polygon fill="none" stroke="#000000" points="388,-532.5 388,-562.5 592,-562.5 592,-532.5 388,-532.5"/>
<text text-anchor="start" x="395" y="-543.9" font-family="Arial" font-size="14.00" fill="#000000">language_code </text>
<text text-anchor="start" x="494.6058" y="-543.9" font-family="Arial" font-size="14.00" fill="#666666">[varchar(255)]</text>
<polygon fill="none" stroke="#000000" points="388,-502.5 388,-532.5 592,-532.5 592,-502.5 388,-502.5"/>
<text text-anchor="start" x="395" y="-513.9" font-family="Arial" font-size="14.00" fill="#000000">categories </text>
<text text-anchor="start" x="463.4614" y="-513.9" font-family="Arial" font-size="14.00" fill="#666666">[longtext]</text>
<polygon fill="none" stroke="#000000" points="388,-472.5 388,-502.5 592,-502.5 592,-472.5 388,-472.5"/>
<text text-anchor="start" x="395" y="-483.9" font-family="Arial" font-size="14.00" fill="#000000">keywords </text>
<text text-anchor="start" x="458.0056" y="-483.9" font-family="Arial" font-size="14.00" fill="#666666">[longtext]</text>
<polygon fill="none" stroke="#000000" points="388,-442.5 388,-472.5 592,-472.5 592,-442.5 388,-442.5"/>
<text text-anchor="start" x="395" y="-453.9" font-family="Arial" font-size="14.00" fill="#000000">status </text>
<text text-anchor="start" x="436.237" y="-453.9" font-family="Arial" font-size="14.00" fill="#666666">[longtext]</text>
<polygon fill="none" stroke="#000000" stroke-width="3" points="386.5,-441.5 386.5,-989.5 593.5,-989.5 593.5,-441.5 386.5,-441.5"/>
</g>
<!-- publisher -->
<g id="node5" class="node">
<title>publisher</title>
<polygon fill="#efefef" stroke="transparent" points="383,-282.5 383,-317.5 597,-317.5 597,-282.5 383,-282.5"/>
<polygon fill="none" stroke="#000000" points="383,-282.5 383,-317.5 597,-317.5 597,-282.5 383,-282.5"/>
<text text-anchor="start" x="389.7102" y="-295.3" font-family="Arial Bold" font-size="18.00" fill="#000000">publisher</text>
<text text-anchor="start" x="462.7218" y="-295.3" font-family="Arial" font-size="14.00" fill="#000000">    </text>
<text text-anchor="start" x="496.9266" y="-295.3" font-family="Arial" font-size="14.00" fill="#666666">[BASE TABLE]</text>
<polygon fill="none" stroke="#000000" points="383,-252.5 383,-282.5 597,-282.5 597,-252.5 383,-252.5"/>
<text text-anchor="start" x="390" y="-263.9" font-family="Arial" font-size="14.00" fill="#000000">id    </text>
<text text-anchor="start" x="435.094" y="-263.9" font-family="Arial" font-size="14.00" fill="#666666">[int(11)]</text>
<polygon fill="none" stroke="#000000" points="383,-222.5 383,-252.5 597,-252.5 597,-222.5 383,-222.5"/>
<text text-anchor="start" x="390" y="-233.9" font-family="Arial" font-size="14.00" fill="#000000">name    </text>
<text text-anchor="start" x="459.2132" y="-233.9" font-family="Arial" font-size="14.00" fill="#666666">[varchar(255)]</text>
<polygon fill="none" stroke="#000000" points="383,-192.5 383,-222.5 597,-222.5 597,-192.5 383,-192.5"/>
<text text-anchor="start" x="390" y="-203.9" font-family="Arial" font-size="14.00" fill="#000000">location    </text>
<text text-anchor="start" x="472.439" y="-203.9" font-family="Arial" font-size="14.00" fill="#666666">[varchar(255)]</text>
<polygon fill="none" stroke="#000000" points="383,-162.5 383,-192.5 597,-192.5 597,-162.5 383,-162.5"/>
<text text-anchor="start" x="390" y="-173.9" font-family="Arial" font-size="14.00" fill="#000000">website    </text>
<text text-anchor="start" x="471.6564" y="-173.9" font-family="Arial" font-size="14.00" fill="#666666">[varchar(255)]</text>
<polygon fill="none" stroke="#000000" points="383,-132.5 383,-162.5 597,-162.5 597,-132.5 383,-132.5"/>
<text text-anchor="start" x="390" y="-143.9" font-family="Arial" font-size="14.00" fill="#000000">description    </text>
<text text-anchor="start" x="491.8822" y="-143.9" font-family="Arial" font-size="14.00" fill="#666666">[longtext]</text>
<polygon fill="none" stroke="#000000" points="383,-102.5 383,-132.5 597,-132.5 597,-102.5 383,-102.5"/>
<text text-anchor="start" x="390" y="-113.9" font-family="Arial" font-size="14.00" fill="#000000">contact    </text>
<text text-anchor="start" x="469.3338" y="-113.9" font-family="Arial" font-size="14.00" fill="#666666">[longtext]</text>
<polygon fill="none" stroke="#000000" points="383,-72.5 383,-102.5 597,-102.5 597,-72.5 383,-72.5"/>
<text text-anchor="start" x="390" y="-83.9" font-family="Arial" font-size="14.00" fill="#000000">created    </text>
<text text-anchor="start" x="470.8864" y="-83.9" font-family="Arial" font-size="14.00" fill="#666666">[datetime]</text>
<polygon fill="none" stroke="#000000" points="383,-42.5 383,-72.5 597,-72.5 597,-42.5 383,-42.5"/>
<text text-anchor="start" x="390" y="-53.9" font-family="Arial" font-size="14.00" fill="#000000">updated    </text>
<text text-anchor="start" x="474.791" y="-53.9" font-family="Arial" font-size="14.00" fill="#666666">[datetime]</text>
</g>
<!-- podcast&#45;&gt;publisher -->
<g id="edge4" class="edge">
<title>podcast:publisher_id&#45;&gt;publisher:id</title>
<path fill="none" stroke="#000000" d="M602.292,-907.2162C876.5321,-891.9704 877.9808,-267.5 597,-267.5"/>
<polygon fill="#000000" stroke="#000000" points="601.9962,-907.2243 591.8759,-903.0017 596.9981,-907.3621 592,-907.5 592,-907.5 592,-907.5 596.9981,-907.3621 592.1241,-911.9983 601.9962,-907.2243 601.9962,-907.2243"/>
</g>
<!-- contribution -->
<g id="node2" class="node">
<title>contribution</title>
<polygon fill="#efefef" stroke="transparent" points="43,-1517.5 43,-1552.5 277,-1552.5 277,-1517.5 43,-1517.5"/>
<polygon fill="none" stroke="#000000" points="43,-1517.5 43,-1552.5 277,-1552.5 277,-1517.5 43,-1517.5"/>
<text text-anchor="start" x="49.7049" y="-1530.3" font-family="Arial Bold" font-size="18.00" fill="#000000">contribution</text>
<text text-anchor="start" x="142.7271" y="-1530.3" font-family="Arial" font-size="14.00" fill="#000000">    </text>
<text text-anchor="start" x="176.9319" y="-1530.3" font-family="Arial" font-size="14.00" fill="#666666">[BASE TABLE]</text>
<polygon fill="none" stroke="#000000" points="43,-1487.5 43,-1517.5 277,-1517.5 277,-1487.5 43,-1487.5"/>
<text text-anchor="start" x="50" y="-1498.9" font-family="Arial" font-size="14.00" fill="#000000">id    </text>
<text text-anchor="start" x="95.094" y="-1498.9" font-family="Arial" font-size="14.00" fill="#666666">[int(11)]</text>
<polygon fill="none" stroke="#000000" points="43,-1457.5 43,-1487.5 277,-1487.5 277,-1457.5 43,-1457.5"/>
<text text-anchor="start" x="50" y="-1468.9" font-family="Arial" font-size="14.00" fill="#000000">person_id    </text>
<text text-anchor="start" x="145.6676" y="-1468.9" font-family="Arial" font-size="14.00" fill="#666666">[int(11)]</text>
<polygon fill="none" stroke="#000000" points="43,-1427.5 43,-1457.5 277,-1457.5 277,-1427.5 43,-1427.5"/>
<text text-anchor="start" x="50" y="-1438.9" font-family="Arial" font-size="14.00" fill="#000000">contributor_role_id    </text>
<text text-anchor="start" x="200.1136" y="-1438.9" font-family="Arial" font-size="14.00" fill="#666666">[int(11)]</text>
<polygon fill="none" stroke="#000000" points="43,-1397.5 43,-1427.5 277,-1427.5 277,-1397.5 43,-1397.5"/>
<text text-anchor="start" x="50" y="-1408.9" font-family="Arial" font-size="14.00" fill="#000000">podcast_id    </text>
<text text-anchor="start" x="151.8976" y="-1408.9" font-family="Arial" font-size="14.00" fill="#666666">[int(11)]</text>
<polygon fill="none" stroke="#000000" points="43,-1367.5 43,-1397.5 277,-1397.5 277,-1367.5 43,-1367.5"/>
<text text-anchor="start" x="50" y="-1378.9" font-family="Arial" font-size="14.00" fill="#000000">season_id    </text>
<text text-anchor="start" x="148.007" y="-1378.9" font-family="Arial" font-size="14.00" fill="#666666">[int(11)]</text>
<polygon fill="none" stroke="#000000" points="43,-1337.5 43,-1367.5 277,-1367.5 277,-1337.5 43,-1337.5"/>
<text text-anchor="start" x="50" y="-1348.9" font-family="Arial" font-size="14.00" fill="#000000">episode_id    </text>
<text text-anchor="start" x="151.8962" y="-1348.9" font-family="Arial" font-size="14.00" fill="#666666">[int(11)]</text>
<polygon fill="none" stroke="#000000" points="43,-1307.5 43,-1337.5 277,-1337.5 277,-1307.5 43,-1307.5"/>
<text text-anchor="start" x="50" y="-1318.9" font-family="Arial" font-size="14.00" fill="#000000">created    </text>
<text text-anchor="start" x="130.8864" y="-1318.9" font-family="Arial" font-size="14.00" fill="#666666">[datetime]</text>
<polygon fill="none" stroke="#000000" points="43,-1277.5 43,-1307.5 277,-1307.5 277,-1277.5 43,-1277.5"/>
<text text-anchor="start" x="50" y="-1288.9" font-family="Arial" font-size="14.00" fill="#000000">updated    </text>
<text text-anchor="start" x="134.791" y="-1288.9" font-family="Arial" font-size="14.00" fill="#666666">[datetime]</text>
</g>
<!-- contribution&#45;&gt;podcast -->
<g id="edge1" class="edge">
<title>contribution:podcast_id&#45;&gt;podcast:id</title>
<path fill="none" stroke="#000000" d="M287.0308,-1410.7771C349.7633,-1387.745 308.3843,-1140.4191 329,-1070 347.1119,-1008.1335 323.5368,-937.5 388,-937.5"/>
<polygon fill="#000000" stroke="#000000" points="286.8557,-1410.8071 276.2382,-1408.0649 281.9278,-1411.6535 277,-1412.5 277,-1412.5 277,-1412.5 281.9278,-1411.6535 277.7618,-1416.9351 286.8557,-1410.8071 286.8557,-1410.8071"/>
</g>
<!-- episode -->
<g id="node3" class="node">
<title>episode</title>
<polygon fill="#efefef" stroke="transparent" points="381,-1682.5 381,-1717.5 599,-1717.5 599,-1682.5 381,-1682.5"/>
<polygon fill="none" stroke="#000000" points="381,-1682.5 381,-1717.5 599,-1717.5 599,-1682.5 381,-1682.5"/>
<text text-anchor="start" x="394.7034" y="-1695.3" font-family="Arial Bold" font-size="18.00" fill="#000000">episode</text>
<text text-anchor="start" x="457.7286" y="-1695.3" font-family="Arial" font-size="14.00" fill="#000000">    </text>
<text text-anchor="start" x="491.9334" y="-1695.3" font-family="Arial" font-size="14.00" fill="#666666">[BASE TABLE]</text>
<polygon fill="none" stroke="#000000" points="381,-1652.5 381,-1682.5 599,-1682.5 599,-1652.5 381,-1652.5"/>
<text text-anchor="start" x="388" y="-1663.9" font-family="Arial" font-size="14.00" fill="#000000">id    </text>
<text text-anchor="start" x="433.094" y="-1663.9" font-family="Arial" font-size="14.00" fill="#666666">[int(11)]</text>
<polygon fill="none" stroke="#000000" points="381,-1622.5 381,-1652.5 599,-1652.5 599,-1622.5 381,-1622.5"/>
<text text-anchor="start" x="388" y="-1633.9" font-family="Arial" font-size="14.00" fill="#000000">season_id    </text>
<text text-anchor="start" x="486.007" y="-1633.9" font-family="Arial" font-size="14.00" fill="#666666">[int(11)]</text>
<polygon fill="none" stroke="#000000" points="381,-1592.5 381,-1622.5 599,-1622.5 599,-1592.5 381,-1592.5"/>
<text text-anchor="start" x="388" y="-1603.9" font-family="Arial" font-size="14.00" fill="#000000">podcast_id    </text>
<text text-anchor="start" x="489.8976" y="-1603.9" font-family="Arial" font-size="14.00" fill="#666666">[int(11)]</text>
<polygon fill="none" stroke="#000000" points="381,-1562.5 381,-1592.5 599,-1592.5 599,-1562.5 381,-1562.5"/>
<text text-anchor="start" x="388" y="-1573.9" font-family="Arial" font-size="14.00" fill="#000000">number    </text>
<text text-anchor="start" x="469.6564" y="-1573.9" font-family="Arial" font-size="14.00" fill="#666666">[int(11)]</text>
<polygon fill="none" stroke="#000000" points="381,-1532.5 381,-1562.5 599,-1562.5 599,-1532.5 381,-1532.5"/>
<text text-anchor="start" x="388" y="-1543.9" font-family="Arial" font-size="14.00" fill="#000000">date    </text>
<text text-anchor="start" x="449.4432" y="-1543.9" font-family="Arial" font-size="14.00" fill="#666666">[date]</text>
<polygon fill="none" stroke="#000000" points="381,-1502.5 381,-1532.5 599,-1532.5 599,-1502.5 381,-1502.5"/>
<text text-anchor="start" x="388" y="-1513.9" font-family="Arial" font-size="14.00" fill="#000000">run_time    </text>
<text text-anchor="start" x="476.6536" y="-1513.9" font-family="Arial" font-size="14.00" fill="#666666">[varchar(9)]</text>
<polygon fill="none" stroke="#000000" points="381,-1472.5 381,-1502.5 599,-1502.5 599,-1472.5 381,-1472.5"/>
<text text-anchor="start" x="388" y="-1483.9" font-family="Arial" font-size="14.00" fill="#000000">title    </text>
<text text-anchor="start" x="443.9818" y="-1483.9" font-family="Arial" font-size="14.00" fill="#666666">[varchar(255)]</text>
<polygon fill="none" stroke="#000000" points="381,-1442.5 381,-1472.5 599,-1472.5 599,-1442.5 381,-1442.5"/>
<text text-anchor="start" x="388" y="-1453.9" font-family="Arial" font-size="14.00" fill="#000000">sub_title    </text>
<text text-anchor="start" x="474.3296" y="-1453.9" font-family="Arial" font-size="14.00" fill="#666666">[varchar(255)]</text>
<polygon fill="none" stroke="#000000" points="381,-1412.5 381,-1442.5 599,-1442.5 599,-1412.5 381,-1412.5"/>
<text text-anchor="start" x="388" y="-1423.9" font-family="Arial" font-size="14.00" fill="#000000">bibliography    </text>
<text text-anchor="start" x="497.6634" y="-1423.9" font-family="Arial" font-size="14.00" fill="#666666">[longtext]</text>
<polygon fill="none" stroke="#000000" points="381,-1382.5 381,-1412.5 599,-1412.5 599,-1382.5 381,-1382.5"/>
<text text-anchor="start" x="388" y="-1393.9" font-family="Arial" font-size="14.00" fill="#000000">transcript    </text>
<text text-anchor="start" x="479.7616" y="-1393.9" font-family="Arial" font-size="14.00" fill="#666666">[longtext]</text>
<polygon fill="none" stroke="#000000" points="381,-1352.5 381,-1382.5 599,-1382.5 599,-1352.5 381,-1352.5"/>
<text text-anchor="start" x="388" y="-1363.9" font-family="Arial" font-size="14.00" fill="#000000">description    </text>
<text text-anchor="start" x="489.8822" y="-1363.9" font-family="Arial" font-size="14.00" fill="#666666">[longtext]</text>
<polygon fill="none" stroke="#000000" points="381,-1322.5 381,-1352.5 599,-1352.5 599,-1322.5 381,-1322.5"/>
<text text-anchor="start" x="388" y="-1333.9" font-family="Arial" font-size="14.00" fill="#000000">created    </text>
<text text-anchor="start" x="468.8864" y="-1333.9" font-family="Arial" font-size="14.00" fill="#666666">[datetime]</text>
<polygon fill="none" stroke="#000000" points="381,-1292.5 381,-1322.5 599,-1322.5 599,-1292.5 381,-1292.5"/>
<text text-anchor="start" x="388" y="-1303.9" font-family="Arial" font-size="14.00" fill="#000000">updated    </text>
<text text-anchor="start" x="472.791" y="-1303.9" font-family="Arial" font-size="14.00" fill="#666666">[datetime]</text>
<polygon fill="none" stroke="#000000" points="381,-1262.5 381,-1292.5 599,-1292.5 599,-1262.5 381,-1262.5"/>
<text text-anchor="start" x="388" y="-1273.9" font-family="Arial" font-size="14.00" fill="#000000">keywords    </text>
<text text-anchor="start" x="481.3198" y="-1273.9" font-family="Arial" font-size="14.00" fill="#666666">[longtext]</text>
<polygon fill="none" stroke="#000000" points="381,-1232.5 381,-1262.5 599,-1262.5 599,-1232.5 381,-1232.5"/>
<text text-anchor="start" x="388" y="-1243.9" font-family="Arial" font-size="14.00" fill="#000000">permissions    </text>
<text text-anchor="start" x="496.8696" y="-1243.9" font-family="Arial" font-size="14.00" fill="#666666">[longtext]</text>
<polygon fill="none" stroke="#000000" points="381,-1202.5 381,-1232.5 599,-1232.5 599,-1202.5 381,-1202.5"/>
<text text-anchor="start" x="388" y="-1213.9" font-family="Arial" font-size="14.00" fill="#000000">guid    </text>
<text text-anchor="start" x="448.6592" y="-1213.9" font-family="Arial" font-size="14.00" fill="#666666">[varchar(255)]</text>
<polygon fill="none" stroke="#000000" points="381,-1172.5 381,-1202.5 599,-1202.5 599,-1172.5 381,-1172.5"/>
<text text-anchor="start" x="387.709" y="-1183.9" font-family="Arial" font-size="14.00" fill="#000000">episode_type    </text>
<text text-anchor="start" x="505.1718" y="-1183.9" font-family="Arial" font-size="14.00" fill="#666666">[varchar(255)]</text>
<polygon fill="none" stroke="#000000" points="381,-1142.5 381,-1172.5 599,-1172.5 599,-1142.5 381,-1142.5"/>
<text text-anchor="start" x="388" y="-1153.9" font-family="Arial" font-size="14.00" fill="#000000">explicit    </text>
<text text-anchor="start" x="464.9804" y="-1153.9" font-family="Arial" font-size="14.00" fill="#666666">[tinyint(1)]</text>
<polygon fill="none" stroke="#000000" points="381,-1112.5 381,-1142.5 599,-1142.5 599,-1112.5 381,-1112.5"/>
<text text-anchor="start" x="388" y="-1123.9" font-family="Arial" font-size="14.00" fill="#000000">status    </text>
<text text-anchor="start" x="459.5512" y="-1123.9" font-family="Arial" font-size="14.00" fill="#666666">[longtext]</text>
</g>
<!-- episode&#45;&gt;podcast -->
<g id="edge2" class="edge">
<title>episode:podcast_id&#45;&gt;podcast:id</title>
<path fill="none" stroke="#000000" d="M608.5413,-1603.5653C672.6835,-1548.6567 663.1041,-937.5 592,-937.5"/>
<polygon fill="#000000" stroke="#000000" points="608.2448,-1603.6876 597.2844,-1603.3399 603.6224,-1605.5938 599,-1607.5 599,-1607.5 599,-1607.5 603.6224,-1605.5938 600.7156,-1611.6601 608.2448,-1603.6876 608.2448,-1603.6876"/>
</g>
<!-- season -->
<g id="node4" class="node">
<title>season</title>
<polygon fill="#efefef" stroke="transparent" points="704,-1547.5 704,-1582.5 903,-1582.5 903,-1547.5 704,-1547.5"/>
<polygon fill="none" stroke="#000000" points="704,-1547.5 704,-1582.5 903,-1582.5 903,-1547.5 704,-1547.5"/>
<text text-anchor="start" x="710.7036" y="-1560.3" font-family="Arial Bold" font-size="18.00" fill="#000000">season</text>
<text text-anchor="start" x="768.7284" y="-1560.3" font-family="Arial" font-size="14.00" fill="#000000">    </text>
<text text-anchor="start" x="802.9332" y="-1560.3" font-family="Arial" font-size="14.00" fill="#666666">[BASE TABLE]</text>
<polygon fill="none" stroke="#000000" points="704,-1517.5 704,-1547.5 903,-1547.5 903,-1517.5 704,-1517.5"/>
<text text-anchor="start" x="711" y="-1528.9" font-family="Arial" font-size="14.00" fill="#000000">id    </text>
<text text-anchor="start" x="756.094" y="-1528.9" font-family="Arial" font-size="14.00" fill="#666666">[int(11)]</text>
<polygon fill="none" stroke="#000000" points="704,-1487.5 704,-1517.5 903,-1517.5 903,-1487.5 704,-1487.5"/>
<text text-anchor="start" x="711" y="-1498.9" font-family="Arial" font-size="14.00" fill="#000000">podcast_id    </text>
<text text-anchor="start" x="812.8976" y="-1498.9" font-family="Arial" font-size="14.00" fill="#666666">[int(11)]</text>
<polygon fill="none" stroke="#000000" points="704,-1457.5 704,-1487.5 903,-1487.5 903,-1457.5 704,-1457.5"/>
<text text-anchor="start" x="711" y="-1468.9" font-family="Arial" font-size="14.00" fill="#000000">publisher_id    </text>
<text text-anchor="start" x="820.6634" y="-1468.9" font-family="Arial" font-size="14.00" fill="#666666">[int(11)]</text>
<polygon fill="none" stroke="#000000" points="704,-1427.5 704,-1457.5 903,-1457.5 903,-1427.5 704,-1427.5"/>
<text text-anchor="start" x="711" y="-1438.9" font-family="Arial" font-size="14.00" fill="#000000">number    </text>
<text text-anchor="start" x="792.6564" y="-1438.9" font-family="Arial" font-size="14.00" fill="#666666">[int(11)]</text>
<polygon fill="none" stroke="#000000" points="704,-1397.5 704,-1427.5 903,-1427.5 903,-1397.5 704,-1397.5"/>
<text text-anchor="start" x="711" y="-1408.9" font-family="Arial" font-size="14.00" fill="#000000">title    </text>
<text text-anchor="start" x="766.9818" y="-1408.9" font-family="Arial" font-size="14.00" fill="#666666">[varchar(255)]</text>
<polygon fill="none" stroke="#000000" points="704,-1367.5 704,-1397.5 903,-1397.5 903,-1367.5 704,-1367.5"/>
<text text-anchor="start" x="711" y="-1378.9" font-family="Arial" font-size="14.00" fill="#000000">sub_title    </text>
<text text-anchor="start" x="797.3296" y="-1378.9" font-family="Arial" font-size="14.00" fill="#666666">[varchar(255)]</text>
<polygon fill="none" stroke="#000000" points="704,-1337.5 704,-1367.5 903,-1367.5 903,-1337.5 704,-1337.5"/>
<text text-anchor="start" x="711" y="-1348.9" font-family="Arial" font-size="14.00" fill="#000000">description    </text>
<text text-anchor="start" x="812.8822" y="-1348.9" font-family="Arial" font-size="14.00" fill="#666666">[longtext]</text>
<polygon fill="none" stroke="#000000" points="704,-1307.5 704,-1337.5 903,-1337.5 903,-1307.5 704,-1307.5"/>
<text text-anchor="start" x="711" y="-1318.9" font-family="Arial" font-size="14.00" fill="#000000">created    </text>
<text text-anchor="start" x="791.8864" y="-1318.9" font-family="Arial" font-size="14.00" fill="#666666">[datetime]</text>
<polygon fill="none" stroke="#000000" points="704,-1277.5 704,-1307.5 903,-1307.5 903,-1277.5 704,-1277.5"/>
<text text-anchor="start" x="711" y="-1288.9" font-family="Arial" font-size="14.00" fill="#000000">updated    </text>
<text text-anchor="start" x="795.791" y="-1288.9" font-family="Arial" font-size="14.00" fill="#666666">[datetime]</text>
<polygon fill="none" stroke="#000000" points="704,-1247.5 704,-1277.5 903,-1277.5 903,-1247.5 704,-1247.5"/>
<text text-anchor="start" x="711" y="-1258.9" font-family="Arial" font-size="14.00" fill="#000000">status    </text>
<text text-anchor="start" x="782.5512" y="-1258.9" font-family="Arial" font-size="14.00" fill="#666666">[longtext]</text>
</g>
<!-- season&#45;&gt;podcast -->
<g id="edge3" class="edge">
<title>season:podcast_id&#45;&gt;podcast:id</title>
<path fill="none" stroke="#000000" d="M695.0829,-1497.6078C656.6,-1452.7508 663.075,-1113.5572 651,-1070 633.7789,-1007.8796 656.4632,-937.5 592,-937.5"/>
<polygon fill="#000000" stroke="#000000" points="695.2328,-1497.69 701.8355,-1506.4453 699.6164,-1500.095 704,-1502.5 704,-1502.5 704,-1502.5 699.6164,-1500.095 706.1645,-1498.5547 695.2328,-1497.69 695.2328,-1497.69"/>
</g>
</g>
</svg>
