<?xml version="1.0" encoding="UTF-8" standalone="no"?>
<!DOCTYPE svg PUBLIC "-//W3C//DTD SVG 1.1//EN"
 "http://www.w3.org/Graphics/SVG/1.1/DTD/svg11.dtd">
<!-- Generated by graphviz version 2.40.1 (20161225.0304)
 -->
<!-- Title: podcast Pages: 1 -->
<svg width="1285pt" height="1799pt"
 viewBox="0.00 0.00 1284.50 1799.00" xmlns="http://www.w3.org/2000/svg" xmlns:xlink="http://www.w3.org/1999/xlink">
<g id="graph0" class="graph" transform="scale(1 1) rotate(0) translate(4 1795)">
<title>podcast</title>
<polygon fill="#ffffff" stroke="transparent" points="-4,4 -4,-1795 1280.5,-1795 1280.5,4 -4,4"/>
<!-- podcast -->
<g id="node1" class="node">
<title>podcast</title>
<polygon fill="#efefef" stroke="transparent" points="552,-982.5 552,-1017.5 756,-1017.5 756,-982.5 552,-982.5"/>
<polygon fill="none" stroke="#000000" points="552,-982.5 552,-1017.5 756,-1017.5 756,-982.5 552,-982.5"/>
<text text-anchor="start" x="558.7025" y="-995.3" font-family="Arial Bold" font-size="18.00" fill="#000000">podcast</text>
<text text-anchor="start" x="621.7295" y="-995.3" font-family="Arial" font-size="14.00" fill="#000000">    </text>
<text text-anchor="start" x="655.9343" y="-995.3" font-family="Arial" font-size="14.00" fill="#666666">[BASE TABLE]</text>
<polygon fill="none" stroke="#000000" points="552,-952.5 552,-982.5 756,-982.5 756,-952.5 552,-952.5"/>
<text text-anchor="start" x="559" y="-963.9" font-family="Arial" font-size="14.00" fill="#000000">id </text>
<text text-anchor="start" x="573.7798" y="-963.9" font-family="Arial" font-size="14.00" fill="#666666">[int(11)]</text>
<polygon fill="none" stroke="#000000" points="552,-922.5 552,-952.5 756,-952.5 756,-922.5 552,-922.5"/>
<text text-anchor="start" x="559" y="-933.9" font-family="Arial" font-size="14.00" fill="#000000">publisher_id </text>
<text text-anchor="start" x="638.3492" y="-933.9" font-family="Arial" font-size="14.00" fill="#666666">[int(11)]</text>
<polygon fill="none" stroke="#000000" points="552,-892.5 552,-922.5 756,-922.5 756,-892.5 552,-892.5"/>
<text text-anchor="start" x="559" y="-903.9" font-family="Arial" font-size="14.00" fill="#000000">title </text>
<text text-anchor="start" x="584.6676" y="-903.9" font-family="Arial" font-size="14.00" fill="#666666">[varchar(255)]</text>
<polygon fill="none" stroke="#000000" points="552,-862.5 552,-892.5 756,-892.5 756,-862.5 552,-862.5"/>
<text text-anchor="start" x="559" y="-873.9" font-family="Arial" font-size="14.00" fill="#000000">sub_title </text>
<text text-anchor="start" x="615.0154" y="-873.9" font-family="Arial" font-size="14.00" fill="#666666">[varchar(255)]</text>
<polygon fill="none" stroke="#000000" points="552,-832.5 552,-862.5 756,-862.5 756,-832.5 552,-832.5"/>
<text text-anchor="start" x="559" y="-843.9" font-family="Arial" font-size="14.00" fill="#000000">explicit </text>
<text text-anchor="start" x="605.6662" y="-843.9" font-family="Arial" font-size="14.00" fill="#666666">[tinyint(1)]</text>
<polygon fill="none" stroke="#000000" points="552,-802.5 552,-832.5 756,-832.5 756,-802.5 552,-802.5"/>
<text text-anchor="start" x="559" y="-813.9" font-family="Arial" font-size="14.00" fill="#000000">description </text>
<text text-anchor="start" x="630.568" y="-813.9" font-family="Arial" font-size="14.00" fill="#666666">[longtext]</text>
<polygon fill="none" stroke="#000000" points="552,-772.5 552,-802.5 756,-802.5 756,-772.5 552,-772.5"/>
<text text-anchor="start" x="559" y="-783.9" font-family="Arial" font-size="14.00" fill="#000000">copyright </text>
<text text-anchor="start" x="619.6788" y="-783.9" font-family="Arial" font-size="14.00" fill="#666666">[longtext]</text>
<polygon fill="none" stroke="#000000" points="552,-742.5 552,-772.5 756,-772.5 756,-742.5 552,-742.5"/>
<text text-anchor="start" x="559" y="-753.9" font-family="Arial" font-size="14.00" fill="#000000">website </text>
<text text-anchor="start" x="610.3422" y="-753.9" font-family="Arial" font-size="14.00" fill="#666666">[longtext]</text>
<polygon fill="none" stroke="#000000" points="552,-712.5 552,-742.5 756,-742.5 756,-712.5 552,-712.5"/>
<text text-anchor="start" x="559" y="-723.9" font-family="Arial" font-size="14.00" fill="#000000">rss </text>
<text text-anchor="start" x="581.5512" y="-723.9" font-family="Arial" font-size="14.00" fill="#666666">[varchar(255)]</text>
<polygon fill="none" stroke="#000000" points="552,-682.5 552,-712.5 756,-712.5 756,-682.5 552,-682.5"/>
<text text-anchor="start" x="559" y="-693.9" font-family="Arial" font-size="14.00" fill="#000000">created </text>
<text text-anchor="start" x="609.5722" y="-693.9" font-family="Arial" font-size="14.00" fill="#666666">[datetime]</text>
<polygon fill="none" stroke="#000000" points="552,-652.5 552,-682.5 756,-682.5 756,-652.5 552,-652.5"/>
<text text-anchor="start" x="559" y="-663.9" font-family="Arial" font-size="14.00" fill="#000000">updated </text>
<text text-anchor="start" x="613.4768" y="-663.9" font-family="Arial" font-size="14.00" fill="#666666">[datetime]</text>
<polygon fill="none" stroke="#000000" points="552,-622.5 552,-652.5 756,-652.5 756,-622.5 552,-622.5"/>
<text text-anchor="start" x="559" y="-633.9" font-family="Arial" font-size="14.00" fill="#000000">license </text>
<text text-anchor="start" x="606.4516" y="-633.9" font-family="Arial" font-size="14.00" fill="#666666">[longtext]</text>
<polygon fill="none" stroke="#000000" points="552,-592.5 552,-622.5 756,-622.5 756,-592.5 552,-592.5"/>
<text text-anchor="start" x="559" y="-603.9" font-family="Arial" font-size="14.00" fill="#000000">guid </text>
<text text-anchor="start" x="589.345" y="-603.9" font-family="Arial" font-size="14.00" fill="#666666">[varchar(255)]</text>
<polygon fill="none" stroke="#000000" points="552,-562.5 552,-592.5 756,-592.5 756,-562.5 552,-562.5"/>
<text text-anchor="start" x="559" y="-573.9" font-family="Arial" font-size="14.00" fill="#000000">language_code </text>
<text text-anchor="start" x="658.6058" y="-573.9" font-family="Arial" font-size="14.00" fill="#666666">[varchar(255)]</text>
<polygon fill="none" stroke="#000000" points="552,-532.5 552,-562.5 756,-562.5 756,-532.5 552,-532.5"/>
<text text-anchor="start" x="559" y="-543.9" font-family="Arial" font-size="14.00" fill="#000000">categories </text>
<text text-anchor="start" x="627.4614" y="-543.9" font-family="Arial" font-size="14.00" fill="#666666">[longtext]</text>
<polygon fill="none" stroke="#000000" points="552,-502.5 552,-532.5 756,-532.5 756,-502.5 552,-502.5"/>
<text text-anchor="start" x="559" y="-513.9" font-family="Arial" font-size="14.00" fill="#000000">keywords </text>
<text text-anchor="start" x="622.0056" y="-513.9" font-family="Arial" font-size="14.00" fill="#666666">[longtext]</text>
<polygon fill="none" stroke="#000000" points="552,-472.5 552,-502.5 756,-502.5 756,-472.5 552,-472.5"/>
<text text-anchor="start" x="559" y="-483.9" font-family="Arial" font-size="14.00" fill="#000000">status </text>
<text text-anchor="start" x="600.237" y="-483.9" font-family="Arial" font-size="14.00" fill="#666666">[longtext]</text>
<polygon fill="none" stroke="#000000" stroke-width="3" points="550.5,-471.5 550.5,-1019.5 757.5,-1019.5 757.5,-471.5 550.5,-471.5"/>
</g>
<!-- publisher -->
<g id="node5" class="node">
<title>publisher</title>
<polygon fill="#efefef" stroke="transparent" points="547,-312.5 547,-347.5 761,-347.5 761,-312.5 547,-312.5"/>
<polygon fill="none" stroke="#000000" points="547,-312.5 547,-347.5 761,-347.5 761,-312.5 547,-312.5"/>
<text text-anchor="start" x="553.7102" y="-325.3" font-family="Arial Bold" font-size="18.00" fill="#000000">publisher</text>
<text text-anchor="start" x="626.7218" y="-325.3" font-family="Arial" font-size="14.00" fill="#000000">    </text>
<text text-anchor="start" x="660.9266" y="-325.3" font-family="Arial" font-size="14.00" fill="#666666">[BASE TABLE]</text>
<polygon fill="none" stroke="#000000" points="547,-282.5 547,-312.5 761,-312.5 761,-282.5 547,-282.5"/>
<text text-anchor="start" x="554" y="-293.9" font-family="Arial" font-size="14.00" fill="#000000">id    </text>
<text text-anchor="start" x="599.094" y="-293.9" font-family="Arial" font-size="14.00" fill="#666666">[int(11)]</text>
<polygon fill="none" stroke="#000000" points="547,-252.5 547,-282.5 761,-282.5 761,-252.5 547,-252.5"/>
<text text-anchor="start" x="554" y="-263.9" font-family="Arial" font-size="14.00" fill="#000000">name    </text>
<text text-anchor="start" x="623.2132" y="-263.9" font-family="Arial" font-size="14.00" fill="#666666">[varchar(255)]</text>
<polygon fill="none" stroke="#000000" points="547,-222.5 547,-252.5 761,-252.5 761,-222.5 547,-222.5"/>
<text text-anchor="start" x="554" y="-233.9" font-family="Arial" font-size="14.00" fill="#000000">location    </text>
<text text-anchor="start" x="636.439" y="-233.9" font-family="Arial" font-size="14.00" fill="#666666">[varchar(255)]</text>
<polygon fill="none" stroke="#000000" points="547,-192.5 547,-222.5 761,-222.5 761,-192.5 547,-192.5"/>
<text text-anchor="start" x="554" y="-203.9" font-family="Arial" font-size="14.00" fill="#000000">website    </text>
<text text-anchor="start" x="635.6564" y="-203.9" font-family="Arial" font-size="14.00" fill="#666666">[varchar(255)]</text>
<polygon fill="none" stroke="#000000" points="547,-162.5 547,-192.5 761,-192.5 761,-162.5 547,-162.5"/>
<text text-anchor="start" x="554" y="-173.9" font-family="Arial" font-size="14.00" fill="#000000">description    </text>
<text text-anchor="start" x="655.8822" y="-173.9" font-family="Arial" font-size="14.00" fill="#666666">[longtext]</text>
<polygon fill="none" stroke="#000000" points="547,-132.5 547,-162.5 761,-162.5 761,-132.5 547,-132.5"/>
<text text-anchor="start" x="554" y="-143.9" font-family="Arial" font-size="14.00" fill="#000000">contact    </text>
<text text-anchor="start" x="633.3338" y="-143.9" font-family="Arial" font-size="14.00" fill="#666666">[longtext]</text>
<polygon fill="none" stroke="#000000" points="547,-102.5 547,-132.5 761,-132.5 761,-102.5 547,-102.5"/>
<text text-anchor="start" x="554" y="-113.9" font-family="Arial" font-size="14.00" fill="#000000">created    </text>
<text text-anchor="start" x="634.8864" y="-113.9" font-family="Arial" font-size="14.00" fill="#666666">[datetime]</text>
<polygon fill="none" stroke="#000000" points="547,-72.5 547,-102.5 761,-102.5 761,-72.5 547,-72.5"/>
<text text-anchor="start" x="554" y="-83.9" font-family="Arial" font-size="14.00" fill="#000000">updated    </text>
<text text-anchor="start" x="638.791" y="-83.9" font-family="Arial" font-size="14.00" fill="#666666">[datetime]</text>
<polygon fill="none" stroke="#000000" points="547,-42.5 547,-72.5 761,-72.5 761,-42.5 547,-42.5"/>
<text text-anchor="start" x="554" y="-53.9" font-family="Arial" font-size="14.00" fill="#000000">podcast_id    </text>
<text text-anchor="start" x="655.8976" y="-53.9" font-family="Arial" font-size="14.00" fill="#666666">[int(11)]</text>
</g>
<!-- podcast&#45;&gt;publisher -->
<g id="edge6" class="edge">
<title>podcast:publisher_id&#45;&gt;publisher:id</title>
<path fill="none" stroke="#000000" d="M766.292,-937.2162C1040.5321,-921.9704 1041.9808,-297.5 761,-297.5"/>
<polygon fill="#000000" stroke="#000000" points="765.9962,-937.2243 755.8759,-933.0017 760.9981,-937.3621 756,-937.5 756,-937.5 756,-937.5 760.9981,-937.3621 756.1241,-941.9983 765.9962,-937.2243 765.9962,-937.2243"/>
</g>
<!-- contribution -->
<g id="node2" class="node">
<title>contribution</title>
<polygon fill="#efefef" stroke="transparent" points="43,-1547.5 43,-1582.5 277,-1582.5 277,-1547.5 43,-1547.5"/>
<polygon fill="none" stroke="#000000" points="43,-1547.5 43,-1582.5 277,-1582.5 277,-1547.5 43,-1547.5"/>
<text text-anchor="start" x="49.7049" y="-1560.3" font-family="Arial Bold" font-size="18.00" fill="#000000">contribution</text>
<text text-anchor="start" x="142.7271" y="-1560.3" font-family="Arial" font-size="14.00" fill="#000000">    </text>
<text text-anchor="start" x="176.9319" y="-1560.3" font-family="Arial" font-size="14.00" fill="#666666">[BASE TABLE]</text>
<polygon fill="none" stroke="#000000" points="43,-1517.5 43,-1547.5 277,-1547.5 277,-1517.5 43,-1517.5"/>
<text text-anchor="start" x="50" y="-1528.9" font-family="Arial" font-size="14.00" fill="#000000">id    </text>
<text text-anchor="start" x="95.094" y="-1528.9" font-family="Arial" font-size="14.00" fill="#666666">[int(11)]</text>
<polygon fill="none" stroke="#000000" points="43,-1487.5 43,-1517.5 277,-1517.5 277,-1487.5 43,-1487.5"/>
<text text-anchor="start" x="50" y="-1498.9" font-family="Arial" font-size="14.00" fill="#000000">person_id    </text>
<text text-anchor="start" x="145.6676" y="-1498.9" font-family="Arial" font-size="14.00" fill="#666666">[int(11)]</text>
<polygon fill="none" stroke="#000000" points="43,-1457.5 43,-1487.5 277,-1487.5 277,-1457.5 43,-1457.5"/>
<text text-anchor="start" x="50" y="-1468.9" font-family="Arial" font-size="14.00" fill="#000000">podcast_id    </text>
<text text-anchor="start" x="151.8976" y="-1468.9" font-family="Arial" font-size="14.00" fill="#666666">[int(11)]</text>
<polygon fill="none" stroke="#000000" points="43,-1427.5 43,-1457.5 277,-1457.5 277,-1427.5 43,-1427.5"/>
<text text-anchor="start" x="50" y="-1438.9" font-family="Arial" font-size="14.00" fill="#000000">season_id    </text>
<text text-anchor="start" x="148.007" y="-1438.9" font-family="Arial" font-size="14.00" fill="#666666">[int(11)]</text>
<polygon fill="none" stroke="#000000" points="43,-1397.5 43,-1427.5 277,-1427.5 277,-1397.5 43,-1397.5"/>
<text text-anchor="start" x="50" y="-1408.9" font-family="Arial" font-size="14.00" fill="#000000">episode_id    </text>
<text text-anchor="start" x="151.8962" y="-1408.9" font-family="Arial" font-size="14.00" fill="#666666">[int(11)]</text>
<polygon fill="none" stroke="#000000" points="43,-1367.5 43,-1397.5 277,-1397.5 277,-1367.5 43,-1367.5"/>
<text text-anchor="start" x="50" y="-1378.9" font-family="Arial" font-size="14.00" fill="#000000">created    </text>
<text text-anchor="start" x="130.8864" y="-1378.9" font-family="Arial" font-size="14.00" fill="#666666">[datetime]</text>
<polygon fill="none" stroke="#000000" points="43,-1337.5 43,-1367.5 277,-1367.5 277,-1337.5 43,-1337.5"/>
<text text-anchor="start" x="50" y="-1348.9" font-family="Arial" font-size="14.00" fill="#000000">updated    </text>
<text text-anchor="start" x="134.791" y="-1348.9" font-family="Arial" font-size="14.00" fill="#666666">[datetime]</text>
<polygon fill="none" stroke="#000000" points="43,-1307.5 43,-1337.5 277,-1337.5 277,-1307.5 43,-1307.5"/>
<text text-anchor="start" x="50" y="-1318.9" font-family="Arial" font-size="14.00" fill="#000000">roles    </text>
<text text-anchor="start" x="114.5372" y="-1318.9" font-family="Arial" font-size="14.00" fill="#666666">[longtext]</text>
</g>
<!-- contribution&#45;&gt;podcast -->
<g id="edge1" class="edge">
<title>contribution:podcast_id&#45;&gt;podcast:id</title>
<path fill="none" stroke="#000000" d="M286.9025,-1470.8648C354.1193,-1446.9006 284.7176,-1166.6132 329,-1100 392.8231,-1003.9921 436.7138,-967.5 552,-967.5"/>
<polygon fill="#000000" stroke="#000000" points="286.8664,-1470.8707 276.2668,-1468.0601 281.9332,-1471.6854 277,-1472.5 277,-1472.5 277,-1472.5 281.9332,-1471.6854 277.7332,-1476.9399 286.8664,-1470.8707 286.8664,-1470.8707"/>
</g>
<!-- episode -->
<g id="node3" class="node">
<title>episode</title>
<polygon fill="#efefef" stroke="transparent" points="381,-1712.5 381,-1747.5 599,-1747.5 599,-1712.5 381,-1712.5"/>
<polygon fill="none" stroke="#000000" points="381,-1712.5 381,-1747.5 599,-1747.5 599,-1712.5 381,-1712.5"/>
<text text-anchor="start" x="394.7034" y="-1725.3" font-family="Arial Bold" font-size="18.00" fill="#000000">episode</text>
<text text-anchor="start" x="457.7286" y="-1725.3" font-family="Arial" font-size="14.00" fill="#000000">    </text>
<text text-anchor="start" x="491.9334" y="-1725.3" font-family="Arial" font-size="14.00" fill="#666666">[BASE TABLE]</text>
<polygon fill="none" stroke="#000000" points="381,-1682.5 381,-1712.5 599,-1712.5 599,-1682.5 381,-1682.5"/>
<text text-anchor="start" x="388" y="-1693.9" font-family="Arial" font-size="14.00" fill="#000000">id    </text>
<text text-anchor="start" x="433.094" y="-1693.9" font-family="Arial" font-size="14.00" fill="#666666">[int(11)]</text>
<polygon fill="none" stroke="#000000" points="381,-1652.5 381,-1682.5 599,-1682.5 599,-1652.5 381,-1652.5"/>
<text text-anchor="start" x="388" y="-1663.9" font-family="Arial" font-size="14.00" fill="#000000">season_id    </text>
<text text-anchor="start" x="486.007" y="-1663.9" font-family="Arial" font-size="14.00" fill="#666666">[int(11)]</text>
<polygon fill="none" stroke="#000000" points="381,-1622.5 381,-1652.5 599,-1652.5 599,-1622.5 381,-1622.5"/>
<text text-anchor="start" x="388" y="-1633.9" font-family="Arial" font-size="14.00" fill="#000000">podcast_id    </text>
<text text-anchor="start" x="489.8976" y="-1633.9" font-family="Arial" font-size="14.00" fill="#666666">[int(11)]</text>
<polygon fill="none" stroke="#000000" points="381,-1592.5 381,-1622.5 599,-1622.5 599,-1592.5 381,-1592.5"/>
<text text-anchor="start" x="388" y="-1603.9" font-family="Arial" font-size="14.00" fill="#000000">number    </text>
<text text-anchor="start" x="469.6564" y="-1603.9" font-family="Arial" font-size="14.00" fill="#666666">[double]</text>
<polygon fill="none" stroke="#000000" points="381,-1562.5 381,-1592.5 599,-1592.5 599,-1562.5 381,-1562.5"/>
<text text-anchor="start" x="388" y="-1573.9" font-family="Arial" font-size="14.00" fill="#000000">date    </text>
<text text-anchor="start" x="449.4432" y="-1573.9" font-family="Arial" font-size="14.00" fill="#666666">[date]</text>
<polygon fill="none" stroke="#000000" points="381,-1532.5 381,-1562.5 599,-1562.5 599,-1532.5 381,-1532.5"/>
<text text-anchor="start" x="388" y="-1543.9" font-family="Arial" font-size="14.00" fill="#000000">run_time    </text>
<text text-anchor="start" x="476.6536" y="-1543.9" font-family="Arial" font-size="14.00" fill="#666666">[varchar(9)]</text>
<polygon fill="none" stroke="#000000" points="381,-1502.5 381,-1532.5 599,-1532.5 599,-1502.5 381,-1502.5"/>
<text text-anchor="start" x="388" y="-1513.9" font-family="Arial" font-size="14.00" fill="#000000">title    </text>
<text text-anchor="start" x="443.9818" y="-1513.9" font-family="Arial" font-size="14.00" fill="#666666">[varchar(255)]</text>
<polygon fill="none" stroke="#000000" points="381,-1472.5 381,-1502.5 599,-1502.5 599,-1472.5 381,-1472.5"/>
<text text-anchor="start" x="388" y="-1483.9" font-family="Arial" font-size="14.00" fill="#000000">sub_title    </text>
<text text-anchor="start" x="474.3296" y="-1483.9" font-family="Arial" font-size="14.00" fill="#666666">[varchar(255)]</text>
<polygon fill="none" stroke="#000000" points="381,-1442.5 381,-1472.5 599,-1472.5 599,-1442.5 381,-1442.5"/>
<text text-anchor="start" x="388" y="-1453.9" font-family="Arial" font-size="14.00" fill="#000000">bibliography    </text>
<text text-anchor="start" x="497.6634" y="-1453.9" font-family="Arial" font-size="14.00" fill="#666666">[longtext]</text>
<polygon fill="none" stroke="#000000" points="381,-1412.5 381,-1442.5 599,-1442.5 599,-1412.5 381,-1412.5"/>
<text text-anchor="start" x="388" y="-1423.9" font-family="Arial" font-size="14.00" fill="#000000">transcript    </text>
<text text-anchor="start" x="479.7616" y="-1423.9" font-family="Arial" font-size="14.00" fill="#666666">[longtext]</text>
<polygon fill="none" stroke="#000000" points="381,-1382.5 381,-1412.5 599,-1412.5 599,-1382.5 381,-1382.5"/>
<text text-anchor="start" x="388" y="-1393.9" font-family="Arial" font-size="14.00" fill="#000000">description    </text>
<text text-anchor="start" x="489.8822" y="-1393.9" font-family="Arial" font-size="14.00" fill="#666666">[longtext]</text>
<polygon fill="none" stroke="#000000" points="381,-1352.5 381,-1382.5 599,-1382.5 599,-1352.5 381,-1352.5"/>
<text text-anchor="start" x="388" y="-1363.9" font-family="Arial" font-size="14.00" fill="#000000">created    </text>
<text text-anchor="start" x="468.8864" y="-1363.9" font-family="Arial" font-size="14.00" fill="#666666">[datetime]</text>
<polygon fill="none" stroke="#000000" points="381,-1322.5 381,-1352.5 599,-1352.5 599,-1322.5 381,-1322.5"/>
<text text-anchor="start" x="388" y="-1333.9" font-family="Arial" font-size="14.00" fill="#000000">updated    </text>
<text text-anchor="start" x="472.791" y="-1333.9" font-family="Arial" font-size="14.00" fill="#666666">[datetime]</text>
<polygon fill="none" stroke="#000000" points="381,-1292.5 381,-1322.5 599,-1322.5 599,-1292.5 381,-1292.5"/>
<text text-anchor="start" x="388" y="-1303.9" font-family="Arial" font-size="14.00" fill="#000000">keywords    </text>
<text text-anchor="start" x="481.3198" y="-1303.9" font-family="Arial" font-size="14.00" fill="#666666">[longtext]</text>
<polygon fill="none" stroke="#000000" points="381,-1262.5 381,-1292.5 599,-1292.5 599,-1262.5 381,-1262.5"/>
<text text-anchor="start" x="388" y="-1273.9" font-family="Arial" font-size="14.00" fill="#000000">permissions    </text>
<text text-anchor="start" x="496.8696" y="-1273.9" font-family="Arial" font-size="14.00" fill="#666666">[longtext]</text>
<polygon fill="none" stroke="#000000" points="381,-1232.5 381,-1262.5 599,-1262.5 599,-1232.5 381,-1232.5"/>
<text text-anchor="start" x="388" y="-1243.9" font-family="Arial" font-size="14.00" fill="#000000">guid    </text>
<text text-anchor="start" x="448.6592" y="-1243.9" font-family="Arial" font-size="14.00" fill="#666666">[varchar(255)]</text>
<polygon fill="none" stroke="#000000" points="381,-1202.5 381,-1232.5 599,-1232.5 599,-1202.5 381,-1202.5"/>
<text text-anchor="start" x="387.709" y="-1213.9" font-family="Arial" font-size="14.00" fill="#000000">episode_type    </text>
<text text-anchor="start" x="505.1718" y="-1213.9" font-family="Arial" font-size="14.00" fill="#666666">[varchar(255)]</text>
<polygon fill="none" stroke="#000000" points="381,-1172.5 381,-1202.5 599,-1202.5 599,-1172.5 381,-1172.5"/>
<text text-anchor="start" x="388" y="-1183.9" font-family="Arial" font-size="14.00" fill="#000000">explicit    </text>
<text text-anchor="start" x="464.9804" y="-1183.9" font-family="Arial" font-size="14.00" fill="#666666">[tinyint(1)]</text>
<polygon fill="none" stroke="#000000" points="381,-1142.5 381,-1172.5 599,-1172.5 599,-1142.5 381,-1142.5"/>
<text text-anchor="start" x="388" y="-1153.9" font-family="Arial" font-size="14.00" fill="#000000">status    </text>
<text text-anchor="start" x="459.5512" y="-1153.9" font-family="Arial" font-size="14.00" fill="#666666">[longtext]</text>
</g>
<!-- episode&#45;&gt;podcast -->
<g id="edge2" class="edge">
<title>episode:podcast_id&#45;&gt;podcast:id</title>
<path fill="none" stroke="#000000" d="M608.2711,-1633.0084C654.9737,-1584.0585 623.9401,-1150.5186 599,-1100 587.3521,-1076.4061 563.6479,-1087.5939 552,-1064 533.0141,-1025.5423 509.1111,-967.5 552,-967.5"/>
<polygon fill="#000000" stroke="#000000" points="607.9995,-1633.1399 597.038,-1633.4502 603.4997,-1635.32 599,-1637.5 599,-1637.5 599,-1637.5 603.4997,-1635.32 600.962,-1641.5498 607.9995,-1633.1399 607.9995,-1633.1399"/>
</g>
<!-- person -->
<g id="node4" class="node">
<title>person</title>
<polygon fill="#efefef" stroke="transparent" points="704,-1562.5 704,-1597.5 931,-1597.5 931,-1562.5 704,-1562.5"/>
<polygon fill="none" stroke="#000000" points="704,-1562.5 704,-1597.5 931,-1597.5 931,-1562.5 704,-1562.5"/>
<text text-anchor="start" x="726.2075" y="-1575.3" font-family="Arial Bold" font-size="18.00" fill="#000000">person</text>
<text text-anchor="start" x="781.2245" y="-1575.3" font-family="Arial" font-size="14.00" fill="#000000">    </text>
<text text-anchor="start" x="815.4293" y="-1575.3" font-family="Arial" font-size="14.00" fill="#666666">[BASE TABLE]</text>
<polygon fill="none" stroke="#000000" points="704,-1532.5 704,-1562.5 931,-1562.5 931,-1532.5 704,-1532.5"/>
<text text-anchor="start" x="711" y="-1543.9" font-family="Arial" font-size="14.00" fill="#000000">id    </text>
<text text-anchor="start" x="756.094" y="-1543.9" font-family="Arial" font-size="14.00" fill="#666666">[int(11)]</text>
<polygon fill="none" stroke="#000000" points="704,-1502.5 704,-1532.5 931,-1532.5 931,-1502.5 704,-1502.5"/>
<text text-anchor="start" x="711" y="-1513.9" font-family="Arial" font-size="14.00" fill="#000000">fullname    </text>
<text text-anchor="start" x="798.0996" y="-1513.9" font-family="Arial" font-size="14.00" fill="#666666">[varchar(255)]</text>
<polygon fill="none" stroke="#000000" points="704,-1472.5 704,-1502.5 931,-1502.5 931,-1472.5 704,-1472.5"/>
<text text-anchor="start" x="710.5484" y="-1483.9" font-family="Arial" font-size="14.00" fill="#000000">sortable_name    </text>
<text text-anchor="start" x="837.3324" y="-1483.9" font-family="Arial" font-size="14.00" fill="#666666">[varchar(255)]</text>
<polygon fill="none" stroke="#000000" points="704,-1442.5 704,-1472.5 931,-1472.5 931,-1442.5 704,-1442.5"/>
<text text-anchor="start" x="711" y="-1453.9" font-family="Arial" font-size="14.00" fill="#000000">location    </text>
<text text-anchor="start" x="793.439" y="-1453.9" font-family="Arial" font-size="14.00" fill="#666666">[varchar(255)]</text>
<polygon fill="none" stroke="#000000" points="704,-1412.5 704,-1442.5 931,-1442.5 931,-1412.5 704,-1412.5"/>
<text text-anchor="start" x="711" y="-1423.9" font-family="Arial" font-size="14.00" fill="#000000">bio    </text>
<text text-anchor="start" x="763.8766" y="-1423.9" font-family="Arial" font-size="14.00" fill="#666666">[longtext]</text>
<polygon fill="none" stroke="#000000" points="704,-1382.5 704,-1412.5 931,-1412.5 931,-1382.5 704,-1382.5"/>
<text text-anchor="start" x="711" y="-1393.9" font-family="Arial" font-size="14.00" fill="#000000">created    </text>
<text text-anchor="start" x="791.8864" y="-1393.9" font-family="Arial" font-size="14.00" fill="#666666">[datetime]</text>
<polygon fill="none" stroke="#000000" points="704,-1352.5 704,-1382.5 931,-1382.5 931,-1352.5 704,-1352.5"/>
<text text-anchor="start" x="711" y="-1363.9" font-family="Arial" font-size="14.00" fill="#000000">updated    </text>
<text text-anchor="start" x="795.791" y="-1363.9" font-family="Arial" font-size="14.00" fill="#666666">[datetime]</text>
<polygon fill="none" stroke="#000000" points="704,-1322.5 704,-1352.5 931,-1352.5 931,-1322.5 704,-1322.5"/>
<text text-anchor="start" x="711" y="-1333.9" font-family="Arial" font-size="14.00" fill="#000000">institution    </text>
<text text-anchor="start" x="804.3268" y="-1333.9" font-family="Arial" font-size="14.00" fill="#666666">[varchar(255)]</text>
<polygon fill="none" stroke="#000000" points="704,-1292.5 704,-1322.5 931,-1322.5 931,-1292.5 704,-1292.5"/>
<text text-anchor="start" x="711" y="-1303.9" font-family="Arial" font-size="14.00" fill="#000000">podcast_id    </text>
<text text-anchor="start" x="812.8976" y="-1303.9" font-family="Arial" font-size="14.00" fill="#666666">[int(11)]</text>
</g>
<!-- person&#45;&gt;podcast -->
<g id="edge3" class="edge">
<title>person:podcast_id&#45;&gt;podcast:id</title>
<path fill="none" stroke="#000000" d="M693.7018,-1306.9019C568.295,-1291.1011 905.1361,-967.5 756,-967.5"/>
<polygon fill="#000000" stroke="#000000" points="694.0168,-1306.9201 703.7391,-1311.9924 699.0084,-1307.2101 704,-1307.5 704,-1307.5 704,-1307.5 699.0084,-1307.2101 704.2609,-1303.0076 694.0168,-1306.9201 694.0168,-1306.9201"/>
</g>
<!-- publisher&#45;&gt;podcast -->
<g id="edge4" class="edge">
<title>publisher:podcast_id&#45;&gt;podcast:id</title>
<path fill="none" stroke="#000000" d="M771.2783,-57.6982C1165.3359,-72.9853 1156.9946,-967.5 756,-967.5"/>
<polygon fill="#000000" stroke="#000000" points="770.9981,-57.6929 761.0868,-53.0008 765.9991,-57.5964 761,-57.5 761,-57.5 761,-57.5 765.9991,-57.5964 760.9132,-61.9992 770.9981,-57.6929 770.9981,-57.6929"/>
</g>
<!-- season -->
<g id="node6" class="node">
<title>season</title>
<polygon fill="#efefef" stroke="transparent" points="1035,-1577.5 1035,-1612.5 1234,-1612.5 1234,-1577.5 1035,-1577.5"/>
<polygon fill="none" stroke="#000000" points="1035,-1577.5 1035,-1612.5 1234,-1612.5 1234,-1577.5 1035,-1577.5"/>
<text text-anchor="start" x="1041.7036" y="-1590.3" font-family="Arial Bold" font-size="18.00" fill="#000000">season</text>
<text text-anchor="start" x="1099.7284" y="-1590.3" font-family="Arial" font-size="14.00" fill="#000000">    </text>
<text text-anchor="start" x="1133.9332" y="-1590.3" font-family="Arial" font-size="14.00" fill="#666666">[BASE TABLE]</text>
<polygon fill="none" stroke="#000000" points="1035,-1547.5 1035,-1577.5 1234,-1577.5 1234,-1547.5 1035,-1547.5"/>
<text text-anchor="start" x="1042" y="-1558.9" font-family="Arial" font-size="14.00" fill="#000000">id    </text>
<text text-anchor="start" x="1087.094" y="-1558.9" font-family="Arial" font-size="14.00" fill="#666666">[int(11)]</text>
<polygon fill="none" stroke="#000000" points="1035,-1517.5 1035,-1547.5 1234,-1547.5 1234,-1517.5 1035,-1517.5"/>
<text text-anchor="start" x="1042" y="-1528.9" font-family="Arial" font-size="14.00" fill="#000000">podcast_id    </text>
<text text-anchor="start" x="1143.8976" y="-1528.9" font-family="Arial" font-size="14.00" fill="#666666">[int(11)]</text>
<polygon fill="none" stroke="#000000" points="1035,-1487.5 1035,-1517.5 1234,-1517.5 1234,-1487.5 1035,-1487.5"/>
<text text-anchor="start" x="1042" y="-1498.9" font-family="Arial" font-size="14.00" fill="#000000">publisher_id    </text>
<text text-anchor="start" x="1151.6634" y="-1498.9" font-family="Arial" font-size="14.00" fill="#666666">[int(11)]</text>
<polygon fill="none" stroke="#000000" points="1035,-1457.5 1035,-1487.5 1234,-1487.5 1234,-1457.5 1035,-1457.5"/>
<text text-anchor="start" x="1042" y="-1468.9" font-family="Arial" font-size="14.00" fill="#000000">number    </text>
<text text-anchor="start" x="1123.6564" y="-1468.9" font-family="Arial" font-size="14.00" fill="#666666">[int(11)]</text>
<polygon fill="none" stroke="#000000" points="1035,-1427.5 1035,-1457.5 1234,-1457.5 1234,-1427.5 1035,-1427.5"/>
<text text-anchor="start" x="1042" y="-1438.9" font-family="Arial" font-size="14.00" fill="#000000">title    </text>
<text text-anchor="start" x="1097.9818" y="-1438.9" font-family="Arial" font-size="14.00" fill="#666666">[varchar(255)]</text>
<polygon fill="none" stroke="#000000" points="1035,-1397.5 1035,-1427.5 1234,-1427.5 1234,-1397.5 1035,-1397.5"/>
<text text-anchor="start" x="1042" y="-1408.9" font-family="Arial" font-size="14.00" fill="#000000">sub_title    </text>
<text text-anchor="start" x="1128.3296" y="-1408.9" font-family="Arial" font-size="14.00" fill="#666666">[varchar(255)]</text>
<polygon fill="none" stroke="#000000" points="1035,-1367.5 1035,-1397.5 1234,-1397.5 1234,-1367.5 1035,-1367.5"/>
<text text-anchor="start" x="1042" y="-1378.9" font-family="Arial" font-size="14.00" fill="#000000">description    </text>
<text text-anchor="start" x="1143.8822" y="-1378.9" font-family="Arial" font-size="14.00" fill="#666666">[longtext]</text>
<polygon fill="none" stroke="#000000" points="1035,-1337.5 1035,-1367.5 1234,-1367.5 1234,-1337.5 1035,-1337.5"/>
<text text-anchor="start" x="1042" y="-1348.9" font-family="Arial" font-size="14.00" fill="#000000">created    </text>
<text text-anchor="start" x="1122.8864" y="-1348.9" font-family="Arial" font-size="14.00" fill="#666666">[datetime]</text>
<polygon fill="none" stroke="#000000" points="1035,-1307.5 1035,-1337.5 1234,-1337.5 1234,-1307.5 1035,-1307.5"/>
<text text-anchor="start" x="1042" y="-1318.9" font-family="Arial" font-size="14.00" fill="#000000">updated    </text>
<text text-anchor="start" x="1126.791" y="-1318.9" font-family="Arial" font-size="14.00" fill="#666666">[datetime]</text>
<polygon fill="none" stroke="#000000" points="1035,-1277.5 1035,-1307.5 1234,-1307.5 1234,-1277.5 1035,-1277.5"/>
<text text-anchor="start" x="1042" y="-1288.9" font-family="Arial" font-size="14.00" fill="#000000">status    </text>
<text text-anchor="start" x="1113.5512" y="-1288.9" font-family="Arial" font-size="14.00" fill="#666666">[longtext]</text>
</g>
<!-- season&#45;&gt;podcast -->
<g id="edge5" class="edge">
<title>season:podcast_id&#45;&gt;podcast:id</title>
<path fill="none" stroke="#000000" d="M1025.0099,-1531.0793C945.2576,-1506.7786 1034.1639,-1177.9137 983,-1100 918.8781,-1002.3535 872.8181,-967.5 756,-967.5"/>
<polygon fill="#000000" stroke="#000000" points="1025.0996,-1531.092 1034.3664,-1536.9552 1030.0498,-1531.796 1035,-1532.5 1035,-1532.5 1035,-1532.5 1030.0498,-1531.796 1035.6336,-1528.0448 1025.0996,-1531.092 1025.0996,-1531.092"/>
</g>
</g>
</svg>
