<?xml version="1.0" encoding="UTF-8" standalone="no"?>
<!DOCTYPE svg PUBLIC "-//W3C//DTD SVG 1.1//EN"
 "http://www.w3.org/Graphics/SVG/1.1/DTD/svg11.dtd">
<!-- Generated by graphviz version 2.40.1 (20161225.0304)
 -->
<!-- Title: publisher Pages: 1 -->
<svg width="373pt" height="1529pt"
 viewBox="0.00 0.00 372.60 1529.00" xmlns="http://www.w3.org/2000/svg" xmlns:xlink="http://www.w3.org/1999/xlink">
<g id="graph0" class="graph" transform="scale(1 1) rotate(0) translate(4 1525)">
<title>publisher</title>
<polygon fill="#ffffff" stroke="transparent" points="-4,4 -4,-1525 368.5966,-1525 368.5966,4 -4,4"/>
<!-- publisher -->
<g id="node1" class="node">
<title>publisher</title>
<polygon fill="#efefef" stroke="transparent" points="84.0086,-982.5 84.0086,-1017.5 298.0086,-1017.5 298.0086,-982.5 84.0086,-982.5"/>
<polygon fill="none" stroke="#000000" points="84.0086,-982.5 84.0086,-1017.5 298.0086,-1017.5 298.0086,-982.5 84.0086,-982.5"/>
<text text-anchor="start" x="90.7188" y="-995.3" font-family="Arial Bold" font-size="18.00" fill="#000000">publisher</text>
<text text-anchor="start" x="163.7304" y="-995.3" font-family="Arial" font-size="14.00" fill="#000000">    </text>
<text text-anchor="start" x="197.9352" y="-995.3" font-family="Arial" font-size="14.00" fill="#666666">[BASE TABLE]</text>
<polygon fill="none" stroke="#000000" points="84.0086,-952.5 84.0086,-982.5 298.0086,-982.5 298.0086,-952.5 84.0086,-952.5"/>
<text text-anchor="start" x="91.0086" y="-963.9" font-family="Arial" font-size="14.00" fill="#000000">id </text>
<text text-anchor="start" x="105.7884" y="-963.9" font-family="Arial" font-size="14.00" fill="#666666">[int(11)]</text>
<polygon fill="none" stroke="#000000" points="84.0086,-922.5 84.0086,-952.5 298.0086,-952.5 298.0086,-922.5 84.0086,-922.5"/>
<text text-anchor="start" x="91.0086" y="-933.9" font-family="Arial" font-size="14.00" fill="#000000">name </text>
<text text-anchor="start" x="129.9076" y="-933.9" font-family="Arial" font-size="14.00" fill="#666666">[varchar(255)]</text>
<polygon fill="none" stroke="#000000" points="84.0086,-892.5 84.0086,-922.5 298.0086,-922.5 298.0086,-892.5 84.0086,-892.5"/>
<text text-anchor="start" x="91.0086" y="-903.9" font-family="Arial" font-size="14.00" fill="#000000">location </text>
<text text-anchor="start" x="143.1334" y="-903.9" font-family="Arial" font-size="14.00" fill="#666666">[varchar(255)]</text>
<polygon fill="none" stroke="#000000" points="84.0086,-862.5 84.0086,-892.5 298.0086,-892.5 298.0086,-862.5 84.0086,-862.5"/>
<text text-anchor="start" x="91.0086" y="-873.9" font-family="Arial" font-size="14.00" fill="#000000">website </text>
<text text-anchor="start" x="142.3508" y="-873.9" font-family="Arial" font-size="14.00" fill="#666666">[varchar(255)]</text>
<polygon fill="none" stroke="#000000" points="84.0086,-832.5 84.0086,-862.5 298.0086,-862.5 298.0086,-832.5 84.0086,-832.5"/>
<text text-anchor="start" x="91.0086" y="-843.9" font-family="Arial" font-size="14.00" fill="#000000">description </text>
<text text-anchor="start" x="162.5766" y="-843.9" font-family="Arial" font-size="14.00" fill="#666666">[longtext]</text>
<polygon fill="none" stroke="#000000" points="84.0086,-802.5 84.0086,-832.5 298.0086,-832.5 298.0086,-802.5 84.0086,-802.5"/>
<text text-anchor="start" x="91.0086" y="-813.9" font-family="Arial" font-size="14.00" fill="#000000">contact </text>
<text text-anchor="start" x="140.0282" y="-813.9" font-family="Arial" font-size="14.00" fill="#666666">[longtext]</text>
<polygon fill="none" stroke="#000000" points="84.0086,-772.5 84.0086,-802.5 298.0086,-802.5 298.0086,-772.5 84.0086,-772.5"/>
<text text-anchor="start" x="91.0086" y="-783.9" font-family="Arial" font-size="14.00" fill="#000000">created </text>
<text text-anchor="start" x="141.5808" y="-783.9" font-family="Arial" font-size="14.00" fill="#666666">[datetime]</text>
<polygon fill="none" stroke="#000000" points="84.0086,-742.5 84.0086,-772.5 298.0086,-772.5 298.0086,-742.5 84.0086,-742.5"/>
<text text-anchor="start" x="91.0086" y="-753.9" font-family="Arial" font-size="14.00" fill="#000000">updated </text>
<text text-anchor="start" x="145.4854" y="-753.9" font-family="Arial" font-size="14.00" fill="#666666">[datetime]</text>
<polygon fill="none" stroke="#000000" points="84.0086,-712.5 84.0086,-742.5 298.0086,-742.5 298.0086,-712.5 84.0086,-712.5"/>
<text text-anchor="start" x="91.0086" y="-723.9" font-family="Arial" font-size="14.00" fill="#000000">podcast_id </text>
<text text-anchor="start" x="162.592" y="-723.9" font-family="Arial" font-size="14.00" fill="#666666">[int(11)]</text>
<polygon fill="none" stroke="#000000" stroke-width="3" points="82.5086,-711.5 82.5086,-1019.5 299.5086,-1019.5 299.5086,-711.5 82.5086,-711.5"/>
</g>
<!-- podcast -->
<g id="node2" class="node">
<title>podcast</title>
<polygon fill="#efefef" stroke="transparent" points="75.0086,-552.5 75.0086,-587.5 306.0086,-587.5 306.0086,-552.5 75.0086,-552.5"/>
<polygon fill="none" stroke="#000000" points="75.0086,-552.5 75.0086,-587.5 306.0086,-587.5 306.0086,-552.5 75.0086,-552.5"/>
<text text-anchor="start" x="95.2111" y="-565.3" font-family="Arial Bold" font-size="18.00" fill="#000000">podcast</text>
<text text-anchor="start" x="158.2381" y="-565.3" font-family="Arial" font-size="14.00" fill="#000000">    </text>
<text text-anchor="start" x="192.4429" y="-565.3" font-family="Arial" font-size="14.00" fill="#666666">[BASE TABLE]</text>
<polygon fill="none" stroke="#000000" points="75.0086,-522.5 75.0086,-552.5 306.0086,-552.5 306.0086,-522.5 75.0086,-522.5"/>
<text text-anchor="start" x="82.0086" y="-533.9" font-family="Arial" font-size="14.00" fill="#000000">id    </text>
<text text-anchor="start" x="127.1026" y="-533.9" font-family="Arial" font-size="14.00" fill="#666666">[int(11)]</text>
<polygon fill="none" stroke="#000000" points="75.0086,-492.5 75.0086,-522.5 306.0086,-522.5 306.0086,-492.5 75.0086,-492.5"/>
<text text-anchor="start" x="82.0086" y="-503.9" font-family="Arial" font-size="14.00" fill="#000000">publisher_id    </text>
<text text-anchor="start" x="191.672" y="-503.9" font-family="Arial" font-size="14.00" fill="#666666">[int(11)]</text>
<polygon fill="none" stroke="#000000" points="75.0086,-462.5 75.0086,-492.5 306.0086,-492.5 306.0086,-462.5 75.0086,-462.5"/>
<text text-anchor="start" x="82.0086" y="-473.9" font-family="Arial" font-size="14.00" fill="#000000">title    </text>
<text text-anchor="start" x="137.9904" y="-473.9" font-family="Arial" font-size="14.00" fill="#666666">[varchar(255)]</text>
<polygon fill="none" stroke="#000000" points="75.0086,-432.5 75.0086,-462.5 306.0086,-462.5 306.0086,-432.5 75.0086,-432.5"/>
<text text-anchor="start" x="82.0086" y="-443.9" font-family="Arial" font-size="14.00" fill="#000000">sub_title    </text>
<text text-anchor="start" x="168.3382" y="-443.9" font-family="Arial" font-size="14.00" fill="#666666">[varchar(255)]</text>
<polygon fill="none" stroke="#000000" points="75.0086,-402.5 75.0086,-432.5 306.0086,-432.5 306.0086,-402.5 75.0086,-402.5"/>
<text text-anchor="start" x="82.0086" y="-413.9" font-family="Arial" font-size="14.00" fill="#000000">explicit    </text>
<text text-anchor="start" x="158.989" y="-413.9" font-family="Arial" font-size="14.00" fill="#666666">[tinyint(1)]</text>
<polygon fill="none" stroke="#000000" points="75.0086,-372.5 75.0086,-402.5 306.0086,-402.5 306.0086,-372.5 75.0086,-372.5"/>
<text text-anchor="start" x="82.0086" y="-383.9" font-family="Arial" font-size="14.00" fill="#000000">description    </text>
<text text-anchor="start" x="183.8908" y="-383.9" font-family="Arial" font-size="14.00" fill="#666666">[longtext]</text>
<polygon fill="none" stroke="#000000" points="75.0086,-342.5 75.0086,-372.5 306.0086,-372.5 306.0086,-342.5 75.0086,-342.5"/>
<text text-anchor="start" x="82.0086" y="-353.9" font-family="Arial" font-size="14.00" fill="#000000">copyright    </text>
<text text-anchor="start" x="173.0016" y="-353.9" font-family="Arial" font-size="14.00" fill="#666666">[longtext]</text>
<polygon fill="none" stroke="#000000" points="75.0086,-312.5 75.0086,-342.5 306.0086,-342.5 306.0086,-312.5 75.0086,-312.5"/>
<text text-anchor="start" x="82.0086" y="-323.9" font-family="Arial" font-size="14.00" fill="#000000">website    </text>
<text text-anchor="start" x="163.665" y="-323.9" font-family="Arial" font-size="14.00" fill="#666666">[longtext]</text>
<polygon fill="none" stroke="#000000" points="75.0086,-282.5 75.0086,-312.5 306.0086,-312.5 306.0086,-282.5 75.0086,-282.5"/>
<text text-anchor="start" x="82.0086" y="-293.9" font-family="Arial" font-size="14.00" fill="#000000">rss    </text>
<text text-anchor="start" x="134.874" y="-293.9" font-family="Arial" font-size="14.00" fill="#666666">[varchar(255)]</text>
<polygon fill="none" stroke="#000000" points="75.0086,-252.5 75.0086,-282.5 306.0086,-282.5 306.0086,-252.5 75.0086,-252.5"/>
<text text-anchor="start" x="82.0086" y="-263.9" font-family="Arial" font-size="14.00" fill="#000000">created    </text>
<text text-anchor="start" x="162.895" y="-263.9" font-family="Arial" font-size="14.00" fill="#666666">[datetime]</text>
<polygon fill="none" stroke="#000000" points="75.0086,-222.5 75.0086,-252.5 306.0086,-252.5 306.0086,-222.5 75.0086,-222.5"/>
<text text-anchor="start" x="82.0086" y="-233.9" font-family="Arial" font-size="14.00" fill="#000000">updated    </text>
<text text-anchor="start" x="166.7996" y="-233.9" font-family="Arial" font-size="14.00" fill="#666666">[datetime]</text>
<polygon fill="none" stroke="#000000" points="75.0086,-192.5 75.0086,-222.5 306.0086,-222.5 306.0086,-192.5 75.0086,-192.5"/>
<text text-anchor="start" x="82.0086" y="-203.9" font-family="Arial" font-size="14.00" fill="#000000">license    </text>
<text text-anchor="start" x="159.7744" y="-203.9" font-family="Arial" font-size="14.00" fill="#666666">[longtext]</text>
<polygon fill="none" stroke="#000000" points="75.0086,-162.5 75.0086,-192.5 306.0086,-192.5 306.0086,-162.5 75.0086,-162.5"/>
<text text-anchor="start" x="82.0086" y="-173.9" font-family="Arial" font-size="14.00" fill="#000000">guid    </text>
<text text-anchor="start" x="142.6678" y="-173.9" font-family="Arial" font-size="14.00" fill="#666666">[varchar(255)]</text>
<polygon fill="none" stroke="#000000" points="75.0086,-132.5 75.0086,-162.5 306.0086,-162.5 306.0086,-132.5 75.0086,-132.5"/>
<text text-anchor="start" x="81.989" y="-143.9" font-family="Arial" font-size="14.00" fill="#000000">language_code    </text>
<text text-anchor="start" x="211.909" y="-143.9" font-family="Arial" font-size="14.00" fill="#666666">[varchar(255)]</text>
<polygon fill="none" stroke="#000000" points="75.0086,-102.5 75.0086,-132.5 306.0086,-132.5 306.0086,-102.5 75.0086,-102.5"/>
<text text-anchor="start" x="82.0086" y="-113.9" font-family="Arial" font-size="14.00" fill="#000000">categories    </text>
<text text-anchor="start" x="180.7842" y="-113.9" font-family="Arial" font-size="14.00" fill="#666666">[longtext]</text>
<polygon fill="none" stroke="#000000" points="75.0086,-72.5 75.0086,-102.5 306.0086,-102.5 306.0086,-72.5 75.0086,-72.5"/>
<text text-anchor="start" x="82.0086" y="-83.9" font-family="Arial" font-size="14.00" fill="#000000">keywords    </text>
<text text-anchor="start" x="175.3284" y="-83.9" font-family="Arial" font-size="14.00" fill="#666666">[longtext]</text>
<polygon fill="none" stroke="#000000" points="75.0086,-42.5 75.0086,-72.5 306.0086,-72.5 306.0086,-42.5 75.0086,-42.5"/>
<text text-anchor="start" x="82.0086" y="-53.9" font-family="Arial" font-size="14.00" fill="#000000">status    </text>
<text text-anchor="start" x="153.5598" y="-53.9" font-family="Arial" font-size="14.00" fill="#666666">[longtext]</text>
</g>
<!-- publisher&#45;&gt;podcast -->
<g id="edge3" class="edge">
<title>publisher:podcast_id&#45;&gt;podcast:id</title>
<path fill="none" stroke="#000000" d="M191.8678,-702.4738C200.9166,-653.8494 278.9257,-683.388 306.0086,-631 325.0922,-594.0855 347.5641,-537.5 306.0086,-537.5"/>
<polygon fill="#000000" stroke="#000000" points="191.8625,-702.5365 186.525,-712.1157 191.4356,-707.5183 191.0086,-712.5 191.0086,-712.5 191.0086,-712.5 191.4356,-707.5183 195.4922,-712.8843 191.8625,-702.5365 191.8625,-702.5365"/>
</g>
<!-- podcast&#45;&gt;publisher -->
<g id="edge1" class="edge">
<title>podcast:publisher_id&#45;&gt;publisher:id</title>
<path fill="none" stroke="#000000" d="M315.9787,-508.5452C358.2601,-518.1744 339.217,-591.9726 306.0086,-631 241.2327,-707.1262 148.7844,-590.8738 84.0086,-667 -2.5416,-768.716 -49.547,-967.5 84.0086,-967.5"/>
<polygon fill="#000000" stroke="#000000" points="315.9541,-508.5427 306.4778,-503.0245 310.9813,-508.0213 306.0086,-507.5 306.0086,-507.5 306.0086,-507.5 310.9813,-508.0213 305.5394,-511.9755 315.9541,-508.5427 315.9541,-508.5427"/>
</g>
<!-- season -->
<g id="node3" class="node">
<title>season</title>
<polygon fill="#efefef" stroke="transparent" points="91.0086,-1442.5 91.0086,-1477.5 290.0086,-1477.5 290.0086,-1442.5 91.0086,-1442.5"/>
<polygon fill="none" stroke="#000000" points="91.0086,-1442.5 91.0086,-1477.5 290.0086,-1477.5 290.0086,-1442.5 91.0086,-1442.5"/>
<text text-anchor="start" x="97.7122" y="-1455.3" font-family="Arial Bold" font-size="18.00" fill="#000000">season</text>
<text text-anchor="start" x="155.737" y="-1455.3" font-family="Arial" font-size="14.00" fill="#000000">    </text>
<text text-anchor="start" x="189.9418" y="-1455.3" font-family="Arial" font-size="14.00" fill="#666666">[BASE TABLE]</text>
<polygon fill="none" stroke="#000000" points="91.0086,-1412.5 91.0086,-1442.5 290.0086,-1442.5 290.0086,-1412.5 91.0086,-1412.5"/>
<text text-anchor="start" x="98.0086" y="-1423.9" font-family="Arial" font-size="14.00" fill="#000000">id    </text>
<text text-anchor="start" x="143.1026" y="-1423.9" font-family="Arial" font-size="14.00" fill="#666666">[int(11)]</text>
<polygon fill="none" stroke="#000000" points="91.0086,-1382.5 91.0086,-1412.5 290.0086,-1412.5 290.0086,-1382.5 91.0086,-1382.5"/>
<text text-anchor="start" x="98.0086" y="-1393.9" font-family="Arial" font-size="14.00" fill="#000000">podcast_id    </text>
<text text-anchor="start" x="199.9062" y="-1393.9" font-family="Arial" font-size="14.00" fill="#666666">[int(11)]</text>
<polygon fill="none" stroke="#000000" points="91.0086,-1352.5 91.0086,-1382.5 290.0086,-1382.5 290.0086,-1352.5 91.0086,-1352.5"/>
<text text-anchor="start" x="98.0086" y="-1363.9" font-family="Arial" font-size="14.00" fill="#000000">publisher_id    </text>
<text text-anchor="start" x="207.672" y="-1363.9" font-family="Arial" font-size="14.00" fill="#666666">[int(11)]</text>
<polygon fill="none" stroke="#000000" points="91.0086,-1322.5 91.0086,-1352.5 290.0086,-1352.5 290.0086,-1322.5 91.0086,-1322.5"/>
<text text-anchor="start" x="98.0086" y="-1333.9" font-family="Arial" font-size="14.00" fill="#000000">number    </text>
<text text-anchor="start" x="179.665" y="-1333.9" font-family="Arial" font-size="14.00" fill="#666666">[int(11)]</text>
<polygon fill="none" stroke="#000000" points="91.0086,-1292.5 91.0086,-1322.5 290.0086,-1322.5 290.0086,-1292.5 91.0086,-1292.5"/>
<text text-anchor="start" x="98.0086" y="-1303.9" font-family="Arial" font-size="14.00" fill="#000000">title    </text>
<text text-anchor="start" x="153.9904" y="-1303.9" font-family="Arial" font-size="14.00" fill="#666666">[varchar(255)]</text>
<polygon fill="none" stroke="#000000" points="91.0086,-1262.5 91.0086,-1292.5 290.0086,-1292.5 290.0086,-1262.5 91.0086,-1262.5"/>
<text text-anchor="start" x="98.0086" y="-1273.9" font-family="Arial" font-size="14.00" fill="#000000">sub_title    </text>
<text text-anchor="start" x="184.3382" y="-1273.9" font-family="Arial" font-size="14.00" fill="#666666">[varchar(255)]</text>
<polygon fill="none" stroke="#000000" points="91.0086,-1232.5 91.0086,-1262.5 290.0086,-1262.5 290.0086,-1232.5 91.0086,-1232.5"/>
<text text-anchor="start" x="98.0086" y="-1243.9" font-family="Arial" font-size="14.00" fill="#000000">description    </text>
<text text-anchor="start" x="199.8908" y="-1243.9" font-family="Arial" font-size="14.00" fill="#666666">[longtext]</text>
<polygon fill="none" stroke="#000000" points="91.0086,-1202.5 91.0086,-1232.5 290.0086,-1232.5 290.0086,-1202.5 91.0086,-1202.5"/>
<text text-anchor="start" x="98.0086" y="-1213.9" font-family="Arial" font-size="14.00" fill="#000000">created    </text>
<text text-anchor="start" x="178.895" y="-1213.9" font-family="Arial" font-size="14.00" fill="#666666">[datetime]</text>
<polygon fill="none" stroke="#000000" points="91.0086,-1172.5 91.0086,-1202.5 290.0086,-1202.5 290.0086,-1172.5 91.0086,-1172.5"/>
<text text-anchor="start" x="98.0086" y="-1183.9" font-family="Arial" font-size="14.00" fill="#000000">updated    </text>
<text text-anchor="start" x="182.7996" y="-1183.9" font-family="Arial" font-size="14.00" fill="#666666">[datetime]</text>
<polygon fill="none" stroke="#000000" points="91.0086,-1142.5 91.0086,-1172.5 290.0086,-1172.5 290.0086,-1142.5 91.0086,-1142.5"/>
<text text-anchor="start" x="98.0086" y="-1153.9" font-family="Arial" font-size="14.00" fill="#000000">status    </text>
<text text-anchor="start" x="169.5598" y="-1153.9" font-family="Arial" font-size="14.00" fill="#666666">[longtext]</text>
</g>
<!-- season&#45;&gt;publisher -->
<g id="edge2" class="edge">
<title>season:publisher_id&#45;&gt;publisher:id</title>
<path fill="none" stroke="#000000" d="M300.0457,-1367.0522C406.3839,-1357.2325 364.2573,-1188.3495 290.0086,-1100 230.2117,-1028.847 143.8054,-1135.153 84.0086,-1064 56.4151,-1031.1662 41.1197,-967.5 84.0086,-967.5"/>
<polygon fill="#000000" stroke="#000000" points="299.9986,-1367.0542 289.808,-1363.0045 295.0036,-1367.2771 290.0086,-1367.5 290.0086,-1367.5 290.0086,-1367.5 295.0036,-1367.2771 290.2092,-1371.9955 299.9986,-1367.0542 299.9986,-1367.0542"/>
</g>
</g>
</svg>
