<?xml version="1.0" encoding="UTF-8" standalone="no"?>
<!DOCTYPE svg PUBLIC "-//W3C//DTD SVG 1.1//EN"
 "http://www.w3.org/Graphics/SVG/1.1/DTD/svg11.dtd">
<!-- Generated by graphviz version 2.40.1 (20161225.0304)
 -->
<!-- Title: publisher Pages: 1 -->
<svg width="628pt" height="1012pt"
 viewBox="0.00 0.00 628.00 1012.00" xmlns="http://www.w3.org/2000/svg" xmlns:xlink="http://www.w3.org/1999/xlink">
<g id="graph0" class="graph" transform="scale(1 1) rotate(0) translate(4 1008)">
<title>publisher</title>
<polygon fill="#ffffff" stroke="transparent" points="-4,4 -4,-1008 624,-1008 624,4 -4,4"/>
<!-- publisher -->
<g id="node1" class="node">
<title>publisher</title>
<polygon fill="#efefef" stroke="transparent" points="211.5,-285.5 211.5,-320.5 425.5,-320.5 425.5,-285.5 211.5,-285.5"/>
<polygon fill="none" stroke="#000000" points="211.5,-285.5 211.5,-320.5 425.5,-320.5 425.5,-285.5 211.5,-285.5"/>
<text text-anchor="start" x="218.2102" y="-298.3" font-family="Arial Bold" font-size="18.00" fill="#000000">publisher</text>
<text text-anchor="start" x="291.2218" y="-298.3" font-family="Arial" font-size="14.00" fill="#000000">    </text>
<text text-anchor="start" x="325.4266" y="-298.3" font-family="Arial" font-size="14.00" fill="#666666">[BASE TABLE]</text>
<polygon fill="none" stroke="#000000" points="211.5,-255.5 211.5,-285.5 425.5,-285.5 425.5,-255.5 211.5,-255.5"/>
<text text-anchor="start" x="218.5" y="-266.9" font-family="Arial" font-size="14.00" fill="#000000">id </text>
<text text-anchor="start" x="233.2798" y="-266.9" font-family="Arial" font-size="14.00" fill="#666666">[int(11)]</text>
<polygon fill="none" stroke="#000000" points="211.5,-225.5 211.5,-255.5 425.5,-255.5 425.5,-225.5 211.5,-225.5"/>
<text text-anchor="start" x="218.5" y="-236.9" font-family="Arial" font-size="14.00" fill="#000000">name </text>
<text text-anchor="start" x="257.399" y="-236.9" font-family="Arial" font-size="14.00" fill="#666666">[varchar(255)]</text>
<polygon fill="none" stroke="#000000" points="211.5,-195.5 211.5,-225.5 425.5,-225.5 425.5,-195.5 211.5,-195.5"/>
<text text-anchor="start" x="218.5" y="-206.9" font-family="Arial" font-size="14.00" fill="#000000">location </text>
<text text-anchor="start" x="270.6248" y="-206.9" font-family="Arial" font-size="14.00" fill="#666666">[varchar(255)]</text>
<polygon fill="none" stroke="#000000" points="211.5,-165.5 211.5,-195.5 425.5,-195.5 425.5,-165.5 211.5,-165.5"/>
<text text-anchor="start" x="218.5" y="-176.9" font-family="Arial" font-size="14.00" fill="#000000">website </text>
<text text-anchor="start" x="269.8422" y="-176.9" font-family="Arial" font-size="14.00" fill="#666666">[varchar(255)]</text>
<polygon fill="none" stroke="#000000" points="211.5,-135.5 211.5,-165.5 425.5,-165.5 425.5,-135.5 211.5,-135.5"/>
<text text-anchor="start" x="218.5" y="-146.9" font-family="Arial" font-size="14.00" fill="#000000">description </text>
<text text-anchor="start" x="290.068" y="-146.9" font-family="Arial" font-size="14.00" fill="#666666">[longtext]</text>
<polygon fill="none" stroke="#000000" points="211.5,-105.5 211.5,-135.5 425.5,-135.5 425.5,-105.5 211.5,-105.5"/>
<text text-anchor="start" x="218.5" y="-116.9" font-family="Arial" font-size="14.00" fill="#000000">contact </text>
<text text-anchor="start" x="267.5196" y="-116.9" font-family="Arial" font-size="14.00" fill="#666666">[longtext]</text>
<polygon fill="none" stroke="#000000" points="211.5,-75.5 211.5,-105.5 425.5,-105.5 425.5,-75.5 211.5,-75.5"/>
<text text-anchor="start" x="218.5" y="-86.9" font-family="Arial" font-size="14.00" fill="#000000">created </text>
<text text-anchor="start" x="269.0722" y="-86.9" font-family="Arial" font-size="14.00" fill="#666666">[datetime]</text>
<polygon fill="none" stroke="#000000" points="211.5,-45.5 211.5,-75.5 425.5,-75.5 425.5,-45.5 211.5,-45.5"/>
<text text-anchor="start" x="218.5" y="-56.9" font-family="Arial" font-size="14.00" fill="#000000">updated </text>
<text text-anchor="start" x="272.9768" y="-56.9" font-family="Arial" font-size="14.00" fill="#666666">[datetime]</text>
<polygon fill="none" stroke="#000000" stroke-width="3" points="210,-44.5 210,-322.5 427,-322.5 427,-44.5 210,-44.5"/>
</g>
<!-- podcast -->
<g id="node2" class="node">
<title>podcast</title>
<polygon fill="#efefef" stroke="transparent" points="43.5,-925.5 43.5,-960.5 274.5,-960.5 274.5,-925.5 43.5,-925.5"/>
<polygon fill="none" stroke="#000000" points="43.5,-925.5 43.5,-960.5 274.5,-960.5 274.5,-925.5 43.5,-925.5"/>
<text text-anchor="start" x="63.7025" y="-938.3" font-family="Arial Bold" font-size="18.00" fill="#000000">podcast</text>
<text text-anchor="start" x="126.7295" y="-938.3" font-family="Arial" font-size="14.00" fill="#000000">    </text>
<text text-anchor="start" x="160.9343" y="-938.3" font-family="Arial" font-size="14.00" fill="#666666">[BASE TABLE]</text>
<polygon fill="none" stroke="#000000" points="43.5,-895.5 43.5,-925.5 274.5,-925.5 274.5,-895.5 43.5,-895.5"/>
<text text-anchor="start" x="50.5" y="-906.9" font-family="Arial" font-size="14.00" fill="#000000">id    </text>
<text text-anchor="start" x="95.594" y="-906.9" font-family="Arial" font-size="14.00" fill="#666666">[int(11)]</text>
<polygon fill="none" stroke="#000000" points="43.5,-865.5 43.5,-895.5 274.5,-895.5 274.5,-865.5 43.5,-865.5"/>
<text text-anchor="start" x="50.5" y="-876.9" font-family="Arial" font-size="14.00" fill="#000000">publisher_id    </text>
<text text-anchor="start" x="160.1634" y="-876.9" font-family="Arial" font-size="14.00" fill="#666666">[int(11)]</text>
<polygon fill="none" stroke="#000000" points="43.5,-835.5 43.5,-865.5 274.5,-865.5 274.5,-835.5 43.5,-835.5"/>
<text text-anchor="start" x="50.5" y="-846.9" font-family="Arial" font-size="14.00" fill="#000000">title    </text>
<text text-anchor="start" x="106.4818" y="-846.9" font-family="Arial" font-size="14.00" fill="#666666">[varchar(255)]</text>
<polygon fill="none" stroke="#000000" points="43.5,-805.5 43.5,-835.5 274.5,-835.5 274.5,-805.5 43.5,-805.5"/>
<text text-anchor="start" x="50.5" y="-816.9" font-family="Arial" font-size="14.00" fill="#000000">sub_title    </text>
<text text-anchor="start" x="136.8296" y="-816.9" font-family="Arial" font-size="14.00" fill="#666666">[varchar(255)]</text>
<polygon fill="none" stroke="#000000" points="43.5,-775.5 43.5,-805.5 274.5,-805.5 274.5,-775.5 43.5,-775.5"/>
<text text-anchor="start" x="50.5" y="-786.9" font-family="Arial" font-size="14.00" fill="#000000">explicit    </text>
<text text-anchor="start" x="127.4804" y="-786.9" font-family="Arial" font-size="14.00" fill="#666666">[tinyint(1)]</text>
<polygon fill="none" stroke="#000000" points="43.5,-745.5 43.5,-775.5 274.5,-775.5 274.5,-745.5 43.5,-745.5"/>
<text text-anchor="start" x="50.5" y="-756.9" font-family="Arial" font-size="14.00" fill="#000000">description    </text>
<text text-anchor="start" x="152.3822" y="-756.9" font-family="Arial" font-size="14.00" fill="#666666">[longtext]</text>
<polygon fill="none" stroke="#000000" points="43.5,-715.5 43.5,-745.5 274.5,-745.5 274.5,-715.5 43.5,-715.5"/>
<text text-anchor="start" x="50.5" y="-726.9" font-family="Arial" font-size="14.00" fill="#000000">copyright    </text>
<text text-anchor="start" x="141.493" y="-726.9" font-family="Arial" font-size="14.00" fill="#666666">[longtext]</text>
<polygon fill="none" stroke="#000000" points="43.5,-685.5 43.5,-715.5 274.5,-715.5 274.5,-685.5 43.5,-685.5"/>
<text text-anchor="start" x="50.5" y="-696.9" font-family="Arial" font-size="14.00" fill="#000000">website    </text>
<text text-anchor="start" x="132.1564" y="-696.9" font-family="Arial" font-size="14.00" fill="#666666">[longtext]</text>
<polygon fill="none" stroke="#000000" points="43.5,-655.5 43.5,-685.5 274.5,-685.5 274.5,-655.5 43.5,-655.5"/>
<text text-anchor="start" x="50.5" y="-666.9" font-family="Arial" font-size="14.00" fill="#000000">rss    </text>
<text text-anchor="start" x="103.3654" y="-666.9" font-family="Arial" font-size="14.00" fill="#666666">[varchar(255)]</text>
<polygon fill="none" stroke="#000000" points="43.5,-625.5 43.5,-655.5 274.5,-655.5 274.5,-625.5 43.5,-625.5"/>
<text text-anchor="start" x="50.5" y="-636.9" font-family="Arial" font-size="14.00" fill="#000000">created    </text>
<text text-anchor="start" x="131.3864" y="-636.9" font-family="Arial" font-size="14.00" fill="#666666">[datetime]</text>
<polygon fill="none" stroke="#000000" points="43.5,-595.5 43.5,-625.5 274.5,-625.5 274.5,-595.5 43.5,-595.5"/>
<text text-anchor="start" x="50.5" y="-606.9" font-family="Arial" font-size="14.00" fill="#000000">updated    </text>
<text text-anchor="start" x="135.291" y="-606.9" font-family="Arial" font-size="14.00" fill="#666666">[datetime]</text>
<polygon fill="none" stroke="#000000" points="43.5,-565.5 43.5,-595.5 274.5,-595.5 274.5,-565.5 43.5,-565.5"/>
<text text-anchor="start" x="50.5" y="-576.9" font-family="Arial" font-size="14.00" fill="#000000">license    </text>
<text text-anchor="start" x="128.2658" y="-576.9" font-family="Arial" font-size="14.00" fill="#666666">[longtext]</text>
<polygon fill="none" stroke="#000000" points="43.5,-535.5 43.5,-565.5 274.5,-565.5 274.5,-535.5 43.5,-535.5"/>
<text text-anchor="start" x="50.5" y="-546.9" font-family="Arial" font-size="14.00" fill="#000000">guid    </text>
<text text-anchor="start" x="111.1592" y="-546.9" font-family="Arial" font-size="14.00" fill="#666666">[varchar(255)]</text>
<polygon fill="none" stroke="#000000" points="43.5,-505.5 43.5,-535.5 274.5,-535.5 274.5,-505.5 43.5,-505.5"/>
<text text-anchor="start" x="50.4804" y="-516.9" font-family="Arial" font-size="14.00" fill="#000000">language_code    </text>
<text text-anchor="start" x="180.4004" y="-516.9" font-family="Arial" font-size="14.00" fill="#666666">[varchar(255)]</text>
<polygon fill="none" stroke="#000000" points="43.5,-475.5 43.5,-505.5 274.5,-505.5 274.5,-475.5 43.5,-475.5"/>
<text text-anchor="start" x="50.5" y="-486.9" font-family="Arial" font-size="14.00" fill="#000000">categories    </text>
<text text-anchor="start" x="149.2756" y="-486.9" font-family="Arial" font-size="14.00" fill="#666666">[longtext]</text>
<polygon fill="none" stroke="#000000" points="43.5,-445.5 43.5,-475.5 274.5,-475.5 274.5,-445.5 43.5,-445.5"/>
<text text-anchor="start" x="50.5" y="-456.9" font-family="Arial" font-size="14.00" fill="#000000">keywords    </text>
<text text-anchor="start" x="143.8198" y="-456.9" font-family="Arial" font-size="14.00" fill="#666666">[longtext]</text>
</g>
<!-- podcast&#45;&gt;publisher -->
<g id="edge1" class="edge">
<title>podcast:publisher_id&#45;&gt;publisher:id</title>
<path fill="none" stroke="#000000" d="M283.5359,-875.6416C324.2516,-828.0553 299.4656,-446.0203 274.5,-403 258.3133,-375.1075 227.6867,-394.8925 211.5,-367 189.9729,-329.905 168.6111,-270.5 211.5,-270.5"/>
<polygon fill="#000000" stroke="#000000" points="283.3076,-875.7643 272.3689,-876.5366 278.9038,-878.1321 274.5,-880.5 274.5,-880.5 274.5,-880.5 278.9038,-878.1321 276.6311,-884.4634 283.3076,-875.7643 283.3076,-875.7643"/>
</g>
<!-- season -->
<g id="node3" class="node">
<title>season</title>
<polygon fill="#efefef" stroke="transparent" points="378.5,-820.5 378.5,-855.5 577.5,-855.5 577.5,-820.5 378.5,-820.5"/>
<polygon fill="none" stroke="#000000" points="378.5,-820.5 378.5,-855.5 577.5,-855.5 577.5,-820.5 378.5,-820.5"/>
<text text-anchor="start" x="385.2036" y="-833.3" font-family="Arial Bold" font-size="18.00" fill="#000000">season</text>
<text text-anchor="start" x="443.2284" y="-833.3" font-family="Arial" font-size="14.00" fill="#000000">    </text>
<text text-anchor="start" x="477.4332" y="-833.3" font-family="Arial" font-size="14.00" fill="#666666">[BASE TABLE]</text>
<polygon fill="none" stroke="#000000" points="378.5,-790.5 378.5,-820.5 577.5,-820.5 577.5,-790.5 378.5,-790.5"/>
<text text-anchor="start" x="385.5" y="-801.9" font-family="Arial" font-size="14.00" fill="#000000">id    </text>
<text text-anchor="start" x="430.594" y="-801.9" font-family="Arial" font-size="14.00" fill="#666666">[int(11)]</text>
<polygon fill="none" stroke="#000000" points="378.5,-760.5 378.5,-790.5 577.5,-790.5 577.5,-760.5 378.5,-760.5"/>
<text text-anchor="start" x="385.5" y="-771.9" font-family="Arial" font-size="14.00" fill="#000000">podcast_id    </text>
<text text-anchor="start" x="487.3976" y="-771.9" font-family="Arial" font-size="14.00" fill="#666666">[int(11)]</text>
<polygon fill="none" stroke="#000000" points="378.5,-730.5 378.5,-760.5 577.5,-760.5 577.5,-730.5 378.5,-730.5"/>
<text text-anchor="start" x="385.5" y="-741.9" font-family="Arial" font-size="14.00" fill="#000000">publisher_id    </text>
<text text-anchor="start" x="495.1634" y="-741.9" font-family="Arial" font-size="14.00" fill="#666666">[int(11)]</text>
<polygon fill="none" stroke="#000000" points="378.5,-700.5 378.5,-730.5 577.5,-730.5 577.5,-700.5 378.5,-700.5"/>
<text text-anchor="start" x="385.5" y="-711.9" font-family="Arial" font-size="14.00" fill="#000000">number    </text>
<text text-anchor="start" x="467.1564" y="-711.9" font-family="Arial" font-size="14.00" fill="#666666">[int(11)]</text>
<polygon fill="none" stroke="#000000" points="378.5,-670.5 378.5,-700.5 577.5,-700.5 577.5,-670.5 378.5,-670.5"/>
<text text-anchor="start" x="385.5" y="-681.9" font-family="Arial" font-size="14.00" fill="#000000">title    </text>
<text text-anchor="start" x="441.4818" y="-681.9" font-family="Arial" font-size="14.00" fill="#666666">[varchar(255)]</text>
<polygon fill="none" stroke="#000000" points="378.5,-640.5 378.5,-670.5 577.5,-670.5 577.5,-640.5 378.5,-640.5"/>
<text text-anchor="start" x="385.5" y="-651.9" font-family="Arial" font-size="14.00" fill="#000000">sub_title    </text>
<text text-anchor="start" x="471.8296" y="-651.9" font-family="Arial" font-size="14.00" fill="#666666">[varchar(255)]</text>
<polygon fill="none" stroke="#000000" points="378.5,-610.5 378.5,-640.5 577.5,-640.5 577.5,-610.5 378.5,-610.5"/>
<text text-anchor="start" x="385.5" y="-621.9" font-family="Arial" font-size="14.00" fill="#000000">description    </text>
<text text-anchor="start" x="487.3822" y="-621.9" font-family="Arial" font-size="14.00" fill="#666666">[longtext]</text>
<polygon fill="none" stroke="#000000" points="378.5,-580.5 378.5,-610.5 577.5,-610.5 577.5,-580.5 378.5,-580.5"/>
<text text-anchor="start" x="385.5" y="-591.9" font-family="Arial" font-size="14.00" fill="#000000">created    </text>
<text text-anchor="start" x="466.3864" y="-591.9" font-family="Arial" font-size="14.00" fill="#666666">[datetime]</text>
<polygon fill="none" stroke="#000000" points="378.5,-550.5 378.5,-580.5 577.5,-580.5 577.5,-550.5 378.5,-550.5"/>
<text text-anchor="start" x="385.5" y="-561.9" font-family="Arial" font-size="14.00" fill="#000000">updated    </text>
<text text-anchor="start" x="470.291" y="-561.9" font-family="Arial" font-size="14.00" fill="#666666">[datetime]</text>
</g>
<!-- season&#45;&gt;publisher -->
<g id="edge2" class="edge">
<title>season:publisher_id&#45;&gt;publisher:id</title>
<path fill="none" stroke="#000000" d="M368.3464,-745.0393C278.9205,-736.4212 362.1698,-608.6313 378.5,-508 389.0811,-442.7965 414.9189,-432.2035 425.5,-367 432.37,-324.6649 468.3889,-270.5 425.5,-270.5"/>
<polygon fill="#000000" stroke="#000000" points="368.5103,-745.0466 378.296,-749.9954 373.5051,-745.2733 378.5,-745.5 378.5,-745.5 378.5,-745.5 373.5051,-745.2733 378.704,-741.0046 368.5103,-745.0466 368.5103,-745.0466"/>
</g>
</g>
</svg>
