<?xml version="1.0" encoding="UTF-8" standalone="no"?>
<!DOCTYPE svg PUBLIC "-//W3C//DTD SVG 1.1//EN"
 "http://www.w3.org/Graphics/SVG/1.1/DTD/svg11.dtd">
<!-- Generated by graphviz version 12.1.2 (20240928.0832)
 -->
<!-- Title: publisher Pages: 1 -->
<svg width="338pt" height="1561pt"
 viewBox="0.00 0.00 337.92 1560.80" xmlns="http://www.w3.org/2000/svg" xmlns:xlink="http://www.w3.org/1999/xlink">
<g id="graph0" class="graph" transform="scale(1 1) rotate(0) translate(4 1556.8)">
<title>publisher</title>
<polygon fill="white" stroke="none" points="-4,4 -4,-1556.8 333.92,-1556.8 333.92,4 -4,4"/>
<!-- publisher -->
<g id="node1" class="node">
<title>publisher</title>
<polygon fill="#efefef" stroke="none" points="46.2,-1005 46.2,-1040.6 251.68,-1040.6 251.68,-1005 46.2,-1005"/>
<polygon fill="none" stroke="black" points="46.2,-1005 46.2,-1040.6 251.68,-1040.6 251.68,-1005 46.2,-1005"/>
<text text-anchor="start" x="53.2" y="-1018.4" font-family="Arial Bold" font-size="18.00">publisher</text>
<text text-anchor="start" x="120.19" y="-1018.4" font-family="Arial" font-size="14.00">    </text>
<text text-anchor="start" x="151.31" y="-1018.4" font-family="Arial" font-size="14.00" fill="#666666">[BASE TABLE]</text>
<polygon fill="none" stroke="black" points="46.2,-974.2 46.2,-1005 251.68,-1005 251.68,-974.2 46.2,-974.2"/>
<text text-anchor="start" x="53.2" y="-986.4" font-family="Arial" font-size="14.00">id </text>
<text text-anchor="start" x="67.99" y="-986.4" font-family="Arial" font-size="14.00" fill="#666666">[int(11)]</text>
<polygon fill="none" stroke="black" points="46.2,-943.4 46.2,-974.2 251.68,-974.2 251.68,-943.4 46.2,-943.4"/>
<text text-anchor="start" x="53.2" y="-955.6" font-family="Arial" font-size="14.00">name </text>
<text text-anchor="start" x="92.11" y="-955.6" font-family="Arial" font-size="14.00" fill="#666666">[varchar(255)]</text>
<polygon fill="none" stroke="black" points="46.2,-912.6 46.2,-943.4 251.68,-943.4 251.68,-912.6 46.2,-912.6"/>
<text text-anchor="start" x="53.2" y="-924.8" font-family="Arial" font-size="14.00">location </text>
<text text-anchor="start" x="105.34" y="-924.8" font-family="Arial" font-size="14.00" fill="#666666">[varchar(255)]</text>
<polygon fill="none" stroke="black" points="46.2,-881.8 46.2,-912.6 251.68,-912.6 251.68,-881.8 46.2,-881.8"/>
<text text-anchor="start" x="53.2" y="-894" font-family="Arial" font-size="14.00">website </text>
<text text-anchor="start" x="104.56" y="-894" font-family="Arial" font-size="14.00" fill="#666666">[varchar(255)]</text>
<polygon fill="none" stroke="black" points="46.2,-851 46.2,-881.8 251.68,-881.8 251.68,-851 46.2,-851"/>
<text text-anchor="start" x="53.2" y="-863.2" font-family="Arial" font-size="14.00">description </text>
<text text-anchor="start" x="124.79" y="-863.2" font-family="Arial" font-size="14.00" fill="#666666">[longtext]</text>
<polygon fill="none" stroke="black" points="46.2,-820.2 46.2,-851 251.68,-851 251.68,-820.2 46.2,-820.2"/>
<text text-anchor="start" x="53.2" y="-832.4" font-family="Arial" font-size="14.00">contact </text>
<text text-anchor="start" x="102.23" y="-832.4" font-family="Arial" font-size="14.00" fill="#666666">[longtext]</text>
<polygon fill="none" stroke="black" points="46.2,-789.4 46.2,-820.2 251.68,-820.2 251.68,-789.4 46.2,-789.4"/>
<text text-anchor="start" x="53.2" y="-801.6" font-family="Arial" font-size="14.00">created </text>
<text text-anchor="start" x="103.79" y="-801.6" font-family="Arial" font-size="14.00" fill="#666666">[datetime]</text>
<polygon fill="none" stroke="black" points="46.2,-758.6 46.2,-789.4 251.68,-789.4 251.68,-758.6 46.2,-758.6"/>
<text text-anchor="start" x="53.2" y="-770.8" font-family="Arial" font-size="14.00">updated </text>
<text text-anchor="start" x="107.7" y="-770.8" font-family="Arial" font-size="14.00" fill="#666666">[datetime]</text>
<polygon fill="none" stroke="black" points="46.2,-727.8 46.2,-758.6 251.68,-758.6 251.68,-727.8 46.2,-727.8"/>
<text text-anchor="start" x="53.2" y="-740" font-family="Arial" font-size="14.00">podcast_id </text>
<text text-anchor="start" x="124.81" y="-740" font-family="Arial" font-size="14.00" fill="#666666">[int(11)]</text>
<polygon fill="none" stroke="black" stroke-width="3" points="44.7,-726.3 44.7,-1042.1 253.18,-1042.1 253.18,-726.3 44.7,-726.3"/>
</g>
<!-- podcast -->
<g id="node2" class="node">
<title>podcast</title>
<polygon fill="#efefef" stroke="none" points="48.54,-566.8 48.54,-602.4 249.34,-602.4 249.34,-566.8 48.54,-566.8"/>
<polygon fill="none" stroke="black" points="48.54,-566.8 48.54,-602.4 249.34,-602.4 249.34,-566.8 48.54,-566.8"/>
<text text-anchor="start" x="59.2" y="-580.2" font-family="Arial Bold" font-size="18.00">podcast</text>
<text text-anchor="start" x="114.19" y="-580.2" font-family="Arial" font-size="14.00">    </text>
<text text-anchor="start" x="145.3" y="-580.2" font-family="Arial" font-size="14.00" fill="#666666">[BASE TABLE]</text>
<polygon fill="none" stroke="black" points="48.54,-536 48.54,-566.8 249.34,-566.8 249.34,-536 48.54,-536"/>
<text text-anchor="start" x="55.54" y="-548.2" font-family="Arial" font-size="14.00">id </text>
<text text-anchor="start" x="70.33" y="-548.2" font-family="Arial" font-size="14.00" fill="#666666">[int(11)]</text>
<polygon fill="none" stroke="black" points="48.54,-505.2 48.54,-536 249.34,-536 249.34,-505.2 48.54,-505.2"/>
<text text-anchor="start" x="55.54" y="-517.4" font-family="Arial" font-size="14.00">publisher_id </text>
<text text-anchor="start" x="134.93" y="-517.4" font-family="Arial" font-size="14.00" fill="#666666">[int(11)]</text>
<polygon fill="none" stroke="black" points="48.54,-474.4 48.54,-505.2 249.34,-505.2 249.34,-474.4 48.54,-474.4"/>
<text text-anchor="start" x="55.54" y="-486.6" font-family="Arial" font-size="14.00">title </text>
<text text-anchor="start" x="81.22" y="-486.6" font-family="Arial" font-size="14.00" fill="#666666">[varchar(255)]</text>
<polygon fill="none" stroke="black" points="48.54,-443.6 48.54,-474.4 249.34,-474.4 249.34,-443.6 48.54,-443.6"/>
<text text-anchor="start" x="55.54" y="-455.8" font-family="Arial" font-size="14.00">sub_title </text>
<text text-anchor="start" x="111.58" y="-455.8" font-family="Arial" font-size="14.00" fill="#666666">[varchar(255)]</text>
<polygon fill="none" stroke="black" points="48.54,-412.8 48.54,-443.6 249.34,-443.6 249.34,-412.8 48.54,-412.8"/>
<text text-anchor="start" x="55.54" y="-425" font-family="Arial" font-size="14.00">explicit </text>
<text text-anchor="start" x="102.23" y="-425" font-family="Arial" font-size="14.00" fill="#666666">[tinyint(1)]</text>
<polygon fill="none" stroke="black" points="48.54,-382 48.54,-412.8 249.34,-412.8 249.34,-382 48.54,-382"/>
<text text-anchor="start" x="55.54" y="-394.2" font-family="Arial" font-size="14.00">description </text>
<text text-anchor="start" x="127.14" y="-394.2" font-family="Arial" font-size="14.00" fill="#666666">[longtext]</text>
<polygon fill="none" stroke="black" points="48.54,-351.2 48.54,-382 249.34,-382 249.34,-351.2 48.54,-351.2"/>
<text text-anchor="start" x="55.54" y="-363.4" font-family="Arial" font-size="14.00">copyright </text>
<text text-anchor="start" x="116.24" y="-363.4" font-family="Arial" font-size="14.00" fill="#666666">[longtext]</text>
<polygon fill="none" stroke="black" points="48.54,-320.4 48.54,-351.2 249.34,-351.2 249.34,-320.4 48.54,-320.4"/>
<text text-anchor="start" x="55.54" y="-332.6" font-family="Arial" font-size="14.00">website </text>
<text text-anchor="start" x="106.9" y="-332.6" font-family="Arial" font-size="14.00" fill="#666666">[longtext]</text>
<polygon fill="none" stroke="black" points="48.54,-289.6 48.54,-320.4 249.34,-320.4 249.34,-289.6 48.54,-289.6"/>
<text text-anchor="start" x="55.54" y="-301.8" font-family="Arial" font-size="14.00">rss </text>
<text text-anchor="start" x="78.1" y="-301.8" font-family="Arial" font-size="14.00" fill="#666666">[varchar(255)]</text>
<polygon fill="none" stroke="black" points="48.54,-258.8 48.54,-289.6 249.34,-289.6 249.34,-258.8 48.54,-258.8"/>
<text text-anchor="start" x="55.54" y="-271" font-family="Arial" font-size="14.00">created </text>
<text text-anchor="start" x="106.13" y="-271" font-family="Arial" font-size="14.00" fill="#666666">[datetime]</text>
<polygon fill="none" stroke="black" points="48.54,-228 48.54,-258.8 249.34,-258.8 249.34,-228 48.54,-228"/>
<text text-anchor="start" x="55.54" y="-240.2" font-family="Arial" font-size="14.00">updated </text>
<text text-anchor="start" x="110.04" y="-240.2" font-family="Arial" font-size="14.00" fill="#666666">[datetime]</text>
<polygon fill="none" stroke="black" points="48.54,-197.2 48.54,-228 249.34,-228 249.34,-197.2 48.54,-197.2"/>
<text text-anchor="start" x="55.54" y="-209.4" font-family="Arial" font-size="14.00">license </text>
<text text-anchor="start" x="103.01" y="-209.4" font-family="Arial" font-size="14.00" fill="#666666">[longtext]</text>
<polygon fill="none" stroke="black" points="48.54,-166.4 48.54,-197.2 249.34,-197.2 249.34,-166.4 48.54,-166.4"/>
<text text-anchor="start" x="55.54" y="-178.6" font-family="Arial" font-size="14.00">guid </text>
<text text-anchor="start" x="85.9" y="-178.6" font-family="Arial" font-size="14.00" fill="#666666">[varchar(255)]</text>
<polygon fill="none" stroke="black" points="48.54,-135.6 48.54,-166.4 249.34,-166.4 249.34,-135.6 48.54,-135.6"/>
<text text-anchor="start" x="55.54" y="-147.8" font-family="Arial" font-size="14.00">language_code </text>
<text text-anchor="start" x="155.19" y="-147.8" font-family="Arial" font-size="14.00" fill="#666666">[varchar(255)]</text>
<polygon fill="none" stroke="black" points="48.54,-104.8 48.54,-135.6 249.34,-135.6 249.34,-104.8 48.54,-104.8"/>
<text text-anchor="start" x="55.54" y="-117" font-family="Arial" font-size="14.00">categories </text>
<text text-anchor="start" x="124.03" y="-117" font-family="Arial" font-size="14.00" fill="#666666">[longtext]</text>
<polygon fill="none" stroke="black" points="48.54,-74 48.54,-104.8 249.34,-104.8 249.34,-74 48.54,-74"/>
<text text-anchor="start" x="55.54" y="-86.2" font-family="Arial" font-size="14.00">keywords </text>
<text text-anchor="start" x="118.56" y="-86.2" font-family="Arial" font-size="14.00" fill="#666666">[longtext]</text>
<polygon fill="none" stroke="black" points="48.54,-43.2 48.54,-74 249.34,-74 249.34,-43.2 48.54,-43.2"/>
<text text-anchor="start" x="55.54" y="-55.4" font-family="Arial" font-size="14.00">status </text>
<text text-anchor="start" x="96.78" y="-55.4" font-family="Arial" font-size="14.00" fill="#666666">[longtext]</text>
</g>
<!-- publisher&#45;&gt;podcast -->
<g id="edge3" class="edge">
<title>publisher:podcast_id&#45;&gt;podcast:id</title>
<path fill="none" stroke="black" d="M149.9,-716.45C158.73,-672.76 226,-693.83 249.34,-645.6 267.57,-607.91 292.2,-551.4 250.34,-551.4"/>
<polygon fill="black" stroke="black" points="149.89,-716.51 144.49,-726.05 149.4,-721.82 149,-726.13 149,-726.13 149,-726.13 149.4,-721.82 153.45,-726.88 149.89,-716.51"/>
</g>
<!-- podcast&#45;&gt;publisher -->
<g id="edge1" class="edge">
<title>podcast:publisher_id&#45;&gt;publisher:id</title>
<path fill="none" stroke="black" d="M260.38,-522.12C354.6,-551.23 353.44,-989.6 252.68,-989.6"/>
<polygon fill="black" stroke="black" points="260.55,-522.14 251.34,-516.2 255.28,-521.35 251,-520.7 251,-520.7 251,-520.7 255.28,-521.35 249.99,-525.1 260.55,-522.14"/>
</g>
<!-- season -->
<g id="node3" class="node">
<title>season</title>
<polygon fill="#efefef" stroke="none" points="55.7,-1474 55.7,-1509.6 242.18,-1509.6 242.18,-1474 55.7,-1474"/>
<polygon fill="none" stroke="black" points="55.7,-1474 55.7,-1509.6 242.18,-1509.6 242.18,-1474 55.7,-1474"/>
<text text-anchor="start" x="62.7" y="-1487.4" font-family="Arial Bold" font-size="18.00">season</text>
<text text-anchor="start" x="110.69" y="-1487.4" font-family="Arial" font-size="14.00">    </text>
<text text-anchor="start" x="141.81" y="-1487.4" font-family="Arial" font-size="14.00" fill="#666666">[BASE TABLE]</text>
<polygon fill="none" stroke="black" points="55.7,-1443.2 55.7,-1474 242.18,-1474 242.18,-1443.2 55.7,-1443.2"/>
<text text-anchor="start" x="62.7" y="-1455.4" font-family="Arial" font-size="14.00">id </text>
<text text-anchor="start" x="77.49" y="-1455.4" font-family="Arial" font-size="14.00" fill="#666666">[int(11)]</text>
<polygon fill="none" stroke="black" points="55.7,-1412.4 55.7,-1443.2 242.18,-1443.2 242.18,-1412.4 55.7,-1412.4"/>
<text text-anchor="start" x="62.7" y="-1424.6" font-family="Arial" font-size="14.00">podcast_id </text>
<text text-anchor="start" x="134.31" y="-1424.6" font-family="Arial" font-size="14.00" fill="#666666">[int(11)]</text>
<polygon fill="none" stroke="black" points="55.7,-1381.6 55.7,-1412.4 242.18,-1412.4 242.18,-1381.6 55.7,-1381.6"/>
<text text-anchor="start" x="62.7" y="-1393.8" font-family="Arial" font-size="14.00">publisher_id </text>
<text text-anchor="start" x="142.09" y="-1393.8" font-family="Arial" font-size="14.00" fill="#666666">[int(11)]</text>
<polygon fill="none" stroke="black" points="55.7,-1350.8 55.7,-1381.6 242.18,-1381.6 242.18,-1350.8 55.7,-1350.8"/>
<text text-anchor="start" x="62.7" y="-1363" font-family="Arial" font-size="14.00">number </text>
<text text-anchor="start" x="114.06" y="-1363" font-family="Arial" font-size="14.00" fill="#666666">[int(11)]</text>
<polygon fill="none" stroke="black" points="55.7,-1320 55.7,-1350.8 242.18,-1350.8 242.18,-1320 55.7,-1320"/>
<text text-anchor="start" x="62.7" y="-1332.2" font-family="Arial" font-size="14.00">title </text>
<text text-anchor="start" x="88.38" y="-1332.2" font-family="Arial" font-size="14.00" fill="#666666">[varchar(255)]</text>
<polygon fill="none" stroke="black" points="55.7,-1289.2 55.7,-1320 242.18,-1320 242.18,-1289.2 55.7,-1289.2"/>
<text text-anchor="start" x="62.7" y="-1301.4" font-family="Arial" font-size="14.00">sub_title </text>
<text text-anchor="start" x="118.74" y="-1301.4" font-family="Arial" font-size="14.00" fill="#666666">[varchar(255)]</text>
<polygon fill="none" stroke="black" points="55.7,-1258.4 55.7,-1289.2 242.18,-1289.2 242.18,-1258.4 55.7,-1258.4"/>
<text text-anchor="start" x="62.7" y="-1270.6" font-family="Arial" font-size="14.00">description </text>
<text text-anchor="start" x="134.29" y="-1270.6" font-family="Arial" font-size="14.00" fill="#666666">[longtext]</text>
<polygon fill="none" stroke="black" points="55.7,-1227.6 55.7,-1258.4 242.18,-1258.4 242.18,-1227.6 55.7,-1227.6"/>
<text text-anchor="start" x="62.7" y="-1239.8" font-family="Arial" font-size="14.00">created </text>
<text text-anchor="start" x="113.29" y="-1239.8" font-family="Arial" font-size="14.00" fill="#666666">[datetime]</text>
<polygon fill="none" stroke="black" points="55.7,-1196.8 55.7,-1227.6 242.18,-1227.6 242.18,-1196.8 55.7,-1196.8"/>
<text text-anchor="start" x="62.7" y="-1209" font-family="Arial" font-size="14.00">updated </text>
<text text-anchor="start" x="117.2" y="-1209" font-family="Arial" font-size="14.00" fill="#666666">[datetime]</text>
<polygon fill="none" stroke="black" points="55.7,-1166 55.7,-1196.8 242.18,-1196.8 242.18,-1166 55.7,-1166"/>
<text text-anchor="start" x="62.7" y="-1178.2" font-family="Arial" font-size="14.00">status </text>
<text text-anchor="start" x="103.94" y="-1178.2" font-family="Arial" font-size="14.00" fill="#666666">[longtext]</text>
</g>
<!-- season&#45;&gt;publisher -->
<g id="edge2" class="edge">
<title>season:publisher_id&#45;&gt;publisher:id</title>
<path fill="none" stroke="black" d="M253.42,-1395.18C334.33,-1365.79 339.7,-989.6 252.68,-989.6"/>
<polygon fill="black" stroke="black" points="253.35,-1395.19 242.72,-1392.51 248.1,-1396.13 243.84,-1396.88 243.84,-1396.88 243.84,-1396.88 248.1,-1396.13 244.29,-1401.37 253.35,-1395.19"/>
</g>
</g>
</svg>
