<?xml version="1.0" encoding="UTF-8" standalone="no"?>
<!DOCTYPE svg PUBLIC "-//W3C//DTD SVG 1.1//EN"
 "http://www.w3.org/Graphics/SVG/1.1/DTD/svg11.dtd">
<!-- Generated by graphviz version 12.1.2 (20240928.0832)
 -->
<!-- Title: amplify Pages: 1 -->
<svg width="717pt" height="2702pt"
 viewBox="0.00 0.00 717.40 2702.40" xmlns="http://www.w3.org/2000/svg" xmlns:xlink="http://www.w3.org/1999/xlink">
<g id="graph0" class="graph" transform="scale(1 1) rotate(0) translate(4 2698.4)">
<title>amplify</title>
<polygon fill="white" stroke="none" points="-4,4 -4,-2698.4 713.4,-2698.4 713.4,4 -4,4"/>
<!-- contribution -->
<g id="node1" class="node">
<title>contribution</title>
<polygon fill="#efefef" stroke="none" points="282.79,-2615.6 282.79,-2651.2 509.26,-2651.2 509.26,-2615.6 282.79,-2615.6"/>
<polygon fill="none" stroke="black" points="282.79,-2615.6 282.79,-2651.2 509.26,-2651.2 509.26,-2615.6 282.79,-2615.6"/>
<text text-anchor="start" x="289.79" y="-2629" font-family="Arial Bold" font-size="18.00">contribution</text>
<text text-anchor="start" x="377.77" y="-2629" font-family="Arial" font-size="14.00">    </text>
<text text-anchor="start" x="408.89" y="-2629" font-family="Arial" font-size="14.00" fill="#666666">[BASE TABLE]</text>
<polygon fill="none" stroke="black" points="282.79,-2584.8 282.79,-2615.6 509.26,-2615.6 509.26,-2584.8 282.79,-2584.8"/>
<text text-anchor="start" x="289.79" y="-2597" font-family="Arial" font-size="14.00">id </text>
<text text-anchor="start" x="304.57" y="-2597" font-family="Arial" font-size="14.00" fill="#666666">[int(11)]</text>
<polygon fill="none" stroke="black" points="282.79,-2554 282.79,-2584.8 509.26,-2584.8 509.26,-2554 282.79,-2554"/>
<text text-anchor="start" x="289.79" y="-2566.2" font-family="Arial" font-size="14.00">person_id </text>
<text text-anchor="start" x="355.16" y="-2566.2" font-family="Arial" font-size="14.00" fill="#666666">[int(11)]</text>
<polygon fill="none" stroke="black" points="282.79,-2523.2 282.79,-2554 509.26,-2554 509.26,-2523.2 282.79,-2523.2"/>
<text text-anchor="start" x="289.79" y="-2535.4" font-family="Arial" font-size="14.00">podcast_id </text>
<text text-anchor="start" x="361.39" y="-2535.4" font-family="Arial" font-size="14.00" fill="#666666">[int(11)]</text>
<polygon fill="none" stroke="black" points="282.79,-2492.4 282.79,-2523.2 509.26,-2523.2 509.26,-2492.4 282.79,-2492.4"/>
<text text-anchor="start" x="289.79" y="-2504.6" font-family="Arial" font-size="14.00">season_id </text>
<text text-anchor="start" x="357.5" y="-2504.6" font-family="Arial" font-size="14.00" fill="#666666">[int(11)]</text>
<polygon fill="none" stroke="black" points="282.79,-2461.6 282.79,-2492.4 509.26,-2492.4 509.26,-2461.6 282.79,-2461.6"/>
<text text-anchor="start" x="289.79" y="-2473.8" font-family="Arial" font-size="14.00">episode_id </text>
<text text-anchor="start" x="361.4" y="-2473.8" font-family="Arial" font-size="14.00" fill="#666666">[int(11)]</text>
<polygon fill="none" stroke="black" points="282.79,-2430.8 282.79,-2461.6 509.26,-2461.6 509.26,-2430.8 282.79,-2430.8"/>
<text text-anchor="start" x="289.79" y="-2443" font-family="Arial" font-size="14.00">created </text>
<text text-anchor="start" x="340.37" y="-2443" font-family="Arial" font-size="14.00" fill="#666666">[datetime]</text>
<polygon fill="none" stroke="black" points="282.79,-2400 282.79,-2430.8 509.26,-2430.8 509.26,-2400 282.79,-2400"/>
<text text-anchor="start" x="289.79" y="-2412.2" font-family="Arial" font-size="14.00">updated </text>
<text text-anchor="start" x="344.28" y="-2412.2" font-family="Arial" font-size="14.00" fill="#666666">[datetime]</text>
<polygon fill="none" stroke="black" points="282.79,-2369.2 282.79,-2400 509.26,-2400 509.26,-2369.2 282.79,-2369.2"/>
<text text-anchor="start" x="289.79" y="-2381.4" font-family="Arial" font-size="14.00">roles </text>
<text text-anchor="start" x="324.02" y="-2381.4" font-family="Arial" font-size="14.00" fill="#666666">[longtext]</text>
</g>
<!-- episode -->
<g id="node2" class="node">
<title>episode</title>
<polygon fill="#efefef" stroke="none" points="383.29,-2211.2 383.29,-2246.8 576.76,-2246.8 576.76,-2211.2 383.29,-2211.2"/>
<polygon fill="none" stroke="black" points="383.29,-2211.2 383.29,-2246.8 576.76,-2246.8 576.76,-2211.2 383.29,-2211.2"/>
<text text-anchor="start" x="390.29" y="-2224.6" font-family="Arial Bold" font-size="18.00">episode</text>
<text text-anchor="start" x="445.27" y="-2224.6" font-family="Arial" font-size="14.00">    </text>
<text text-anchor="start" x="476.39" y="-2224.6" font-family="Arial" font-size="14.00" fill="#666666">[BASE TABLE]</text>
<polygon fill="none" stroke="black" points="383.29,-2180.4 383.29,-2211.2 576.76,-2211.2 576.76,-2180.4 383.29,-2180.4"/>
<text text-anchor="start" x="390.29" y="-2192.6" font-family="Arial" font-size="14.00">id </text>
<text text-anchor="start" x="405.07" y="-2192.6" font-family="Arial" font-size="14.00" fill="#666666">[int(11)]</text>
<polygon fill="none" stroke="black" points="383.29,-2149.6 383.29,-2180.4 576.76,-2180.4 576.76,-2149.6 383.29,-2149.6"/>
<text text-anchor="start" x="390.29" y="-2161.8" font-family="Arial" font-size="14.00">season_id </text>
<text text-anchor="start" x="458" y="-2161.8" font-family="Arial" font-size="14.00" fill="#666666">[int(11)]</text>
<polygon fill="none" stroke="black" points="383.29,-2118.8 383.29,-2149.6 576.76,-2149.6 576.76,-2118.8 383.29,-2118.8"/>
<text text-anchor="start" x="390.29" y="-2131" font-family="Arial" font-size="14.00">podcast_id </text>
<text text-anchor="start" x="461.89" y="-2131" font-family="Arial" font-size="14.00" fill="#666666">[int(11)]</text>
<polygon fill="none" stroke="black" points="383.29,-2088 383.29,-2118.8 576.76,-2118.8 576.76,-2088 383.29,-2088"/>
<text text-anchor="start" x="390.29" y="-2100.2" font-family="Arial" font-size="14.00">number </text>
<text text-anchor="start" x="441.65" y="-2100.2" font-family="Arial" font-size="14.00" fill="#666666">[double]</text>
<polygon fill="none" stroke="black" points="383.29,-2057.2 383.29,-2088 576.76,-2088 576.76,-2057.2 383.29,-2057.2"/>
<text text-anchor="start" x="390.29" y="-2069.4" font-family="Arial" font-size="14.00">date </text>
<text text-anchor="start" x="421.42" y="-2069.4" font-family="Arial" font-size="14.00" fill="#666666">[date]</text>
<polygon fill="none" stroke="black" points="383.29,-2026.4 383.29,-2057.2 576.76,-2057.2 576.76,-2026.4 383.29,-2026.4"/>
<text text-anchor="start" x="390.29" y="-2038.6" font-family="Arial" font-size="14.00">run_time </text>
<text text-anchor="start" x="448.65" y="-2038.6" font-family="Arial" font-size="14.00" fill="#666666">[varchar(9)]</text>
<polygon fill="none" stroke="black" points="383.29,-1995.6 383.29,-2026.4 576.76,-2026.4 576.76,-1995.6 383.29,-1995.6"/>
<text text-anchor="start" x="390.29" y="-2007.8" font-family="Arial" font-size="14.00">title </text>
<text text-anchor="start" x="415.96" y="-2007.8" font-family="Arial" font-size="14.00" fill="#666666">[varchar(255)]</text>
<polygon fill="none" stroke="black" points="383.29,-1964.8 383.29,-1995.6 576.76,-1995.6 576.76,-1964.8 383.29,-1964.8"/>
<text text-anchor="start" x="390.29" y="-1977" font-family="Arial" font-size="14.00">sub_title </text>
<text text-anchor="start" x="446.32" y="-1977" font-family="Arial" font-size="14.00" fill="#666666">[varchar(255)]</text>
<polygon fill="none" stroke="black" points="383.29,-1934 383.29,-1964.8 576.76,-1964.8 576.76,-1934 383.29,-1934"/>
<text text-anchor="start" x="390.29" y="-1946.2" font-family="Arial" font-size="14.00">bibliography </text>
<text text-anchor="start" x="469.67" y="-1946.2" font-family="Arial" font-size="14.00" fill="#666666">[longtext]</text>
<polygon fill="none" stroke="black" points="383.29,-1903.2 383.29,-1934 576.76,-1934 576.76,-1903.2 383.29,-1903.2"/>
<text text-anchor="start" x="390.29" y="-1915.4" font-family="Arial" font-size="14.00">transcript </text>
<text text-anchor="start" x="451.75" y="-1915.4" font-family="Arial" font-size="14.00" fill="#666666">[longtext]</text>
<polygon fill="none" stroke="black" points="383.29,-1872.4 383.29,-1903.2 576.76,-1903.2 576.76,-1872.4 383.29,-1872.4"/>
<text text-anchor="start" x="390.29" y="-1884.6" font-family="Arial" font-size="14.00">description </text>
<text text-anchor="start" x="461.88" y="-1884.6" font-family="Arial" font-size="14.00" fill="#666666">[longtext]</text>
<polygon fill="none" stroke="black" points="383.29,-1841.6 383.29,-1872.4 576.76,-1872.4 576.76,-1841.6 383.29,-1841.6"/>
<text text-anchor="start" x="390.29" y="-1853.8" font-family="Arial" font-size="14.00">created </text>
<text text-anchor="start" x="440.87" y="-1853.8" font-family="Arial" font-size="14.00" fill="#666666">[datetime]</text>
<polygon fill="none" stroke="black" points="383.29,-1810.8 383.29,-1841.6 576.76,-1841.6 576.76,-1810.8 383.29,-1810.8"/>
<text text-anchor="start" x="390.29" y="-1823" font-family="Arial" font-size="14.00">updated </text>
<text text-anchor="start" x="444.78" y="-1823" font-family="Arial" font-size="14.00" fill="#666666">[datetime]</text>
<polygon fill="none" stroke="black" points="383.29,-1780 383.29,-1810.8 576.76,-1810.8 576.76,-1780 383.29,-1780"/>
<text text-anchor="start" x="390.29" y="-1792.2" font-family="Arial" font-size="14.00">keywords </text>
<text text-anchor="start" x="453.31" y="-1792.2" font-family="Arial" font-size="14.00" fill="#666666">[longtext]</text>
<polygon fill="none" stroke="black" points="383.29,-1749.2 383.29,-1780 576.76,-1780 576.76,-1749.2 383.29,-1749.2"/>
<text text-anchor="start" x="390.29" y="-1761.4" font-family="Arial" font-size="14.00">permissions </text>
<text text-anchor="start" x="468.87" y="-1761.4" font-family="Arial" font-size="14.00" fill="#666666">[longtext]</text>
<polygon fill="none" stroke="black" points="383.29,-1718.4 383.29,-1749.2 576.76,-1749.2 576.76,-1718.4 383.29,-1718.4"/>
<text text-anchor="start" x="390.29" y="-1730.6" font-family="Arial" font-size="14.00">guid </text>
<text text-anchor="start" x="420.65" y="-1730.6" font-family="Arial" font-size="14.00" fill="#666666">[varchar(255)]</text>
<polygon fill="none" stroke="black" points="383.29,-1687.6 383.29,-1718.4 576.76,-1718.4 576.76,-1687.6 383.29,-1687.6"/>
<text text-anchor="start" x="390.29" y="-1699.8" font-family="Arial" font-size="14.00">episode_type </text>
<text text-anchor="start" x="477.47" y="-1699.8" font-family="Arial" font-size="14.00" fill="#666666">[varchar(255)]</text>
<polygon fill="none" stroke="black" points="383.29,-1656.8 383.29,-1687.6 576.76,-1687.6 576.76,-1656.8 383.29,-1656.8"/>
<text text-anchor="start" x="390.29" y="-1669" font-family="Arial" font-size="14.00">explicit </text>
<text text-anchor="start" x="436.97" y="-1669" font-family="Arial" font-size="14.00" fill="#666666">[tinyint(1)]</text>
<polygon fill="none" stroke="black" points="383.29,-1626 383.29,-1656.8 576.76,-1656.8 576.76,-1626 383.29,-1626"/>
<text text-anchor="start" x="390.29" y="-1638.2" font-family="Arial" font-size="14.00">status </text>
<text text-anchor="start" x="431.53" y="-1638.2" font-family="Arial" font-size="14.00" fill="#666666">[longtext]</text>
</g>
<!-- contribution&#45;&gt;episode -->
<g id="edge2" class="edge">
<title>contribution:episode_id&#45;&gt;episode:id</title>
<path fill="none" stroke="black" d="M520.44,-2476.15C574.33,-2466.46 547.63,-2376.52 509.26,-2326 474.04,-2279.63 418.6,-2336.3 383.29,-2290 357.9,-2256.71 340.42,-2195.8 382.29,-2195.8"/>
<polygon fill="black" stroke="black" points="520.56,-2476.14 510.22,-2472.49 515.24,-2476.58 510.93,-2476.94 510.93,-2476.94 510.93,-2476.94 515.24,-2476.58 510.97,-2481.46 520.56,-2476.14"/>
</g>
<!-- person -->
<g id="node3" class="node">
<title>person</title>
<polygon fill="#efefef" stroke="none" points="43.2,-1452.6 43.2,-1488.2 240.85,-1488.2 240.85,-1452.6 43.2,-1452.6"/>
<polygon fill="none" stroke="black" points="43.2,-1452.6 43.2,-1488.2 240.85,-1488.2 240.85,-1452.6 43.2,-1452.6"/>
<text text-anchor="start" x="55.78" y="-1466" font-family="Arial Bold" font-size="18.00">person</text>
<text text-anchor="start" x="103.77" y="-1466" font-family="Arial" font-size="14.00">    </text>
<text text-anchor="start" x="134.89" y="-1466" font-family="Arial" font-size="14.00" fill="#666666">[BASE TABLE]</text>
<polygon fill="none" stroke="black" points="43.2,-1421.8 43.2,-1452.6 240.85,-1452.6 240.85,-1421.8 43.2,-1421.8"/>
<text text-anchor="start" x="50.2" y="-1434" font-family="Arial" font-size="14.00">id </text>
<text text-anchor="start" x="64.99" y="-1434" font-family="Arial" font-size="14.00" fill="#666666">[int(11)]</text>
<polygon fill="none" stroke="black" points="43.2,-1391 43.2,-1421.8 240.85,-1421.8 240.85,-1391 43.2,-1391"/>
<text text-anchor="start" x="50.2" y="-1403.2" font-family="Arial" font-size="14.00">fullname </text>
<text text-anchor="start" x="107.01" y="-1403.2" font-family="Arial" font-size="14.00" fill="#666666">[varchar(255)]</text>
<polygon fill="none" stroke="black" points="43.2,-1360.2 43.2,-1391 240.85,-1391 240.85,-1360.2 43.2,-1360.2"/>
<text text-anchor="start" x="50.2" y="-1372.4" font-family="Arial" font-size="14.00">sortable_name </text>
<text text-anchor="start" x="146.7" y="-1372.4" font-family="Arial" font-size="14.00" fill="#666666">[varchar(255)]</text>
<polygon fill="none" stroke="black" points="43.2,-1329.4 43.2,-1360.2 240.85,-1360.2 240.85,-1329.4 43.2,-1329.4"/>
<text text-anchor="start" x="50.2" y="-1341.6" font-family="Arial" font-size="14.00">location </text>
<text text-anchor="start" x="102.34" y="-1341.6" font-family="Arial" font-size="14.00" fill="#666666">[varchar(255)]</text>
<polygon fill="none" stroke="black" points="43.2,-1298.6 43.2,-1329.4 240.85,-1329.4 240.85,-1298.6 43.2,-1298.6"/>
<text text-anchor="start" x="50.2" y="-1310.8" font-family="Arial" font-size="14.00">bio </text>
<text text-anchor="start" x="72.77" y="-1310.8" font-family="Arial" font-size="14.00" fill="#666666">[longtext]</text>
<polygon fill="none" stroke="black" points="43.2,-1267.8 43.2,-1298.6 240.85,-1298.6 240.85,-1267.8 43.2,-1267.8"/>
<text text-anchor="start" x="50.2" y="-1280" font-family="Arial" font-size="14.00">created </text>
<text text-anchor="start" x="100.79" y="-1280" font-family="Arial" font-size="14.00" fill="#666666">[datetime]</text>
<polygon fill="none" stroke="black" points="43.2,-1237 43.2,-1267.8 240.85,-1267.8 240.85,-1237 43.2,-1237"/>
<text text-anchor="start" x="50.2" y="-1249.2" font-family="Arial" font-size="14.00">updated </text>
<text text-anchor="start" x="104.7" y="-1249.2" font-family="Arial" font-size="14.00" fill="#666666">[datetime]</text>
<polygon fill="none" stroke="black" points="43.2,-1206.2 43.2,-1237 240.85,-1237 240.85,-1206.2 43.2,-1206.2"/>
<text text-anchor="start" x="50.2" y="-1218.4" font-family="Arial" font-size="14.00">institution </text>
<text text-anchor="start" x="113.23" y="-1218.4" font-family="Arial" font-size="14.00" fill="#666666">[varchar(255)]</text>
<polygon fill="none" stroke="black" points="43.2,-1175.4 43.2,-1206.2 240.85,-1206.2 240.85,-1175.4 43.2,-1175.4"/>
<text text-anchor="start" x="50.2" y="-1187.6" font-family="Arial" font-size="14.00">podcast_id </text>
<text text-anchor="start" x="121.81" y="-1187.6" font-family="Arial" font-size="14.00" fill="#666666">[int(11)]</text>
</g>
<!-- contribution&#45;&gt;person -->
<g id="edge1" class="edge">
<title>contribution:person_id&#45;&gt;person:id</title>
<path fill="none" stroke="black" d="M271.89,-2566.73C167.63,-2506.18 364.16,-1437.2 241.85,-1437.2"/>
<polygon fill="black" stroke="black" points="271.81,-2566.71 280.29,-2573.66 276.96,-2568.1 281.14,-2569.23 281.14,-2569.23 281.14,-2569.23 276.96,-2568.1 282.64,-2564.97 271.81,-2566.71"/>
</g>
<!-- podcast -->
<g id="node4" class="node">
<title>podcast</title>
<polygon fill="#efefef" stroke="none" points="241.63,-1002 241.63,-1037.6 442.42,-1037.6 442.42,-1002 241.63,-1002"/>
<polygon fill="none" stroke="black" points="241.63,-1002 241.63,-1037.6 442.42,-1037.6 442.42,-1002 241.63,-1002"/>
<text text-anchor="start" x="252.29" y="-1015.4" font-family="Arial Bold" font-size="18.00">podcast</text>
<text text-anchor="start" x="307.27" y="-1015.4" font-family="Arial" font-size="14.00">    </text>
<text text-anchor="start" x="338.39" y="-1015.4" font-family="Arial" font-size="14.00" fill="#666666">[BASE TABLE]</text>
<polygon fill="none" stroke="black" points="241.63,-971.2 241.63,-1002 442.42,-1002 442.42,-971.2 241.63,-971.2"/>
<text text-anchor="start" x="248.63" y="-983.4" font-family="Arial" font-size="14.00">id </text>
<text text-anchor="start" x="263.41" y="-983.4" font-family="Arial" font-size="14.00" fill="#666666">[int(11)]</text>
<polygon fill="none" stroke="black" points="241.63,-940.4 241.63,-971.2 442.42,-971.2 442.42,-940.4 241.63,-940.4"/>
<text text-anchor="start" x="248.63" y="-952.6" font-family="Arial" font-size="14.00">publisher_id </text>
<text text-anchor="start" x="328.01" y="-952.6" font-family="Arial" font-size="14.00" fill="#666666">[int(11)]</text>
<polygon fill="none" stroke="black" points="241.63,-909.6 241.63,-940.4 442.42,-940.4 442.42,-909.6 241.63,-909.6"/>
<text text-anchor="start" x="248.63" y="-921.8" font-family="Arial" font-size="14.00">title </text>
<text text-anchor="start" x="274.3" y="-921.8" font-family="Arial" font-size="14.00" fill="#666666">[varchar(255)]</text>
<polygon fill="none" stroke="black" points="241.63,-878.8 241.63,-909.6 442.42,-909.6 442.42,-878.8 241.63,-878.8"/>
<text text-anchor="start" x="248.63" y="-891" font-family="Arial" font-size="14.00">sub_title </text>
<text text-anchor="start" x="304.66" y="-891" font-family="Arial" font-size="14.00" fill="#666666">[varchar(255)]</text>
<polygon fill="none" stroke="black" points="241.63,-848 241.63,-878.8 442.42,-878.8 442.42,-848 241.63,-848"/>
<text text-anchor="start" x="248.63" y="-860.2" font-family="Arial" font-size="14.00">explicit </text>
<text text-anchor="start" x="295.31" y="-860.2" font-family="Arial" font-size="14.00" fill="#666666">[tinyint(1)]</text>
<polygon fill="none" stroke="black" points="241.63,-817.2 241.63,-848 442.42,-848 442.42,-817.2 241.63,-817.2"/>
<text text-anchor="start" x="248.63" y="-829.4" font-family="Arial" font-size="14.00">description </text>
<text text-anchor="start" x="320.22" y="-829.4" font-family="Arial" font-size="14.00" fill="#666666">[longtext]</text>
<polygon fill="none" stroke="black" points="241.63,-786.4 241.63,-817.2 442.42,-817.2 442.42,-786.4 241.63,-786.4"/>
<text text-anchor="start" x="248.63" y="-798.6" font-family="Arial" font-size="14.00">copyright </text>
<text text-anchor="start" x="309.32" y="-798.6" font-family="Arial" font-size="14.00" fill="#666666">[longtext]</text>
<polygon fill="none" stroke="black" points="241.63,-755.6 241.63,-786.4 442.42,-786.4 442.42,-755.6 241.63,-755.6"/>
<text text-anchor="start" x="248.63" y="-767.8" font-family="Arial" font-size="14.00">website </text>
<text text-anchor="start" x="299.99" y="-767.8" font-family="Arial" font-size="14.00" fill="#666666">[longtext]</text>
<polygon fill="none" stroke="black" points="241.63,-724.8 241.63,-755.6 442.42,-755.6 442.42,-724.8 241.63,-724.8"/>
<text text-anchor="start" x="248.63" y="-737" font-family="Arial" font-size="14.00">rss </text>
<text text-anchor="start" x="271.18" y="-737" font-family="Arial" font-size="14.00" fill="#666666">[varchar(255)]</text>
<polygon fill="none" stroke="black" points="241.63,-694 241.63,-724.8 442.42,-724.8 442.42,-694 241.63,-694"/>
<text text-anchor="start" x="248.63" y="-706.2" font-family="Arial" font-size="14.00">created </text>
<text text-anchor="start" x="299.21" y="-706.2" font-family="Arial" font-size="14.00" fill="#666666">[datetime]</text>
<polygon fill="none" stroke="black" points="241.63,-663.2 241.63,-694 442.42,-694 442.42,-663.2 241.63,-663.2"/>
<text text-anchor="start" x="248.63" y="-675.4" font-family="Arial" font-size="14.00">updated </text>
<text text-anchor="start" x="303.12" y="-675.4" font-family="Arial" font-size="14.00" fill="#666666">[datetime]</text>
<polygon fill="none" stroke="black" points="241.63,-632.4 241.63,-663.2 442.42,-663.2 442.42,-632.4 241.63,-632.4"/>
<text text-anchor="start" x="248.63" y="-644.6" font-family="Arial" font-size="14.00">license </text>
<text text-anchor="start" x="296.1" y="-644.6" font-family="Arial" font-size="14.00" fill="#666666">[longtext]</text>
<polygon fill="none" stroke="black" points="241.63,-601.6 241.63,-632.4 442.42,-632.4 442.42,-601.6 241.63,-601.6"/>
<text text-anchor="start" x="248.63" y="-613.8" font-family="Arial" font-size="14.00">guid </text>
<text text-anchor="start" x="278.99" y="-613.8" font-family="Arial" font-size="14.00" fill="#666666">[varchar(255)]</text>
<polygon fill="none" stroke="black" points="241.63,-570.8 241.63,-601.6 442.42,-601.6 442.42,-570.8 241.63,-570.8"/>
<text text-anchor="start" x="248.63" y="-583" font-family="Arial" font-size="14.00">language_code </text>
<text text-anchor="start" x="348.28" y="-583" font-family="Arial" font-size="14.00" fill="#666666">[varchar(255)]</text>
<polygon fill="none" stroke="black" points="241.63,-540 241.63,-570.8 442.42,-570.8 442.42,-540 241.63,-540"/>
<text text-anchor="start" x="248.63" y="-552.2" font-family="Arial" font-size="14.00">categories </text>
<text text-anchor="start" x="317.11" y="-552.2" font-family="Arial" font-size="14.00" fill="#666666">[longtext]</text>
<polygon fill="none" stroke="black" points="241.63,-509.2 241.63,-540 442.42,-540 442.42,-509.2 241.63,-509.2"/>
<text text-anchor="start" x="248.63" y="-521.4" font-family="Arial" font-size="14.00">keywords </text>
<text text-anchor="start" x="311.65" y="-521.4" font-family="Arial" font-size="14.00" fill="#666666">[longtext]</text>
<polygon fill="none" stroke="black" points="241.63,-478.4 241.63,-509.2 442.42,-509.2 442.42,-478.4 241.63,-478.4"/>
<text text-anchor="start" x="248.63" y="-490.6" font-family="Arial" font-size="14.00">status </text>
<text text-anchor="start" x="289.87" y="-490.6" font-family="Arial" font-size="14.00" fill="#666666">[longtext]</text>
</g>
<!-- contribution&#45;&gt;podcast -->
<g id="edge4" class="edge">
<title>contribution:podcast_id&#45;&gt;podcast:id</title>
<path fill="none" stroke="black" d="M271.56,-2538.07C194.55,-2529.41 281.98,-2416.8 282.79,-2326 283.98,-2191.64 355.06,-1235.98 293.02,-1116.8 280.15,-1092.06 254.63,-1105.47 241.63,-1080.8 222.1,-1043.76 198.76,-986.6 240.63,-986.6"/>
<polygon fill="black" stroke="black" points="271.46,-2538.06 281.22,-2543.08 276.79,-2538.34 281.12,-2538.57 281.12,-2538.57 281.12,-2538.57 276.79,-2538.34 281.69,-2534.09 271.46,-2538.06"/>
</g>
<!-- season -->
<g id="node6" class="node">
<title>season</title>
<polygon fill="#efefef" stroke="none" points="420.78,-1468 420.78,-1503.6 607.26,-1503.6 607.26,-1468 420.78,-1468"/>
<polygon fill="none" stroke="black" points="420.78,-1468 420.78,-1503.6 607.26,-1503.6 607.26,-1468 420.78,-1468"/>
<text text-anchor="start" x="427.78" y="-1481.4" font-family="Arial Bold" font-size="18.00">season</text>
<text text-anchor="start" x="475.77" y="-1481.4" font-family="Arial" font-size="14.00">    </text>
<text text-anchor="start" x="506.89" y="-1481.4" font-family="Arial" font-size="14.00" fill="#666666">[BASE TABLE]</text>
<polygon fill="none" stroke="black" points="420.78,-1437.2 420.78,-1468 607.26,-1468 607.26,-1437.2 420.78,-1437.2"/>
<text text-anchor="start" x="427.78" y="-1449.4" font-family="Arial" font-size="14.00">id </text>
<text text-anchor="start" x="442.57" y="-1449.4" font-family="Arial" font-size="14.00" fill="#666666">[int(11)]</text>
<polygon fill="none" stroke="black" points="420.78,-1406.4 420.78,-1437.2 607.26,-1437.2 607.26,-1406.4 420.78,-1406.4"/>
<text text-anchor="start" x="427.78" y="-1418.6" font-family="Arial" font-size="14.00">podcast_id </text>
<text text-anchor="start" x="499.39" y="-1418.6" font-family="Arial" font-size="14.00" fill="#666666">[int(11)]</text>
<polygon fill="none" stroke="black" points="420.78,-1375.6 420.78,-1406.4 607.26,-1406.4 607.26,-1375.6 420.78,-1375.6"/>
<text text-anchor="start" x="427.78" y="-1387.8" font-family="Arial" font-size="14.00">publisher_id </text>
<text text-anchor="start" x="507.17" y="-1387.8" font-family="Arial" font-size="14.00" fill="#666666">[int(11)]</text>
<polygon fill="none" stroke="black" points="420.78,-1344.8 420.78,-1375.6 607.26,-1375.6 607.26,-1344.8 420.78,-1344.8"/>
<text text-anchor="start" x="427.78" y="-1357" font-family="Arial" font-size="14.00">number </text>
<text text-anchor="start" x="479.14" y="-1357" font-family="Arial" font-size="14.00" fill="#666666">[int(11)]</text>
<polygon fill="none" stroke="black" points="420.78,-1314 420.78,-1344.8 607.26,-1344.8 607.26,-1314 420.78,-1314"/>
<text text-anchor="start" x="427.78" y="-1326.2" font-family="Arial" font-size="14.00">title </text>
<text text-anchor="start" x="453.46" y="-1326.2" font-family="Arial" font-size="14.00" fill="#666666">[varchar(255)]</text>
<polygon fill="none" stroke="black" points="420.78,-1283.2 420.78,-1314 607.26,-1314 607.26,-1283.2 420.78,-1283.2"/>
<text text-anchor="start" x="427.78" y="-1295.4" font-family="Arial" font-size="14.00">sub_title </text>
<text text-anchor="start" x="483.82" y="-1295.4" font-family="Arial" font-size="14.00" fill="#666666">[varchar(255)]</text>
<polygon fill="none" stroke="black" points="420.78,-1252.4 420.78,-1283.2 607.26,-1283.2 607.26,-1252.4 420.78,-1252.4"/>
<text text-anchor="start" x="427.78" y="-1264.6" font-family="Arial" font-size="14.00">description </text>
<text text-anchor="start" x="499.38" y="-1264.6" font-family="Arial" font-size="14.00" fill="#666666">[longtext]</text>
<polygon fill="none" stroke="black" points="420.78,-1221.6 420.78,-1252.4 607.26,-1252.4 607.26,-1221.6 420.78,-1221.6"/>
<text text-anchor="start" x="427.78" y="-1233.8" font-family="Arial" font-size="14.00">created </text>
<text text-anchor="start" x="478.37" y="-1233.8" font-family="Arial" font-size="14.00" fill="#666666">[datetime]</text>
<polygon fill="none" stroke="black" points="420.78,-1190.8 420.78,-1221.6 607.26,-1221.6 607.26,-1190.8 420.78,-1190.8"/>
<text text-anchor="start" x="427.78" y="-1203" font-family="Arial" font-size="14.00">updated </text>
<text text-anchor="start" x="482.28" y="-1203" font-family="Arial" font-size="14.00" fill="#666666">[datetime]</text>
<polygon fill="none" stroke="black" points="420.78,-1160 420.78,-1190.8 607.26,-1190.8 607.26,-1160 420.78,-1160"/>
<text text-anchor="start" x="427.78" y="-1172.2" font-family="Arial" font-size="14.00">status </text>
<text text-anchor="start" x="469.03" y="-1172.2" font-family="Arial" font-size="14.00" fill="#666666">[longtext]</text>
</g>
<!-- contribution&#45;&gt;season -->
<g id="edge3" class="edge">
<title>contribution:season_id&#45;&gt;season:id</title>
<path fill="none" stroke="black" d="M520.53,-2507.46C619.36,-2500.65 602.67,-2393.4 629.02,-2290 675.01,-2109.62 794.41,-1452.6 608.26,-1452.6"/>
<polygon fill="black" stroke="black" points="520.59,-2507.46 510.45,-2503.29 515.26,-2507.63 510.93,-2507.78 510.93,-2507.78 510.93,-2507.78 515.26,-2507.63 510.75,-2512.29 520.59,-2507.46"/>
</g>
<!-- episode&#45;&gt;podcast -->
<g id="edge6" class="edge">
<title>episode:podcast_id&#45;&gt;podcast:id</title>
<path fill="none" stroke="black" d="M374.5,-2127.49C327.1,-2041.73 340.58,-1162.43 369.02,-1116.8 388.24,-1085.97 423.04,-1111.53 442.42,-1080.8 464.76,-1045.39 485.29,-986.6 443.42,-986.6"/>
<polygon fill="black" stroke="black" points="374.46,-2127.45 379.1,-2137.39 378.5,-2130.93 381.78,-2133.76 381.78,-2133.76 381.78,-2133.76 378.5,-2130.93 384.97,-2130.57 374.46,-2127.45"/>
</g>
<!-- episode&#45;&gt;season -->
<g id="edge5" class="edge">
<title>episode:season_id&#45;&gt;season:id</title>
<path fill="none" stroke="black" d="M587.25,-2160.71C639.73,-2110.27 614.95,-1630.72 576.76,-1582.8 532.42,-1527.16 465.37,-1602.24 420.78,-1546.8 394.55,-1514.17 377.92,-1452.6 419.78,-1452.6"/>
<polygon fill="black" stroke="black" points="587.18,-2160.75 576.21,-2160.76 582.32,-2162.94 578.37,-2164.72 578.37,-2164.72 578.37,-2164.72 582.32,-2162.94 579.92,-2168.96 587.18,-2160.75"/>
</g>
<!-- person&#45;&gt;podcast -->
<g id="edge7" class="edge">
<title>person:podcast_id&#45;&gt;podcast:id</title>
<path fill="none" stroke="black" d="M252.08,-1189.7C317.41,-1173.63 153.77,-986.6 240.63,-986.6"/>
<polygon fill="black" stroke="black" points="252.12,-1189.7 241.7,-1186.29 246.82,-1190.27 242.51,-1190.73 242.51,-1190.73 242.51,-1190.73 246.82,-1190.27 242.66,-1195.24 252.12,-1189.7"/>
</g>
<!-- publisher -->
<g id="node5" class="node">
<title>publisher</title>
<polygon fill="#efefef" stroke="none" points="239.28,-320.4 239.28,-356 444.76,-356 444.76,-320.4 239.28,-320.4"/>
<polygon fill="none" stroke="black" points="239.28,-320.4 239.28,-356 444.76,-356 444.76,-320.4 239.28,-320.4"/>
<text text-anchor="start" x="246.28" y="-333.8" font-family="Arial Bold" font-size="18.00">publisher</text>
<text text-anchor="start" x="313.27" y="-333.8" font-family="Arial" font-size="14.00">    </text>
<text text-anchor="start" x="344.39" y="-333.8" font-family="Arial" font-size="14.00" fill="#666666">[BASE TABLE]</text>
<polygon fill="none" stroke="black" points="239.28,-289.6 239.28,-320.4 444.76,-320.4 444.76,-289.6 239.28,-289.6"/>
<text text-anchor="start" x="246.28" y="-301.8" font-family="Arial" font-size="14.00">id </text>
<text text-anchor="start" x="261.07" y="-301.8" font-family="Arial" font-size="14.00" fill="#666666">[int(11)]</text>
<polygon fill="none" stroke="black" points="239.28,-258.8 239.28,-289.6 444.76,-289.6 444.76,-258.8 239.28,-258.8"/>
<text text-anchor="start" x="246.28" y="-271" font-family="Arial" font-size="14.00">name </text>
<text text-anchor="start" x="285.19" y="-271" font-family="Arial" font-size="14.00" fill="#666666">[varchar(255)]</text>
<polygon fill="none" stroke="black" points="239.28,-228 239.28,-258.8 444.76,-258.8 444.76,-228 239.28,-228"/>
<text text-anchor="start" x="246.28" y="-240.2" font-family="Arial" font-size="14.00">location </text>
<text text-anchor="start" x="298.43" y="-240.2" font-family="Arial" font-size="14.00" fill="#666666">[varchar(255)]</text>
<polygon fill="none" stroke="black" points="239.28,-197.2 239.28,-228 444.76,-228 444.76,-197.2 239.28,-197.2"/>
<text text-anchor="start" x="246.28" y="-209.4" font-family="Arial" font-size="14.00">website </text>
<text text-anchor="start" x="297.64" y="-209.4" font-family="Arial" font-size="14.00" fill="#666666">[varchar(255)]</text>
<polygon fill="none" stroke="black" points="239.28,-166.4 239.28,-197.2 444.76,-197.2 444.76,-166.4 239.28,-166.4"/>
<text text-anchor="start" x="246.28" y="-178.6" font-family="Arial" font-size="14.00">description </text>
<text text-anchor="start" x="317.88" y="-178.6" font-family="Arial" font-size="14.00" fill="#666666">[longtext]</text>
<polygon fill="none" stroke="black" points="239.28,-135.6 239.28,-166.4 444.76,-166.4 444.76,-135.6 239.28,-135.6"/>
<text text-anchor="start" x="246.28" y="-147.8" font-family="Arial" font-size="14.00">contact </text>
<text text-anchor="start" x="295.31" y="-147.8" font-family="Arial" font-size="14.00" fill="#666666">[longtext]</text>
<polygon fill="none" stroke="black" points="239.28,-104.8 239.28,-135.6 444.76,-135.6 444.76,-104.8 239.28,-104.8"/>
<text text-anchor="start" x="246.28" y="-117" font-family="Arial" font-size="14.00">created </text>
<text text-anchor="start" x="296.87" y="-117" font-family="Arial" font-size="14.00" fill="#666666">[datetime]</text>
<polygon fill="none" stroke="black" points="239.28,-74 239.28,-104.8 444.76,-104.8 444.76,-74 239.28,-74"/>
<text text-anchor="start" x="246.28" y="-86.2" font-family="Arial" font-size="14.00">updated </text>
<text text-anchor="start" x="300.78" y="-86.2" font-family="Arial" font-size="14.00" fill="#666666">[datetime]</text>
<polygon fill="none" stroke="black" points="239.28,-43.2 239.28,-74 444.76,-74 444.76,-43.2 239.28,-43.2"/>
<text text-anchor="start" x="246.28" y="-55.4" font-family="Arial" font-size="14.00">podcast_id </text>
<text text-anchor="start" x="317.89" y="-55.4" font-family="Arial" font-size="14.00" fill="#666666">[int(11)]</text>
</g>
<!-- podcast&#45;&gt;publisher -->
<g id="edge8" class="edge">
<title>podcast:publisher_id&#45;&gt;publisher:id</title>
<path fill="none" stroke="black" d="M452.74,-951.98C515.79,-898.64 514.83,-305 445.76,-305"/>
<polygon fill="black" stroke="black" points="452.98,-951.88 442.02,-951.51 448.05,-953.9 444.04,-955.55 444.04,-955.55 444.04,-955.55 448.05,-953.9 445.44,-959.84 452.98,-951.88"/>
</g>
<!-- publisher&#45;&gt;podcast -->
<g id="edge9" class="edge">
<title>publisher:podcast_id&#45;&gt;podcast:id</title>
<path fill="none" stroke="black" d="M453.2,-65.54C496.95,-150.46 492.36,-986.6 443.42,-986.6"/>
<polygon fill="black" stroke="black" points="453.32,-65.65 449.08,-55.54 449.42,-62.01 446.25,-59.06 446.25,-59.06 446.25,-59.06 449.42,-62.01 442.94,-62.12 453.32,-65.65"/>
</g>
<!-- season&#45;&gt;podcast -->
<g id="edge11" class="edge">
<title>season:podcast_id&#45;&gt;podcast:id</title>
<path fill="none" stroke="black" d="M409.7,-1419.72C357.44,-1396.1 403.56,-1178.51 420.78,-1116.8 425.8,-1098.82 437.34,-1098.76 442.42,-1080.8 453.82,-1040.51 485.29,-986.6 443.42,-986.6"/>
<polygon fill="black" stroke="black" points="409.66,-1419.71 418.55,-1426.14 414.89,-1420.79 419.13,-1421.66 419.13,-1421.66 419.13,-1421.66 414.89,-1420.79 420.37,-1417.33 409.66,-1419.71"/>
</g>
<!-- season&#45;&gt;publisher -->
<g id="edge10" class="edge">
<title>season:publisher_id&#45;&gt;publisher:id</title>
<path fill="none" stroke="black" d="M618.26,-1388.26C720.79,-1328.3 564.2,-305 445.76,-305"/>
<polygon fill="black" stroke="black" points="618.23,-1388.27 607.4,-1386.57 613.08,-1389.68 608.91,-1390.82 608.91,-1390.82 608.91,-1390.82 613.08,-1389.68 609.78,-1395.25 618.23,-1388.27"/>
</g>
</g>
</svg>
