<?xml version="1.0" encoding="UTF-8" standalone="no"?>
<!DOCTYPE svg PUBLIC "-//W3C//DTD SVG 1.1//EN"
 "http://www.w3.org/Graphics/SVG/1.1/DTD/svg11.dtd">
<!-- Generated by graphviz version 2.40.1 (20161225.0304)
 -->
<!-- Title: amplify Pages: 1 -->
<svg width="772pt" height="2647pt"
 viewBox="0.00 0.00 772.49 2647.00" xmlns="http://www.w3.org/2000/svg" xmlns:xlink="http://www.w3.org/1999/xlink">
<g id="graph0" class="graph" transform="scale(1 1) rotate(0) translate(4 2643)">
<title>amplify</title>
<polygon fill="#ffffff" stroke="transparent" points="-4,4 -4,-2643 768.4901,-2643 768.4901,4 -4,4"/>
<!-- contribution -->
<g id="node1" class="node">
<title>contribution</title>
<polygon fill="#efefef" stroke="transparent" points="314.5,-2560.5 314.5,-2595.5 548.5,-2595.5 548.5,-2560.5 314.5,-2560.5"/>
<polygon fill="none" stroke="#000000" points="314.5,-2560.5 314.5,-2595.5 548.5,-2595.5 548.5,-2560.5 314.5,-2560.5"/>
<text text-anchor="start" x="321.2049" y="-2573.3" font-family="Arial Bold" font-size="18.00" fill="#000000">contribution</text>
<text text-anchor="start" x="414.2271" y="-2573.3" font-family="Arial" font-size="14.00" fill="#000000">    </text>
<text text-anchor="start" x="448.4319" y="-2573.3" font-family="Arial" font-size="14.00" fill="#666666">[BASE TABLE]</text>
<polygon fill="none" stroke="#000000" points="314.5,-2530.5 314.5,-2560.5 548.5,-2560.5 548.5,-2530.5 314.5,-2530.5"/>
<text text-anchor="start" x="321.5" y="-2541.9" font-family="Arial" font-size="14.00" fill="#000000">id    </text>
<text text-anchor="start" x="366.594" y="-2541.9" font-family="Arial" font-size="14.00" fill="#666666">[int(11)]</text>
<polygon fill="none" stroke="#000000" points="314.5,-2500.5 314.5,-2530.5 548.5,-2530.5 548.5,-2500.5 314.5,-2500.5"/>
<text text-anchor="start" x="321.5" y="-2511.9" font-family="Arial" font-size="14.00" fill="#000000">person_id    </text>
<text text-anchor="start" x="417.1676" y="-2511.9" font-family="Arial" font-size="14.00" fill="#666666">[int(11)]</text>
<polygon fill="none" stroke="#000000" points="314.5,-2470.5 314.5,-2500.5 548.5,-2500.5 548.5,-2470.5 314.5,-2470.5"/>
<text text-anchor="start" x="321.5" y="-2481.9" font-family="Arial" font-size="14.00" fill="#000000">podcast_id    </text>
<text text-anchor="start" x="423.3976" y="-2481.9" font-family="Arial" font-size="14.00" fill="#666666">[int(11)]</text>
<polygon fill="none" stroke="#000000" points="314.5,-2440.5 314.5,-2470.5 548.5,-2470.5 548.5,-2440.5 314.5,-2440.5"/>
<text text-anchor="start" x="321.5" y="-2451.9" font-family="Arial" font-size="14.00" fill="#000000">season_id    </text>
<text text-anchor="start" x="419.507" y="-2451.9" font-family="Arial" font-size="14.00" fill="#666666">[int(11)]</text>
<polygon fill="none" stroke="#000000" points="314.5,-2410.5 314.5,-2440.5 548.5,-2440.5 548.5,-2410.5 314.5,-2410.5"/>
<text text-anchor="start" x="321.5" y="-2421.9" font-family="Arial" font-size="14.00" fill="#000000">episode_id    </text>
<text text-anchor="start" x="423.3962" y="-2421.9" font-family="Arial" font-size="14.00" fill="#666666">[int(11)]</text>
<polygon fill="none" stroke="#000000" points="314.5,-2380.5 314.5,-2410.5 548.5,-2410.5 548.5,-2380.5 314.5,-2380.5"/>
<text text-anchor="start" x="321.5" y="-2391.9" font-family="Arial" font-size="14.00" fill="#000000">created    </text>
<text text-anchor="start" x="402.3864" y="-2391.9" font-family="Arial" font-size="14.00" fill="#666666">[datetime]</text>
<polygon fill="none" stroke="#000000" points="314.5,-2350.5 314.5,-2380.5 548.5,-2380.5 548.5,-2350.5 314.5,-2350.5"/>
<text text-anchor="start" x="321.5" y="-2361.9" font-family="Arial" font-size="14.00" fill="#000000">updated    </text>
<text text-anchor="start" x="406.291" y="-2361.9" font-family="Arial" font-size="14.00" fill="#666666">[datetime]</text>
<polygon fill="none" stroke="#000000" points="314.5,-2320.5 314.5,-2350.5 548.5,-2350.5 548.5,-2320.5 314.5,-2320.5"/>
<text text-anchor="start" x="321.5" y="-2331.9" font-family="Arial" font-size="14.00" fill="#000000">roles    </text>
<text text-anchor="start" x="386.0372" y="-2331.9" font-family="Arial" font-size="14.00" fill="#666666">[longtext]</text>
</g>
<!-- episode -->
<g id="node2" class="node">
<title>episode</title>
<polygon fill="#efefef" stroke="transparent" points="412.5,-2163.5 412.5,-2198.5 630.5,-2198.5 630.5,-2163.5 412.5,-2163.5"/>
<polygon fill="none" stroke="#000000" points="412.5,-2163.5 412.5,-2198.5 630.5,-2198.5 630.5,-2163.5 412.5,-2163.5"/>
<text text-anchor="start" x="426.2034" y="-2176.3" font-family="Arial Bold" font-size="18.00" fill="#000000">episode</text>
<text text-anchor="start" x="489.2286" y="-2176.3" font-family="Arial" font-size="14.00" fill="#000000">    </text>
<text text-anchor="start" x="523.4334" y="-2176.3" font-family="Arial" font-size="14.00" fill="#666666">[BASE TABLE]</text>
<polygon fill="none" stroke="#000000" points="412.5,-2133.5 412.5,-2163.5 630.5,-2163.5 630.5,-2133.5 412.5,-2133.5"/>
<text text-anchor="start" x="419.5" y="-2144.9" font-family="Arial" font-size="14.00" fill="#000000">id    </text>
<text text-anchor="start" x="464.594" y="-2144.9" font-family="Arial" font-size="14.00" fill="#666666">[int(11)]</text>
<polygon fill="none" stroke="#000000" points="412.5,-2103.5 412.5,-2133.5 630.5,-2133.5 630.5,-2103.5 412.5,-2103.5"/>
<text text-anchor="start" x="419.5" y="-2114.9" font-family="Arial" font-size="14.00" fill="#000000">season_id    </text>
<text text-anchor="start" x="517.507" y="-2114.9" font-family="Arial" font-size="14.00" fill="#666666">[int(11)]</text>
<polygon fill="none" stroke="#000000" points="412.5,-2073.5 412.5,-2103.5 630.5,-2103.5 630.5,-2073.5 412.5,-2073.5"/>
<text text-anchor="start" x="419.5" y="-2084.9" font-family="Arial" font-size="14.00" fill="#000000">podcast_id    </text>
<text text-anchor="start" x="521.3976" y="-2084.9" font-family="Arial" font-size="14.00" fill="#666666">[int(11)]</text>
<polygon fill="none" stroke="#000000" points="412.5,-2043.5 412.5,-2073.5 630.5,-2073.5 630.5,-2043.5 412.5,-2043.5"/>
<text text-anchor="start" x="419.5" y="-2054.9" font-family="Arial" font-size="14.00" fill="#000000">number    </text>
<text text-anchor="start" x="501.1564" y="-2054.9" font-family="Arial" font-size="14.00" fill="#666666">[double]</text>
<polygon fill="none" stroke="#000000" points="412.5,-2013.5 412.5,-2043.5 630.5,-2043.5 630.5,-2013.5 412.5,-2013.5"/>
<text text-anchor="start" x="419.5" y="-2024.9" font-family="Arial" font-size="14.00" fill="#000000">date    </text>
<text text-anchor="start" x="480.9432" y="-2024.9" font-family="Arial" font-size="14.00" fill="#666666">[date]</text>
<polygon fill="none" stroke="#000000" points="412.5,-1983.5 412.5,-2013.5 630.5,-2013.5 630.5,-1983.5 412.5,-1983.5"/>
<text text-anchor="start" x="419.5" y="-1994.9" font-family="Arial" font-size="14.00" fill="#000000">run_time    </text>
<text text-anchor="start" x="508.1536" y="-1994.9" font-family="Arial" font-size="14.00" fill="#666666">[varchar(9)]</text>
<polygon fill="none" stroke="#000000" points="412.5,-1953.5 412.5,-1983.5 630.5,-1983.5 630.5,-1953.5 412.5,-1953.5"/>
<text text-anchor="start" x="419.5" y="-1964.9" font-family="Arial" font-size="14.00" fill="#000000">title    </text>
<text text-anchor="start" x="475.4818" y="-1964.9" font-family="Arial" font-size="14.00" fill="#666666">[varchar(255)]</text>
<polygon fill="none" stroke="#000000" points="412.5,-1923.5 412.5,-1953.5 630.5,-1953.5 630.5,-1923.5 412.5,-1923.5"/>
<text text-anchor="start" x="419.5" y="-1934.9" font-family="Arial" font-size="14.00" fill="#000000">sub_title    </text>
<text text-anchor="start" x="505.8296" y="-1934.9" font-family="Arial" font-size="14.00" fill="#666666">[varchar(255)]</text>
<polygon fill="none" stroke="#000000" points="412.5,-1893.5 412.5,-1923.5 630.5,-1923.5 630.5,-1893.5 412.5,-1893.5"/>
<text text-anchor="start" x="419.5" y="-1904.9" font-family="Arial" font-size="14.00" fill="#000000">bibliography    </text>
<text text-anchor="start" x="529.1634" y="-1904.9" font-family="Arial" font-size="14.00" fill="#666666">[longtext]</text>
<polygon fill="none" stroke="#000000" points="412.5,-1863.5 412.5,-1893.5 630.5,-1893.5 630.5,-1863.5 412.5,-1863.5"/>
<text text-anchor="start" x="419.5" y="-1874.9" font-family="Arial" font-size="14.00" fill="#000000">transcript    </text>
<text text-anchor="start" x="511.2616" y="-1874.9" font-family="Arial" font-size="14.00" fill="#666666">[longtext]</text>
<polygon fill="none" stroke="#000000" points="412.5,-1833.5 412.5,-1863.5 630.5,-1863.5 630.5,-1833.5 412.5,-1833.5"/>
<text text-anchor="start" x="419.5" y="-1844.9" font-family="Arial" font-size="14.00" fill="#000000">description    </text>
<text text-anchor="start" x="521.3822" y="-1844.9" font-family="Arial" font-size="14.00" fill="#666666">[longtext]</text>
<polygon fill="none" stroke="#000000" points="412.5,-1803.5 412.5,-1833.5 630.5,-1833.5 630.5,-1803.5 412.5,-1803.5"/>
<text text-anchor="start" x="419.5" y="-1814.9" font-family="Arial" font-size="14.00" fill="#000000">created    </text>
<text text-anchor="start" x="500.3864" y="-1814.9" font-family="Arial" font-size="14.00" fill="#666666">[datetime]</text>
<polygon fill="none" stroke="#000000" points="412.5,-1773.5 412.5,-1803.5 630.5,-1803.5 630.5,-1773.5 412.5,-1773.5"/>
<text text-anchor="start" x="419.5" y="-1784.9" font-family="Arial" font-size="14.00" fill="#000000">updated    </text>
<text text-anchor="start" x="504.291" y="-1784.9" font-family="Arial" font-size="14.00" fill="#666666">[datetime]</text>
<polygon fill="none" stroke="#000000" points="412.5,-1743.5 412.5,-1773.5 630.5,-1773.5 630.5,-1743.5 412.5,-1743.5"/>
<text text-anchor="start" x="419.5" y="-1754.9" font-family="Arial" font-size="14.00" fill="#000000">keywords    </text>
<text text-anchor="start" x="512.8198" y="-1754.9" font-family="Arial" font-size="14.00" fill="#666666">[longtext]</text>
<polygon fill="none" stroke="#000000" points="412.5,-1713.5 412.5,-1743.5 630.5,-1743.5 630.5,-1713.5 412.5,-1713.5"/>
<text text-anchor="start" x="419.5" y="-1724.9" font-family="Arial" font-size="14.00" fill="#000000">permissions    </text>
<text text-anchor="start" x="528.3696" y="-1724.9" font-family="Arial" font-size="14.00" fill="#666666">[longtext]</text>
<polygon fill="none" stroke="#000000" points="412.5,-1683.5 412.5,-1713.5 630.5,-1713.5 630.5,-1683.5 412.5,-1683.5"/>
<text text-anchor="start" x="419.5" y="-1694.9" font-family="Arial" font-size="14.00" fill="#000000">guid    </text>
<text text-anchor="start" x="480.1592" y="-1694.9" font-family="Arial" font-size="14.00" fill="#666666">[varchar(255)]</text>
<polygon fill="none" stroke="#000000" points="412.5,-1653.5 412.5,-1683.5 630.5,-1683.5 630.5,-1653.5 412.5,-1653.5"/>
<text text-anchor="start" x="419.209" y="-1664.9" font-family="Arial" font-size="14.00" fill="#000000">episode_type    </text>
<text text-anchor="start" x="536.6718" y="-1664.9" font-family="Arial" font-size="14.00" fill="#666666">[varchar(255)]</text>
<polygon fill="none" stroke="#000000" points="412.5,-1623.5 412.5,-1653.5 630.5,-1653.5 630.5,-1623.5 412.5,-1623.5"/>
<text text-anchor="start" x="419.5" y="-1634.9" font-family="Arial" font-size="14.00" fill="#000000">explicit    </text>
<text text-anchor="start" x="496.4804" y="-1634.9" font-family="Arial" font-size="14.00" fill="#666666">[tinyint(1)]</text>
<polygon fill="none" stroke="#000000" points="412.5,-1593.5 412.5,-1623.5 630.5,-1623.5 630.5,-1593.5 412.5,-1593.5"/>
<text text-anchor="start" x="419.5" y="-1604.9" font-family="Arial" font-size="14.00" fill="#000000">status    </text>
<text text-anchor="start" x="491.0512" y="-1604.9" font-family="Arial" font-size="14.00" fill="#666666">[longtext]</text>
</g>
<!-- contribution&#45;&gt;episode -->
<g id="edge2" class="edge">
<title>contribution:episode_id&#45;&gt;episode:id</title>
<path fill="none" stroke="#000000" d="M558.7762,-2424.6056C611.1128,-2414.8157 586.2215,-2327.0058 548.5,-2278 510.3614,-2228.4523 450.6386,-2291.5477 412.5,-2242 387.1527,-2209.0701 370.9444,-2148.5 412.5,-2148.5"/>
<polygon fill="#000000" stroke="#000000" points="558.4623,-2424.6329 548.1098,-2421.0169 553.4812,-2425.0664 548.5,-2425.5 548.5,-2425.5 548.5,-2425.5 553.4812,-2425.0664 548.8902,-2429.9831 558.4623,-2424.6329 558.4623,-2424.6329"/>
</g>
<!-- person -->
<g id="node3" class="node">
<title>person</title>
<polygon fill="#efefef" stroke="transparent" points="43.5,-1421.5 43.5,-1456.5 270.5,-1456.5 270.5,-1421.5 43.5,-1421.5"/>
<polygon fill="none" stroke="#000000" points="43.5,-1421.5 43.5,-1456.5 270.5,-1456.5 270.5,-1421.5 43.5,-1421.5"/>
<text text-anchor="start" x="65.7075" y="-1434.3" font-family="Arial Bold" font-size="18.00" fill="#000000">person</text>
<text text-anchor="start" x="120.7245" y="-1434.3" font-family="Arial" font-size="14.00" fill="#000000">    </text>
<text text-anchor="start" x="154.9293" y="-1434.3" font-family="Arial" font-size="14.00" fill="#666666">[BASE TABLE]</text>
<polygon fill="none" stroke="#000000" points="43.5,-1391.5 43.5,-1421.5 270.5,-1421.5 270.5,-1391.5 43.5,-1391.5"/>
<text text-anchor="start" x="50.5" y="-1402.9" font-family="Arial" font-size="14.00" fill="#000000">id    </text>
<text text-anchor="start" x="95.594" y="-1402.9" font-family="Arial" font-size="14.00" fill="#666666">[int(11)]</text>
<polygon fill="none" stroke="#000000" points="43.5,-1361.5 43.5,-1391.5 270.5,-1391.5 270.5,-1361.5 43.5,-1361.5"/>
<text text-anchor="start" x="50.5" y="-1372.9" font-family="Arial" font-size="14.00" fill="#000000">fullname    </text>
<text text-anchor="start" x="137.5996" y="-1372.9" font-family="Arial" font-size="14.00" fill="#666666">[varchar(255)]</text>
<polygon fill="none" stroke="#000000" points="43.5,-1331.5 43.5,-1361.5 270.5,-1361.5 270.5,-1331.5 43.5,-1331.5"/>
<text text-anchor="start" x="50.0484" y="-1342.9" font-family="Arial" font-size="14.00" fill="#000000">sortable_name    </text>
<text text-anchor="start" x="176.8324" y="-1342.9" font-family="Arial" font-size="14.00" fill="#666666">[varchar(255)]</text>
<polygon fill="none" stroke="#000000" points="43.5,-1301.5 43.5,-1331.5 270.5,-1331.5 270.5,-1301.5 43.5,-1301.5"/>
<text text-anchor="start" x="50.5" y="-1312.9" font-family="Arial" font-size="14.00" fill="#000000">location    </text>
<text text-anchor="start" x="132.939" y="-1312.9" font-family="Arial" font-size="14.00" fill="#666666">[varchar(255)]</text>
<polygon fill="none" stroke="#000000" points="43.5,-1271.5 43.5,-1301.5 270.5,-1301.5 270.5,-1271.5 43.5,-1271.5"/>
<text text-anchor="start" x="50.5" y="-1282.9" font-family="Arial" font-size="14.00" fill="#000000">bio    </text>
<text text-anchor="start" x="103.3766" y="-1282.9" font-family="Arial" font-size="14.00" fill="#666666">[longtext]</text>
<polygon fill="none" stroke="#000000" points="43.5,-1241.5 43.5,-1271.5 270.5,-1271.5 270.5,-1241.5 43.5,-1241.5"/>
<text text-anchor="start" x="50.5" y="-1252.9" font-family="Arial" font-size="14.00" fill="#000000">created    </text>
<text text-anchor="start" x="131.3864" y="-1252.9" font-family="Arial" font-size="14.00" fill="#666666">[datetime]</text>
<polygon fill="none" stroke="#000000" points="43.5,-1211.5 43.5,-1241.5 270.5,-1241.5 270.5,-1211.5 43.5,-1211.5"/>
<text text-anchor="start" x="50.5" y="-1222.9" font-family="Arial" font-size="14.00" fill="#000000">updated    </text>
<text text-anchor="start" x="135.291" y="-1222.9" font-family="Arial" font-size="14.00" fill="#666666">[datetime]</text>
<polygon fill="none" stroke="#000000" points="43.5,-1181.5 43.5,-1211.5 270.5,-1211.5 270.5,-1181.5 43.5,-1181.5"/>
<text text-anchor="start" x="50.5" y="-1192.9" font-family="Arial" font-size="14.00" fill="#000000">institution    </text>
<text text-anchor="start" x="143.8268" y="-1192.9" font-family="Arial" font-size="14.00" fill="#666666">[varchar(255)]</text>
<polygon fill="none" stroke="#000000" points="43.5,-1151.5 43.5,-1181.5 270.5,-1181.5 270.5,-1151.5 43.5,-1151.5"/>
<text text-anchor="start" x="50.5" y="-1162.9" font-family="Arial" font-size="14.00" fill="#000000">podcast_id    </text>
<text text-anchor="start" x="152.3976" y="-1162.9" font-family="Arial" font-size="14.00" fill="#666666">[int(11)]</text>
</g>
<!-- contribution&#45;&gt;person -->
<g id="edge1" class="edge">
<title>contribution:person_id&#45;&gt;person:id</title>
<path fill="none" stroke="#000000" d="M304.7922,-2512.882C202.397,-2453.575 390.3267,-1406.5 270.5,-1406.5"/>
<polygon fill="#000000" stroke="#000000" points="304.8449,-2512.8961 313.3283,-2519.8448 309.6725,-2514.1981 314.5,-2515.5 314.5,-2515.5 314.5,-2515.5 309.6725,-2514.1981 315.6717,-2511.1552 304.8449,-2512.8961 304.8449,-2512.8961"/>
</g>
<!-- podcast -->
<g id="node4" class="node">
<title>podcast</title>
<polygon fill="#efefef" stroke="transparent" points="249.5,-979.5 249.5,-1014.5 480.5,-1014.5 480.5,-979.5 249.5,-979.5"/>
<polygon fill="none" stroke="#000000" points="249.5,-979.5 249.5,-1014.5 480.5,-1014.5 480.5,-979.5 249.5,-979.5"/>
<text text-anchor="start" x="269.7025" y="-992.3" font-family="Arial Bold" font-size="18.00" fill="#000000">podcast</text>
<text text-anchor="start" x="332.7295" y="-992.3" font-family="Arial" font-size="14.00" fill="#000000">    </text>
<text text-anchor="start" x="366.9343" y="-992.3" font-family="Arial" font-size="14.00" fill="#666666">[BASE TABLE]</text>
<polygon fill="none" stroke="#000000" points="249.5,-949.5 249.5,-979.5 480.5,-979.5 480.5,-949.5 249.5,-949.5"/>
<text text-anchor="start" x="256.5" y="-960.9" font-family="Arial" font-size="14.00" fill="#000000">id    </text>
<text text-anchor="start" x="301.594" y="-960.9" font-family="Arial" font-size="14.00" fill="#666666">[int(11)]</text>
<polygon fill="none" stroke="#000000" points="249.5,-919.5 249.5,-949.5 480.5,-949.5 480.5,-919.5 249.5,-919.5"/>
<text text-anchor="start" x="256.5" y="-930.9" font-family="Arial" font-size="14.00" fill="#000000">publisher_id    </text>
<text text-anchor="start" x="366.1634" y="-930.9" font-family="Arial" font-size="14.00" fill="#666666">[int(11)]</text>
<polygon fill="none" stroke="#000000" points="249.5,-889.5 249.5,-919.5 480.5,-919.5 480.5,-889.5 249.5,-889.5"/>
<text text-anchor="start" x="256.5" y="-900.9" font-family="Arial" font-size="14.00" fill="#000000">title    </text>
<text text-anchor="start" x="312.4818" y="-900.9" font-family="Arial" font-size="14.00" fill="#666666">[varchar(255)]</text>
<polygon fill="none" stroke="#000000" points="249.5,-859.5 249.5,-889.5 480.5,-889.5 480.5,-859.5 249.5,-859.5"/>
<text text-anchor="start" x="256.5" y="-870.9" font-family="Arial" font-size="14.00" fill="#000000">sub_title    </text>
<text text-anchor="start" x="342.8296" y="-870.9" font-family="Arial" font-size="14.00" fill="#666666">[varchar(255)]</text>
<polygon fill="none" stroke="#000000" points="249.5,-829.5 249.5,-859.5 480.5,-859.5 480.5,-829.5 249.5,-829.5"/>
<text text-anchor="start" x="256.5" y="-840.9" font-family="Arial" font-size="14.00" fill="#000000">explicit    </text>
<text text-anchor="start" x="333.4804" y="-840.9" font-family="Arial" font-size="14.00" fill="#666666">[tinyint(1)]</text>
<polygon fill="none" stroke="#000000" points="249.5,-799.5 249.5,-829.5 480.5,-829.5 480.5,-799.5 249.5,-799.5"/>
<text text-anchor="start" x="256.5" y="-810.9" font-family="Arial" font-size="14.00" fill="#000000">description    </text>
<text text-anchor="start" x="358.3822" y="-810.9" font-family="Arial" font-size="14.00" fill="#666666">[longtext]</text>
<polygon fill="none" stroke="#000000" points="249.5,-769.5 249.5,-799.5 480.5,-799.5 480.5,-769.5 249.5,-769.5"/>
<text text-anchor="start" x="256.5" y="-780.9" font-family="Arial" font-size="14.00" fill="#000000">copyright    </text>
<text text-anchor="start" x="347.493" y="-780.9" font-family="Arial" font-size="14.00" fill="#666666">[longtext]</text>
<polygon fill="none" stroke="#000000" points="249.5,-739.5 249.5,-769.5 480.5,-769.5 480.5,-739.5 249.5,-739.5"/>
<text text-anchor="start" x="256.5" y="-750.9" font-family="Arial" font-size="14.00" fill="#000000">website    </text>
<text text-anchor="start" x="338.1564" y="-750.9" font-family="Arial" font-size="14.00" fill="#666666">[longtext]</text>
<polygon fill="none" stroke="#000000" points="249.5,-709.5 249.5,-739.5 480.5,-739.5 480.5,-709.5 249.5,-709.5"/>
<text text-anchor="start" x="256.5" y="-720.9" font-family="Arial" font-size="14.00" fill="#000000">rss    </text>
<text text-anchor="start" x="309.3654" y="-720.9" font-family="Arial" font-size="14.00" fill="#666666">[varchar(255)]</text>
<polygon fill="none" stroke="#000000" points="249.5,-679.5 249.5,-709.5 480.5,-709.5 480.5,-679.5 249.5,-679.5"/>
<text text-anchor="start" x="256.5" y="-690.9" font-family="Arial" font-size="14.00" fill="#000000">created    </text>
<text text-anchor="start" x="337.3864" y="-690.9" font-family="Arial" font-size="14.00" fill="#666666">[datetime]</text>
<polygon fill="none" stroke="#000000" points="249.5,-649.5 249.5,-679.5 480.5,-679.5 480.5,-649.5 249.5,-649.5"/>
<text text-anchor="start" x="256.5" y="-660.9" font-family="Arial" font-size="14.00" fill="#000000">updated    </text>
<text text-anchor="start" x="341.291" y="-660.9" font-family="Arial" font-size="14.00" fill="#666666">[datetime]</text>
<polygon fill="none" stroke="#000000" points="249.5,-619.5 249.5,-649.5 480.5,-649.5 480.5,-619.5 249.5,-619.5"/>
<text text-anchor="start" x="256.5" y="-630.9" font-family="Arial" font-size="14.00" fill="#000000">license    </text>
<text text-anchor="start" x="334.2658" y="-630.9" font-family="Arial" font-size="14.00" fill="#666666">[longtext]</text>
<polygon fill="none" stroke="#000000" points="249.5,-589.5 249.5,-619.5 480.5,-619.5 480.5,-589.5 249.5,-589.5"/>
<text text-anchor="start" x="256.5" y="-600.9" font-family="Arial" font-size="14.00" fill="#000000">guid    </text>
<text text-anchor="start" x="317.1592" y="-600.9" font-family="Arial" font-size="14.00" fill="#666666">[varchar(255)]</text>
<polygon fill="none" stroke="#000000" points="249.5,-559.5 249.5,-589.5 480.5,-589.5 480.5,-559.5 249.5,-559.5"/>
<text text-anchor="start" x="256.4804" y="-570.9" font-family="Arial" font-size="14.00" fill="#000000">language_code    </text>
<text text-anchor="start" x="386.4004" y="-570.9" font-family="Arial" font-size="14.00" fill="#666666">[varchar(255)]</text>
<polygon fill="none" stroke="#000000" points="249.5,-529.5 249.5,-559.5 480.5,-559.5 480.5,-529.5 249.5,-529.5"/>
<text text-anchor="start" x="256.5" y="-540.9" font-family="Arial" font-size="14.00" fill="#000000">categories    </text>
<text text-anchor="start" x="355.2756" y="-540.9" font-family="Arial" font-size="14.00" fill="#666666">[longtext]</text>
<polygon fill="none" stroke="#000000" points="249.5,-499.5 249.5,-529.5 480.5,-529.5 480.5,-499.5 249.5,-499.5"/>
<text text-anchor="start" x="256.5" y="-510.9" font-family="Arial" font-size="14.00" fill="#000000">keywords    </text>
<text text-anchor="start" x="349.8198" y="-510.9" font-family="Arial" font-size="14.00" fill="#666666">[longtext]</text>
<polygon fill="none" stroke="#000000" points="249.5,-469.5 249.5,-499.5 480.5,-499.5 480.5,-469.5 249.5,-469.5"/>
<text text-anchor="start" x="256.5" y="-480.9" font-family="Arial" font-size="14.00" fill="#000000">status    </text>
<text text-anchor="start" x="328.0512" y="-480.9" font-family="Arial" font-size="14.00" fill="#666666">[longtext]</text>
</g>
<!-- contribution&#45;&gt;podcast -->
<g id="edge4" class="edge">
<title>contribution:podcast_id&#45;&gt;podcast:id</title>
<path fill="none" stroke="#000000" d="M304.0618,-2484.9277C229.6497,-2476.0823 314.0364,-2366.4385 314.5,-2278 315.1897,-2146.4432 391.9716,-1205.72 322.5,-1094 303.3971,-1063.2799 268.6029,-1088.7201 249.5,-1058 227.5559,-1022.7109 207.9444,-964.5 249.5,-964.5"/>
<polygon fill="#000000" stroke="#000000" points="304.515,-2484.9525 314.2536,-2489.9933 309.5075,-2485.2263 314.5,-2485.5 314.5,-2485.5 314.5,-2485.5 309.5075,-2485.2263 314.7464,-2481.0067 304.515,-2484.9525 304.515,-2484.9525"/>
</g>
<!-- season -->
<g id="node6" class="node">
<title>season</title>
<polygon fill="#efefef" stroke="transparent" points="451.5,-1436.5 451.5,-1471.5 650.5,-1471.5 650.5,-1436.5 451.5,-1436.5"/>
<polygon fill="none" stroke="#000000" points="451.5,-1436.5 451.5,-1471.5 650.5,-1471.5 650.5,-1436.5 451.5,-1436.5"/>
<text text-anchor="start" x="458.2036" y="-1449.3" font-family="Arial Bold" font-size="18.00" fill="#000000">season</text>
<text text-anchor="start" x="516.2284" y="-1449.3" font-family="Arial" font-size="14.00" fill="#000000">    </text>
<text text-anchor="start" x="550.4332" y="-1449.3" font-family="Arial" font-size="14.00" fill="#666666">[BASE TABLE]</text>
<polygon fill="none" stroke="#000000" points="451.5,-1406.5 451.5,-1436.5 650.5,-1436.5 650.5,-1406.5 451.5,-1406.5"/>
<text text-anchor="start" x="458.5" y="-1417.9" font-family="Arial" font-size="14.00" fill="#000000">id    </text>
<text text-anchor="start" x="503.594" y="-1417.9" font-family="Arial" font-size="14.00" fill="#666666">[int(11)]</text>
<polygon fill="none" stroke="#000000" points="451.5,-1376.5 451.5,-1406.5 650.5,-1406.5 650.5,-1376.5 451.5,-1376.5"/>
<text text-anchor="start" x="458.5" y="-1387.9" font-family="Arial" font-size="14.00" fill="#000000">podcast_id    </text>
<text text-anchor="start" x="560.3976" y="-1387.9" font-family="Arial" font-size="14.00" fill="#666666">[int(11)]</text>
<polygon fill="none" stroke="#000000" points="451.5,-1346.5 451.5,-1376.5 650.5,-1376.5 650.5,-1346.5 451.5,-1346.5"/>
<text text-anchor="start" x="458.5" y="-1357.9" font-family="Arial" font-size="14.00" fill="#000000">publisher_id    </text>
<text text-anchor="start" x="568.1634" y="-1357.9" font-family="Arial" font-size="14.00" fill="#666666">[int(11)]</text>
<polygon fill="none" stroke="#000000" points="451.5,-1316.5 451.5,-1346.5 650.5,-1346.5 650.5,-1316.5 451.5,-1316.5"/>
<text text-anchor="start" x="458.5" y="-1327.9" font-family="Arial" font-size="14.00" fill="#000000">number    </text>
<text text-anchor="start" x="540.1564" y="-1327.9" font-family="Arial" font-size="14.00" fill="#666666">[int(11)]</text>
<polygon fill="none" stroke="#000000" points="451.5,-1286.5 451.5,-1316.5 650.5,-1316.5 650.5,-1286.5 451.5,-1286.5"/>
<text text-anchor="start" x="458.5" y="-1297.9" font-family="Arial" font-size="14.00" fill="#000000">title    </text>
<text text-anchor="start" x="514.4818" y="-1297.9" font-family="Arial" font-size="14.00" fill="#666666">[varchar(255)]</text>
<polygon fill="none" stroke="#000000" points="451.5,-1256.5 451.5,-1286.5 650.5,-1286.5 650.5,-1256.5 451.5,-1256.5"/>
<text text-anchor="start" x="458.5" y="-1267.9" font-family="Arial" font-size="14.00" fill="#000000">sub_title    </text>
<text text-anchor="start" x="544.8296" y="-1267.9" font-family="Arial" font-size="14.00" fill="#666666">[varchar(255)]</text>
<polygon fill="none" stroke="#000000" points="451.5,-1226.5 451.5,-1256.5 650.5,-1256.5 650.5,-1226.5 451.5,-1226.5"/>
<text text-anchor="start" x="458.5" y="-1237.9" font-family="Arial" font-size="14.00" fill="#000000">description    </text>
<text text-anchor="start" x="560.3822" y="-1237.9" font-family="Arial" font-size="14.00" fill="#666666">[longtext]</text>
<polygon fill="none" stroke="#000000" points="451.5,-1196.5 451.5,-1226.5 650.5,-1226.5 650.5,-1196.5 451.5,-1196.5"/>
<text text-anchor="start" x="458.5" y="-1207.9" font-family="Arial" font-size="14.00" fill="#000000">created    </text>
<text text-anchor="start" x="539.3864" y="-1207.9" font-family="Arial" font-size="14.00" fill="#666666">[datetime]</text>
<polygon fill="none" stroke="#000000" points="451.5,-1166.5 451.5,-1196.5 650.5,-1196.5 650.5,-1166.5 451.5,-1166.5"/>
<text text-anchor="start" x="458.5" y="-1177.9" font-family="Arial" font-size="14.00" fill="#000000">updated    </text>
<text text-anchor="start" x="543.291" y="-1177.9" font-family="Arial" font-size="14.00" fill="#666666">[datetime]</text>
<polygon fill="none" stroke="#000000" points="451.5,-1136.5 451.5,-1166.5 650.5,-1166.5 650.5,-1136.5 451.5,-1136.5"/>
<text text-anchor="start" x="458.5" y="-1147.9" font-family="Arial" font-size="14.00" fill="#000000">status    </text>
<text text-anchor="start" x="530.0512" y="-1147.9" font-family="Arial" font-size="14.00" fill="#666666">[longtext]</text>
</g>
<!-- contribution&#45;&gt;season -->
<g id="edge3" class="edge">
<title>contribution:season_id&#45;&gt;season:id</title>
<path fill="none" stroke="#000000" d="M558.6531,-2455.1931C660.0057,-2448.8832 652.4817,-2346.2953 682.5,-2242 732.9703,-2066.6467 832.9719,-1421.5 650.5,-1421.5"/>
<polygon fill="#000000" stroke="#000000" points="558.4954,-2455.1978 548.364,-2451.0021 553.4977,-2455.3489 548.5,-2455.5 548.5,-2455.5 548.5,-2455.5 553.4977,-2455.3489 548.636,-2459.9979 558.4954,-2455.1978 558.4954,-2455.1978"/>
</g>
<!-- episode&#45;&gt;podcast -->
<g id="edge6" class="edge">
<title>episode:podcast_id&#45;&gt;podcast:id</title>
<path fill="none" stroke="#000000" d="M404.8824,-2081.9335C358.4742,-1998.0555 370.8611,-1138.0684 399.5,-1094 420.9671,-1060.9672 459.0329,-1091.0328 480.5,-1058 503.1442,-1023.156 522.0556,-964.5 480.5,-964.5"/>
<polygon fill="#000000" stroke="#000000" points="404.9257,-2081.9708 409.5619,-2091.9085 408.7128,-2085.2354 412.5,-2088.5 412.5,-2088.5 412.5,-2088.5 408.7128,-2085.2354 415.4381,-2085.0915 404.9257,-2081.9708 404.9257,-2081.9708"/>
</g>
<!-- episode&#45;&gt;season -->
<g id="edge5" class="edge">
<title>episode:season_id&#45;&gt;season:id</title>
<path fill="none" stroke="#000000" d="M639.7669,-2114.3175C691.0718,-2065.0986 668.3436,-1597.2123 630.5,-1551 579.0864,-1488.2168 502.9136,-1577.7832 451.5,-1515 425.1715,-1482.8492 409.9444,-1421.5 451.5,-1421.5"/>
<polygon fill="#000000" stroke="#000000" points="639.6147,-2114.3862 628.6488,-2114.3984 635.0573,-2116.4431 630.5,-2118.5 630.5,-2118.5 630.5,-2118.5 635.0573,-2116.4431 632.3512,-2122.6016 639.6147,-2114.3862 639.6147,-2114.3862"/>
</g>
<!-- person&#45;&gt;podcast -->
<g id="edge7" class="edge">
<title>person:podcast_id&#45;&gt;podcast:id</title>
<path fill="none" stroke="#000000" d="M280.1641,-1163.5896C289.1587,-1155.083 274.5683,-1129.565 270.5,-1109 265.7429,-1084.953 254.2571,-1082.047 249.5,-1058 241.4356,-1017.2345 207.9444,-964.5 249.5,-964.5"/>
<polygon fill="#000000" stroke="#000000" points="280.0752,-1163.6163 269.2023,-1162.1912 275.2876,-1165.0581 270.5,-1166.5 270.5,-1166.5 270.5,-1166.5 275.2876,-1165.0581 271.7977,-1170.8088 280.0752,-1163.6163 280.0752,-1163.6163"/>
</g>
<!-- publisher -->
<g id="node5" class="node">
<title>publisher</title>
<polygon fill="#efefef" stroke="transparent" points="258.5,-312.5 258.5,-347.5 472.5,-347.5 472.5,-312.5 258.5,-312.5"/>
<polygon fill="none" stroke="#000000" points="258.5,-312.5 258.5,-347.5 472.5,-347.5 472.5,-312.5 258.5,-312.5"/>
<text text-anchor="start" x="265.2102" y="-325.3" font-family="Arial Bold" font-size="18.00" fill="#000000">publisher</text>
<text text-anchor="start" x="338.2218" y="-325.3" font-family="Arial" font-size="14.00" fill="#000000">    </text>
<text text-anchor="start" x="372.4266" y="-325.3" font-family="Arial" font-size="14.00" fill="#666666">[BASE TABLE]</text>
<polygon fill="none" stroke="#000000" points="258.5,-282.5 258.5,-312.5 472.5,-312.5 472.5,-282.5 258.5,-282.5"/>
<text text-anchor="start" x="265.5" y="-293.9" font-family="Arial" font-size="14.00" fill="#000000">id    </text>
<text text-anchor="start" x="310.594" y="-293.9" font-family="Arial" font-size="14.00" fill="#666666">[int(11)]</text>
<polygon fill="none" stroke="#000000" points="258.5,-252.5 258.5,-282.5 472.5,-282.5 472.5,-252.5 258.5,-252.5"/>
<text text-anchor="start" x="265.5" y="-263.9" font-family="Arial" font-size="14.00" fill="#000000">name    </text>
<text text-anchor="start" x="334.7132" y="-263.9" font-family="Arial" font-size="14.00" fill="#666666">[varchar(255)]</text>
<polygon fill="none" stroke="#000000" points="258.5,-222.5 258.5,-252.5 472.5,-252.5 472.5,-222.5 258.5,-222.5"/>
<text text-anchor="start" x="265.5" y="-233.9" font-family="Arial" font-size="14.00" fill="#000000">location    </text>
<text text-anchor="start" x="347.939" y="-233.9" font-family="Arial" font-size="14.00" fill="#666666">[varchar(255)]</text>
<polygon fill="none" stroke="#000000" points="258.5,-192.5 258.5,-222.5 472.5,-222.5 472.5,-192.5 258.5,-192.5"/>
<text text-anchor="start" x="265.5" y="-203.9" font-family="Arial" font-size="14.00" fill="#000000">website    </text>
<text text-anchor="start" x="347.1564" y="-203.9" font-family="Arial" font-size="14.00" fill="#666666">[varchar(255)]</text>
<polygon fill="none" stroke="#000000" points="258.5,-162.5 258.5,-192.5 472.5,-192.5 472.5,-162.5 258.5,-162.5"/>
<text text-anchor="start" x="265.5" y="-173.9" font-family="Arial" font-size="14.00" fill="#000000">description    </text>
<text text-anchor="start" x="367.3822" y="-173.9" font-family="Arial" font-size="14.00" fill="#666666">[longtext]</text>
<polygon fill="none" stroke="#000000" points="258.5,-132.5 258.5,-162.5 472.5,-162.5 472.5,-132.5 258.5,-132.5"/>
<text text-anchor="start" x="265.5" y="-143.9" font-family="Arial" font-size="14.00" fill="#000000">contact    </text>
<text text-anchor="start" x="344.8338" y="-143.9" font-family="Arial" font-size="14.00" fill="#666666">[longtext]</text>
<polygon fill="none" stroke="#000000" points="258.5,-102.5 258.5,-132.5 472.5,-132.5 472.5,-102.5 258.5,-102.5"/>
<text text-anchor="start" x="265.5" y="-113.9" font-family="Arial" font-size="14.00" fill="#000000">created    </text>
<text text-anchor="start" x="346.3864" y="-113.9" font-family="Arial" font-size="14.00" fill="#666666">[datetime]</text>
<polygon fill="none" stroke="#000000" points="258.5,-72.5 258.5,-102.5 472.5,-102.5 472.5,-72.5 258.5,-72.5"/>
<text text-anchor="start" x="265.5" y="-83.9" font-family="Arial" font-size="14.00" fill="#000000">updated    </text>
<text text-anchor="start" x="350.291" y="-83.9" font-family="Arial" font-size="14.00" fill="#666666">[datetime]</text>
<polygon fill="none" stroke="#000000" points="258.5,-42.5 258.5,-72.5 472.5,-72.5 472.5,-42.5 258.5,-42.5"/>
<text text-anchor="start" x="265.5" y="-53.9" font-family="Arial" font-size="14.00" fill="#000000">podcast_id    </text>
<text text-anchor="start" x="367.3976" y="-53.9" font-family="Arial" font-size="14.00" fill="#666666">[int(11)]</text>
</g>
<!-- podcast&#45;&gt;publisher -->
<g id="edge8" class="edge">
<title>podcast:publisher_id&#45;&gt;publisher:id</title>
<path fill="none" stroke="#000000" d="M489.6389,-929.8935C534.5058,-881.5075 514.9015,-467.4295 480.5,-427 415.7241,-350.8738 323.2759,-467.1262 258.5,-391 231.5701,-359.3513 216.9444,-297.5 258.5,-297.5"/>
<polygon fill="#000000" stroke="#000000" points="489.4298,-929.9989 478.4745,-930.4816 484.9649,-932.2494 480.5,-934.5 480.5,-934.5 480.5,-934.5 484.9649,-932.2494 482.5255,-938.5184 489.4298,-929.9989 489.4298,-929.9989"/>
</g>
<!-- publisher&#45;&gt;podcast -->
<g id="edge9" class="edge">
<title>publisher:podcast_id&#45;&gt;podcast:id</title>
<path fill="none" stroke="#000000" d="M248.4063,-57.8593C112.7472,-67.7821 164.6964,-280.7596 258.5,-391 323.2759,-467.1262 415.7241,-350.8738 480.5,-427 519.2028,-472.4845 540.2222,-964.5 480.5,-964.5"/>
<polygon fill="#000000" stroke="#000000" points="248.5063,-57.8559 258.6601,-61.9972 253.5032,-57.6779 258.5,-57.5 258.5,-57.5 258.5,-57.5 253.5032,-57.6779 258.3399,-53.0028 248.5063,-57.8559 248.5063,-57.8559"/>
</g>
<!-- season&#45;&gt;podcast -->
<g id="edge11" class="edge">
<title>season:podcast_id&#45;&gt;podcast:id</title>
<path fill="none" stroke="#000000" d="M441.621,-1389.4569C390.1486,-1366.297 430.7139,-1152.9376 451.5,-1094 458.3335,-1074.6241 473.6665,-1077.3759 480.5,-1058 494.3214,-1018.8103 522.0556,-964.5 480.5,-964.5"/>
<polygon fill="#000000" stroke="#000000" points="441.7072,-1389.4746 450.5886,-1395.9067 446.6036,-1390.4873 451.5,-1391.5 451.5,-1391.5 451.5,-1391.5 446.6036,-1390.4873 452.4114,-1387.0933 441.7072,-1389.4746 441.7072,-1389.4746"/>
</g>
<!-- season&#45;&gt;publisher -->
<g id="edge10" class="edge">
<title>season:publisher_id&#45;&gt;publisher:id</title>
<path fill="none" stroke="#000000" d="M660.7672,-1360.8218C885.0022,-1330.5564 708.7186,-297.5 472.5,-297.5"/>
<polygon fill="#000000" stroke="#000000" points="660.4783,-1360.8408 650.2033,-1357.0098 655.4891,-1361.1704 650.5,-1361.5 650.5,-1361.5 650.5,-1361.5 655.4891,-1361.1704 650.7967,-1365.9902 660.4783,-1360.8408 660.4783,-1360.8408"/>
</g>
</g>
</svg>
