<?xml version="1.0" encoding="UTF-8" standalone="no"?>
<!DOCTYPE svg PUBLIC "-//W3C//DTD SVG 1.1//EN"
 "http://www.w3.org/Graphics/SVG/1.1/DTD/svg11.dtd">
<!-- Generated by graphviz version 2.40.1 (20161225.0304)
 -->
<!-- Title: amplify Pages: 1 -->
<svg width="1204pt" height="2617pt"
 viewBox="0.00 0.00 1204.15 2617.00" xmlns="http://www.w3.org/2000/svg" xmlns:xlink="http://www.w3.org/1999/xlink">
<g id="graph0" class="graph" transform="scale(1 1) rotate(0) translate(4 2613)">
<title>amplify</title>
<polygon fill="#ffffff" stroke="transparent" points="-4,4 -4,-2613 1200.1546,-2613 1200.1546,4 -4,4"/>
<!-- contribution -->
<g id="node1" class="node">
<title>contribution</title>
<polygon fill="#efefef" stroke="transparent" points="609.1013,-2530.5 609.1013,-2565.5 843.1013,-2565.5 843.1013,-2530.5 609.1013,-2530.5"/>
<polygon fill="none" stroke="#000000" points="609.1013,-2530.5 609.1013,-2565.5 843.1013,-2565.5 843.1013,-2530.5 609.1013,-2530.5"/>
<text text-anchor="start" x="615.8062" y="-2543.3" font-family="Arial Bold" font-size="18.00" fill="#000000">contribution</text>
<text text-anchor="start" x="708.8284" y="-2543.3" font-family="Arial" font-size="14.00" fill="#000000">    </text>
<text text-anchor="start" x="743.0332" y="-2543.3" font-family="Arial" font-size="14.00" fill="#666666">[BASE TABLE]</text>
<polygon fill="none" stroke="#000000" points="609.1013,-2500.5 609.1013,-2530.5 843.1013,-2530.5 843.1013,-2500.5 609.1013,-2500.5"/>
<text text-anchor="start" x="616.1013" y="-2511.9" font-family="Arial" font-size="14.00" fill="#000000">id    </text>
<text text-anchor="start" x="661.1953" y="-2511.9" font-family="Arial" font-size="14.00" fill="#666666">[int(11)]</text>
<polygon fill="none" stroke="#000000" points="609.1013,-2470.5 609.1013,-2500.5 843.1013,-2500.5 843.1013,-2470.5 609.1013,-2470.5"/>
<text text-anchor="start" x="616.1013" y="-2481.9" font-family="Arial" font-size="14.00" fill="#000000">person_id    </text>
<text text-anchor="start" x="711.7689" y="-2481.9" font-family="Arial" font-size="14.00" fill="#666666">[int(11)]</text>
<polygon fill="none" stroke="#000000" points="609.1013,-2440.5 609.1013,-2470.5 843.1013,-2470.5 843.1013,-2440.5 609.1013,-2440.5"/>
<text text-anchor="start" x="616.1013" y="-2451.9" font-family="Arial" font-size="14.00" fill="#000000">contributor_role_id    </text>
<text text-anchor="start" x="766.2149" y="-2451.9" font-family="Arial" font-size="14.00" fill="#666666">[int(11)]</text>
<polygon fill="none" stroke="#000000" points="609.1013,-2410.5 609.1013,-2440.5 843.1013,-2440.5 843.1013,-2410.5 609.1013,-2410.5"/>
<text text-anchor="start" x="616.1013" y="-2421.9" font-family="Arial" font-size="14.00" fill="#000000">podcast_id    </text>
<text text-anchor="start" x="717.9989" y="-2421.9" font-family="Arial" font-size="14.00" fill="#666666">[int(11)]</text>
<polygon fill="none" stroke="#000000" points="609.1013,-2380.5 609.1013,-2410.5 843.1013,-2410.5 843.1013,-2380.5 609.1013,-2380.5"/>
<text text-anchor="start" x="616.1013" y="-2391.9" font-family="Arial" font-size="14.00" fill="#000000">season_id    </text>
<text text-anchor="start" x="714.1083" y="-2391.9" font-family="Arial" font-size="14.00" fill="#666666">[int(11)]</text>
<polygon fill="none" stroke="#000000" points="609.1013,-2350.5 609.1013,-2380.5 843.1013,-2380.5 843.1013,-2350.5 609.1013,-2350.5"/>
<text text-anchor="start" x="616.1013" y="-2361.9" font-family="Arial" font-size="14.00" fill="#000000">episode_id    </text>
<text text-anchor="start" x="717.9975" y="-2361.9" font-family="Arial" font-size="14.00" fill="#666666">[int(11)]</text>
<polygon fill="none" stroke="#000000" points="609.1013,-2320.5 609.1013,-2350.5 843.1013,-2350.5 843.1013,-2320.5 609.1013,-2320.5"/>
<text text-anchor="start" x="616.1013" y="-2331.9" font-family="Arial" font-size="14.00" fill="#000000">created    </text>
<text text-anchor="start" x="696.9877" y="-2331.9" font-family="Arial" font-size="14.00" fill="#666666">[datetime]</text>
<polygon fill="none" stroke="#000000" points="609.1013,-2290.5 609.1013,-2320.5 843.1013,-2320.5 843.1013,-2290.5 609.1013,-2290.5"/>
<text text-anchor="start" x="616.1013" y="-2301.9" font-family="Arial" font-size="14.00" fill="#000000">updated    </text>
<text text-anchor="start" x="700.8923" y="-2301.9" font-family="Arial" font-size="14.00" fill="#666666">[datetime]</text>
</g>
<!-- contributor_role -->
<g id="node2" class="node">
<title>contributor_role</title>
<polygon fill="#efefef" stroke="transparent" points="389.1013,-1953.5 389.1013,-1988.5 655.1013,-1988.5 655.1013,-1953.5 389.1013,-1953.5"/>
<polygon fill="none" stroke="#000000" points="389.1013,-1953.5 389.1013,-1988.5 655.1013,-1988.5 655.1013,-1953.5 389.1013,-1953.5"/>
<text text-anchor="start" x="395.8078" y="-1966.3" font-family="Arial Bold" font-size="18.00" fill="#000000">contributor_role</text>
<text text-anchor="start" x="520.8268" y="-1966.3" font-family="Arial" font-size="14.00" fill="#000000">    </text>
<text text-anchor="start" x="555.0316" y="-1966.3" font-family="Arial" font-size="14.00" fill="#666666">[BASE TABLE]</text>
<polygon fill="none" stroke="#000000" points="389.1013,-1923.5 389.1013,-1953.5 655.1013,-1953.5 655.1013,-1923.5 389.1013,-1923.5"/>
<text text-anchor="start" x="396.1013" y="-1934.9" font-family="Arial" font-size="14.00" fill="#000000">id    </text>
<text text-anchor="start" x="441.1953" y="-1934.9" font-family="Arial" font-size="14.00" fill="#666666">[int(11)]</text>
<polygon fill="none" stroke="#000000" points="389.1013,-1893.5 389.1013,-1923.5 655.1013,-1923.5 655.1013,-1893.5 389.1013,-1893.5"/>
<text text-anchor="start" x="396.1013" y="-1904.9" font-family="Arial" font-size="14.00" fill="#000000">name    </text>
<text text-anchor="start" x="465.3145" y="-1904.9" font-family="Arial" font-size="14.00" fill="#666666">[varchar(191)]</text>
<polygon fill="none" stroke="#000000" points="389.1013,-1863.5 389.1013,-1893.5 655.1013,-1893.5 655.1013,-1863.5 389.1013,-1863.5"/>
<text text-anchor="start" x="396.1013" y="-1874.9" font-family="Arial" font-size="14.00" fill="#000000">label    </text>
<text text-anchor="start" x="459.8671" y="-1874.9" font-family="Arial" font-size="14.00" fill="#666666">[varchar(200)]</text>
<polygon fill="none" stroke="#000000" points="389.1013,-1833.5 389.1013,-1863.5 655.1013,-1863.5 655.1013,-1833.5 389.1013,-1833.5"/>
<text text-anchor="start" x="396.1013" y="-1844.9" font-family="Arial" font-size="14.00" fill="#000000">description    </text>
<text text-anchor="start" x="497.9835" y="-1844.9" font-family="Arial" font-size="14.00" fill="#666666">[longtext]</text>
<polygon fill="none" stroke="#000000" points="389.1013,-1803.5 389.1013,-1833.5 655.1013,-1833.5 655.1013,-1803.5 389.1013,-1803.5"/>
<text text-anchor="start" x="396.1013" y="-1814.9" font-family="Arial" font-size="14.00" fill="#000000">created    </text>
<text text-anchor="start" x="476.9877" y="-1814.9" font-family="Arial" font-size="14.00" fill="#666666">[datetime]</text>
<polygon fill="none" stroke="#000000" points="389.1013,-1773.5 389.1013,-1803.5 655.1013,-1803.5 655.1013,-1773.5 389.1013,-1773.5"/>
<text text-anchor="start" x="396.1013" y="-1784.9" font-family="Arial" font-size="14.00" fill="#000000">updated    </text>
<text text-anchor="start" x="480.8923" y="-1784.9" font-family="Arial" font-size="14.00" fill="#666666">[datetime]</text>
<polygon fill="none" stroke="#000000" points="389.1013,-1743.5 389.1013,-1773.5 655.1013,-1773.5 655.1013,-1743.5 389.1013,-1743.5"/>
<text text-anchor="start" x="396.1013" y="-1754.9" font-family="Arial" font-size="14.00" fill="#000000">relator_term    </text>
<text text-anchor="start" x="505.7493" y="-1754.9" font-family="Arial" font-size="14.00" fill="#666666">[varchar(10)]</text>
</g>
<!-- contribution&#45;&gt;contributor_role -->
<g id="edge1" class="edge">
<title>contribution:contributor_role_id&#45;&gt;contributor_role:id</title>
<path fill="none" stroke="#000000" d="M599.1038,-2452.7105C542.9599,-2417.0773 653.0256,-2051.7119 655.1013,-2032 659.4531,-1990.6729 696.6568,-1938.5 655.1013,-1938.5"/>
<polygon fill="#000000" stroke="#000000" points="599.4692,-2452.8124 607.8919,-2459.8344 604.2852,-2454.1562 609.1013,-2455.5 609.1013,-2455.5 609.1013,-2455.5 604.2852,-2454.1562 610.3107,-2451.1656 599.4692,-2452.8124 599.4692,-2452.8124"/>
</g>
<!-- episode -->
<g id="node3" class="node">
<title>episode</title>
<polygon fill="#efefef" stroke="transparent" points="797.1013,-2133.5 797.1013,-2168.5 1015.1013,-2168.5 1015.1013,-2133.5 797.1013,-2133.5"/>
<polygon fill="none" stroke="#000000" points="797.1013,-2133.5 797.1013,-2168.5 1015.1013,-2168.5 1015.1013,-2133.5 797.1013,-2133.5"/>
<text text-anchor="start" x="810.8047" y="-2146.3" font-family="Arial Bold" font-size="18.00" fill="#000000">episode</text>
<text text-anchor="start" x="873.8299" y="-2146.3" font-family="Arial" font-size="14.00" fill="#000000">    </text>
<text text-anchor="start" x="908.0347" y="-2146.3" font-family="Arial" font-size="14.00" fill="#666666">[BASE TABLE]</text>
<polygon fill="none" stroke="#000000" points="797.1013,-2103.5 797.1013,-2133.5 1015.1013,-2133.5 1015.1013,-2103.5 797.1013,-2103.5"/>
<text text-anchor="start" x="804.1013" y="-2114.9" font-family="Arial" font-size="14.00" fill="#000000">id    </text>
<text text-anchor="start" x="849.1953" y="-2114.9" font-family="Arial" font-size="14.00" fill="#666666">[int(11)]</text>
<polygon fill="none" stroke="#000000" points="797.1013,-2073.5 797.1013,-2103.5 1015.1013,-2103.5 1015.1013,-2073.5 797.1013,-2073.5"/>
<text text-anchor="start" x="804.1013" y="-2084.9" font-family="Arial" font-size="14.00" fill="#000000">season_id    </text>
<text text-anchor="start" x="902.1083" y="-2084.9" font-family="Arial" font-size="14.00" fill="#666666">[int(11)]</text>
<polygon fill="none" stroke="#000000" points="797.1013,-2043.5 797.1013,-2073.5 1015.1013,-2073.5 1015.1013,-2043.5 797.1013,-2043.5"/>
<text text-anchor="start" x="804.1013" y="-2054.9" font-family="Arial" font-size="14.00" fill="#000000">podcast_id    </text>
<text text-anchor="start" x="905.9989" y="-2054.9" font-family="Arial" font-size="14.00" fill="#666666">[int(11)]</text>
<polygon fill="none" stroke="#000000" points="797.1013,-2013.5 797.1013,-2043.5 1015.1013,-2043.5 1015.1013,-2013.5 797.1013,-2013.5"/>
<text text-anchor="start" x="804.1013" y="-2024.9" font-family="Arial" font-size="14.00" fill="#000000">number    </text>
<text text-anchor="start" x="885.7577" y="-2024.9" font-family="Arial" font-size="14.00" fill="#666666">[int(11)]</text>
<polygon fill="none" stroke="#000000" points="797.1013,-1983.5 797.1013,-2013.5 1015.1013,-2013.5 1015.1013,-1983.5 797.1013,-1983.5"/>
<text text-anchor="start" x="804.1013" y="-1994.9" font-family="Arial" font-size="14.00" fill="#000000">date    </text>
<text text-anchor="start" x="865.5445" y="-1994.9" font-family="Arial" font-size="14.00" fill="#666666">[date]</text>
<polygon fill="none" stroke="#000000" points="797.1013,-1953.5 797.1013,-1983.5 1015.1013,-1983.5 1015.1013,-1953.5 797.1013,-1953.5"/>
<text text-anchor="start" x="804.1013" y="-1964.9" font-family="Arial" font-size="14.00" fill="#000000">run_time    </text>
<text text-anchor="start" x="892.7549" y="-1964.9" font-family="Arial" font-size="14.00" fill="#666666">[varchar(9)]</text>
<polygon fill="none" stroke="#000000" points="797.1013,-1923.5 797.1013,-1953.5 1015.1013,-1953.5 1015.1013,-1923.5 797.1013,-1923.5"/>
<text text-anchor="start" x="804.1013" y="-1934.9" font-family="Arial" font-size="14.00" fill="#000000">title    </text>
<text text-anchor="start" x="860.0831" y="-1934.9" font-family="Arial" font-size="14.00" fill="#666666">[varchar(255)]</text>
<polygon fill="none" stroke="#000000" points="797.1013,-1893.5 797.1013,-1923.5 1015.1013,-1923.5 1015.1013,-1893.5 797.1013,-1893.5"/>
<text text-anchor="start" x="804.1013" y="-1904.9" font-family="Arial" font-size="14.00" fill="#000000">sub_title    </text>
<text text-anchor="start" x="890.4309" y="-1904.9" font-family="Arial" font-size="14.00" fill="#666666">[varchar(255)]</text>
<polygon fill="none" stroke="#000000" points="797.1013,-1863.5 797.1013,-1893.5 1015.1013,-1893.5 1015.1013,-1863.5 797.1013,-1863.5"/>
<text text-anchor="start" x="804.1013" y="-1874.9" font-family="Arial" font-size="14.00" fill="#000000">bibliography    </text>
<text text-anchor="start" x="913.7647" y="-1874.9" font-family="Arial" font-size="14.00" fill="#666666">[longtext]</text>
<polygon fill="none" stroke="#000000" points="797.1013,-1833.5 797.1013,-1863.5 1015.1013,-1863.5 1015.1013,-1833.5 797.1013,-1833.5"/>
<text text-anchor="start" x="804.1013" y="-1844.9" font-family="Arial" font-size="14.00" fill="#000000">transcript    </text>
<text text-anchor="start" x="895.8629" y="-1844.9" font-family="Arial" font-size="14.00" fill="#666666">[longtext]</text>
<polygon fill="none" stroke="#000000" points="797.1013,-1803.5 797.1013,-1833.5 1015.1013,-1833.5 1015.1013,-1803.5 797.1013,-1803.5"/>
<text text-anchor="start" x="804.1013" y="-1814.9" font-family="Arial" font-size="14.00" fill="#000000">description    </text>
<text text-anchor="start" x="905.9835" y="-1814.9" font-family="Arial" font-size="14.00" fill="#666666">[longtext]</text>
<polygon fill="none" stroke="#000000" points="797.1013,-1773.5 797.1013,-1803.5 1015.1013,-1803.5 1015.1013,-1773.5 797.1013,-1773.5"/>
<text text-anchor="start" x="804.1013" y="-1784.9" font-family="Arial" font-size="14.00" fill="#000000">created    </text>
<text text-anchor="start" x="884.9877" y="-1784.9" font-family="Arial" font-size="14.00" fill="#666666">[datetime]</text>
<polygon fill="none" stroke="#000000" points="797.1013,-1743.5 797.1013,-1773.5 1015.1013,-1773.5 1015.1013,-1743.5 797.1013,-1743.5"/>
<text text-anchor="start" x="804.1013" y="-1754.9" font-family="Arial" font-size="14.00" fill="#000000">updated    </text>
<text text-anchor="start" x="888.8923" y="-1754.9" font-family="Arial" font-size="14.00" fill="#666666">[datetime]</text>
<polygon fill="none" stroke="#000000" points="797.1013,-1713.5 797.1013,-1743.5 1015.1013,-1743.5 1015.1013,-1713.5 797.1013,-1713.5"/>
<text text-anchor="start" x="804.1013" y="-1724.9" font-family="Arial" font-size="14.00" fill="#000000">keywords    </text>
<text text-anchor="start" x="897.4211" y="-1724.9" font-family="Arial" font-size="14.00" fill="#666666">[longtext]</text>
<polygon fill="none" stroke="#000000" points="797.1013,-1683.5 797.1013,-1713.5 1015.1013,-1713.5 1015.1013,-1683.5 797.1013,-1683.5"/>
<text text-anchor="start" x="804.1013" y="-1694.9" font-family="Arial" font-size="14.00" fill="#000000">permissions    </text>
<text text-anchor="start" x="912.9709" y="-1694.9" font-family="Arial" font-size="14.00" fill="#666666">[longtext]</text>
<polygon fill="none" stroke="#000000" points="797.1013,-1653.5 797.1013,-1683.5 1015.1013,-1683.5 1015.1013,-1653.5 797.1013,-1653.5"/>
<text text-anchor="start" x="804.1013" y="-1664.9" font-family="Arial" font-size="14.00" fill="#000000">guid    </text>
<text text-anchor="start" x="864.7605" y="-1664.9" font-family="Arial" font-size="14.00" fill="#666666">[varchar(255)]</text>
<polygon fill="none" stroke="#000000" points="797.1013,-1623.5 797.1013,-1653.5 1015.1013,-1653.5 1015.1013,-1623.5 797.1013,-1623.5"/>
<text text-anchor="start" x="803.8103" y="-1634.9" font-family="Arial" font-size="14.00" fill="#000000">episode_type    </text>
<text text-anchor="start" x="921.2731" y="-1634.9" font-family="Arial" font-size="14.00" fill="#666666">[varchar(255)]</text>
<polygon fill="none" stroke="#000000" points="797.1013,-1593.5 797.1013,-1623.5 1015.1013,-1623.5 1015.1013,-1593.5 797.1013,-1593.5"/>
<text text-anchor="start" x="804.1013" y="-1604.9" font-family="Arial" font-size="14.00" fill="#000000">explicit    </text>
<text text-anchor="start" x="881.0817" y="-1604.9" font-family="Arial" font-size="14.00" fill="#666666">[tinyint(1)]</text>
<polygon fill="none" stroke="#000000" points="797.1013,-1563.5 797.1013,-1593.5 1015.1013,-1593.5 1015.1013,-1563.5 797.1013,-1563.5"/>
<text text-anchor="start" x="804.1013" y="-1574.9" font-family="Arial" font-size="14.00" fill="#000000">status    </text>
<text text-anchor="start" x="875.6525" y="-1574.9" font-family="Arial" font-size="14.00" fill="#666666">[longtext]</text>
</g>
<!-- contribution&#45;&gt;episode -->
<g id="edge3" class="edge">
<title>contribution:episode_id&#45;&gt;episode:id</title>
<path fill="none" stroke="#000000" d="M853.2006,-2365.3898C1051.3686,-2360.9293 802.1846,-2222.4332 797.1013,-2212 778.8999,-2174.6426 755.5457,-2118.5 797.1013,-2118.5"/>
<polygon fill="#000000" stroke="#000000" points="853.1007,-2365.3908 843.0522,-2361.0003 848.101,-2365.4454 843.1013,-2365.5 843.1013,-2365.5 843.1013,-2365.5 848.101,-2365.4454 843.1504,-2369.9997 853.1007,-2365.3908 853.1007,-2365.3908"/>
</g>
<!-- person -->
<g id="node5" class="node">
<title>person</title>
<polygon fill="#efefef" stroke="transparent" points="58.1013,-1968.5 58.1013,-2003.5 285.1013,-2003.5 285.1013,-1968.5 58.1013,-1968.5"/>
<polygon fill="none" stroke="#000000" points="58.1013,-1968.5 58.1013,-2003.5 285.1013,-2003.5 285.1013,-1968.5 58.1013,-1968.5"/>
<text text-anchor="start" x="80.3088" y="-1981.3" font-family="Arial Bold" font-size="18.00" fill="#000000">person</text>
<text text-anchor="start" x="135.3258" y="-1981.3" font-family="Arial" font-size="14.00" fill="#000000">    </text>
<text text-anchor="start" x="169.5306" y="-1981.3" font-family="Arial" font-size="14.00" fill="#666666">[BASE TABLE]</text>
<polygon fill="none" stroke="#000000" points="58.1013,-1938.5 58.1013,-1968.5 285.1013,-1968.5 285.1013,-1938.5 58.1013,-1938.5"/>
<text text-anchor="start" x="65.1013" y="-1949.9" font-family="Arial" font-size="14.00" fill="#000000">id    </text>
<text text-anchor="start" x="110.1953" y="-1949.9" font-family="Arial" font-size="14.00" fill="#666666">[int(11)]</text>
<polygon fill="none" stroke="#000000" points="58.1013,-1908.5 58.1013,-1938.5 285.1013,-1938.5 285.1013,-1908.5 58.1013,-1908.5"/>
<text text-anchor="start" x="65.1013" y="-1919.9" font-family="Arial" font-size="14.00" fill="#000000">fullname    </text>
<text text-anchor="start" x="152.2009" y="-1919.9" font-family="Arial" font-size="14.00" fill="#666666">[varchar(255)]</text>
<polygon fill="none" stroke="#000000" points="58.1013,-1878.5 58.1013,-1908.5 285.1013,-1908.5 285.1013,-1878.5 58.1013,-1878.5"/>
<text text-anchor="start" x="64.6497" y="-1889.9" font-family="Arial" font-size="14.00" fill="#000000">sortable_name    </text>
<text text-anchor="start" x="191.4337" y="-1889.9" font-family="Arial" font-size="14.00" fill="#666666">[varchar(255)]</text>
<polygon fill="none" stroke="#000000" points="58.1013,-1848.5 58.1013,-1878.5 285.1013,-1878.5 285.1013,-1848.5 58.1013,-1848.5"/>
<text text-anchor="start" x="65.1013" y="-1859.9" font-family="Arial" font-size="14.00" fill="#000000">location    </text>
<text text-anchor="start" x="147.5403" y="-1859.9" font-family="Arial" font-size="14.00" fill="#666666">[varchar(255)]</text>
<polygon fill="none" stroke="#000000" points="58.1013,-1818.5 58.1013,-1848.5 285.1013,-1848.5 285.1013,-1818.5 58.1013,-1818.5"/>
<text text-anchor="start" x="65.1013" y="-1829.9" font-family="Arial" font-size="14.00" fill="#000000">bio    </text>
<text text-anchor="start" x="117.9779" y="-1829.9" font-family="Arial" font-size="14.00" fill="#666666">[longtext]</text>
<polygon fill="none" stroke="#000000" points="58.1013,-1788.5 58.1013,-1818.5 285.1013,-1818.5 285.1013,-1788.5 58.1013,-1788.5"/>
<text text-anchor="start" x="65.1013" y="-1799.9" font-family="Arial" font-size="14.00" fill="#000000">created    </text>
<text text-anchor="start" x="145.9877" y="-1799.9" font-family="Arial" font-size="14.00" fill="#666666">[datetime]</text>
<polygon fill="none" stroke="#000000" points="58.1013,-1758.5 58.1013,-1788.5 285.1013,-1788.5 285.1013,-1758.5 58.1013,-1758.5"/>
<text text-anchor="start" x="65.1013" y="-1769.9" font-family="Arial" font-size="14.00" fill="#000000">updated    </text>
<text text-anchor="start" x="149.8923" y="-1769.9" font-family="Arial" font-size="14.00" fill="#666666">[datetime]</text>
<polygon fill="none" stroke="#000000" points="58.1013,-1728.5 58.1013,-1758.5 285.1013,-1758.5 285.1013,-1728.5 58.1013,-1728.5"/>
<text text-anchor="start" x="65.1013" y="-1739.9" font-family="Arial" font-size="14.00" fill="#000000">institution_id    </text>
<text text-anchor="start" x="177.0999" y="-1739.9" font-family="Arial" font-size="14.00" fill="#666666">[int(11)]</text>
</g>
<!-- contribution&#45;&gt;person -->
<g id="edge2" class="edge">
<title>contribution:person_id&#45;&gt;person:id</title>
<path fill="none" stroke="#000000" d="M598.7435,-2485.3465C436.8289,-2480.4723 416.2142,-2360.1146 337.1013,-2212 309.4949,-2160.3155 343.6965,-1953.5 285.1013,-1953.5"/>
<polygon fill="#000000" stroke="#000000" points="599.1024,-2485.3517 609.0346,-2489.9995 604.1018,-2485.4259 609.1013,-2485.5 609.1013,-2485.5 609.1013,-2485.5 604.1018,-2485.4259 609.168,-2481.0005 599.1024,-2485.3517 599.1024,-2485.3517"/>
</g>
<!-- podcast -->
<g id="node6" class="node">
<title>podcast</title>
<polygon fill="#efefef" stroke="transparent" points="715.1013,-949.5 715.1013,-984.5 946.1013,-984.5 946.1013,-949.5 715.1013,-949.5"/>
<polygon fill="none" stroke="#000000" points="715.1013,-949.5 715.1013,-984.5 946.1013,-984.5 946.1013,-949.5 715.1013,-949.5"/>
<text text-anchor="start" x="735.3038" y="-962.3" font-family="Arial Bold" font-size="18.00" fill="#000000">podcast</text>
<text text-anchor="start" x="798.3308" y="-962.3" font-family="Arial" font-size="14.00" fill="#000000">    </text>
<text text-anchor="start" x="832.5356" y="-962.3" font-family="Arial" font-size="14.00" fill="#666666">[BASE TABLE]</text>
<polygon fill="none" stroke="#000000" points="715.1013,-919.5 715.1013,-949.5 946.1013,-949.5 946.1013,-919.5 715.1013,-919.5"/>
<text text-anchor="start" x="722.1013" y="-930.9" font-family="Arial" font-size="14.00" fill="#000000">id    </text>
<text text-anchor="start" x="767.1953" y="-930.9" font-family="Arial" font-size="14.00" fill="#666666">[int(11)]</text>
<polygon fill="none" stroke="#000000" points="715.1013,-889.5 715.1013,-919.5 946.1013,-919.5 946.1013,-889.5 715.1013,-889.5"/>
<text text-anchor="start" x="722.1013" y="-900.9" font-family="Arial" font-size="14.00" fill="#000000">publisher_id    </text>
<text text-anchor="start" x="831.7647" y="-900.9" font-family="Arial" font-size="14.00" fill="#666666">[int(11)]</text>
<polygon fill="none" stroke="#000000" points="715.1013,-859.5 715.1013,-889.5 946.1013,-889.5 946.1013,-859.5 715.1013,-859.5"/>
<text text-anchor="start" x="722.1013" y="-870.9" font-family="Arial" font-size="14.00" fill="#000000">title    </text>
<text text-anchor="start" x="778.0831" y="-870.9" font-family="Arial" font-size="14.00" fill="#666666">[varchar(255)]</text>
<polygon fill="none" stroke="#000000" points="715.1013,-829.5 715.1013,-859.5 946.1013,-859.5 946.1013,-829.5 715.1013,-829.5"/>
<text text-anchor="start" x="722.1013" y="-840.9" font-family="Arial" font-size="14.00" fill="#000000">sub_title    </text>
<text text-anchor="start" x="808.4309" y="-840.9" font-family="Arial" font-size="14.00" fill="#666666">[varchar(255)]</text>
<polygon fill="none" stroke="#000000" points="715.1013,-799.5 715.1013,-829.5 946.1013,-829.5 946.1013,-799.5 715.1013,-799.5"/>
<text text-anchor="start" x="722.1013" y="-810.9" font-family="Arial" font-size="14.00" fill="#000000">explicit    </text>
<text text-anchor="start" x="799.0817" y="-810.9" font-family="Arial" font-size="14.00" fill="#666666">[tinyint(1)]</text>
<polygon fill="none" stroke="#000000" points="715.1013,-769.5 715.1013,-799.5 946.1013,-799.5 946.1013,-769.5 715.1013,-769.5"/>
<text text-anchor="start" x="722.1013" y="-780.9" font-family="Arial" font-size="14.00" fill="#000000">description    </text>
<text text-anchor="start" x="823.9835" y="-780.9" font-family="Arial" font-size="14.00" fill="#666666">[longtext]</text>
<polygon fill="none" stroke="#000000" points="715.1013,-739.5 715.1013,-769.5 946.1013,-769.5 946.1013,-739.5 715.1013,-739.5"/>
<text text-anchor="start" x="722.1013" y="-750.9" font-family="Arial" font-size="14.00" fill="#000000">copyright    </text>
<text text-anchor="start" x="813.0943" y="-750.9" font-family="Arial" font-size="14.00" fill="#666666">[longtext]</text>
<polygon fill="none" stroke="#000000" points="715.1013,-709.5 715.1013,-739.5 946.1013,-739.5 946.1013,-709.5 715.1013,-709.5"/>
<text text-anchor="start" x="722.1013" y="-720.9" font-family="Arial" font-size="14.00" fill="#000000">website    </text>
<text text-anchor="start" x="803.7577" y="-720.9" font-family="Arial" font-size="14.00" fill="#666666">[longtext]</text>
<polygon fill="none" stroke="#000000" points="715.1013,-679.5 715.1013,-709.5 946.1013,-709.5 946.1013,-679.5 715.1013,-679.5"/>
<text text-anchor="start" x="722.1013" y="-690.9" font-family="Arial" font-size="14.00" fill="#000000">rss    </text>
<text text-anchor="start" x="774.9667" y="-690.9" font-family="Arial" font-size="14.00" fill="#666666">[varchar(255)]</text>
<polygon fill="none" stroke="#000000" points="715.1013,-649.5 715.1013,-679.5 946.1013,-679.5 946.1013,-649.5 715.1013,-649.5"/>
<text text-anchor="start" x="722.1013" y="-660.9" font-family="Arial" font-size="14.00" fill="#000000">created    </text>
<text text-anchor="start" x="802.9877" y="-660.9" font-family="Arial" font-size="14.00" fill="#666666">[datetime]</text>
<polygon fill="none" stroke="#000000" points="715.1013,-619.5 715.1013,-649.5 946.1013,-649.5 946.1013,-619.5 715.1013,-619.5"/>
<text text-anchor="start" x="722.1013" y="-630.9" font-family="Arial" font-size="14.00" fill="#000000">updated    </text>
<text text-anchor="start" x="806.8923" y="-630.9" font-family="Arial" font-size="14.00" fill="#666666">[datetime]</text>
<polygon fill="none" stroke="#000000" points="715.1013,-589.5 715.1013,-619.5 946.1013,-619.5 946.1013,-589.5 715.1013,-589.5"/>
<text text-anchor="start" x="722.1013" y="-600.9" font-family="Arial" font-size="14.00" fill="#000000">license    </text>
<text text-anchor="start" x="799.8671" y="-600.9" font-family="Arial" font-size="14.00" fill="#666666">[longtext]</text>
<polygon fill="none" stroke="#000000" points="715.1013,-559.5 715.1013,-589.5 946.1013,-589.5 946.1013,-559.5 715.1013,-559.5"/>
<text text-anchor="start" x="722.1013" y="-570.9" font-family="Arial" font-size="14.00" fill="#000000">guid    </text>
<text text-anchor="start" x="782.7605" y="-570.9" font-family="Arial" font-size="14.00" fill="#666666">[varchar(255)]</text>
<polygon fill="none" stroke="#000000" points="715.1013,-529.5 715.1013,-559.5 946.1013,-559.5 946.1013,-529.5 715.1013,-529.5"/>
<text text-anchor="start" x="722.0817" y="-540.9" font-family="Arial" font-size="14.00" fill="#000000">language_code    </text>
<text text-anchor="start" x="852.0017" y="-540.9" font-family="Arial" font-size="14.00" fill="#666666">[varchar(255)]</text>
<polygon fill="none" stroke="#000000" points="715.1013,-499.5 715.1013,-529.5 946.1013,-529.5 946.1013,-499.5 715.1013,-499.5"/>
<text text-anchor="start" x="722.1013" y="-510.9" font-family="Arial" font-size="14.00" fill="#000000">categories    </text>
<text text-anchor="start" x="820.8769" y="-510.9" font-family="Arial" font-size="14.00" fill="#666666">[longtext]</text>
<polygon fill="none" stroke="#000000" points="715.1013,-469.5 715.1013,-499.5 946.1013,-499.5 946.1013,-469.5 715.1013,-469.5"/>
<text text-anchor="start" x="722.1013" y="-480.9" font-family="Arial" font-size="14.00" fill="#000000">keywords    </text>
<text text-anchor="start" x="815.4211" y="-480.9" font-family="Arial" font-size="14.00" fill="#666666">[longtext]</text>
<polygon fill="none" stroke="#000000" points="715.1013,-439.5 715.1013,-469.5 946.1013,-469.5 946.1013,-439.5 715.1013,-439.5"/>
<text text-anchor="start" x="722.1013" y="-450.9" font-family="Arial" font-size="14.00" fill="#000000">status    </text>
<text text-anchor="start" x="793.6525" y="-450.9" font-family="Arial" font-size="14.00" fill="#666666">[longtext]</text>
</g>
<!-- contribution&#45;&gt;podcast -->
<g id="edge5" class="edge">
<title>contribution:podcast_id&#45;&gt;podcast:id</title>
<path fill="none" stroke="#000000" d="M853.4631,-2424.773C918.8023,-2415.0297 886.1373,-2309.657 843.1013,-2248 816.5432,-2209.9506 772.1392,-2249.7099 745.1013,-2212 724.418,-2183.1528 679.6054,-934.5 715.1013,-934.5"/>
<polygon fill="#000000" stroke="#000000" points="853.0768,-2424.8 842.7863,-2421.011 848.089,-2425.15 843.1013,-2425.5 843.1013,-2425.5 843.1013,-2425.5 848.089,-2425.15 843.4163,-2429.989 853.0768,-2424.8 853.0768,-2424.8"/>
</g>
<!-- season -->
<g id="node8" class="node">
<title>season</title>
<polygon fill="#efefef" stroke="transparent" points="914.1013,-1406.5 914.1013,-1441.5 1113.1013,-1441.5 1113.1013,-1406.5 914.1013,-1406.5"/>
<polygon fill="none" stroke="#000000" points="914.1013,-1406.5 914.1013,-1441.5 1113.1013,-1441.5 1113.1013,-1406.5 914.1013,-1406.5"/>
<text text-anchor="start" x="920.8049" y="-1419.3" font-family="Arial Bold" font-size="18.00" fill="#000000">season</text>
<text text-anchor="start" x="978.8297" y="-1419.3" font-family="Arial" font-size="14.00" fill="#000000">    </text>
<text text-anchor="start" x="1013.0345" y="-1419.3" font-family="Arial" font-size="14.00" fill="#666666">[BASE TABLE]</text>
<polygon fill="none" stroke="#000000" points="914.1013,-1376.5 914.1013,-1406.5 1113.1013,-1406.5 1113.1013,-1376.5 914.1013,-1376.5"/>
<text text-anchor="start" x="921.1013" y="-1387.9" font-family="Arial" font-size="14.00" fill="#000000">id    </text>
<text text-anchor="start" x="966.1953" y="-1387.9" font-family="Arial" font-size="14.00" fill="#666666">[int(11)]</text>
<polygon fill="none" stroke="#000000" points="914.1013,-1346.5 914.1013,-1376.5 1113.1013,-1376.5 1113.1013,-1346.5 914.1013,-1346.5"/>
<text text-anchor="start" x="921.1013" y="-1357.9" font-family="Arial" font-size="14.00" fill="#000000">podcast_id    </text>
<text text-anchor="start" x="1022.9989" y="-1357.9" font-family="Arial" font-size="14.00" fill="#666666">[int(11)]</text>
<polygon fill="none" stroke="#000000" points="914.1013,-1316.5 914.1013,-1346.5 1113.1013,-1346.5 1113.1013,-1316.5 914.1013,-1316.5"/>
<text text-anchor="start" x="921.1013" y="-1327.9" font-family="Arial" font-size="14.00" fill="#000000">publisher_id    </text>
<text text-anchor="start" x="1030.7647" y="-1327.9" font-family="Arial" font-size="14.00" fill="#666666">[int(11)]</text>
<polygon fill="none" stroke="#000000" points="914.1013,-1286.5 914.1013,-1316.5 1113.1013,-1316.5 1113.1013,-1286.5 914.1013,-1286.5"/>
<text text-anchor="start" x="921.1013" y="-1297.9" font-family="Arial" font-size="14.00" fill="#000000">number    </text>
<text text-anchor="start" x="1002.7577" y="-1297.9" font-family="Arial" font-size="14.00" fill="#666666">[int(11)]</text>
<polygon fill="none" stroke="#000000" points="914.1013,-1256.5 914.1013,-1286.5 1113.1013,-1286.5 1113.1013,-1256.5 914.1013,-1256.5"/>
<text text-anchor="start" x="921.1013" y="-1267.9" font-family="Arial" font-size="14.00" fill="#000000">title    </text>
<text text-anchor="start" x="977.0831" y="-1267.9" font-family="Arial" font-size="14.00" fill="#666666">[varchar(255)]</text>
<polygon fill="none" stroke="#000000" points="914.1013,-1226.5 914.1013,-1256.5 1113.1013,-1256.5 1113.1013,-1226.5 914.1013,-1226.5"/>
<text text-anchor="start" x="921.1013" y="-1237.9" font-family="Arial" font-size="14.00" fill="#000000">sub_title    </text>
<text text-anchor="start" x="1007.4309" y="-1237.9" font-family="Arial" font-size="14.00" fill="#666666">[varchar(255)]</text>
<polygon fill="none" stroke="#000000" points="914.1013,-1196.5 914.1013,-1226.5 1113.1013,-1226.5 1113.1013,-1196.5 914.1013,-1196.5"/>
<text text-anchor="start" x="921.1013" y="-1207.9" font-family="Arial" font-size="14.00" fill="#000000">description    </text>
<text text-anchor="start" x="1022.9835" y="-1207.9" font-family="Arial" font-size="14.00" fill="#666666">[longtext]</text>
<polygon fill="none" stroke="#000000" points="914.1013,-1166.5 914.1013,-1196.5 1113.1013,-1196.5 1113.1013,-1166.5 914.1013,-1166.5"/>
<text text-anchor="start" x="921.1013" y="-1177.9" font-family="Arial" font-size="14.00" fill="#000000">created    </text>
<text text-anchor="start" x="1001.9877" y="-1177.9" font-family="Arial" font-size="14.00" fill="#666666">[datetime]</text>
<polygon fill="none" stroke="#000000" points="914.1013,-1136.5 914.1013,-1166.5 1113.1013,-1166.5 1113.1013,-1136.5 914.1013,-1136.5"/>
<text text-anchor="start" x="921.1013" y="-1147.9" font-family="Arial" font-size="14.00" fill="#000000">updated    </text>
<text text-anchor="start" x="1005.8923" y="-1147.9" font-family="Arial" font-size="14.00" fill="#666666">[datetime]</text>
<polygon fill="none" stroke="#000000" points="914.1013,-1106.5 914.1013,-1136.5 1113.1013,-1136.5 1113.1013,-1106.5 914.1013,-1106.5"/>
<text text-anchor="start" x="921.1013" y="-1117.9" font-family="Arial" font-size="14.00" fill="#000000">status    </text>
<text text-anchor="start" x="992.6525" y="-1117.9" font-family="Arial" font-size="14.00" fill="#666666">[longtext]</text>
</g>
<!-- contribution&#45;&gt;season -->
<g id="edge4" class="edge">
<title>contribution:season_id&#45;&gt;season:id</title>
<path fill="none" stroke="#000000" d="M853.3228,-2395.3883C1403.0866,-2383.2815 1130.6571,-1391.5 1113.1013,-1391.5"/>
<polygon fill="#000000" stroke="#000000" points="853.1007,-2395.3906 843.052,-2391.0003 848.101,-2395.4453 843.1013,-2395.5 843.1013,-2395.5 843.1013,-2395.5 848.101,-2395.4453 843.1505,-2399.9997 853.1007,-2395.3906 853.1007,-2395.3906"/>
</g>
<!-- episode&#45;&gt;podcast -->
<g id="edge7" class="edge">
<title>episode:podcast_id&#45;&gt;podcast:id</title>
<path fill="none" stroke="#000000" d="M787.3539,-2055.8966C693.1006,-2002.6378 796.8732,-1149.1662 862.1013,-1064 886.7985,-1031.7537 923.7417,-1061.9091 946.1013,-1028 968.9772,-993.3077 987.6568,-934.5 946.1013,-934.5"/>
<polygon fill="#000000" stroke="#000000" points="787.4399,-2055.9195 795.9401,-2062.8476 792.2706,-2057.2098 797.1013,-2058.5 797.1013,-2058.5 797.1013,-2058.5 792.2706,-2057.2098 798.2625,-2054.1524 787.4399,-2055.9195 787.4399,-2055.9195"/>
</g>
<!-- episode&#45;&gt;season -->
<g id="edge6" class="edge">
<title>episode:season_id&#45;&gt;season:id</title>
<path fill="none" stroke="#000000" d="M1024.3397,-2084.3392C1075.3123,-2035.373 1049.5242,-1569.8137 1015.1013,-1521 987.6374,-1482.0546 941.5652,-1523.9454 914.1013,-1485 890.1526,-1451.0394 872.5457,-1391.5 914.1013,-1391.5"/>
<polygon fill="#000000" stroke="#000000" points="1024.2192,-2084.3934 1013.2533,-2084.3969 1019.6602,-2086.4467 1015.1013,-2088.5 1015.1013,-2088.5 1015.1013,-2088.5 1019.6602,-2086.4467 1016.9493,-2092.6031 1024.2192,-2084.3934 1024.2192,-2084.3934"/>
</g>
<!-- institution -->
<g id="node4" class="node">
<title>institution</title>
<polygon fill="#efefef" stroke="transparent" points="63.1013,-1331.5 63.1013,-1366.5 280.1013,-1366.5 280.1013,-1331.5 63.1013,-1331.5"/>
<polygon fill="none" stroke="#000000" points="63.1013,-1331.5 63.1013,-1366.5 280.1013,-1366.5 280.1013,-1331.5 63.1013,-1331.5"/>
<text text-anchor="start" x="69.8103" y="-1344.3" font-family="Arial Bold" font-size="18.00" fill="#000000">institution</text>
<text text-anchor="start" x="145.8243" y="-1344.3" font-family="Arial" font-size="14.00" fill="#000000">    </text>
<text text-anchor="start" x="180.0291" y="-1344.3" font-family="Arial" font-size="14.00" fill="#666666">[BASE TABLE]</text>
<polygon fill="none" stroke="#000000" points="63.1013,-1301.5 63.1013,-1331.5 280.1013,-1331.5 280.1013,-1301.5 63.1013,-1301.5"/>
<text text-anchor="start" x="70.1013" y="-1312.9" font-family="Arial" font-size="14.00" fill="#000000">id    </text>
<text text-anchor="start" x="115.1953" y="-1312.9" font-family="Arial" font-size="14.00" fill="#666666">[int(11)]</text>
<polygon fill="none" stroke="#000000" points="63.1013,-1271.5 63.1013,-1301.5 280.1013,-1301.5 280.1013,-1271.5 63.1013,-1271.5"/>
<text text-anchor="start" x="70.1013" y="-1282.9" font-family="Arial" font-size="14.00" fill="#000000">country    </text>
<text text-anchor="start" x="150.2051" y="-1282.9" font-family="Arial" font-size="14.00" fill="#666666">[varchar(40)]</text>
<polygon fill="none" stroke="#000000" points="63.1013,-1241.5 63.1013,-1271.5 280.1013,-1271.5 280.1013,-1241.5 63.1013,-1241.5"/>
<text text-anchor="start" x="70.1013" y="-1252.9" font-family="Arial" font-size="14.00" fill="#000000">name    </text>
<text text-anchor="start" x="139.3145" y="-1252.9" font-family="Arial" font-size="14.00" fill="#666666">[varchar(100)]</text>
<polygon fill="none" stroke="#000000" points="63.1013,-1211.5 63.1013,-1241.5 280.1013,-1241.5 280.1013,-1211.5 63.1013,-1211.5"/>
<text text-anchor="start" x="70.1013" y="-1222.9" font-family="Arial" font-size="14.00" fill="#000000">created    </text>
<text text-anchor="start" x="150.9877" y="-1222.9" font-family="Arial" font-size="14.00" fill="#666666">[datetime]</text>
<polygon fill="none" stroke="#000000" points="63.1013,-1181.5 63.1013,-1211.5 280.1013,-1211.5 280.1013,-1181.5 63.1013,-1181.5"/>
<text text-anchor="start" x="70.1013" y="-1192.9" font-family="Arial" font-size="14.00" fill="#000000">updated    </text>
<text text-anchor="start" x="154.8923" y="-1192.9" font-family="Arial" font-size="14.00" fill="#666666">[datetime]</text>
</g>
<!-- person&#45;&gt;institution -->
<g id="edge8" class="edge">
<title>person:institution_id&#45;&gt;institution:id</title>
<path fill="none" stroke="#000000" d="M171.8289,-1718.4822C161.761,-1531.3323 -122.9803,-1316.5 63.1013,-1316.5"/>
<polygon fill="#000000" stroke="#000000" points="171.8294,-1718.5037 167.6029,-1728.6223 171.9654,-1723.5018 172.1013,-1728.5 172.1013,-1728.5 172.1013,-1728.5 171.9654,-1723.5018 176.5996,-1728.3777 171.8294,-1718.5037 171.8294,-1718.5037"/>
</g>
<!-- publisher -->
<g id="node7" class="node">
<title>publisher</title>
<polygon fill="#efefef" stroke="transparent" points="817.1013,-282.5 817.1013,-317.5 1031.1013,-317.5 1031.1013,-282.5 817.1013,-282.5"/>
<polygon fill="none" stroke="#000000" points="817.1013,-282.5 817.1013,-317.5 1031.1013,-317.5 1031.1013,-282.5 817.1013,-282.5"/>
<text text-anchor="start" x="823.8115" y="-295.3" font-family="Arial Bold" font-size="18.00" fill="#000000">publisher</text>
<text text-anchor="start" x="896.8231" y="-295.3" font-family="Arial" font-size="14.00" fill="#000000">    </text>
<text text-anchor="start" x="931.0279" y="-295.3" font-family="Arial" font-size="14.00" fill="#666666">[BASE TABLE]</text>
<polygon fill="none" stroke="#000000" points="817.1013,-252.5 817.1013,-282.5 1031.1013,-282.5 1031.1013,-252.5 817.1013,-252.5"/>
<text text-anchor="start" x="824.1013" y="-263.9" font-family="Arial" font-size="14.00" fill="#000000">id    </text>
<text text-anchor="start" x="869.1953" y="-263.9" font-family="Arial" font-size="14.00" fill="#666666">[int(11)]</text>
<polygon fill="none" stroke="#000000" points="817.1013,-222.5 817.1013,-252.5 1031.1013,-252.5 1031.1013,-222.5 817.1013,-222.5"/>
<text text-anchor="start" x="824.1013" y="-233.9" font-family="Arial" font-size="14.00" fill="#000000">name    </text>
<text text-anchor="start" x="893.3145" y="-233.9" font-family="Arial" font-size="14.00" fill="#666666">[varchar(255)]</text>
<polygon fill="none" stroke="#000000" points="817.1013,-192.5 817.1013,-222.5 1031.1013,-222.5 1031.1013,-192.5 817.1013,-192.5"/>
<text text-anchor="start" x="824.1013" y="-203.9" font-family="Arial" font-size="14.00" fill="#000000">location    </text>
<text text-anchor="start" x="906.5403" y="-203.9" font-family="Arial" font-size="14.00" fill="#666666">[varchar(255)]</text>
<polygon fill="none" stroke="#000000" points="817.1013,-162.5 817.1013,-192.5 1031.1013,-192.5 1031.1013,-162.5 817.1013,-162.5"/>
<text text-anchor="start" x="824.1013" y="-173.9" font-family="Arial" font-size="14.00" fill="#000000">website    </text>
<text text-anchor="start" x="905.7577" y="-173.9" font-family="Arial" font-size="14.00" fill="#666666">[varchar(255)]</text>
<polygon fill="none" stroke="#000000" points="817.1013,-132.5 817.1013,-162.5 1031.1013,-162.5 1031.1013,-132.5 817.1013,-132.5"/>
<text text-anchor="start" x="824.1013" y="-143.9" font-family="Arial" font-size="14.00" fill="#000000">description    </text>
<text text-anchor="start" x="925.9835" y="-143.9" font-family="Arial" font-size="14.00" fill="#666666">[longtext]</text>
<polygon fill="none" stroke="#000000" points="817.1013,-102.5 817.1013,-132.5 1031.1013,-132.5 1031.1013,-102.5 817.1013,-102.5"/>
<text text-anchor="start" x="824.1013" y="-113.9" font-family="Arial" font-size="14.00" fill="#000000">contact    </text>
<text text-anchor="start" x="903.4351" y="-113.9" font-family="Arial" font-size="14.00" fill="#666666">[longtext]</text>
<polygon fill="none" stroke="#000000" points="817.1013,-72.5 817.1013,-102.5 1031.1013,-102.5 1031.1013,-72.5 817.1013,-72.5"/>
<text text-anchor="start" x="824.1013" y="-83.9" font-family="Arial" font-size="14.00" fill="#000000">created    </text>
<text text-anchor="start" x="904.9877" y="-83.9" font-family="Arial" font-size="14.00" fill="#666666">[datetime]</text>
<polygon fill="none" stroke="#000000" points="817.1013,-42.5 817.1013,-72.5 1031.1013,-72.5 1031.1013,-42.5 817.1013,-42.5"/>
<text text-anchor="start" x="824.1013" y="-53.9" font-family="Arial" font-size="14.00" fill="#000000">updated    </text>
<text text-anchor="start" x="908.8923" y="-53.9" font-family="Arial" font-size="14.00" fill="#666666">[datetime]</text>
</g>
<!-- podcast&#45;&gt;publisher -->
<g id="edge9" class="edge">
<title>podcast:publisher_id&#45;&gt;publisher:id</title>
<path fill="none" stroke="#000000" d="M955.2164,-899.9126C999.8371,-851.7246 978.199,-439.2817 946.1013,-397 910.1101,-349.5896 853.0924,-408.4104 817.1013,-361 791.9748,-327.9013 775.5457,-267.5 817.1013,-267.5"/>
<polygon fill="#000000" stroke="#000000" points="955.0338,-900.0044 944.0783,-900.4803 950.5676,-902.2522 946.1013,-904.5 946.1013,-904.5 946.1013,-904.5 950.5676,-902.2522 948.1243,-908.5197 955.0338,-900.0044 955.0338,-900.0044"/>
</g>
<!-- season&#45;&gt;podcast -->
<g id="edge11" class="edge">
<title>season:podcast_id&#45;&gt;podcast:id</title>
<path fill="none" stroke="#000000" d="M904.2095,-1359.4522C852.5942,-1336.2399 891.8915,-1122.416 914.1013,-1064 921.709,-1043.9902 938.4936,-1048.0098 946.1013,-1028 960.8693,-989.1571 987.6568,-934.5 946.1013,-934.5"/>
<polygon fill="#000000" stroke="#000000" points="904.3089,-1359.4727 913.189,-1365.9066 909.2051,-1360.4864 914.1013,-1361.5 914.1013,-1361.5 914.1013,-1361.5 909.2051,-1360.4864 915.0136,-1357.0934 904.3089,-1359.4727 904.3089,-1359.4727"/>
</g>
<!-- season&#45;&gt;publisher -->
<g id="edge10" class="edge">
<title>season:publisher_id&#45;&gt;publisher:id</title>
<path fill="none" stroke="#000000" d="M1123.0104,-1328.8138C1226.838,-1270.0695 1146.2003,-267.5 1031.1013,-267.5"/>
<polygon fill="#000000" stroke="#000000" points="1122.7529,-1328.8835 1111.9239,-1327.1568 1117.9271,-1330.1918 1113.1013,-1331.5 1113.1013,-1331.5 1113.1013,-1331.5 1117.9271,-1330.1918 1114.2787,-1335.8432 1122.7529,-1328.8835 1122.7529,-1328.8835"/>
</g>
</g>
</svg>
