<?xml version="1.0" encoding="UTF-8" standalone="no"?>
<!DOCTYPE svg PUBLIC "-//W3C//DTD SVG 1.1//EN"
 "http://www.w3.org/Graphics/SVG/1.1/DTD/svg11.dtd">
<!-- Generated by graphviz version 2.40.1 (20161225.0304)
 -->
<!-- Title: amplify Pages: 1 -->
<svg width="1194pt" height="2527pt"
 viewBox="0.00 0.00 1194.33 2527.00" xmlns="http://www.w3.org/2000/svg" xmlns:xlink="http://www.w3.org/1999/xlink">
<g id="graph0" class="graph" transform="scale(1 1) rotate(0) translate(4 2523)">
<title>amplify</title>
<polygon fill="#ffffff" stroke="transparent" points="-4,4 -4,-2523 1190.3292,-2523 1190.3292,4 -4,4"/>
<!-- contribution -->
<g id="node1" class="node">
<title>contribution</title>
<polygon fill="#efefef" stroke="transparent" points="603.8595,-2440.5 603.8595,-2475.5 837.8595,-2475.5 837.8595,-2440.5 603.8595,-2440.5"/>
<polygon fill="none" stroke="#000000" points="603.8595,-2440.5 603.8595,-2475.5 837.8595,-2475.5 837.8595,-2440.5 603.8595,-2440.5"/>
<text text-anchor="start" x="610.5644" y="-2453.3" font-family="Arial Bold" font-size="18.00" fill="#000000">contribution</text>
<text text-anchor="start" x="703.5866" y="-2453.3" font-family="Arial" font-size="14.00" fill="#000000">    </text>
<text text-anchor="start" x="737.7914" y="-2453.3" font-family="Arial" font-size="14.00" fill="#666666">[BASE TABLE]</text>
<polygon fill="none" stroke="#000000" points="603.8595,-2410.5 603.8595,-2440.5 837.8595,-2440.5 837.8595,-2410.5 603.8595,-2410.5"/>
<text text-anchor="start" x="610.8595" y="-2421.9" font-family="Arial" font-size="14.00" fill="#000000">id    </text>
<text text-anchor="start" x="655.9535" y="-2421.9" font-family="Arial" font-size="14.00" fill="#666666">[int(11)]</text>
<polygon fill="none" stroke="#000000" points="603.8595,-2380.5 603.8595,-2410.5 837.8595,-2410.5 837.8595,-2380.5 603.8595,-2380.5"/>
<text text-anchor="start" x="610.8595" y="-2391.9" font-family="Arial" font-size="14.00" fill="#000000">person_id    </text>
<text text-anchor="start" x="706.5271" y="-2391.9" font-family="Arial" font-size="14.00" fill="#666666">[int(11)]</text>
<polygon fill="none" stroke="#000000" points="603.8595,-2350.5 603.8595,-2380.5 837.8595,-2380.5 837.8595,-2350.5 603.8595,-2350.5"/>
<text text-anchor="start" x="610.8595" y="-2361.9" font-family="Arial" font-size="14.00" fill="#000000">contributor_role_id    </text>
<text text-anchor="start" x="760.9731" y="-2361.9" font-family="Arial" font-size="14.00" fill="#666666">[int(11)]</text>
<polygon fill="none" stroke="#000000" points="603.8595,-2320.5 603.8595,-2350.5 837.8595,-2350.5 837.8595,-2320.5 603.8595,-2320.5"/>
<text text-anchor="start" x="610.8595" y="-2331.9" font-family="Arial" font-size="14.00" fill="#000000">podcast_id    </text>
<text text-anchor="start" x="712.7571" y="-2331.9" font-family="Arial" font-size="14.00" fill="#666666">[int(11)]</text>
<polygon fill="none" stroke="#000000" points="603.8595,-2290.5 603.8595,-2320.5 837.8595,-2320.5 837.8595,-2290.5 603.8595,-2290.5"/>
<text text-anchor="start" x="610.8595" y="-2301.9" font-family="Arial" font-size="14.00" fill="#000000">season_id    </text>
<text text-anchor="start" x="708.8665" y="-2301.9" font-family="Arial" font-size="14.00" fill="#666666">[int(11)]</text>
<polygon fill="none" stroke="#000000" points="603.8595,-2260.5 603.8595,-2290.5 837.8595,-2290.5 837.8595,-2260.5 603.8595,-2260.5"/>
<text text-anchor="start" x="610.8595" y="-2271.9" font-family="Arial" font-size="14.00" fill="#000000">episode_id    </text>
<text text-anchor="start" x="712.7557" y="-2271.9" font-family="Arial" font-size="14.00" fill="#666666">[int(11)]</text>
<polygon fill="none" stroke="#000000" points="603.8595,-2230.5 603.8595,-2260.5 837.8595,-2260.5 837.8595,-2230.5 603.8595,-2230.5"/>
<text text-anchor="start" x="610.8595" y="-2241.9" font-family="Arial" font-size="14.00" fill="#000000">created    </text>
<text text-anchor="start" x="691.7459" y="-2241.9" font-family="Arial" font-size="14.00" fill="#666666">[datetime]</text>
<polygon fill="none" stroke="#000000" points="603.8595,-2200.5 603.8595,-2230.5 837.8595,-2230.5 837.8595,-2200.5 603.8595,-2200.5"/>
<text text-anchor="start" x="610.8595" y="-2211.9" font-family="Arial" font-size="14.00" fill="#000000">updated    </text>
<text text-anchor="start" x="695.6505" y="-2211.9" font-family="Arial" font-size="14.00" fill="#666666">[datetime]</text>
</g>
<!-- contributor_role -->
<g id="node2" class="node">
<title>contributor_role</title>
<polygon fill="#efefef" stroke="transparent" points="383.8595,-1878.5 383.8595,-1913.5 649.8595,-1913.5 649.8595,-1878.5 383.8595,-1878.5"/>
<polygon fill="none" stroke="#000000" points="383.8595,-1878.5 383.8595,-1913.5 649.8595,-1913.5 649.8595,-1878.5 383.8595,-1878.5"/>
<text text-anchor="start" x="390.566" y="-1891.3" font-family="Arial Bold" font-size="18.00" fill="#000000">contributor_role</text>
<text text-anchor="start" x="515.585" y="-1891.3" font-family="Arial" font-size="14.00" fill="#000000">    </text>
<text text-anchor="start" x="549.7898" y="-1891.3" font-family="Arial" font-size="14.00" fill="#666666">[BASE TABLE]</text>
<polygon fill="none" stroke="#000000" points="383.8595,-1848.5 383.8595,-1878.5 649.8595,-1878.5 649.8595,-1848.5 383.8595,-1848.5"/>
<text text-anchor="start" x="390.8595" y="-1859.9" font-family="Arial" font-size="14.00" fill="#000000">id    </text>
<text text-anchor="start" x="435.9535" y="-1859.9" font-family="Arial" font-size="14.00" fill="#666666">[int(11)]</text>
<polygon fill="none" stroke="#000000" points="383.8595,-1818.5 383.8595,-1848.5 649.8595,-1848.5 649.8595,-1818.5 383.8595,-1818.5"/>
<text text-anchor="start" x="390.8595" y="-1829.9" font-family="Arial" font-size="14.00" fill="#000000">name    </text>
<text text-anchor="start" x="460.0727" y="-1829.9" font-family="Arial" font-size="14.00" fill="#666666">[varchar(191)]</text>
<polygon fill="none" stroke="#000000" points="383.8595,-1788.5 383.8595,-1818.5 649.8595,-1818.5 649.8595,-1788.5 383.8595,-1788.5"/>
<text text-anchor="start" x="390.8595" y="-1799.9" font-family="Arial" font-size="14.00" fill="#000000">label    </text>
<text text-anchor="start" x="454.6253" y="-1799.9" font-family="Arial" font-size="14.00" fill="#666666">[varchar(200)]</text>
<polygon fill="none" stroke="#000000" points="383.8595,-1758.5 383.8595,-1788.5 649.8595,-1788.5 649.8595,-1758.5 383.8595,-1758.5"/>
<text text-anchor="start" x="390.8595" y="-1769.9" font-family="Arial" font-size="14.00" fill="#000000">description    </text>
<text text-anchor="start" x="492.7417" y="-1769.9" font-family="Arial" font-size="14.00" fill="#666666">[longtext]</text>
<polygon fill="none" stroke="#000000" points="383.8595,-1728.5 383.8595,-1758.5 649.8595,-1758.5 649.8595,-1728.5 383.8595,-1728.5"/>
<text text-anchor="start" x="390.8595" y="-1739.9" font-family="Arial" font-size="14.00" fill="#000000">created    </text>
<text text-anchor="start" x="471.7459" y="-1739.9" font-family="Arial" font-size="14.00" fill="#666666">[datetime]</text>
<polygon fill="none" stroke="#000000" points="383.8595,-1698.5 383.8595,-1728.5 649.8595,-1728.5 649.8595,-1698.5 383.8595,-1698.5"/>
<text text-anchor="start" x="390.8595" y="-1709.9" font-family="Arial" font-size="14.00" fill="#000000">updated    </text>
<text text-anchor="start" x="475.6505" y="-1709.9" font-family="Arial" font-size="14.00" fill="#666666">[datetime]</text>
<polygon fill="none" stroke="#000000" points="383.8595,-1668.5 383.8595,-1698.5 649.8595,-1698.5 649.8595,-1668.5 383.8595,-1668.5"/>
<text text-anchor="start" x="390.8595" y="-1679.9" font-family="Arial" font-size="14.00" fill="#000000">relator_term    </text>
<text text-anchor="start" x="500.5075" y="-1679.9" font-family="Arial" font-size="14.00" fill="#666666">[varchar(10)]</text>
</g>
<!-- contribution&#45;&gt;contributor_role -->
<g id="edge1" class="edge">
<title>contribution:contributor_role_id&#45;&gt;contributor_role:id</title>
<path fill="none" stroke="#000000" d="M593.8787,-2363.1479C531.7955,-2330.318 648.9858,-1964.734 649.8595,-1957 654.5242,-1915.7071 691.415,-1863.5 649.8595,-1863.5"/>
<polygon fill="#000000" stroke="#000000" points="594.1261,-2363.2061 602.8272,-2369.88 598.9928,-2364.353 603.8595,-2365.5 603.8595,-2365.5 603.8595,-2365.5 598.9928,-2364.353 604.8917,-2361.12 594.1261,-2363.2061 594.1261,-2363.2061"/>
</g>
<!-- episode -->
<g id="node3" class="node">
<title>episode</title>
<polygon fill="#efefef" stroke="transparent" points="791.8595,-2043.5 791.8595,-2078.5 1009.8595,-2078.5 1009.8595,-2043.5 791.8595,-2043.5"/>
<polygon fill="none" stroke="#000000" points="791.8595,-2043.5 791.8595,-2078.5 1009.8595,-2078.5 1009.8595,-2043.5 791.8595,-2043.5"/>
<text text-anchor="start" x="805.5629" y="-2056.3" font-family="Arial Bold" font-size="18.00" fill="#000000">episode</text>
<text text-anchor="start" x="868.5881" y="-2056.3" font-family="Arial" font-size="14.00" fill="#000000">    </text>
<text text-anchor="start" x="902.7929" y="-2056.3" font-family="Arial" font-size="14.00" fill="#666666">[BASE TABLE]</text>
<polygon fill="none" stroke="#000000" points="791.8595,-2013.5 791.8595,-2043.5 1009.8595,-2043.5 1009.8595,-2013.5 791.8595,-2013.5"/>
<text text-anchor="start" x="798.8595" y="-2024.9" font-family="Arial" font-size="14.00" fill="#000000">id    </text>
<text text-anchor="start" x="843.9535" y="-2024.9" font-family="Arial" font-size="14.00" fill="#666666">[int(11)]</text>
<polygon fill="none" stroke="#000000" points="791.8595,-1983.5 791.8595,-2013.5 1009.8595,-2013.5 1009.8595,-1983.5 791.8595,-1983.5"/>
<text text-anchor="start" x="798.8595" y="-1994.9" font-family="Arial" font-size="14.00" fill="#000000">season_id    </text>
<text text-anchor="start" x="896.8665" y="-1994.9" font-family="Arial" font-size="14.00" fill="#666666">[int(11)]</text>
<polygon fill="none" stroke="#000000" points="791.8595,-1953.5 791.8595,-1983.5 1009.8595,-1983.5 1009.8595,-1953.5 791.8595,-1953.5"/>
<text text-anchor="start" x="798.8595" y="-1964.9" font-family="Arial" font-size="14.00" fill="#000000">podcast_id    </text>
<text text-anchor="start" x="900.7571" y="-1964.9" font-family="Arial" font-size="14.00" fill="#666666">[int(11)]</text>
<polygon fill="none" stroke="#000000" points="791.8595,-1923.5 791.8595,-1953.5 1009.8595,-1953.5 1009.8595,-1923.5 791.8595,-1923.5"/>
<text text-anchor="start" x="798.8595" y="-1934.9" font-family="Arial" font-size="14.00" fill="#000000">number    </text>
<text text-anchor="start" x="880.5159" y="-1934.9" font-family="Arial" font-size="14.00" fill="#666666">[int(11)]</text>
<polygon fill="none" stroke="#000000" points="791.8595,-1893.5 791.8595,-1923.5 1009.8595,-1923.5 1009.8595,-1893.5 791.8595,-1893.5"/>
<text text-anchor="start" x="798.8595" y="-1904.9" font-family="Arial" font-size="14.00" fill="#000000">date    </text>
<text text-anchor="start" x="860.3027" y="-1904.9" font-family="Arial" font-size="14.00" fill="#666666">[date]</text>
<polygon fill="none" stroke="#000000" points="791.8595,-1863.5 791.8595,-1893.5 1009.8595,-1893.5 1009.8595,-1863.5 791.8595,-1863.5"/>
<text text-anchor="start" x="798.8595" y="-1874.9" font-family="Arial" font-size="14.00" fill="#000000">run_time    </text>
<text text-anchor="start" x="887.5131" y="-1874.9" font-family="Arial" font-size="14.00" fill="#666666">[varchar(9)]</text>
<polygon fill="none" stroke="#000000" points="791.8595,-1833.5 791.8595,-1863.5 1009.8595,-1863.5 1009.8595,-1833.5 791.8595,-1833.5"/>
<text text-anchor="start" x="798.8595" y="-1844.9" font-family="Arial" font-size="14.00" fill="#000000">title    </text>
<text text-anchor="start" x="854.8413" y="-1844.9" font-family="Arial" font-size="14.00" fill="#666666">[varchar(255)]</text>
<polygon fill="none" stroke="#000000" points="791.8595,-1803.5 791.8595,-1833.5 1009.8595,-1833.5 1009.8595,-1803.5 791.8595,-1803.5"/>
<text text-anchor="start" x="798.8595" y="-1814.9" font-family="Arial" font-size="14.00" fill="#000000">sub_title    </text>
<text text-anchor="start" x="885.1891" y="-1814.9" font-family="Arial" font-size="14.00" fill="#666666">[varchar(255)]</text>
<polygon fill="none" stroke="#000000" points="791.8595,-1773.5 791.8595,-1803.5 1009.8595,-1803.5 1009.8595,-1773.5 791.8595,-1773.5"/>
<text text-anchor="start" x="798.8595" y="-1784.9" font-family="Arial" font-size="14.00" fill="#000000">bibliography    </text>
<text text-anchor="start" x="908.5229" y="-1784.9" font-family="Arial" font-size="14.00" fill="#666666">[longtext]</text>
<polygon fill="none" stroke="#000000" points="791.8595,-1743.5 791.8595,-1773.5 1009.8595,-1773.5 1009.8595,-1743.5 791.8595,-1743.5"/>
<text text-anchor="start" x="798.8595" y="-1754.9" font-family="Arial" font-size="14.00" fill="#000000">transcript    </text>
<text text-anchor="start" x="890.6211" y="-1754.9" font-family="Arial" font-size="14.00" fill="#666666">[longtext]</text>
<polygon fill="none" stroke="#000000" points="791.8595,-1713.5 791.8595,-1743.5 1009.8595,-1743.5 1009.8595,-1713.5 791.8595,-1713.5"/>
<text text-anchor="start" x="798.8595" y="-1724.9" font-family="Arial" font-size="14.00" fill="#000000">description    </text>
<text text-anchor="start" x="900.7417" y="-1724.9" font-family="Arial" font-size="14.00" fill="#666666">[longtext]</text>
<polygon fill="none" stroke="#000000" points="791.8595,-1683.5 791.8595,-1713.5 1009.8595,-1713.5 1009.8595,-1683.5 791.8595,-1683.5"/>
<text text-anchor="start" x="798.8595" y="-1694.9" font-family="Arial" font-size="14.00" fill="#000000">created    </text>
<text text-anchor="start" x="879.7459" y="-1694.9" font-family="Arial" font-size="14.00" fill="#666666">[datetime]</text>
<polygon fill="none" stroke="#000000" points="791.8595,-1653.5 791.8595,-1683.5 1009.8595,-1683.5 1009.8595,-1653.5 791.8595,-1653.5"/>
<text text-anchor="start" x="798.8595" y="-1664.9" font-family="Arial" font-size="14.00" fill="#000000">updated    </text>
<text text-anchor="start" x="883.6505" y="-1664.9" font-family="Arial" font-size="14.00" fill="#666666">[datetime]</text>
<polygon fill="none" stroke="#000000" points="791.8595,-1623.5 791.8595,-1653.5 1009.8595,-1653.5 1009.8595,-1623.5 791.8595,-1623.5"/>
<text text-anchor="start" x="798.8595" y="-1634.9" font-family="Arial" font-size="14.00" fill="#000000">keywords    </text>
<text text-anchor="start" x="892.1793" y="-1634.9" font-family="Arial" font-size="14.00" fill="#666666">[longtext]</text>
<polygon fill="none" stroke="#000000" points="791.8595,-1593.5 791.8595,-1623.5 1009.8595,-1623.5 1009.8595,-1593.5 791.8595,-1593.5"/>
<text text-anchor="start" x="798.8595" y="-1604.9" font-family="Arial" font-size="14.00" fill="#000000">permissions    </text>
<text text-anchor="start" x="907.7291" y="-1604.9" font-family="Arial" font-size="14.00" fill="#666666">[longtext]</text>
<polygon fill="none" stroke="#000000" points="791.8595,-1563.5 791.8595,-1593.5 1009.8595,-1593.5 1009.8595,-1563.5 791.8595,-1563.5"/>
<text text-anchor="start" x="798.8595" y="-1574.9" font-family="Arial" font-size="14.00" fill="#000000">guid    </text>
<text text-anchor="start" x="859.5187" y="-1574.9" font-family="Arial" font-size="14.00" fill="#666666">[varchar(255)]</text>
<polygon fill="none" stroke="#000000" points="791.8595,-1533.5 791.8595,-1563.5 1009.8595,-1563.5 1009.8595,-1533.5 791.8595,-1533.5"/>
<text text-anchor="start" x="798.5685" y="-1544.9" font-family="Arial" font-size="14.00" fill="#000000">episode_type    </text>
<text text-anchor="start" x="916.0313" y="-1544.9" font-family="Arial" font-size="14.00" fill="#666666">[varchar(255)]</text>
<polygon fill="none" stroke="#000000" points="791.8595,-1503.5 791.8595,-1533.5 1009.8595,-1533.5 1009.8595,-1503.5 791.8595,-1503.5"/>
<text text-anchor="start" x="798.8595" y="-1514.9" font-family="Arial" font-size="14.00" fill="#000000">explicit    </text>
<text text-anchor="start" x="875.8399" y="-1514.9" font-family="Arial" font-size="14.00" fill="#666666">[tinyint(1)]</text>
</g>
<!-- contribution&#45;&gt;episode -->
<g id="edge3" class="edge">
<title>contribution:episode_id&#45;&gt;episode:id</title>
<path fill="none" stroke="#000000" d="M847.9588,-2275.3898C1046.1267,-2270.9293 796.9428,-2132.4332 791.8595,-2122 773.6581,-2084.6426 750.3039,-2028.5 791.8595,-2028.5"/>
<polygon fill="#000000" stroke="#000000" points="847.8589,-2275.3908 837.8104,-2271.0003 842.8592,-2275.4454 837.8595,-2275.5 837.8595,-2275.5 837.8595,-2275.5 842.8592,-2275.4454 837.9086,-2279.9997 847.8589,-2275.3908 847.8589,-2275.3908"/>
</g>
<!-- person -->
<g id="node5" class="node">
<title>person</title>
<polygon fill="#efefef" stroke="transparent" points="52.8595,-1893.5 52.8595,-1928.5 279.8595,-1928.5 279.8595,-1893.5 52.8595,-1893.5"/>
<polygon fill="none" stroke="#000000" points="52.8595,-1893.5 52.8595,-1928.5 279.8595,-1928.5 279.8595,-1893.5 52.8595,-1893.5"/>
<text text-anchor="start" x="75.067" y="-1906.3" font-family="Arial Bold" font-size="18.00" fill="#000000">person</text>
<text text-anchor="start" x="130.084" y="-1906.3" font-family="Arial" font-size="14.00" fill="#000000">    </text>
<text text-anchor="start" x="164.2888" y="-1906.3" font-family="Arial" font-size="14.00" fill="#666666">[BASE TABLE]</text>
<polygon fill="none" stroke="#000000" points="52.8595,-1863.5 52.8595,-1893.5 279.8595,-1893.5 279.8595,-1863.5 52.8595,-1863.5"/>
<text text-anchor="start" x="59.8595" y="-1874.9" font-family="Arial" font-size="14.00" fill="#000000">id    </text>
<text text-anchor="start" x="104.9535" y="-1874.9" font-family="Arial" font-size="14.00" fill="#666666">[int(11)]</text>
<polygon fill="none" stroke="#000000" points="52.8595,-1833.5 52.8595,-1863.5 279.8595,-1863.5 279.8595,-1833.5 52.8595,-1833.5"/>
<text text-anchor="start" x="59.8595" y="-1844.9" font-family="Arial" font-size="14.00" fill="#000000">fullname    </text>
<text text-anchor="start" x="146.9591" y="-1844.9" font-family="Arial" font-size="14.00" fill="#666666">[varchar(255)]</text>
<polygon fill="none" stroke="#000000" points="52.8595,-1803.5 52.8595,-1833.5 279.8595,-1833.5 279.8595,-1803.5 52.8595,-1803.5"/>
<text text-anchor="start" x="59.4079" y="-1814.9" font-family="Arial" font-size="14.00" fill="#000000">sortable_name    </text>
<text text-anchor="start" x="186.1919" y="-1814.9" font-family="Arial" font-size="14.00" fill="#666666">[varchar(255)]</text>
<polygon fill="none" stroke="#000000" points="52.8595,-1773.5 52.8595,-1803.5 279.8595,-1803.5 279.8595,-1773.5 52.8595,-1773.5"/>
<text text-anchor="start" x="59.8595" y="-1784.9" font-family="Arial" font-size="14.00" fill="#000000">location    </text>
<text text-anchor="start" x="142.2985" y="-1784.9" font-family="Arial" font-size="14.00" fill="#666666">[varchar(255)]</text>
<polygon fill="none" stroke="#000000" points="52.8595,-1743.5 52.8595,-1773.5 279.8595,-1773.5 279.8595,-1743.5 52.8595,-1743.5"/>
<text text-anchor="start" x="59.8595" y="-1754.9" font-family="Arial" font-size="14.00" fill="#000000">bio    </text>
<text text-anchor="start" x="112.7361" y="-1754.9" font-family="Arial" font-size="14.00" fill="#666666">[longtext]</text>
<polygon fill="none" stroke="#000000" points="52.8595,-1713.5 52.8595,-1743.5 279.8595,-1743.5 279.8595,-1713.5 52.8595,-1713.5"/>
<text text-anchor="start" x="59.8595" y="-1724.9" font-family="Arial" font-size="14.00" fill="#000000">created    </text>
<text text-anchor="start" x="140.7459" y="-1724.9" font-family="Arial" font-size="14.00" fill="#666666">[datetime]</text>
<polygon fill="none" stroke="#000000" points="52.8595,-1683.5 52.8595,-1713.5 279.8595,-1713.5 279.8595,-1683.5 52.8595,-1683.5"/>
<text text-anchor="start" x="59.8595" y="-1694.9" font-family="Arial" font-size="14.00" fill="#000000">updated    </text>
<text text-anchor="start" x="144.6505" y="-1694.9" font-family="Arial" font-size="14.00" fill="#666666">[datetime]</text>
<polygon fill="none" stroke="#000000" points="52.8595,-1653.5 52.8595,-1683.5 279.8595,-1683.5 279.8595,-1653.5 52.8595,-1653.5"/>
<text text-anchor="start" x="59.8595" y="-1664.9" font-family="Arial" font-size="14.00" fill="#000000">institution_id    </text>
<text text-anchor="start" x="171.8581" y="-1664.9" font-family="Arial" font-size="14.00" fill="#666666">[int(11)]</text>
</g>
<!-- contribution&#45;&gt;person -->
<g id="edge2" class="edge">
<title>contribution:person_id&#45;&gt;person:id</title>
<path fill="none" stroke="#000000" d="M593.5028,-2395.3459C431.6232,-2390.4529 411.8509,-2269.642 331.8595,-2122 279.1433,-2024.7006 390.5219,-1878.5 279.8595,-1878.5"/>
<polygon fill="#000000" stroke="#000000" points="593.8606,-2395.3511 603.7925,-2399.9995 598.86,-2395.4256 603.8595,-2395.5 603.8595,-2395.5 603.8595,-2395.5 598.86,-2395.4256 603.9265,-2391.0005 593.8606,-2395.3511 593.8606,-2395.3511"/>
</g>
<!-- podcast -->
<g id="node6" class="node">
<title>podcast</title>
<polygon fill="#efefef" stroke="transparent" points="709.8595,-919.5 709.8595,-954.5 940.8595,-954.5 940.8595,-919.5 709.8595,-919.5"/>
<polygon fill="none" stroke="#000000" points="709.8595,-919.5 709.8595,-954.5 940.8595,-954.5 940.8595,-919.5 709.8595,-919.5"/>
<text text-anchor="start" x="730.062" y="-932.3" font-family="Arial Bold" font-size="18.00" fill="#000000">podcast</text>
<text text-anchor="start" x="793.089" y="-932.3" font-family="Arial" font-size="14.00" fill="#000000">    </text>
<text text-anchor="start" x="827.2938" y="-932.3" font-family="Arial" font-size="14.00" fill="#666666">[BASE TABLE]</text>
<polygon fill="none" stroke="#000000" points="709.8595,-889.5 709.8595,-919.5 940.8595,-919.5 940.8595,-889.5 709.8595,-889.5"/>
<text text-anchor="start" x="716.8595" y="-900.9" font-family="Arial" font-size="14.00" fill="#000000">id    </text>
<text text-anchor="start" x="761.9535" y="-900.9" font-family="Arial" font-size="14.00" fill="#666666">[int(11)]</text>
<polygon fill="none" stroke="#000000" points="709.8595,-859.5 709.8595,-889.5 940.8595,-889.5 940.8595,-859.5 709.8595,-859.5"/>
<text text-anchor="start" x="716.8595" y="-870.9" font-family="Arial" font-size="14.00" fill="#000000">publisher_id    </text>
<text text-anchor="start" x="826.5229" y="-870.9" font-family="Arial" font-size="14.00" fill="#666666">[int(11)]</text>
<polygon fill="none" stroke="#000000" points="709.8595,-829.5 709.8595,-859.5 940.8595,-859.5 940.8595,-829.5 709.8595,-829.5"/>
<text text-anchor="start" x="716.8595" y="-840.9" font-family="Arial" font-size="14.00" fill="#000000">title    </text>
<text text-anchor="start" x="772.8413" y="-840.9" font-family="Arial" font-size="14.00" fill="#666666">[varchar(255)]</text>
<polygon fill="none" stroke="#000000" points="709.8595,-799.5 709.8595,-829.5 940.8595,-829.5 940.8595,-799.5 709.8595,-799.5"/>
<text text-anchor="start" x="716.8595" y="-810.9" font-family="Arial" font-size="14.00" fill="#000000">sub_title    </text>
<text text-anchor="start" x="803.1891" y="-810.9" font-family="Arial" font-size="14.00" fill="#666666">[varchar(255)]</text>
<polygon fill="none" stroke="#000000" points="709.8595,-769.5 709.8595,-799.5 940.8595,-799.5 940.8595,-769.5 709.8595,-769.5"/>
<text text-anchor="start" x="716.8595" y="-780.9" font-family="Arial" font-size="14.00" fill="#000000">explicit    </text>
<text text-anchor="start" x="793.8399" y="-780.9" font-family="Arial" font-size="14.00" fill="#666666">[tinyint(1)]</text>
<polygon fill="none" stroke="#000000" points="709.8595,-739.5 709.8595,-769.5 940.8595,-769.5 940.8595,-739.5 709.8595,-739.5"/>
<text text-anchor="start" x="716.8595" y="-750.9" font-family="Arial" font-size="14.00" fill="#000000">description    </text>
<text text-anchor="start" x="818.7417" y="-750.9" font-family="Arial" font-size="14.00" fill="#666666">[longtext]</text>
<polygon fill="none" stroke="#000000" points="709.8595,-709.5 709.8595,-739.5 940.8595,-739.5 940.8595,-709.5 709.8595,-709.5"/>
<text text-anchor="start" x="716.8595" y="-720.9" font-family="Arial" font-size="14.00" fill="#000000">copyright    </text>
<text text-anchor="start" x="807.8525" y="-720.9" font-family="Arial" font-size="14.00" fill="#666666">[longtext]</text>
<polygon fill="none" stroke="#000000" points="709.8595,-679.5 709.8595,-709.5 940.8595,-709.5 940.8595,-679.5 709.8595,-679.5"/>
<text text-anchor="start" x="716.8595" y="-690.9" font-family="Arial" font-size="14.00" fill="#000000">website    </text>
<text text-anchor="start" x="798.5159" y="-690.9" font-family="Arial" font-size="14.00" fill="#666666">[longtext]</text>
<polygon fill="none" stroke="#000000" points="709.8595,-649.5 709.8595,-679.5 940.8595,-679.5 940.8595,-649.5 709.8595,-649.5"/>
<text text-anchor="start" x="716.8595" y="-660.9" font-family="Arial" font-size="14.00" fill="#000000">rss    </text>
<text text-anchor="start" x="769.7249" y="-660.9" font-family="Arial" font-size="14.00" fill="#666666">[varchar(255)]</text>
<polygon fill="none" stroke="#000000" points="709.8595,-619.5 709.8595,-649.5 940.8595,-649.5 940.8595,-619.5 709.8595,-619.5"/>
<text text-anchor="start" x="716.8595" y="-630.9" font-family="Arial" font-size="14.00" fill="#000000">created    </text>
<text text-anchor="start" x="797.7459" y="-630.9" font-family="Arial" font-size="14.00" fill="#666666">[datetime]</text>
<polygon fill="none" stroke="#000000" points="709.8595,-589.5 709.8595,-619.5 940.8595,-619.5 940.8595,-589.5 709.8595,-589.5"/>
<text text-anchor="start" x="716.8595" y="-600.9" font-family="Arial" font-size="14.00" fill="#000000">updated    </text>
<text text-anchor="start" x="801.6505" y="-600.9" font-family="Arial" font-size="14.00" fill="#666666">[datetime]</text>
<polygon fill="none" stroke="#000000" points="709.8595,-559.5 709.8595,-589.5 940.8595,-589.5 940.8595,-559.5 709.8595,-559.5"/>
<text text-anchor="start" x="716.8595" y="-570.9" font-family="Arial" font-size="14.00" fill="#000000">license    </text>
<text text-anchor="start" x="794.6253" y="-570.9" font-family="Arial" font-size="14.00" fill="#666666">[longtext]</text>
<polygon fill="none" stroke="#000000" points="709.8595,-529.5 709.8595,-559.5 940.8595,-559.5 940.8595,-529.5 709.8595,-529.5"/>
<text text-anchor="start" x="716.8595" y="-540.9" font-family="Arial" font-size="14.00" fill="#000000">guid    </text>
<text text-anchor="start" x="777.5187" y="-540.9" font-family="Arial" font-size="14.00" fill="#666666">[varchar(255)]</text>
<polygon fill="none" stroke="#000000" points="709.8595,-499.5 709.8595,-529.5 940.8595,-529.5 940.8595,-499.5 709.8595,-499.5"/>
<text text-anchor="start" x="716.8399" y="-510.9" font-family="Arial" font-size="14.00" fill="#000000">language_code    </text>
<text text-anchor="start" x="846.7599" y="-510.9" font-family="Arial" font-size="14.00" fill="#666666">[varchar(255)]</text>
<polygon fill="none" stroke="#000000" points="709.8595,-469.5 709.8595,-499.5 940.8595,-499.5 940.8595,-469.5 709.8595,-469.5"/>
<text text-anchor="start" x="716.8595" y="-480.9" font-family="Arial" font-size="14.00" fill="#000000">categories    </text>
<text text-anchor="start" x="815.6351" y="-480.9" font-family="Arial" font-size="14.00" fill="#666666">[longtext]</text>
<polygon fill="none" stroke="#000000" points="709.8595,-439.5 709.8595,-469.5 940.8595,-469.5 940.8595,-439.5 709.8595,-439.5"/>
<text text-anchor="start" x="716.8595" y="-450.9" font-family="Arial" font-size="14.00" fill="#000000">keywords    </text>
<text text-anchor="start" x="810.1793" y="-450.9" font-family="Arial" font-size="14.00" fill="#666666">[longtext]</text>
</g>
<!-- contribution&#45;&gt;podcast -->
<g id="edge5" class="edge">
<title>contribution:podcast_id&#45;&gt;podcast:id</title>
<path fill="none" stroke="#000000" d="M848.2212,-2334.773C913.5605,-2325.0297 880.8955,-2219.657 837.8595,-2158 811.3014,-2119.9506 766.9228,-2159.6916 739.8595,-2122 720.1285,-2094.5203 676.0298,-904.5 709.8595,-904.5"/>
<polygon fill="#000000" stroke="#000000" points="847.835,-2334.8 837.5445,-2331.011 842.8472,-2335.15 837.8595,-2335.5 837.8595,-2335.5 837.8595,-2335.5 842.8472,-2335.15 838.1745,-2339.989 847.835,-2334.8 847.835,-2334.8"/>
</g>
<!-- season -->
<g id="node8" class="node">
<title>season</title>
<polygon fill="#efefef" stroke="transparent" points="908.8595,-1346.5 908.8595,-1381.5 1107.8595,-1381.5 1107.8595,-1346.5 908.8595,-1346.5"/>
<polygon fill="none" stroke="#000000" points="908.8595,-1346.5 908.8595,-1381.5 1107.8595,-1381.5 1107.8595,-1346.5 908.8595,-1346.5"/>
<text text-anchor="start" x="915.5631" y="-1359.3" font-family="Arial Bold" font-size="18.00" fill="#000000">season</text>
<text text-anchor="start" x="973.5879" y="-1359.3" font-family="Arial" font-size="14.00" fill="#000000">    </text>
<text text-anchor="start" x="1007.7927" y="-1359.3" font-family="Arial" font-size="14.00" fill="#666666">[BASE TABLE]</text>
<polygon fill="none" stroke="#000000" points="908.8595,-1316.5 908.8595,-1346.5 1107.8595,-1346.5 1107.8595,-1316.5 908.8595,-1316.5"/>
<text text-anchor="start" x="915.8595" y="-1327.9" font-family="Arial" font-size="14.00" fill="#000000">id    </text>
<text text-anchor="start" x="960.9535" y="-1327.9" font-family="Arial" font-size="14.00" fill="#666666">[int(11)]</text>
<polygon fill="none" stroke="#000000" points="908.8595,-1286.5 908.8595,-1316.5 1107.8595,-1316.5 1107.8595,-1286.5 908.8595,-1286.5"/>
<text text-anchor="start" x="915.8595" y="-1297.9" font-family="Arial" font-size="14.00" fill="#000000">podcast_id    </text>
<text text-anchor="start" x="1017.7571" y="-1297.9" font-family="Arial" font-size="14.00" fill="#666666">[int(11)]</text>
<polygon fill="none" stroke="#000000" points="908.8595,-1256.5 908.8595,-1286.5 1107.8595,-1286.5 1107.8595,-1256.5 908.8595,-1256.5"/>
<text text-anchor="start" x="915.8595" y="-1267.9" font-family="Arial" font-size="14.00" fill="#000000">publisher_id    </text>
<text text-anchor="start" x="1025.5229" y="-1267.9" font-family="Arial" font-size="14.00" fill="#666666">[int(11)]</text>
<polygon fill="none" stroke="#000000" points="908.8595,-1226.5 908.8595,-1256.5 1107.8595,-1256.5 1107.8595,-1226.5 908.8595,-1226.5"/>
<text text-anchor="start" x="915.8595" y="-1237.9" font-family="Arial" font-size="14.00" fill="#000000">number    </text>
<text text-anchor="start" x="997.5159" y="-1237.9" font-family="Arial" font-size="14.00" fill="#666666">[int(11)]</text>
<polygon fill="none" stroke="#000000" points="908.8595,-1196.5 908.8595,-1226.5 1107.8595,-1226.5 1107.8595,-1196.5 908.8595,-1196.5"/>
<text text-anchor="start" x="915.8595" y="-1207.9" font-family="Arial" font-size="14.00" fill="#000000">title    </text>
<text text-anchor="start" x="971.8413" y="-1207.9" font-family="Arial" font-size="14.00" fill="#666666">[varchar(255)]</text>
<polygon fill="none" stroke="#000000" points="908.8595,-1166.5 908.8595,-1196.5 1107.8595,-1196.5 1107.8595,-1166.5 908.8595,-1166.5"/>
<text text-anchor="start" x="915.8595" y="-1177.9" font-family="Arial" font-size="14.00" fill="#000000">sub_title    </text>
<text text-anchor="start" x="1002.1891" y="-1177.9" font-family="Arial" font-size="14.00" fill="#666666">[varchar(255)]</text>
<polygon fill="none" stroke="#000000" points="908.8595,-1136.5 908.8595,-1166.5 1107.8595,-1166.5 1107.8595,-1136.5 908.8595,-1136.5"/>
<text text-anchor="start" x="915.8595" y="-1147.9" font-family="Arial" font-size="14.00" fill="#000000">description    </text>
<text text-anchor="start" x="1017.7417" y="-1147.9" font-family="Arial" font-size="14.00" fill="#666666">[longtext]</text>
<polygon fill="none" stroke="#000000" points="908.8595,-1106.5 908.8595,-1136.5 1107.8595,-1136.5 1107.8595,-1106.5 908.8595,-1106.5"/>
<text text-anchor="start" x="915.8595" y="-1117.9" font-family="Arial" font-size="14.00" fill="#000000">created    </text>
<text text-anchor="start" x="996.7459" y="-1117.9" font-family="Arial" font-size="14.00" fill="#666666">[datetime]</text>
<polygon fill="none" stroke="#000000" points="908.8595,-1076.5 908.8595,-1106.5 1107.8595,-1106.5 1107.8595,-1076.5 908.8595,-1076.5"/>
<text text-anchor="start" x="915.8595" y="-1087.9" font-family="Arial" font-size="14.00" fill="#000000">updated    </text>
<text text-anchor="start" x="1000.6505" y="-1087.9" font-family="Arial" font-size="14.00" fill="#666666">[datetime]</text>
</g>
<!-- contribution&#45;&gt;season -->
<g id="edge4" class="edge">
<title>contribution:season_id&#45;&gt;season:id</title>
<path fill="none" stroke="#000000" d="M847.877,-2305.3916C1386.6994,-2293.6466 1124.8553,-1331.5 1107.8595,-1331.5"/>
<polygon fill="#000000" stroke="#000000" points="847.8589,-2305.3917 837.8107,-2301.0003 842.8592,-2305.4458 837.8595,-2305.5 837.8595,-2305.5 837.8595,-2305.5 842.8592,-2305.4458 837.9082,-2309.9997 847.8589,-2305.3917 847.8589,-2305.3917"/>
</g>
<!-- episode&#45;&gt;podcast -->
<g id="edge7" class="edge">
<title>episode:podcast_id&#45;&gt;podcast:id</title>
<path fill="none" stroke="#000000" d="M782.1753,-1965.7409C694.7281,-1912.7588 795.2831,-1113.589 856.8595,-1034 881.7141,-1001.8748 918.4999,-1031.9091 940.8595,-998 963.7354,-963.3077 982.415,-904.5 940.8595,-904.5"/>
<polygon fill="#000000" stroke="#000000" points="782.2422,-1965.7599 790.6264,-1972.8278 787.0508,-1967.13 791.8595,-1968.5 791.8595,-1968.5 791.8595,-1968.5 787.0508,-1967.13 793.0925,-1964.1722 782.2422,-1965.7599 782.2422,-1965.7599"/>
</g>
<!-- episode&#45;&gt;season -->
<g id="edge6" class="edge">
<title>episode:season_id&#45;&gt;season:id</title>
<path fill="none" stroke="#000000" d="M1019.203,-1993.9653C1066.686,-1944.5515 1042.3282,-1507.0426 1009.8595,-1461 982.3956,-1422.0546 936.3234,-1463.9454 908.8595,-1425 884.9108,-1391.0394 867.3039,-1331.5 908.8595,-1331.5"/>
<polygon fill="#000000" stroke="#000000" points="1018.8559,-1994.1337 1007.8947,-1994.4516 1014.3577,-1996.3169 1009.8595,-1998.5 1009.8595,-1998.5 1009.8595,-1998.5 1014.3577,-1996.3169 1011.8243,-2002.5484 1018.8559,-1994.1337 1018.8559,-1994.1337"/>
</g>
<!-- institution -->
<g id="node4" class="node">
<title>institution</title>
<polygon fill="#efefef" stroke="transparent" points="57.8595,-1286.5 57.8595,-1321.5 274.8595,-1321.5 274.8595,-1286.5 57.8595,-1286.5"/>
<polygon fill="none" stroke="#000000" points="57.8595,-1286.5 57.8595,-1321.5 274.8595,-1321.5 274.8595,-1286.5 57.8595,-1286.5"/>
<text text-anchor="start" x="64.5685" y="-1299.3" font-family="Arial Bold" font-size="18.00" fill="#000000">institution</text>
<text text-anchor="start" x="140.5825" y="-1299.3" font-family="Arial" font-size="14.00" fill="#000000">    </text>
<text text-anchor="start" x="174.7873" y="-1299.3" font-family="Arial" font-size="14.00" fill="#666666">[BASE TABLE]</text>
<polygon fill="none" stroke="#000000" points="57.8595,-1256.5 57.8595,-1286.5 274.8595,-1286.5 274.8595,-1256.5 57.8595,-1256.5"/>
<text text-anchor="start" x="64.8595" y="-1267.9" font-family="Arial" font-size="14.00" fill="#000000">id    </text>
<text text-anchor="start" x="109.9535" y="-1267.9" font-family="Arial" font-size="14.00" fill="#666666">[int(11)]</text>
<polygon fill="none" stroke="#000000" points="57.8595,-1226.5 57.8595,-1256.5 274.8595,-1256.5 274.8595,-1226.5 57.8595,-1226.5"/>
<text text-anchor="start" x="64.8595" y="-1237.9" font-family="Arial" font-size="14.00" fill="#000000">country    </text>
<text text-anchor="start" x="144.9633" y="-1237.9" font-family="Arial" font-size="14.00" fill="#666666">[varchar(40)]</text>
<polygon fill="none" stroke="#000000" points="57.8595,-1196.5 57.8595,-1226.5 274.8595,-1226.5 274.8595,-1196.5 57.8595,-1196.5"/>
<text text-anchor="start" x="64.8595" y="-1207.9" font-family="Arial" font-size="14.00" fill="#000000">name    </text>
<text text-anchor="start" x="134.0727" y="-1207.9" font-family="Arial" font-size="14.00" fill="#666666">[varchar(100)]</text>
<polygon fill="none" stroke="#000000" points="57.8595,-1166.5 57.8595,-1196.5 274.8595,-1196.5 274.8595,-1166.5 57.8595,-1166.5"/>
<text text-anchor="start" x="64.8595" y="-1177.9" font-family="Arial" font-size="14.00" fill="#000000">created    </text>
<text text-anchor="start" x="145.7459" y="-1177.9" font-family="Arial" font-size="14.00" fill="#666666">[datetime]</text>
<polygon fill="none" stroke="#000000" points="57.8595,-1136.5 57.8595,-1166.5 274.8595,-1166.5 274.8595,-1136.5 57.8595,-1136.5"/>
<text text-anchor="start" x="64.8595" y="-1147.9" font-family="Arial" font-size="14.00" fill="#000000">updated    </text>
<text text-anchor="start" x="149.6505" y="-1147.9" font-family="Arial" font-size="14.00" fill="#666666">[datetime]</text>
</g>
<!-- person&#45;&gt;institution -->
<g id="edge8" class="edge">
<title>person:institution_id&#45;&gt;institution:id</title>
<path fill="none" stroke="#000000" d="M166.554,-1643.3838C156.1515,-1469.1958 -115.3325,-1271.5 57.8595,-1271.5"/>
<polygon fill="#000000" stroke="#000000" points="166.5575,-1643.5046 162.3615,-1653.6359 166.7085,-1648.5023 166.8595,-1653.5 166.8595,-1653.5 166.8595,-1653.5 166.7085,-1648.5023 171.3574,-1653.3641 166.5575,-1643.5046 166.5575,-1643.5046"/>
</g>
<!-- publisher -->
<g id="node7" class="node">
<title>publisher</title>
<polygon fill="#efefef" stroke="transparent" points="811.8595,-282.5 811.8595,-317.5 1025.8595,-317.5 1025.8595,-282.5 811.8595,-282.5"/>
<polygon fill="none" stroke="#000000" points="811.8595,-282.5 811.8595,-317.5 1025.8595,-317.5 1025.8595,-282.5 811.8595,-282.5"/>
<text text-anchor="start" x="818.5697" y="-295.3" font-family="Arial Bold" font-size="18.00" fill="#000000">publisher</text>
<text text-anchor="start" x="891.5813" y="-295.3" font-family="Arial" font-size="14.00" fill="#000000">    </text>
<text text-anchor="start" x="925.7861" y="-295.3" font-family="Arial" font-size="14.00" fill="#666666">[BASE TABLE]</text>
<polygon fill="none" stroke="#000000" points="811.8595,-252.5 811.8595,-282.5 1025.8595,-282.5 1025.8595,-252.5 811.8595,-252.5"/>
<text text-anchor="start" x="818.8595" y="-263.9" font-family="Arial" font-size="14.00" fill="#000000">id    </text>
<text text-anchor="start" x="863.9535" y="-263.9" font-family="Arial" font-size="14.00" fill="#666666">[int(11)]</text>
<polygon fill="none" stroke="#000000" points="811.8595,-222.5 811.8595,-252.5 1025.8595,-252.5 1025.8595,-222.5 811.8595,-222.5"/>
<text text-anchor="start" x="818.8595" y="-233.9" font-family="Arial" font-size="14.00" fill="#000000">name    </text>
<text text-anchor="start" x="888.0727" y="-233.9" font-family="Arial" font-size="14.00" fill="#666666">[varchar(255)]</text>
<polygon fill="none" stroke="#000000" points="811.8595,-192.5 811.8595,-222.5 1025.8595,-222.5 1025.8595,-192.5 811.8595,-192.5"/>
<text text-anchor="start" x="818.8595" y="-203.9" font-family="Arial" font-size="14.00" fill="#000000">location    </text>
<text text-anchor="start" x="901.2985" y="-203.9" font-family="Arial" font-size="14.00" fill="#666666">[varchar(255)]</text>
<polygon fill="none" stroke="#000000" points="811.8595,-162.5 811.8595,-192.5 1025.8595,-192.5 1025.8595,-162.5 811.8595,-162.5"/>
<text text-anchor="start" x="818.8595" y="-173.9" font-family="Arial" font-size="14.00" fill="#000000">website    </text>
<text text-anchor="start" x="900.5159" y="-173.9" font-family="Arial" font-size="14.00" fill="#666666">[varchar(255)]</text>
<polygon fill="none" stroke="#000000" points="811.8595,-132.5 811.8595,-162.5 1025.8595,-162.5 1025.8595,-132.5 811.8595,-132.5"/>
<text text-anchor="start" x="818.8595" y="-143.9" font-family="Arial" font-size="14.00" fill="#000000">description    </text>
<text text-anchor="start" x="920.7417" y="-143.9" font-family="Arial" font-size="14.00" fill="#666666">[longtext]</text>
<polygon fill="none" stroke="#000000" points="811.8595,-102.5 811.8595,-132.5 1025.8595,-132.5 1025.8595,-102.5 811.8595,-102.5"/>
<text text-anchor="start" x="818.8595" y="-113.9" font-family="Arial" font-size="14.00" fill="#000000">contact    </text>
<text text-anchor="start" x="898.1933" y="-113.9" font-family="Arial" font-size="14.00" fill="#666666">[longtext]</text>
<polygon fill="none" stroke="#000000" points="811.8595,-72.5 811.8595,-102.5 1025.8595,-102.5 1025.8595,-72.5 811.8595,-72.5"/>
<text text-anchor="start" x="818.8595" y="-83.9" font-family="Arial" font-size="14.00" fill="#000000">created    </text>
<text text-anchor="start" x="899.7459" y="-83.9" font-family="Arial" font-size="14.00" fill="#666666">[datetime]</text>
<polygon fill="none" stroke="#000000" points="811.8595,-42.5 811.8595,-72.5 1025.8595,-72.5 1025.8595,-42.5 811.8595,-42.5"/>
<text text-anchor="start" x="818.8595" y="-53.9" font-family="Arial" font-size="14.00" fill="#000000">updated    </text>
<text text-anchor="start" x="903.6505" y="-53.9" font-family="Arial" font-size="14.00" fill="#666666">[datetime]</text>
</g>
<!-- podcast&#45;&gt;publisher -->
<g id="edge9" class="edge">
<title>podcast:publisher_id&#45;&gt;publisher:id</title>
<path fill="none" stroke="#000000" d="M949.9552,-869.6017C991.2497,-821.6299 970.9345,-436.6172 940.8595,-397 904.8683,-349.5896 847.8506,-408.4104 811.8595,-361 786.7329,-327.9013 770.3039,-267.5 811.8595,-267.5"/>
<polygon fill="#000000" stroke="#000000" points="949.664,-869.7585 938.7258,-870.538 945.2617,-872.1293 940.8595,-874.5 940.8595,-874.5 940.8595,-874.5 945.2617,-872.1293 942.9931,-878.462 949.664,-869.7585 949.664,-869.7585"/>
</g>
<!-- season&#45;&gt;podcast -->
<g id="edge11" class="edge">
<title>season:podcast_id&#45;&gt;podcast:id</title>
<path fill="none" stroke="#000000" d="M898.5932,-1301.0757C794.5793,-1292.0736 867.8878,-1141.7638 908.8595,-1034 916.4672,-1013.9902 933.2517,-1018.0098 940.8595,-998 955.6275,-959.1571 982.415,-904.5 940.8595,-904.5"/>
<polygon fill="#000000" stroke="#000000" points="898.868,-1301.0869 908.6736,-1305.9962 903.8637,-1301.2935 908.8595,-1301.5 908.8595,-1301.5 908.8595,-1301.5 903.8637,-1301.2935 909.0454,-1297.0038 898.868,-1301.0869 898.868,-1301.0869"/>
</g>
<!-- season&#45;&gt;publisher -->
<g id="edge10" class="edge">
<title>season:publisher_id&#45;&gt;publisher:id</title>
<path fill="none" stroke="#000000" d="M1117.4961,-1268.7953C1214.7942,-1211.6311 1134.3981,-267.5 1025.8595,-267.5"/>
<polygon fill="#000000" stroke="#000000" points="1117.4874,-1268.7976 1106.6434,-1267.1674 1112.6735,-1270.1488 1107.8595,-1271.5 1107.8595,-1271.5 1107.8595,-1271.5 1112.6735,-1270.1488 1109.0755,-1275.8326 1117.4874,-1268.7976 1117.4874,-1268.7976"/>
</g>
</g>
</svg>
