<?xml version="1.0" encoding="UTF-8" standalone="no"?>
<!DOCTYPE svg PUBLIC "-//W3C//DTD SVG 1.1//EN"
 "http://www.w3.org/Graphics/SVG/1.1/DTD/svg11.dtd">
<!-- Generated by graphviz version 12.1.2 (20240928.0832)
 -->
<!-- Title: season Pages: 1 -->
<svg width="621pt" height="1869pt"
 viewBox="0.00 0.00 621.38 1868.80" xmlns="http://www.w3.org/2000/svg" xmlns:xlink="http://www.w3.org/1999/xlink">
<g id="graph0" class="graph" transform="scale(1 1) rotate(0) translate(4 1864.8)">
<title>season</title>
<polygon fill="white" stroke="none" points="-4,4 -4,-1864.8 617.38,-1864.8 617.38,4 -4,4"/>
<!-- season -->
<g id="node1" class="node">
<title>season</title>
<polygon fill="#efefef" stroke="none" points="220.2,-1035.8 220.2,-1071.4 406.68,-1071.4 406.68,-1035.8 220.2,-1035.8"/>
<polygon fill="none" stroke="black" points="220.2,-1035.8 220.2,-1071.4 406.68,-1071.4 406.68,-1035.8 220.2,-1035.8"/>
<text text-anchor="start" x="227.2" y="-1049.2" font-family="Arial Bold" font-size="18.00">season</text>
<text text-anchor="start" x="275.19" y="-1049.2" font-family="Arial" font-size="14.00">    </text>
<text text-anchor="start" x="306.3" y="-1049.2" font-family="Arial" font-size="14.00" fill="#666666">[BASE TABLE]</text>
<polygon fill="none" stroke="black" points="220.2,-1005 220.2,-1035.8 406.68,-1035.8 406.68,-1005 220.2,-1005"/>
<text text-anchor="start" x="227.2" y="-1017.2" font-family="Arial" font-size="14.00">id </text>
<text text-anchor="start" x="241.99" y="-1017.2" font-family="Arial" font-size="14.00" fill="#666666">[int(11)]</text>
<polygon fill="none" stroke="black" points="220.2,-974.2 220.2,-1005 406.68,-1005 406.68,-974.2 220.2,-974.2"/>
<text text-anchor="start" x="227.2" y="-986.4" font-family="Arial" font-size="14.00">podcast_id </text>
<text text-anchor="start" x="298.81" y="-986.4" font-family="Arial" font-size="14.00" fill="#666666">[int(11)]</text>
<polygon fill="none" stroke="black" points="220.2,-943.4 220.2,-974.2 406.68,-974.2 406.68,-943.4 220.2,-943.4"/>
<text text-anchor="start" x="227.2" y="-955.6" font-family="Arial" font-size="14.00">publisher_id </text>
<text text-anchor="start" x="306.59" y="-955.6" font-family="Arial" font-size="14.00" fill="#666666">[int(11)]</text>
<polygon fill="none" stroke="black" points="220.2,-912.6 220.2,-943.4 406.68,-943.4 406.68,-912.6 220.2,-912.6"/>
<text text-anchor="start" x="227.2" y="-924.8" font-family="Arial" font-size="14.00">number </text>
<text text-anchor="start" x="278.56" y="-924.8" font-family="Arial" font-size="14.00" fill="#666666">[int(11)]</text>
<polygon fill="none" stroke="black" points="220.2,-881.8 220.2,-912.6 406.68,-912.6 406.68,-881.8 220.2,-881.8"/>
<text text-anchor="start" x="227.2" y="-894" font-family="Arial" font-size="14.00">title </text>
<text text-anchor="start" x="252.88" y="-894" font-family="Arial" font-size="14.00" fill="#666666">[varchar(255)]</text>
<polygon fill="none" stroke="black" points="220.2,-851 220.2,-881.8 406.68,-881.8 406.68,-851 220.2,-851"/>
<text text-anchor="start" x="227.2" y="-863.2" font-family="Arial" font-size="14.00">sub_title </text>
<text text-anchor="start" x="283.23" y="-863.2" font-family="Arial" font-size="14.00" fill="#666666">[varchar(255)]</text>
<polygon fill="none" stroke="black" points="220.2,-820.2 220.2,-851 406.68,-851 406.68,-820.2 220.2,-820.2"/>
<text text-anchor="start" x="227.2" y="-832.4" font-family="Arial" font-size="14.00">description </text>
<text text-anchor="start" x="298.79" y="-832.4" font-family="Arial" font-size="14.00" fill="#666666">[longtext]</text>
<polygon fill="none" stroke="black" points="220.2,-789.4 220.2,-820.2 406.68,-820.2 406.68,-789.4 220.2,-789.4"/>
<text text-anchor="start" x="227.2" y="-801.6" font-family="Arial" font-size="14.00">created </text>
<text text-anchor="start" x="277.79" y="-801.6" font-family="Arial" font-size="14.00" fill="#666666">[datetime]</text>
<polygon fill="none" stroke="black" points="220.2,-758.6 220.2,-789.4 406.68,-789.4 406.68,-758.6 220.2,-758.6"/>
<text text-anchor="start" x="227.2" y="-770.8" font-family="Arial" font-size="14.00">updated </text>
<text text-anchor="start" x="281.7" y="-770.8" font-family="Arial" font-size="14.00" fill="#666666">[datetime]</text>
<polygon fill="none" stroke="black" points="220.2,-727.8 220.2,-758.6 406.68,-758.6 406.68,-727.8 220.2,-727.8"/>
<text text-anchor="start" x="227.2" y="-740" font-family="Arial" font-size="14.00">status </text>
<text text-anchor="start" x="268.44" y="-740" font-family="Arial" font-size="14.00" fill="#666666">[longtext]</text>
<polygon fill="none" stroke="black" stroke-width="3" points="218.7,-726.3 218.7,-1072.9 408.18,-1072.9 408.18,-726.3 218.7,-726.3"/>
</g>
<!-- podcast -->
<g id="node4" class="node">
<title>podcast</title>
<polygon fill="#efefef" stroke="none" points="59.04,-566.8 59.04,-602.4 259.83,-602.4 259.83,-566.8 59.04,-566.8"/>
<polygon fill="none" stroke="black" points="59.04,-566.8 59.04,-602.4 259.83,-602.4 259.83,-566.8 59.04,-566.8"/>
<text text-anchor="start" x="69.7" y="-580.2" font-family="Arial Bold" font-size="18.00">podcast</text>
<text text-anchor="start" x="124.69" y="-580.2" font-family="Arial" font-size="14.00">    </text>
<text text-anchor="start" x="155.8" y="-580.2" font-family="Arial" font-size="14.00" fill="#666666">[BASE TABLE]</text>
<polygon fill="none" stroke="black" points="59.04,-536 59.04,-566.8 259.83,-566.8 259.83,-536 59.04,-536"/>
<text text-anchor="start" x="66.04" y="-548.2" font-family="Arial" font-size="14.00">id </text>
<text text-anchor="start" x="80.83" y="-548.2" font-family="Arial" font-size="14.00" fill="#666666">[int(11)]</text>
<polygon fill="none" stroke="black" points="59.04,-505.2 59.04,-536 259.83,-536 259.83,-505.2 59.04,-505.2"/>
<text text-anchor="start" x="66.04" y="-517.4" font-family="Arial" font-size="14.00">publisher_id </text>
<text text-anchor="start" x="145.43" y="-517.4" font-family="Arial" font-size="14.00" fill="#666666">[int(11)]</text>
<polygon fill="none" stroke="black" points="59.04,-474.4 59.04,-505.2 259.83,-505.2 259.83,-474.4 59.04,-474.4"/>
<text text-anchor="start" x="66.04" y="-486.6" font-family="Arial" font-size="14.00">title </text>
<text text-anchor="start" x="91.72" y="-486.6" font-family="Arial" font-size="14.00" fill="#666666">[varchar(255)]</text>
<polygon fill="none" stroke="black" points="59.04,-443.6 59.04,-474.4 259.83,-474.4 259.83,-443.6 59.04,-443.6"/>
<text text-anchor="start" x="66.04" y="-455.8" font-family="Arial" font-size="14.00">sub_title </text>
<text text-anchor="start" x="122.08" y="-455.8" font-family="Arial" font-size="14.00" fill="#666666">[varchar(255)]</text>
<polygon fill="none" stroke="black" points="59.04,-412.8 59.04,-443.6 259.83,-443.6 259.83,-412.8 59.04,-412.8"/>
<text text-anchor="start" x="66.04" y="-425" font-family="Arial" font-size="14.00">explicit </text>
<text text-anchor="start" x="112.72" y="-425" font-family="Arial" font-size="14.00" fill="#666666">[tinyint(1)]</text>
<polygon fill="none" stroke="black" points="59.04,-382 59.04,-412.8 259.83,-412.8 259.83,-382 59.04,-382"/>
<text text-anchor="start" x="66.04" y="-394.2" font-family="Arial" font-size="14.00">description </text>
<text text-anchor="start" x="137.64" y="-394.2" font-family="Arial" font-size="14.00" fill="#666666">[longtext]</text>
<polygon fill="none" stroke="black" points="59.04,-351.2 59.04,-382 259.83,-382 259.83,-351.2 59.04,-351.2"/>
<text text-anchor="start" x="66.04" y="-363.4" font-family="Arial" font-size="14.00">copyright </text>
<text text-anchor="start" x="126.74" y="-363.4" font-family="Arial" font-size="14.00" fill="#666666">[longtext]</text>
<polygon fill="none" stroke="black" points="59.04,-320.4 59.04,-351.2 259.83,-351.2 259.83,-320.4 59.04,-320.4"/>
<text text-anchor="start" x="66.04" y="-332.6" font-family="Arial" font-size="14.00">website </text>
<text text-anchor="start" x="117.4" y="-332.6" font-family="Arial" font-size="14.00" fill="#666666">[longtext]</text>
<polygon fill="none" stroke="black" points="59.04,-289.6 59.04,-320.4 259.83,-320.4 259.83,-289.6 59.04,-289.6"/>
<text text-anchor="start" x="66.04" y="-301.8" font-family="Arial" font-size="14.00">rss </text>
<text text-anchor="start" x="88.59" y="-301.8" font-family="Arial" font-size="14.00" fill="#666666">[varchar(255)]</text>
<polygon fill="none" stroke="black" points="59.04,-258.8 59.04,-289.6 259.83,-289.6 259.83,-258.8 59.04,-258.8"/>
<text text-anchor="start" x="66.04" y="-271" font-family="Arial" font-size="14.00">created </text>
<text text-anchor="start" x="116.63" y="-271" font-family="Arial" font-size="14.00" fill="#666666">[datetime]</text>
<polygon fill="none" stroke="black" points="59.04,-228 59.04,-258.8 259.83,-258.8 259.83,-228 59.04,-228"/>
<text text-anchor="start" x="66.04" y="-240.2" font-family="Arial" font-size="14.00">updated </text>
<text text-anchor="start" x="120.54" y="-240.2" font-family="Arial" font-size="14.00" fill="#666666">[datetime]</text>
<polygon fill="none" stroke="black" points="59.04,-197.2 59.04,-228 259.83,-228 259.83,-197.2 59.04,-197.2"/>
<text text-anchor="start" x="66.04" y="-209.4" font-family="Arial" font-size="14.00">license </text>
<text text-anchor="start" x="113.51" y="-209.4" font-family="Arial" font-size="14.00" fill="#666666">[longtext]</text>
<polygon fill="none" stroke="black" points="59.04,-166.4 59.04,-197.2 259.83,-197.2 259.83,-166.4 59.04,-166.4"/>
<text text-anchor="start" x="66.04" y="-178.6" font-family="Arial" font-size="14.00">guid </text>
<text text-anchor="start" x="96.4" y="-178.6" font-family="Arial" font-size="14.00" fill="#666666">[varchar(255)]</text>
<polygon fill="none" stroke="black" points="59.04,-135.6 59.04,-166.4 259.83,-166.4 259.83,-135.6 59.04,-135.6"/>
<text text-anchor="start" x="66.04" y="-147.8" font-family="Arial" font-size="14.00">language_code </text>
<text text-anchor="start" x="165.69" y="-147.8" font-family="Arial" font-size="14.00" fill="#666666">[varchar(255)]</text>
<polygon fill="none" stroke="black" points="59.04,-104.8 59.04,-135.6 259.83,-135.6 259.83,-104.8 59.04,-104.8"/>
<text text-anchor="start" x="66.04" y="-117" font-family="Arial" font-size="14.00">categories </text>
<text text-anchor="start" x="134.52" y="-117" font-family="Arial" font-size="14.00" fill="#666666">[longtext]</text>
<polygon fill="none" stroke="black" points="59.04,-74 59.04,-104.8 259.83,-104.8 259.83,-74 59.04,-74"/>
<text text-anchor="start" x="66.04" y="-86.2" font-family="Arial" font-size="14.00">keywords </text>
<text text-anchor="start" x="129.06" y="-86.2" font-family="Arial" font-size="14.00" fill="#666666">[longtext]</text>
<polygon fill="none" stroke="black" points="59.04,-43.2 59.04,-74 259.83,-74 259.83,-43.2 59.04,-43.2"/>
<text text-anchor="start" x="66.04" y="-55.4" font-family="Arial" font-size="14.00">status </text>
<text text-anchor="start" x="107.28" y="-55.4" font-family="Arial" font-size="14.00" fill="#666666">[longtext]</text>
</g>
<!-- season&#45;&gt;podcast -->
<g id="edge3" class="edge">
<title>season:podcast_id&#45;&gt;podcast:id</title>
<path fill="none" stroke="black" d="M208.82,-989.22C86.63,-979.99 166.06,-803.39 220.2,-681.6 229.87,-659.85 250.09,-667.31 259.83,-645.6 276.98,-607.4 302.7,-551.4 260.83,-551.4"/>
<polygon fill="black" stroke="black" points="208.87,-989.22 218.7,-994.08 214.2,-989.42 218.53,-989.58 218.53,-989.58 218.53,-989.58 214.2,-989.42 219.03,-985.09 208.87,-989.22"/>
</g>
<!-- publisher -->
<g id="node5" class="node">
<title>publisher</title>
<polygon fill="#efefef" stroke="none" points="364.7,-443.6 364.7,-479.2 570.18,-479.2 570.18,-443.6 364.7,-443.6"/>
<polygon fill="none" stroke="black" points="364.7,-443.6 364.7,-479.2 570.18,-479.2 570.18,-443.6 364.7,-443.6"/>
<text text-anchor="start" x="371.7" y="-457" font-family="Arial Bold" font-size="18.00">publisher</text>
<text text-anchor="start" x="438.69" y="-457" font-family="Arial" font-size="14.00">    </text>
<text text-anchor="start" x="469.81" y="-457" font-family="Arial" font-size="14.00" fill="#666666">[BASE TABLE]</text>
<polygon fill="none" stroke="black" points="364.7,-412.8 364.7,-443.6 570.18,-443.6 570.18,-412.8 364.7,-412.8"/>
<text text-anchor="start" x="371.7" y="-425" font-family="Arial" font-size="14.00">id </text>
<text text-anchor="start" x="386.48" y="-425" font-family="Arial" font-size="14.00" fill="#666666">[int(11)]</text>
<polygon fill="none" stroke="black" points="364.7,-382 364.7,-412.8 570.18,-412.8 570.18,-382 364.7,-382"/>
<text text-anchor="start" x="371.7" y="-394.2" font-family="Arial" font-size="14.00">name </text>
<text text-anchor="start" x="410.61" y="-394.2" font-family="Arial" font-size="14.00" fill="#666666">[varchar(255)]</text>
<polygon fill="none" stroke="black" points="364.7,-351.2 364.7,-382 570.18,-382 570.18,-351.2 364.7,-351.2"/>
<text text-anchor="start" x="371.7" y="-363.4" font-family="Arial" font-size="14.00">location </text>
<text text-anchor="start" x="423.84" y="-363.4" font-family="Arial" font-size="14.00" fill="#666666">[varchar(255)]</text>
<polygon fill="none" stroke="black" points="364.7,-320.4 364.7,-351.2 570.18,-351.2 570.18,-320.4 364.7,-320.4"/>
<text text-anchor="start" x="371.7" y="-332.6" font-family="Arial" font-size="14.00">website </text>
<text text-anchor="start" x="423.06" y="-332.6" font-family="Arial" font-size="14.00" fill="#666666">[varchar(255)]</text>
<polygon fill="none" stroke="black" points="364.7,-289.6 364.7,-320.4 570.18,-320.4 570.18,-289.6 364.7,-289.6"/>
<text text-anchor="start" x="371.7" y="-301.8" font-family="Arial" font-size="14.00">description </text>
<text text-anchor="start" x="443.29" y="-301.8" font-family="Arial" font-size="14.00" fill="#666666">[longtext]</text>
<polygon fill="none" stroke="black" points="364.7,-258.8 364.7,-289.6 570.18,-289.6 570.18,-258.8 364.7,-258.8"/>
<text text-anchor="start" x="371.7" y="-271" font-family="Arial" font-size="14.00">contact </text>
<text text-anchor="start" x="420.73" y="-271" font-family="Arial" font-size="14.00" fill="#666666">[longtext]</text>
<polygon fill="none" stroke="black" points="364.7,-228 364.7,-258.8 570.18,-258.8 570.18,-228 364.7,-228"/>
<text text-anchor="start" x="371.7" y="-240.2" font-family="Arial" font-size="14.00">created </text>
<text text-anchor="start" x="422.28" y="-240.2" font-family="Arial" font-size="14.00" fill="#666666">[datetime]</text>
<polygon fill="none" stroke="black" points="364.7,-197.2 364.7,-228 570.18,-228 570.18,-197.2 364.7,-197.2"/>
<text text-anchor="start" x="371.7" y="-209.4" font-family="Arial" font-size="14.00">updated </text>
<text text-anchor="start" x="426.19" y="-209.4" font-family="Arial" font-size="14.00" fill="#666666">[datetime]</text>
<polygon fill="none" stroke="black" points="364.7,-166.4 364.7,-197.2 570.18,-197.2 570.18,-166.4 364.7,-166.4"/>
<text text-anchor="start" x="371.7" y="-178.6" font-family="Arial" font-size="14.00">podcast_id </text>
<text text-anchor="start" x="443.3" y="-178.6" font-family="Arial" font-size="14.00" fill="#666666">[int(11)]</text>
</g>
<!-- season&#45;&gt;publisher -->
<g id="edge4" class="edge">
<title>season:publisher_id&#45;&gt;publisher:id</title>
<path fill="none" stroke="black" d="M418.11,-958.55C594.78,-949.79 390.29,-711.96 364.7,-522.4 359.1,-480.91 321.83,-428.2 363.7,-428.2"/>
<polygon fill="black" stroke="black" points="418.01,-958.55 407.9,-954.29 412.68,-958.68 408.35,-958.78 408.35,-958.78 408.35,-958.78 412.68,-958.68 408.12,-963.29 418.01,-958.55"/>
</g>
<!-- contribution -->
<g id="node2" class="node">
<title>contribution</title>
<polygon fill="#efefef" stroke="none" points="43.2,-1612.6 43.2,-1648.2 269.68,-1648.2 269.68,-1612.6 43.2,-1612.6"/>
<polygon fill="none" stroke="black" points="43.2,-1612.6 43.2,-1648.2 269.68,-1648.2 269.68,-1612.6 43.2,-1612.6"/>
<text text-anchor="start" x="50.2" y="-1626" font-family="Arial Bold" font-size="18.00">contribution</text>
<text text-anchor="start" x="138.19" y="-1626" font-family="Arial" font-size="14.00">    </text>
<text text-anchor="start" x="169.3" y="-1626" font-family="Arial" font-size="14.00" fill="#666666">[BASE TABLE]</text>
<polygon fill="none" stroke="black" points="43.2,-1581.8 43.2,-1612.6 269.68,-1612.6 269.68,-1581.8 43.2,-1581.8"/>
<text text-anchor="start" x="50.2" y="-1594" font-family="Arial" font-size="14.00">id </text>
<text text-anchor="start" x="64.99" y="-1594" font-family="Arial" font-size="14.00" fill="#666666">[int(11)]</text>
<polygon fill="none" stroke="black" points="43.2,-1551 43.2,-1581.8 269.68,-1581.8 269.68,-1551 43.2,-1551"/>
<text text-anchor="start" x="50.2" y="-1563.2" font-family="Arial" font-size="14.00">person_id </text>
<text text-anchor="start" x="115.58" y="-1563.2" font-family="Arial" font-size="14.00" fill="#666666">[int(11)]</text>
<polygon fill="none" stroke="black" points="43.2,-1520.2 43.2,-1551 269.68,-1551 269.68,-1520.2 43.2,-1520.2"/>
<text text-anchor="start" x="50.2" y="-1532.4" font-family="Arial" font-size="14.00">podcast_id </text>
<text text-anchor="start" x="121.81" y="-1532.4" font-family="Arial" font-size="14.00" fill="#666666">[int(11)]</text>
<polygon fill="none" stroke="black" points="43.2,-1489.4 43.2,-1520.2 269.68,-1520.2 269.68,-1489.4 43.2,-1489.4"/>
<text text-anchor="start" x="50.2" y="-1501.6" font-family="Arial" font-size="14.00">season_id </text>
<text text-anchor="start" x="117.92" y="-1501.6" font-family="Arial" font-size="14.00" fill="#666666">[int(11)]</text>
<polygon fill="none" stroke="black" points="43.2,-1458.6 43.2,-1489.4 269.68,-1489.4 269.68,-1458.6 43.2,-1458.6"/>
<text text-anchor="start" x="50.2" y="-1470.8" font-family="Arial" font-size="14.00">episode_id </text>
<text text-anchor="start" x="121.81" y="-1470.8" font-family="Arial" font-size="14.00" fill="#666666">[int(11)]</text>
<polygon fill="none" stroke="black" points="43.2,-1427.8 43.2,-1458.6 269.68,-1458.6 269.68,-1427.8 43.2,-1427.8"/>
<text text-anchor="start" x="50.2" y="-1440" font-family="Arial" font-size="14.00">created </text>
<text text-anchor="start" x="100.79" y="-1440" font-family="Arial" font-size="14.00" fill="#666666">[datetime]</text>
<polygon fill="none" stroke="black" points="43.2,-1397 43.2,-1427.8 269.68,-1427.8 269.68,-1397 43.2,-1397"/>
<text text-anchor="start" x="50.2" y="-1409.2" font-family="Arial" font-size="14.00">updated </text>
<text text-anchor="start" x="104.7" y="-1409.2" font-family="Arial" font-size="14.00" fill="#666666">[datetime]</text>
<polygon fill="none" stroke="black" points="43.2,-1366.2 43.2,-1397 269.68,-1397 269.68,-1366.2 43.2,-1366.2"/>
<text text-anchor="start" x="50.2" y="-1378.4" font-family="Arial" font-size="14.00">roles </text>
<text text-anchor="start" x="84.43" y="-1378.4" font-family="Arial" font-size="14.00" fill="#666666">[longtext]</text>
</g>
<!-- contribution&#45;&gt;season -->
<g id="edge1" class="edge">
<title>contribution:season_id&#45;&gt;season:id</title>
<path fill="none" stroke="black" d="M280.67,-1502.19C333.98,-1470.17 224.72,-1154.05 220.2,-1117.6 214.88,-1074.73 176,-1020.4 219.2,-1020.4"/>
<polygon fill="black" stroke="black" points="280.68,-1502.19 269.86,-1500.36 275.51,-1503.54 271.32,-1504.63 271.32,-1504.63 271.32,-1504.63 275.51,-1503.54 272.14,-1509.07 280.68,-1502.19"/>
</g>
<!-- episode -->
<g id="node3" class="node">
<title>episode</title>
<polygon fill="#efefef" stroke="none" points="373.7,-1782 373.7,-1817.6 567.18,-1817.6 567.18,-1782 373.7,-1782"/>
<polygon fill="none" stroke="black" points="373.7,-1782 373.7,-1817.6 567.18,-1817.6 567.18,-1782 373.7,-1782"/>
<text text-anchor="start" x="380.7" y="-1795.4" font-family="Arial Bold" font-size="18.00">episode</text>
<text text-anchor="start" x="435.69" y="-1795.4" font-family="Arial" font-size="14.00">    </text>
<text text-anchor="start" x="466.8" y="-1795.4" font-family="Arial" font-size="14.00" fill="#666666">[BASE TABLE]</text>
<polygon fill="none" stroke="black" points="373.7,-1751.2 373.7,-1782 567.18,-1782 567.18,-1751.2 373.7,-1751.2"/>
<text text-anchor="start" x="380.7" y="-1763.4" font-family="Arial" font-size="14.00">id </text>
<text text-anchor="start" x="395.49" y="-1763.4" font-family="Arial" font-size="14.00" fill="#666666">[int(11)]</text>
<polygon fill="none" stroke="black" points="373.7,-1720.4 373.7,-1751.2 567.18,-1751.2 567.18,-1720.4 373.7,-1720.4"/>
<text text-anchor="start" x="380.7" y="-1732.6" font-family="Arial" font-size="14.00">season_id </text>
<text text-anchor="start" x="448.42" y="-1732.6" font-family="Arial" font-size="14.00" fill="#666666">[int(11)]</text>
<polygon fill="none" stroke="black" points="373.7,-1689.6 373.7,-1720.4 567.18,-1720.4 567.18,-1689.6 373.7,-1689.6"/>
<text text-anchor="start" x="380.7" y="-1701.8" font-family="Arial" font-size="14.00">podcast_id </text>
<text text-anchor="start" x="452.31" y="-1701.8" font-family="Arial" font-size="14.00" fill="#666666">[int(11)]</text>
<polygon fill="none" stroke="black" points="373.7,-1658.8 373.7,-1689.6 567.18,-1689.6 567.18,-1658.8 373.7,-1658.8"/>
<text text-anchor="start" x="380.7" y="-1671" font-family="Arial" font-size="14.00">number </text>
<text text-anchor="start" x="432.06" y="-1671" font-family="Arial" font-size="14.00" fill="#666666">[double]</text>
<polygon fill="none" stroke="black" points="373.7,-1628 373.7,-1658.8 567.18,-1658.8 567.18,-1628 373.7,-1628"/>
<text text-anchor="start" x="380.7" y="-1640.2" font-family="Arial" font-size="14.00">date </text>
<text text-anchor="start" x="411.84" y="-1640.2" font-family="Arial" font-size="14.00" fill="#666666">[date]</text>
<polygon fill="none" stroke="black" points="373.7,-1597.2 373.7,-1628 567.18,-1628 567.18,-1597.2 373.7,-1597.2"/>
<text text-anchor="start" x="380.7" y="-1609.4" font-family="Arial" font-size="14.00">run_time </text>
<text text-anchor="start" x="439.06" y="-1609.4" font-family="Arial" font-size="14.00" fill="#666666">[varchar(9)]</text>
<polygon fill="none" stroke="black" points="373.7,-1566.4 373.7,-1597.2 567.18,-1597.2 567.18,-1566.4 373.7,-1566.4"/>
<text text-anchor="start" x="380.7" y="-1578.6" font-family="Arial" font-size="14.00">title </text>
<text text-anchor="start" x="406.38" y="-1578.6" font-family="Arial" font-size="14.00" fill="#666666">[varchar(255)]</text>
<polygon fill="none" stroke="black" points="373.7,-1535.6 373.7,-1566.4 567.18,-1566.4 567.18,-1535.6 373.7,-1535.6"/>
<text text-anchor="start" x="380.7" y="-1547.8" font-family="Arial" font-size="14.00">sub_title </text>
<text text-anchor="start" x="436.74" y="-1547.8" font-family="Arial" font-size="14.00" fill="#666666">[varchar(255)]</text>
<polygon fill="none" stroke="black" points="373.7,-1504.8 373.7,-1535.6 567.18,-1535.6 567.18,-1504.8 373.7,-1504.8"/>
<text text-anchor="start" x="380.7" y="-1517" font-family="Arial" font-size="14.00">bibliography </text>
<text text-anchor="start" x="460.09" y="-1517" font-family="Arial" font-size="14.00" fill="#666666">[longtext]</text>
<polygon fill="none" stroke="black" points="373.7,-1474 373.7,-1504.8 567.18,-1504.8 567.18,-1474 373.7,-1474"/>
<text text-anchor="start" x="380.7" y="-1486.2" font-family="Arial" font-size="14.00">transcript </text>
<text text-anchor="start" x="442.16" y="-1486.2" font-family="Arial" font-size="14.00" fill="#666666">[longtext]</text>
<polygon fill="none" stroke="black" points="373.7,-1443.2 373.7,-1474 567.18,-1474 567.18,-1443.2 373.7,-1443.2"/>
<text text-anchor="start" x="380.7" y="-1455.4" font-family="Arial" font-size="14.00">description </text>
<text text-anchor="start" x="452.29" y="-1455.4" font-family="Arial" font-size="14.00" fill="#666666">[longtext]</text>
<polygon fill="none" stroke="black" points="373.7,-1412.4 373.7,-1443.2 567.18,-1443.2 567.18,-1412.4 373.7,-1412.4"/>
<text text-anchor="start" x="380.7" y="-1424.6" font-family="Arial" font-size="14.00">created </text>
<text text-anchor="start" x="431.29" y="-1424.6" font-family="Arial" font-size="14.00" fill="#666666">[datetime]</text>
<polygon fill="none" stroke="black" points="373.7,-1381.6 373.7,-1412.4 567.18,-1412.4 567.18,-1381.6 373.7,-1381.6"/>
<text text-anchor="start" x="380.7" y="-1393.8" font-family="Arial" font-size="14.00">updated </text>
<text text-anchor="start" x="435.2" y="-1393.8" font-family="Arial" font-size="14.00" fill="#666666">[datetime]</text>
<polygon fill="none" stroke="black" points="373.7,-1350.8 373.7,-1381.6 567.18,-1381.6 567.18,-1350.8 373.7,-1350.8"/>
<text text-anchor="start" x="380.7" y="-1363" font-family="Arial" font-size="14.00">keywords </text>
<text text-anchor="start" x="443.72" y="-1363" font-family="Arial" font-size="14.00" fill="#666666">[longtext]</text>
<polygon fill="none" stroke="black" points="373.7,-1320 373.7,-1350.8 567.18,-1350.8 567.18,-1320 373.7,-1320"/>
<text text-anchor="start" x="380.7" y="-1332.2" font-family="Arial" font-size="14.00">permissions </text>
<text text-anchor="start" x="459.28" y="-1332.2" font-family="Arial" font-size="14.00" fill="#666666">[longtext]</text>
<polygon fill="none" stroke="black" points="373.7,-1289.2 373.7,-1320 567.18,-1320 567.18,-1289.2 373.7,-1289.2"/>
<text text-anchor="start" x="380.7" y="-1301.4" font-family="Arial" font-size="14.00">guid </text>
<text text-anchor="start" x="411.06" y="-1301.4" font-family="Arial" font-size="14.00" fill="#666666">[varchar(255)]</text>
<polygon fill="none" stroke="black" points="373.7,-1258.4 373.7,-1289.2 567.18,-1289.2 567.18,-1258.4 373.7,-1258.4"/>
<text text-anchor="start" x="380.7" y="-1270.6" font-family="Arial" font-size="14.00">episode_type </text>
<text text-anchor="start" x="467.88" y="-1270.6" font-family="Arial" font-size="14.00" fill="#666666">[varchar(255)]</text>
<polygon fill="none" stroke="black" points="373.7,-1227.6 373.7,-1258.4 567.18,-1258.4 567.18,-1227.6 373.7,-1227.6"/>
<text text-anchor="start" x="380.7" y="-1239.8" font-family="Arial" font-size="14.00">explicit </text>
<text text-anchor="start" x="427.38" y="-1239.8" font-family="Arial" font-size="14.00" fill="#666666">[tinyint(1)]</text>
<polygon fill="none" stroke="black" points="373.7,-1196.8 373.7,-1227.6 567.18,-1227.6 567.18,-1196.8 373.7,-1196.8"/>
<text text-anchor="start" x="380.7" y="-1209" font-family="Arial" font-size="14.00">status </text>
<text text-anchor="start" x="421.94" y="-1209" font-family="Arial" font-size="14.00" fill="#666666">[longtext]</text>
</g>
<!-- episode&#45;&gt;season -->
<g id="edge2" class="edge">
<title>episode:season_id&#45;&gt;season:id</title>
<path fill="none" stroke="black" d="M363.34,-1731.59C312.41,-1682.04 351.45,-1210.69 373.7,-1153.6 381.58,-1133.38 398.71,-1137.78 406.68,-1117.6 422.54,-1077.41 450.88,-1020.4 407.68,-1020.4"/>
<polygon fill="black" stroke="black" points="363.28,-1731.56 370.55,-1739.77 368.14,-1733.75 372.09,-1735.53 372.09,-1735.53 372.09,-1735.53 368.14,-1733.75 374.24,-1731.56 363.28,-1731.56"/>
</g>
</g>
</svg>
