<?xml version="1.0" encoding="UTF-8" standalone="no"?>
<!DOCTYPE svg PUBLIC "-//W3C//DTD SVG 1.1//EN"
 "http://www.w3.org/Graphics/SVG/1.1/DTD/svg11.dtd">
<!-- Generated by graphviz version 2.40.1 (20161225.0304)
 -->
<!-- Title: season Pages: 1 -->
<svg width="650pt" height="1829pt"
 viewBox="0.00 0.00 650.00 1829.00" xmlns="http://www.w3.org/2000/svg" xmlns:xlink="http://www.w3.org/1999/xlink">
<g id="graph0" class="graph" transform="scale(1 1) rotate(0) translate(4 1825)">
<title>season</title>
<polygon fill="#ffffff" stroke="transparent" points="-4,4 -4,-1825 646,-1825 646,4 -4,4"/>
<!-- season -->
<g id="node1" class="node">
<title>season</title>
<polygon fill="#efefef" stroke="transparent" points="225,-1012.5 225,-1047.5 424,-1047.5 424,-1012.5 225,-1012.5"/>
<polygon fill="none" stroke="#000000" points="225,-1012.5 225,-1047.5 424,-1047.5 424,-1012.5 225,-1012.5"/>
<text text-anchor="start" x="231.7036" y="-1025.3" font-family="Arial Bold" font-size="18.00" fill="#000000">season</text>
<text text-anchor="start" x="289.7284" y="-1025.3" font-family="Arial" font-size="14.00" fill="#000000">    </text>
<text text-anchor="start" x="323.9332" y="-1025.3" font-family="Arial" font-size="14.00" fill="#666666">[BASE TABLE]</text>
<polygon fill="none" stroke="#000000" points="225,-982.5 225,-1012.5 424,-1012.5 424,-982.5 225,-982.5"/>
<text text-anchor="start" x="232" y="-993.9" font-family="Arial" font-size="14.00" fill="#000000">id </text>
<text text-anchor="start" x="246.7798" y="-993.9" font-family="Arial" font-size="14.00" fill="#666666">[int(11)]</text>
<polygon fill="none" stroke="#000000" points="225,-952.5 225,-982.5 424,-982.5 424,-952.5 225,-952.5"/>
<text text-anchor="start" x="232" y="-963.9" font-family="Arial" font-size="14.00" fill="#000000">podcast_id </text>
<text text-anchor="start" x="303.5834" y="-963.9" font-family="Arial" font-size="14.00" fill="#666666">[int(11)]</text>
<polygon fill="none" stroke="#000000" points="225,-922.5 225,-952.5 424,-952.5 424,-922.5 225,-922.5"/>
<text text-anchor="start" x="232" y="-933.9" font-family="Arial" font-size="14.00" fill="#000000">publisher_id </text>
<text text-anchor="start" x="311.3492" y="-933.9" font-family="Arial" font-size="14.00" fill="#666666">[int(11)]</text>
<polygon fill="none" stroke="#000000" points="225,-892.5 225,-922.5 424,-922.5 424,-892.5 225,-892.5"/>
<text text-anchor="start" x="232" y="-903.9" font-family="Arial" font-size="14.00" fill="#000000">number </text>
<text text-anchor="start" x="283.3422" y="-903.9" font-family="Arial" font-size="14.00" fill="#666666">[int(11)]</text>
<polygon fill="none" stroke="#000000" points="225,-862.5 225,-892.5 424,-892.5 424,-862.5 225,-862.5"/>
<text text-anchor="start" x="232" y="-873.9" font-family="Arial" font-size="14.00" fill="#000000">title </text>
<text text-anchor="start" x="257.6676" y="-873.9" font-family="Arial" font-size="14.00" fill="#666666">[varchar(255)]</text>
<polygon fill="none" stroke="#000000" points="225,-832.5 225,-862.5 424,-862.5 424,-832.5 225,-832.5"/>
<text text-anchor="start" x="232" y="-843.9" font-family="Arial" font-size="14.00" fill="#000000">sub_title </text>
<text text-anchor="start" x="288.0154" y="-843.9" font-family="Arial" font-size="14.00" fill="#666666">[varchar(255)]</text>
<polygon fill="none" stroke="#000000" points="225,-802.5 225,-832.5 424,-832.5 424,-802.5 225,-802.5"/>
<text text-anchor="start" x="232" y="-813.9" font-family="Arial" font-size="14.00" fill="#000000">description </text>
<text text-anchor="start" x="303.568" y="-813.9" font-family="Arial" font-size="14.00" fill="#666666">[longtext]</text>
<polygon fill="none" stroke="#000000" points="225,-772.5 225,-802.5 424,-802.5 424,-772.5 225,-772.5"/>
<text text-anchor="start" x="232" y="-783.9" font-family="Arial" font-size="14.00" fill="#000000">created </text>
<text text-anchor="start" x="282.5722" y="-783.9" font-family="Arial" font-size="14.00" fill="#666666">[datetime]</text>
<polygon fill="none" stroke="#000000" points="225,-742.5 225,-772.5 424,-772.5 424,-742.5 225,-742.5"/>
<text text-anchor="start" x="232" y="-753.9" font-family="Arial" font-size="14.00" fill="#000000">updated </text>
<text text-anchor="start" x="286.4768" y="-753.9" font-family="Arial" font-size="14.00" fill="#666666">[datetime]</text>
<polygon fill="none" stroke="#000000" points="225,-712.5 225,-742.5 424,-742.5 424,-712.5 225,-712.5"/>
<text text-anchor="start" x="232" y="-723.9" font-family="Arial" font-size="14.00" fill="#000000">status </text>
<text text-anchor="start" x="273.237" y="-723.9" font-family="Arial" font-size="14.00" fill="#666666">[longtext]</text>
<polygon fill="none" stroke="#000000" stroke-width="3" points="223,-711.5 223,-1049.5 425,-1049.5 425,-711.5 223,-711.5"/>
</g>
<!-- podcast -->
<g id="node4" class="node">
<title>podcast</title>
<polygon fill="#efefef" stroke="transparent" points="46,-552.5 46,-587.5 277,-587.5 277,-552.5 46,-552.5"/>
<polygon fill="none" stroke="#000000" points="46,-552.5 46,-587.5 277,-587.5 277,-552.5 46,-552.5"/>
<text text-anchor="start" x="66.2025" y="-565.3" font-family="Arial Bold" font-size="18.00" fill="#000000">podcast</text>
<text text-anchor="start" x="129.2295" y="-565.3" font-family="Arial" font-size="14.00" fill="#000000">    </text>
<text text-anchor="start" x="163.4343" y="-565.3" font-family="Arial" font-size="14.00" fill="#666666">[BASE TABLE]</text>
<polygon fill="none" stroke="#000000" points="46,-522.5 46,-552.5 277,-552.5 277,-522.5 46,-522.5"/>
<text text-anchor="start" x="53" y="-533.9" font-family="Arial" font-size="14.00" fill="#000000">id    </text>
<text text-anchor="start" x="98.094" y="-533.9" font-family="Arial" font-size="14.00" fill="#666666">[int(11)]</text>
<polygon fill="none" stroke="#000000" points="46,-492.5 46,-522.5 277,-522.5 277,-492.5 46,-492.5"/>
<text text-anchor="start" x="53" y="-503.9" font-family="Arial" font-size="14.00" fill="#000000">publisher_id    </text>
<text text-anchor="start" x="162.6634" y="-503.9" font-family="Arial" font-size="14.00" fill="#666666">[int(11)]</text>
<polygon fill="none" stroke="#000000" points="46,-462.5 46,-492.5 277,-492.5 277,-462.5 46,-462.5"/>
<text text-anchor="start" x="53" y="-473.9" font-family="Arial" font-size="14.00" fill="#000000">title    </text>
<text text-anchor="start" x="108.9818" y="-473.9" font-family="Arial" font-size="14.00" fill="#666666">[varchar(255)]</text>
<polygon fill="none" stroke="#000000" points="46,-432.5 46,-462.5 277,-462.5 277,-432.5 46,-432.5"/>
<text text-anchor="start" x="53" y="-443.9" font-family="Arial" font-size="14.00" fill="#000000">sub_title    </text>
<text text-anchor="start" x="139.3296" y="-443.9" font-family="Arial" font-size="14.00" fill="#666666">[varchar(255)]</text>
<polygon fill="none" stroke="#000000" points="46,-402.5 46,-432.5 277,-432.5 277,-402.5 46,-402.5"/>
<text text-anchor="start" x="53" y="-413.9" font-family="Arial" font-size="14.00" fill="#000000">explicit    </text>
<text text-anchor="start" x="129.9804" y="-413.9" font-family="Arial" font-size="14.00" fill="#666666">[tinyint(1)]</text>
<polygon fill="none" stroke="#000000" points="46,-372.5 46,-402.5 277,-402.5 277,-372.5 46,-372.5"/>
<text text-anchor="start" x="53" y="-383.9" font-family="Arial" font-size="14.00" fill="#000000">description    </text>
<text text-anchor="start" x="154.8822" y="-383.9" font-family="Arial" font-size="14.00" fill="#666666">[longtext]</text>
<polygon fill="none" stroke="#000000" points="46,-342.5 46,-372.5 277,-372.5 277,-342.5 46,-342.5"/>
<text text-anchor="start" x="53" y="-353.9" font-family="Arial" font-size="14.00" fill="#000000">copyright    </text>
<text text-anchor="start" x="143.993" y="-353.9" font-family="Arial" font-size="14.00" fill="#666666">[longtext]</text>
<polygon fill="none" stroke="#000000" points="46,-312.5 46,-342.5 277,-342.5 277,-312.5 46,-312.5"/>
<text text-anchor="start" x="53" y="-323.9" font-family="Arial" font-size="14.00" fill="#000000">website    </text>
<text text-anchor="start" x="134.6564" y="-323.9" font-family="Arial" font-size="14.00" fill="#666666">[longtext]</text>
<polygon fill="none" stroke="#000000" points="46,-282.5 46,-312.5 277,-312.5 277,-282.5 46,-282.5"/>
<text text-anchor="start" x="53" y="-293.9" font-family="Arial" font-size="14.00" fill="#000000">rss    </text>
<text text-anchor="start" x="105.8654" y="-293.9" font-family="Arial" font-size="14.00" fill="#666666">[varchar(255)]</text>
<polygon fill="none" stroke="#000000" points="46,-252.5 46,-282.5 277,-282.5 277,-252.5 46,-252.5"/>
<text text-anchor="start" x="53" y="-263.9" font-family="Arial" font-size="14.00" fill="#000000">created    </text>
<text text-anchor="start" x="133.8864" y="-263.9" font-family="Arial" font-size="14.00" fill="#666666">[datetime]</text>
<polygon fill="none" stroke="#000000" points="46,-222.5 46,-252.5 277,-252.5 277,-222.5 46,-222.5"/>
<text text-anchor="start" x="53" y="-233.9" font-family="Arial" font-size="14.00" fill="#000000">updated    </text>
<text text-anchor="start" x="137.791" y="-233.9" font-family="Arial" font-size="14.00" fill="#666666">[datetime]</text>
<polygon fill="none" stroke="#000000" points="46,-192.5 46,-222.5 277,-222.5 277,-192.5 46,-192.5"/>
<text text-anchor="start" x="53" y="-203.9" font-family="Arial" font-size="14.00" fill="#000000">license    </text>
<text text-anchor="start" x="130.7658" y="-203.9" font-family="Arial" font-size="14.00" fill="#666666">[longtext]</text>
<polygon fill="none" stroke="#000000" points="46,-162.5 46,-192.5 277,-192.5 277,-162.5 46,-162.5"/>
<text text-anchor="start" x="53" y="-173.9" font-family="Arial" font-size="14.00" fill="#000000">guid    </text>
<text text-anchor="start" x="113.6592" y="-173.9" font-family="Arial" font-size="14.00" fill="#666666">[varchar(255)]</text>
<polygon fill="none" stroke="#000000" points="46,-132.5 46,-162.5 277,-162.5 277,-132.5 46,-132.5"/>
<text text-anchor="start" x="52.9804" y="-143.9" font-family="Arial" font-size="14.00" fill="#000000">language_code    </text>
<text text-anchor="start" x="182.9004" y="-143.9" font-family="Arial" font-size="14.00" fill="#666666">[varchar(255)]</text>
<polygon fill="none" stroke="#000000" points="46,-102.5 46,-132.5 277,-132.5 277,-102.5 46,-102.5"/>
<text text-anchor="start" x="53" y="-113.9" font-family="Arial" font-size="14.00" fill="#000000">categories    </text>
<text text-anchor="start" x="151.7756" y="-113.9" font-family="Arial" font-size="14.00" fill="#666666">[longtext]</text>
<polygon fill="none" stroke="#000000" points="46,-72.5 46,-102.5 277,-102.5 277,-72.5 46,-72.5"/>
<text text-anchor="start" x="53" y="-83.9" font-family="Arial" font-size="14.00" fill="#000000">keywords    </text>
<text text-anchor="start" x="146.3198" y="-83.9" font-family="Arial" font-size="14.00" fill="#666666">[longtext]</text>
<polygon fill="none" stroke="#000000" points="46,-42.5 46,-72.5 277,-72.5 277,-42.5 46,-42.5"/>
<text text-anchor="start" x="53" y="-53.9" font-family="Arial" font-size="14.00" fill="#000000">status    </text>
<text text-anchor="start" x="124.5512" y="-53.9" font-family="Arial" font-size="14.00" fill="#666666">[longtext]</text>
</g>
<!-- season&#45;&gt;podcast -->
<g id="edge3" class="edge">
<title>season:podcast_id&#45;&gt;podcast:id</title>
<path fill="none" stroke="#000000" d="M214.8594,-967.1245C95.2121,-957.9363 164.6503,-782.1815 225,-667 238.0456,-642.1015 263.9544,-655.8985 277,-631 296.2862,-594.1909 318.5556,-537.5 277,-537.5"/>
<polygon fill="#000000" stroke="#000000" points="215.0068,-967.1299 224.8334,-971.9969 220.0034,-967.3149 225,-967.5 225,-967.5 225,-967.5 220.0034,-967.3149 225.1666,-963.0031 215.0068,-967.1299 215.0068,-967.1299"/>
</g>
<!-- publisher -->
<g id="node5" class="node">
<title>publisher</title>
<polygon fill="#efefef" stroke="transparent" points="381,-417.5 381,-452.5 595,-452.5 595,-417.5 381,-417.5"/>
<polygon fill="none" stroke="#000000" points="381,-417.5 381,-452.5 595,-452.5 595,-417.5 381,-417.5"/>
<text text-anchor="start" x="387.7102" y="-430.3" font-family="Arial Bold" font-size="18.00" fill="#000000">publisher</text>
<text text-anchor="start" x="460.7218" y="-430.3" font-family="Arial" font-size="14.00" fill="#000000">    </text>
<text text-anchor="start" x="494.9266" y="-430.3" font-family="Arial" font-size="14.00" fill="#666666">[BASE TABLE]</text>
<polygon fill="none" stroke="#000000" points="381,-387.5 381,-417.5 595,-417.5 595,-387.5 381,-387.5"/>
<text text-anchor="start" x="388" y="-398.9" font-family="Arial" font-size="14.00" fill="#000000">id    </text>
<text text-anchor="start" x="433.094" y="-398.9" font-family="Arial" font-size="14.00" fill="#666666">[int(11)]</text>
<polygon fill="none" stroke="#000000" points="381,-357.5 381,-387.5 595,-387.5 595,-357.5 381,-357.5"/>
<text text-anchor="start" x="388" y="-368.9" font-family="Arial" font-size="14.00" fill="#000000">name    </text>
<text text-anchor="start" x="457.2132" y="-368.9" font-family="Arial" font-size="14.00" fill="#666666">[varchar(255)]</text>
<polygon fill="none" stroke="#000000" points="381,-327.5 381,-357.5 595,-357.5 595,-327.5 381,-327.5"/>
<text text-anchor="start" x="388" y="-338.9" font-family="Arial" font-size="14.00" fill="#000000">location    </text>
<text text-anchor="start" x="470.439" y="-338.9" font-family="Arial" font-size="14.00" fill="#666666">[varchar(255)]</text>
<polygon fill="none" stroke="#000000" points="381,-297.5 381,-327.5 595,-327.5 595,-297.5 381,-297.5"/>
<text text-anchor="start" x="388" y="-308.9" font-family="Arial" font-size="14.00" fill="#000000">website    </text>
<text text-anchor="start" x="469.6564" y="-308.9" font-family="Arial" font-size="14.00" fill="#666666">[varchar(255)]</text>
<polygon fill="none" stroke="#000000" points="381,-267.5 381,-297.5 595,-297.5 595,-267.5 381,-267.5"/>
<text text-anchor="start" x="388" y="-278.9" font-family="Arial" font-size="14.00" fill="#000000">description    </text>
<text text-anchor="start" x="489.8822" y="-278.9" font-family="Arial" font-size="14.00" fill="#666666">[longtext]</text>
<polygon fill="none" stroke="#000000" points="381,-237.5 381,-267.5 595,-267.5 595,-237.5 381,-237.5"/>
<text text-anchor="start" x="388" y="-248.9" font-family="Arial" font-size="14.00" fill="#000000">contact    </text>
<text text-anchor="start" x="467.3338" y="-248.9" font-family="Arial" font-size="14.00" fill="#666666">[longtext]</text>
<polygon fill="none" stroke="#000000" points="381,-207.5 381,-237.5 595,-237.5 595,-207.5 381,-207.5"/>
<text text-anchor="start" x="388" y="-218.9" font-family="Arial" font-size="14.00" fill="#000000">created    </text>
<text text-anchor="start" x="468.8864" y="-218.9" font-family="Arial" font-size="14.00" fill="#666666">[datetime]</text>
<polygon fill="none" stroke="#000000" points="381,-177.5 381,-207.5 595,-207.5 595,-177.5 381,-177.5"/>
<text text-anchor="start" x="388" y="-188.9" font-family="Arial" font-size="14.00" fill="#000000">updated    </text>
<text text-anchor="start" x="472.791" y="-188.9" font-family="Arial" font-size="14.00" fill="#666666">[datetime]</text>
</g>
<!-- season&#45;&gt;publisher -->
<g id="edge4" class="edge">
<title>season:publisher_id&#45;&gt;publisher:id</title>
<path fill="none" stroke="#000000" d="M434.017,-937.2737C613.6187,-928.8726 404.7973,-688.2177 381,-496 375.8942,-454.7593 339.4444,-402.5 381,-402.5"/>
<polygon fill="#000000" stroke="#000000" points="433.9974,-937.2741 423.8983,-933.0011 428.9987,-937.387 424,-937.5 424,-937.5 424,-937.5 428.9987,-937.387 424.1017,-941.9989 433.9974,-937.2741 433.9974,-937.2741"/>
</g>
<!-- contribution -->
<g id="node2" class="node">
<title>contribution</title>
<polygon fill="#efefef" stroke="transparent" points="43,-1577.5 43,-1612.5 277,-1612.5 277,-1577.5 43,-1577.5"/>
<polygon fill="none" stroke="#000000" points="43,-1577.5 43,-1612.5 277,-1612.5 277,-1577.5 43,-1577.5"/>
<text text-anchor="start" x="49.7049" y="-1590.3" font-family="Arial Bold" font-size="18.00" fill="#000000">contribution</text>
<text text-anchor="start" x="142.7271" y="-1590.3" font-family="Arial" font-size="14.00" fill="#000000">    </text>
<text text-anchor="start" x="176.9319" y="-1590.3" font-family="Arial" font-size="14.00" fill="#666666">[BASE TABLE]</text>
<polygon fill="none" stroke="#000000" points="43,-1547.5 43,-1577.5 277,-1577.5 277,-1547.5 43,-1547.5"/>
<text text-anchor="start" x="50" y="-1558.9" font-family="Arial" font-size="14.00" fill="#000000">id    </text>
<text text-anchor="start" x="95.094" y="-1558.9" font-family="Arial" font-size="14.00" fill="#666666">[int(11)]</text>
<polygon fill="none" stroke="#000000" points="43,-1517.5 43,-1547.5 277,-1547.5 277,-1517.5 43,-1517.5"/>
<text text-anchor="start" x="50" y="-1528.9" font-family="Arial" font-size="14.00" fill="#000000">person_id    </text>
<text text-anchor="start" x="145.6676" y="-1528.9" font-family="Arial" font-size="14.00" fill="#666666">[int(11)]</text>
<polygon fill="none" stroke="#000000" points="43,-1487.5 43,-1517.5 277,-1517.5 277,-1487.5 43,-1487.5"/>
<text text-anchor="start" x="50" y="-1498.9" font-family="Arial" font-size="14.00" fill="#000000">contributor_role_id    </text>
<text text-anchor="start" x="200.1136" y="-1498.9" font-family="Arial" font-size="14.00" fill="#666666">[int(11)]</text>
<polygon fill="none" stroke="#000000" points="43,-1457.5 43,-1487.5 277,-1487.5 277,-1457.5 43,-1457.5"/>
<text text-anchor="start" x="50" y="-1468.9" font-family="Arial" font-size="14.00" fill="#000000">podcast_id    </text>
<text text-anchor="start" x="151.8976" y="-1468.9" font-family="Arial" font-size="14.00" fill="#666666">[int(11)]</text>
<polygon fill="none" stroke="#000000" points="43,-1427.5 43,-1457.5 277,-1457.5 277,-1427.5 43,-1427.5"/>
<text text-anchor="start" x="50" y="-1438.9" font-family="Arial" font-size="14.00" fill="#000000">season_id    </text>
<text text-anchor="start" x="148.007" y="-1438.9" font-family="Arial" font-size="14.00" fill="#666666">[int(11)]</text>
<polygon fill="none" stroke="#000000" points="43,-1397.5 43,-1427.5 277,-1427.5 277,-1397.5 43,-1397.5"/>
<text text-anchor="start" x="50" y="-1408.9" font-family="Arial" font-size="14.00" fill="#000000">episode_id    </text>
<text text-anchor="start" x="151.8962" y="-1408.9" font-family="Arial" font-size="14.00" fill="#666666">[int(11)]</text>
<polygon fill="none" stroke="#000000" points="43,-1367.5 43,-1397.5 277,-1397.5 277,-1367.5 43,-1367.5"/>
<text text-anchor="start" x="50" y="-1378.9" font-family="Arial" font-size="14.00" fill="#000000">created    </text>
<text text-anchor="start" x="130.8864" y="-1378.9" font-family="Arial" font-size="14.00" fill="#666666">[datetime]</text>
<polygon fill="none" stroke="#000000" points="43,-1337.5 43,-1367.5 277,-1367.5 277,-1337.5 43,-1337.5"/>
<text text-anchor="start" x="50" y="-1348.9" font-family="Arial" font-size="14.00" fill="#000000">updated    </text>
<text text-anchor="start" x="134.791" y="-1348.9" font-family="Arial" font-size="14.00" fill="#666666">[datetime]</text>
</g>
<!-- contribution&#45;&gt;season -->
<g id="edge1" class="edge">
<title>contribution:season_id&#45;&gt;season:id</title>
<path fill="none" stroke="#000000" d="M286.8465,-1439.9557C332.5693,-1412.1801 234.0326,-1164.9787 225,-1094 219.5857,-1051.4542 182.1111,-997.5 225,-997.5"/>
<polygon fill="#000000" stroke="#000000" points="286.682,-1439.9981 275.8741,-1438.1431 281.841,-1441.249 277,-1442.5 277,-1442.5 277,-1442.5 281.841,-1441.249 278.1259,-1446.8569 286.682,-1439.9981 286.682,-1439.9981"/>
</g>
<!-- episode -->
<g id="node3" class="node">
<title>episode</title>
<polygon fill="#efefef" stroke="transparent" points="381,-1742.5 381,-1777.5 599,-1777.5 599,-1742.5 381,-1742.5"/>
<polygon fill="none" stroke="#000000" points="381,-1742.5 381,-1777.5 599,-1777.5 599,-1742.5 381,-1742.5"/>
<text text-anchor="start" x="394.7034" y="-1755.3" font-family="Arial Bold" font-size="18.00" fill="#000000">episode</text>
<text text-anchor="start" x="457.7286" y="-1755.3" font-family="Arial" font-size="14.00" fill="#000000">    </text>
<text text-anchor="start" x="491.9334" y="-1755.3" font-family="Arial" font-size="14.00" fill="#666666">[BASE TABLE]</text>
<polygon fill="none" stroke="#000000" points="381,-1712.5 381,-1742.5 599,-1742.5 599,-1712.5 381,-1712.5"/>
<text text-anchor="start" x="388" y="-1723.9" font-family="Arial" font-size="14.00" fill="#000000">id    </text>
<text text-anchor="start" x="433.094" y="-1723.9" font-family="Arial" font-size="14.00" fill="#666666">[int(11)]</text>
<polygon fill="none" stroke="#000000" points="381,-1682.5 381,-1712.5 599,-1712.5 599,-1682.5 381,-1682.5"/>
<text text-anchor="start" x="388" y="-1693.9" font-family="Arial" font-size="14.00" fill="#000000">season_id    </text>
<text text-anchor="start" x="486.007" y="-1693.9" font-family="Arial" font-size="14.00" fill="#666666">[int(11)]</text>
<polygon fill="none" stroke="#000000" points="381,-1652.5 381,-1682.5 599,-1682.5 599,-1652.5 381,-1652.5"/>
<text text-anchor="start" x="388" y="-1663.9" font-family="Arial" font-size="14.00" fill="#000000">podcast_id    </text>
<text text-anchor="start" x="489.8976" y="-1663.9" font-family="Arial" font-size="14.00" fill="#666666">[int(11)]</text>
<polygon fill="none" stroke="#000000" points="381,-1622.5 381,-1652.5 599,-1652.5 599,-1622.5 381,-1622.5"/>
<text text-anchor="start" x="388" y="-1633.9" font-family="Arial" font-size="14.00" fill="#000000">number    </text>
<text text-anchor="start" x="469.6564" y="-1633.9" font-family="Arial" font-size="14.00" fill="#666666">[int(11)]</text>
<polygon fill="none" stroke="#000000" points="381,-1592.5 381,-1622.5 599,-1622.5 599,-1592.5 381,-1592.5"/>
<text text-anchor="start" x="388" y="-1603.9" font-family="Arial" font-size="14.00" fill="#000000">date    </text>
<text text-anchor="start" x="449.4432" y="-1603.9" font-family="Arial" font-size="14.00" fill="#666666">[date]</text>
<polygon fill="none" stroke="#000000" points="381,-1562.5 381,-1592.5 599,-1592.5 599,-1562.5 381,-1562.5"/>
<text text-anchor="start" x="388" y="-1573.9" font-family="Arial" font-size="14.00" fill="#000000">run_time    </text>
<text text-anchor="start" x="476.6536" y="-1573.9" font-family="Arial" font-size="14.00" fill="#666666">[varchar(9)]</text>
<polygon fill="none" stroke="#000000" points="381,-1532.5 381,-1562.5 599,-1562.5 599,-1532.5 381,-1532.5"/>
<text text-anchor="start" x="388" y="-1543.9" font-family="Arial" font-size="14.00" fill="#000000">title    </text>
<text text-anchor="start" x="443.9818" y="-1543.9" font-family="Arial" font-size="14.00" fill="#666666">[varchar(255)]</text>
<polygon fill="none" stroke="#000000" points="381,-1502.5 381,-1532.5 599,-1532.5 599,-1502.5 381,-1502.5"/>
<text text-anchor="start" x="388" y="-1513.9" font-family="Arial" font-size="14.00" fill="#000000">sub_title    </text>
<text text-anchor="start" x="474.3296" y="-1513.9" font-family="Arial" font-size="14.00" fill="#666666">[varchar(255)]</text>
<polygon fill="none" stroke="#000000" points="381,-1472.5 381,-1502.5 599,-1502.5 599,-1472.5 381,-1472.5"/>
<text text-anchor="start" x="388" y="-1483.9" font-family="Arial" font-size="14.00" fill="#000000">bibliography    </text>
<text text-anchor="start" x="497.6634" y="-1483.9" font-family="Arial" font-size="14.00" fill="#666666">[longtext]</text>
<polygon fill="none" stroke="#000000" points="381,-1442.5 381,-1472.5 599,-1472.5 599,-1442.5 381,-1442.5"/>
<text text-anchor="start" x="388" y="-1453.9" font-family="Arial" font-size="14.00" fill="#000000">transcript    </text>
<text text-anchor="start" x="479.7616" y="-1453.9" font-family="Arial" font-size="14.00" fill="#666666">[longtext]</text>
<polygon fill="none" stroke="#000000" points="381,-1412.5 381,-1442.5 599,-1442.5 599,-1412.5 381,-1412.5"/>
<text text-anchor="start" x="388" y="-1423.9" font-family="Arial" font-size="14.00" fill="#000000">description    </text>
<text text-anchor="start" x="489.8822" y="-1423.9" font-family="Arial" font-size="14.00" fill="#666666">[longtext]</text>
<polygon fill="none" stroke="#000000" points="381,-1382.5 381,-1412.5 599,-1412.5 599,-1382.5 381,-1382.5"/>
<text text-anchor="start" x="388" y="-1393.9" font-family="Arial" font-size="14.00" fill="#000000">created    </text>
<text text-anchor="start" x="468.8864" y="-1393.9" font-family="Arial" font-size="14.00" fill="#666666">[datetime]</text>
<polygon fill="none" stroke="#000000" points="381,-1352.5 381,-1382.5 599,-1382.5 599,-1352.5 381,-1352.5"/>
<text text-anchor="start" x="388" y="-1363.9" font-family="Arial" font-size="14.00" fill="#000000">updated    </text>
<text text-anchor="start" x="472.791" y="-1363.9" font-family="Arial" font-size="14.00" fill="#666666">[datetime]</text>
<polygon fill="none" stroke="#000000" points="381,-1322.5 381,-1352.5 599,-1352.5 599,-1322.5 381,-1322.5"/>
<text text-anchor="start" x="388" y="-1333.9" font-family="Arial" font-size="14.00" fill="#000000">keywords    </text>
<text text-anchor="start" x="481.3198" y="-1333.9" font-family="Arial" font-size="14.00" fill="#666666">[longtext]</text>
<polygon fill="none" stroke="#000000" points="381,-1292.5 381,-1322.5 599,-1322.5 599,-1292.5 381,-1292.5"/>
<text text-anchor="start" x="388" y="-1303.9" font-family="Arial" font-size="14.00" fill="#000000">permissions    </text>
<text text-anchor="start" x="496.8696" y="-1303.9" font-family="Arial" font-size="14.00" fill="#666666">[longtext]</text>
<polygon fill="none" stroke="#000000" points="381,-1262.5 381,-1292.5 599,-1292.5 599,-1262.5 381,-1262.5"/>
<text text-anchor="start" x="388" y="-1273.9" font-family="Arial" font-size="14.00" fill="#000000">guid    </text>
<text text-anchor="start" x="448.6592" y="-1273.9" font-family="Arial" font-size="14.00" fill="#666666">[varchar(255)]</text>
<polygon fill="none" stroke="#000000" points="381,-1232.5 381,-1262.5 599,-1262.5 599,-1232.5 381,-1232.5"/>
<text text-anchor="start" x="387.709" y="-1243.9" font-family="Arial" font-size="14.00" fill="#000000">episode_type    </text>
<text text-anchor="start" x="505.1718" y="-1243.9" font-family="Arial" font-size="14.00" fill="#666666">[varchar(255)]</text>
<polygon fill="none" stroke="#000000" points="381,-1202.5 381,-1232.5 599,-1232.5 599,-1202.5 381,-1202.5"/>
<text text-anchor="start" x="388" y="-1213.9" font-family="Arial" font-size="14.00" fill="#000000">explicit    </text>
<text text-anchor="start" x="464.9804" y="-1213.9" font-family="Arial" font-size="14.00" fill="#666666">[tinyint(1)]</text>
<polygon fill="none" stroke="#000000" points="381,-1172.5 381,-1202.5 599,-1202.5 599,-1172.5 381,-1172.5"/>
<text text-anchor="start" x="388" y="-1183.9" font-family="Arial" font-size="14.00" fill="#000000">status    </text>
<text text-anchor="start" x="459.5512" y="-1183.9" font-family="Arial" font-size="14.00" fill="#666666">[longtext]</text>
</g>
<!-- episode&#45;&gt;season -->
<g id="edge2" class="edge">
<title>episode:season_id&#45;&gt;season:id</title>
<path fill="none" stroke="#000000" d="M371.8379,-1693.3835C321.754,-1644.9326 355.7268,-1184.1201 381,-1130 391.5461,-1107.4165 413.4539,-1116.5835 424,-1094 442.1472,-1055.1395 466.8889,-997.5 424,-997.5"/>
<polygon fill="#000000" stroke="#000000" points="371.8784,-1693.4016 379.1557,-1701.6047 376.4392,-1695.4508 381,-1697.5 381,-1697.5 381,-1697.5 376.4392,-1695.4508 382.8443,-1693.3953 371.8784,-1693.4016 371.8784,-1693.4016"/>
</g>
</g>
</svg>
